<?xml version="1.0" standalone="no"?>
<!DOCTYPE svg PUBLIC "-//W3C//DTD SVG 1.1//EN" "http://www.w3.org/Graphics/SVG/1.1/DTD/svg11.dtd" >
<svg xmlns="http://www.w3.org/2000/svg" xmlns:xlink="http://www.w3.org/1999/xlink" version="1.1">
<metadata>
Created by FontForge 20170731 at Sat Apr 29 09:38:44 2023
 By Aleksey,,,
Copyright (c) 2015-2019 by Typetype. Designers Yulia Gonina and Ivan Gladkikh, technical designers Kseniya Karataeva, Anna Tikhonova, Nadyr Rakhimov, Maria Mizeritskaya. New remastered version created in 2019 by Yulia Gonina. All rights reserved. For font testing only. Special version for DaFont.
</metadata>
<defs>
<font id="TTChocolates-Light" horiz-adv-x="1046" >
  <font-face 
    font-family="TT Chocolates Trl Light"
    font-weight="300"
    font-stretch="normal"
    units-per-em="2048"
    panose-1="2 0 5 3 3 0 0 2 0 3"
    ascent="1638"
    descent="-410"
    x-height="942"
    cap-height="1372"
    bbox="-860 -514 2945 1989"
    underline-thickness="40"
    underline-position="-347"
    unicode-range="U+000D-FB06"
  />
<missing-glyph horiz-adv-x="0" 
 />
    <glyph glyph-name="ff" unicode="ff" horiz-adv-x="1140" 
d="M225 0v852h-143v90h143v248q0 120 64.5 191t173.5 71q120 0 199 -88l-64 -72q-55 66 -137 66q-65 0 -100 -42.5t-35 -125.5v-248h419v248q0 120 65.5 192t172.5 72q118 0 199 -90l-62 -72q-60 68 -139 68q-65 0 -100 -43.5t-35 -126.5v-248h274v-90h-274v-852h-101v852
h-419v-852h-101z" />
    <glyph glyph-name="fi" unicode="fi" horiz-adv-x="968" 
d="M225 0v852h-143v90h143v172q0 152 88 246t228 94q78 0 148 -31t116 -86l-66 -71q-76 94 -200 94q-97 0 -155 -66.5t-58 -179.5v-172h499v-942h-100v852h-399v-852h-101z" />
    <glyph glyph-name="fl" unicode="fl" horiz-adv-x="978" 
d="M225 0v852h-143v90h143v191q0 142 83.5 231.5t215.5 89.5t216.5 -90t84.5 -231v-1133h-100v1133q0 104 -55 165.5t-146 61.5q-90 0 -144 -61.5t-54 -165.5v-191h254v-90h-254v-852h-101z" />
    <glyph glyph-name="ffi" unicode="ffi" horiz-adv-x="1490" 
d="M225 0v852h-143v90h143v248q0 120 64.5 192t173.5 72q118 0 199 -90l-64 -72q-57 68 -137 68q-65 0 -100 -43.5t-35 -126.5v-248h419v172q0 152 88 246t228 94q79 0 149 -30.5t117 -86.5l-67 -71q-73 94 -199 94q-99 0 -157 -66t-58 -180v-172h502v-942h-101v852h-401
v-852h-101v852h-419v-852h-101z" />
    <glyph glyph-name="ffl" unicode="ffl" horiz-adv-x="1488" 
d="M225 0v852h-143v90h143v248q0 120 64.5 192t173.5 72q118 0 199 -90l-64 -72q-57 68 -137 68q-65 0 -100 -43.5t-35 -126.5v-248h407v191q0 142 84.5 231.5t216.5 89.5t216.5 -90t84.5 -231v-1133h-100v1133q0 104 -55 165.5t-146 61.5t-145.5 -61.5t-54.5 -165.5v-191
h256v-90h-256v-852h-101v852h-407v-852h-101z" />
    <glyph glyph-name="f_f_j" unicode="ffj" horiz-adv-x="1490" 
d="M1133 -512q-99 0 -166 78l61 72q46 -56 107 -56q54 0 83 39.5t29 112.5v1118h-401v-852h-101v852h-419v-852h-101v852h-143v90h143v248q0 120 64.5 192t173.5 72q118 0 199 -90l-64 -72q-57 68 -137 68q-65 0 -100 -43.5t-35 -126.5v-248h419v172q0 152 88 246t228 94
q79 0 149 -30.5t117 -86.5l-67 -71q-73 94 -199 94q-99 0 -157 -66t-58 -180v-172h502v-1206q0 -114 -57.5 -181t-157.5 -67z" />
    <glyph glyph-name="f_j" unicode="fj" horiz-adv-x="968" 
d="M610 -512q-96 0 -166 78l64 72q46 -56 104 -56q55 0 84 39t29 113v1118h-399v-852h-101v852h-143v90h143v172q0 152 88 246t228 94q78 0 148 -31t116 -86l-66 -71q-76 94 -200 94q-97 0 -155 -66.5t-58 -179.5v-172h499v-1206q0 -114 -57.5 -181t-157.5 -67z" />
    <glyph glyph-name=".notdef" horiz-adv-x="0" 
 />
    <glyph glyph-name=".null" horiz-adv-x="0" 
 />
    <glyph glyph-name=".null" horiz-adv-x="0" 
 />
    <glyph glyph-name="nonmarkingreturn" horiz-adv-x="682" 
 />
    <glyph glyph-name="CR" unicode="&#xd;" horiz-adv-x="0" 
 />
    <glyph glyph-name="space" unicode=" " horiz-adv-x="450" 
 />
    <glyph glyph-name="exclam" unicode="!" horiz-adv-x="450" 
d="M223 -10q-34 0 -57 23.5t-23 58.5t23.5 58.5t58.5 23.5q34 0 58 -23.5t24 -58.5t-24.5 -58.5t-59.5 -23.5zM186 315l-24 1057h125l-25 -1057h-76z" />
    <glyph glyph-name="quotedbl" unicode="&#x22;" horiz-adv-x="573" 
d="M133 958l-20 414h110l-20 -414h-70zM371 958l-21 414h111l-21 -414h-69z" />
    <glyph glyph-name="numbersign" unicode="#" horiz-adv-x="1314" 
d="M199 0l104 381h-252l25 90h252l116 430h-251l24 90h252l102 381h101l-105 -381h344l103 381h100l-102 -381h252l-25 -90h-252l-117 -430h252l-24 -90h-252l-105 -381h-100l104 381h-342l-104 -381h-100zM426 471h344l117 430h-342z" />
    <glyph glyph-name="dollar" unicode="$" horiz-adv-x="1007" 
d="M461 -219v201q-122 11 -223.5 76t-165.5 175l82 64q135 -217 352 -217q129 0 211 75t82 193q0 103 -70.5 176.5t-222.5 130.5q-180 67 -265 163.5t-85 228.5q0 142 85.5 234.5t225.5 107.5v202h106v-205q188 -21 310 -198l-82 -62q-115 164 -285 164q-116 0 -185 -66
t-69 -171q0 -98 68.5 -170t216.5 -129q184 -70 271 -168t87 -232q0 -147 -93 -248.5t-243 -121.5v-203h-108z" />
    <glyph glyph-name="percent" unicode="%" horiz-adv-x="1476" 
d="M328 0l692 1372h106l-694 -1372h-104zM350 811q-121 0 -205 84.5t-84 204.5q0 123 83.5 207t205.5 84t206.5 -84.5t84.5 -206.5q0 -120 -85 -204.5t-206 -84.5zM350 901q83 0 138 57t55 142q0 86 -55 143t-138 57q-82 0 -136 -57t-54 -143q0 -85 54 -142t136 -57z
M1124 -18q-121 0 -204.5 84t-83.5 204q0 123 83 207t205 84t206.5 -84.5t84.5 -206.5q0 -120 -85 -204t-206 -84zM1124 72q83 0 138 56.5t55 141.5q0 86 -55 143.5t-138 57.5q-82 0 -136 -57.5t-54 -143.5q0 -85 54 -141.5t136 -56.5z" />
    <glyph glyph-name="ampersand" unicode="&#x26;" horiz-adv-x="1398" 
d="M524 -18q-178 0 -294.5 108t-116.5 272q0 142 92.5 255.5t251.5 170.5q-84 101 -120 172t-36 144q0 124 83.5 205.5t209.5 81.5q129 0 213 -85t84 -214h-105q0 91 -52.5 147.5t-139.5 56.5q-85 0 -136.5 -51.5t-51.5 -136.5q0 -60 31.5 -119.5t107.5 -148.5l418 -478
q124 218 124 519h271v-95h-178q-21 -283 -154 -497l207 -238l-76 -67l-192 221q-188 -223 -441 -223zM530 78q221 0 375 196l-385 445q-143 -46 -223 -138t-80 -214q0 -129 86 -209t227 -80z" />
    <glyph glyph-name="quotesingle" unicode="'" horiz-adv-x="335" 
d="M133 958l-20 414h110l-20 -414h-70z" />
    <glyph glyph-name="parenleft" unicode="(" horiz-adv-x="720" 
d="M600 -440q-200 179 -313 434t-113 526q0 273 113 529t313 436l70 -64q-183 -170 -287 -406.5t-104 -492.5q0 -255 103.5 -490t287.5 -409z" />
    <glyph glyph-name="parenright" unicode=")" horiz-adv-x="720" 
d="M121 -440l-70 63q184 174 287.5 409t103.5 490q0 256 -104 492.5t-287 406.5l70 64q200 -180 313 -436t113 -529q0 -271 -113 -526t-313 -434z" />
    <glyph glyph-name="asterisk" unicode="*" horiz-adv-x="671" 
d="M221 907l-59 43l114 158l-184 59l21 70l186 -59v194h74v-194l184 61l23 -70l-187 -61l115 -158l-59 -43l-115 158z" />
    <glyph glyph-name="plus" unicode="+" horiz-adv-x="888" 
d="M395 279v337h-334v99h334v329h99v-329h333v-99h-333v-337h-99z" />
    <glyph glyph-name="comma" unicode="," horiz-adv-x="458" 
d="M141 -303l-59 22l125 441l119 -43z" />
    <glyph glyph-name="hyphen" unicode="-" horiz-adv-x="622" 
d="M92 479v107h438v-107h-438z" />
    <glyph glyph-name="period" unicode="." horiz-adv-x="450" 
d="M223 -10q-34 0 -57 23.5t-23 58.5t23.5 58.5t58.5 23.5q34 0 58 -23.5t24 -58.5t-24.5 -58.5t-59.5 -23.5z" />
    <glyph glyph-name="slash" unicode="/" horiz-adv-x="739" 
d="M0 -246l631 1618h108l-633 -1618h-106z" />
    <glyph glyph-name="zero" unicode="0" horiz-adv-x="1198" 
d="M600 -18q-215 0 -346 193.5t-131 510.5t131 511t346 194t345 -194t130 -511t-130 -510.5t-345 -193.5zM600 86q168 0 265.5 161t97.5 439t-97.5 439t-265.5 161q-169 0 -266.5 -161t-97.5 -439q0 -279 97.5 -439.5t266.5 -160.5z" />
    <glyph glyph-name="one" unicode="1" horiz-adv-x="634" 
d="M324 0v1233l-203 -154l-60 80l334 254h35v-1413h-106z" />
    <glyph glyph-name="two" unicode="2" horiz-adv-x="1085" 
d="M143 0v104q0 83 25 152.5t78 131.5t119 114t163 112q169 106 244.5 193.5t75.5 202.5q0 125 -78 200.5t-207 75.5q-125 0 -205.5 -76t-111.5 -225l-101 14q25 182 138 287t282 105q174 0 285 -106t111 -271q0 -75 -24 -139.5t-76 -123.5t-116.5 -109t-160.5 -112
q-112 -70 -181 -132t-108 -137t-39 -163h707v-98h-820z" />
    <glyph glyph-name="three" unicode="3" horiz-adv-x="1064" 
d="M504 -18q-142 0 -253.5 73t-178.5 213l90 54q113 -242 346 -242q145 0 233 87t88 226q0 147 -102 232.5t-278 85.5h-136v34l443 527h-580v100h758v-37l-442 -524q201 -6 325.5 -120.5t124.5 -293.5q0 -180 -124 -297.5t-314 -117.5z" />
    <glyph glyph-name="four" unicode="4" horiz-adv-x="1044" 
d="M680 0v303h-639v35l704 1075h35v-1012h183v-98h-183v-303h-100zM193 401h487v742z" />
    <glyph glyph-name="five" unicode="5" horiz-adv-x="1064" 
d="M500 -18q-140 0 -250.5 73t-177.5 213l90 54q113 -242 342 -242q147 0 239.5 95.5t92.5 250.5q0 150 -90.5 244t-233.5 94q-80 0 -154.5 -29.5t-121.5 -81.5l-35 21l118 698h596v-100h-512l-77 -453q92 43 198 43q181 0 299.5 -123t118.5 -313q0 -193 -125 -318.5
t-317 -125.5z" />
    <glyph glyph-name="six" unicode="6" horiz-adv-x="1085" 
d="M539 -18q-194 0 -315.5 132t-121.5 345q0 242 162 498.5t451 455.5l65 -80q-180 -121 -310.5 -272t-203.5 -318q116 125 291 125q183 0 309.5 -127t126.5 -313q0 -188 -130.5 -317t-323.5 -129zM549 80q144 0 238 99t94 247t-94 246t-238 98t-239 -98t-95 -246t95 -247
t239 -99z" />
    <glyph glyph-name="seven" unicode="7" horiz-adv-x="1009" 
d="M215 0l578 1272h-670v100h815v-35l-610 -1337h-113z" />
    <glyph glyph-name="eight" unicode="8" horiz-adv-x="1126" 
d="M563 -18q-192 0 -316 113.5t-124 283.5q0 123 70.5 219t193.5 139q-91 47 -141.5 126.5t-50.5 176.5q0 149 104.5 250t263.5 101q158 0 263.5 -101.5t105.5 -249.5q0 -98 -51 -176.5t-142 -126.5q123 -43 194 -139t71 -219q0 -169 -125.5 -283t-315.5 -114zM563 80
q147 0 240.5 85.5t93.5 217.5q0 133 -92.5 217t-241.5 84t-241.5 -84.5t-92.5 -216.5q0 -133 92 -218t242 -85zM563 782q116 0 189 71.5t73 182.5q0 113 -72.5 184.5t-189.5 71.5q-118 0 -190 -71.5t-72 -184.5q0 -111 72.5 -182.5t189.5 -71.5z" />
    <glyph glyph-name="nine" unicode="9" horiz-adv-x="1085" 
d="M371 -41l-66 80q180 121 310.5 272t203.5 318q-116 -125 -291 -125q-183 0 -309.5 127t-126.5 313q0 188 131 317.5t324 129.5q194 0 315 -132.5t121 -345.5q0 -241 -162 -497.5t-450 -456.5zM535 602q145 0 240 98t95 246t-95.5 247t-239.5 99q-142 0 -236 -99t-94 -247
t94 -246t236 -98z" />
    <glyph glyph-name="colon" unicode=":" horiz-adv-x="450" 
d="M223 -10q-34 0 -57 23.5t-23 58.5t23.5 58.5t58.5 23.5q34 0 58 -23.5t24 -58.5t-24.5 -58.5t-59.5 -23.5zM223 788q-34 0 -57 23.5t-23 58.5t23.5 58.5t58.5 23.5q34 0 58 -23.5t24 -58.5t-24.5 -58.5t-59.5 -23.5z" />
    <glyph glyph-name="semicolon" unicode=";" horiz-adv-x="462" 
d="M141 -303l-59 22l125 441l119 -43zM246 788q-34 0 -57 23.5t-23 58.5t23.5 58.5t58.5 23.5q34 0 58 -23.5t24 -58.5t-24.5 -58.5t-59.5 -23.5z" />
    <glyph glyph-name="less" unicode="&#x3c;" horiz-adv-x="886" 
d="M784 281l-723 335v101l723 336l41 -88l-645 -297l645 -301z" />
    <glyph glyph-name="equal" unicode="=" horiz-adv-x="888" 
d="M61 461v98h766v-98h-766zM61 772v98h766v-98h-766z" />
    <glyph glyph-name="greater" unicode="&#x3e;" horiz-adv-x="886" 
d="M102 281l-41 88l646 297l-646 301l41 86l723 -336v-101z" />
    <glyph glyph-name="question" unicode="?" horiz-adv-x="878" 
d="M516 328q-229 52 -229 225q0 72 42.5 130t151.5 138q113 80 157 138t44 122q0 94 -69 154.5t-179 60.5q-87 0 -155 -43.5t-125 -134.5l-82 66q63 100 158 153.5t210 53.5q151 0 248.5 -86t97.5 -222q0 -88 -50 -158.5t-177 -162.5q-98 -70 -133 -113.5t-35 -93.5
q0 -54 37 -86.5t119 -52.5zM424 -8q-34 0 -57 23.5t-23 58.5t23.5 58.5t58.5 23.5q34 0 58 -23.5t24 -58.5t-24.5 -58.5t-59.5 -23.5z" />
    <glyph glyph-name="at" unicode="@" horiz-adv-x="1859" 
d="M868 -297q-208 29 -371 140.5t-253 282.5t-90 372q0 163 61.5 308.5t167.5 249.5t253.5 165t313.5 61q162 0 306 -58t247 -158t163 -239.5t60 -296.5q0 -191 -84 -308.5t-219 -117.5q-84 0 -145.5 46t-85.5 120q-39 -74 -116.5 -120t-168.5 -46q-143 0 -241.5 109.5
t-98.5 267.5q0 159 99.5 267t246.5 108q81 0 150.5 -34.5t112.5 -96.5v104h96v-458q0 -78 42 -126t111 -48q92 0 146.5 89t54.5 238q0 189 -87.5 341.5t-242 238.5t-346.5 86q-147 0 -276 -52.5t-221 -144t-145.5 -219.5t-53.5 -274q0 -184 83 -337.5t228 -248.5t326 -115z
M924 199q112 0 187 81t75 201t-75 201.5t-187 81.5q-110 0 -183 -80.5t-73 -202.5q0 -121 73.5 -201.5t182.5 -80.5z" />
    <glyph glyph-name="A" unicode="A" horiz-adv-x="1236" 
d="M82 0l518 1413h37l518 -1413h-117l-141 393h-557l-141 -393h-117zM373 492h489l-244 679z" />
    <glyph glyph-name="B" unicode="B" horiz-adv-x="1101" 
d="M195 0v1372h284q188 0 309 -97t121 -247q0 -99 -56 -176.5t-155 -122.5q134 -39 212.5 -132t78.5 -218q0 -165 -131 -272t-336 -107h-327zM301 98h219q163 0 263 79t100 208q0 128 -100.5 207.5t-262.5 79.5h-219v-574zM301 770h178q145 0 234.5 70t89.5 184
q0 113 -89.5 181.5t-234.5 68.5h-178v-504z" />
    <glyph glyph-name="C" unicode="C" horiz-adv-x="1415" 
d="M795 -18q-145 0 -272 54.5t-216.5 148t-141.5 222.5t-52 273q0 196 92 359.5t250.5 257.5t347.5 94q145 0 276 -59.5t226 -164.5l-82 -67q-82 90 -191 138t-231 48q-121 0 -228 -46.5t-183.5 -126t-120.5 -191.5t-44 -238q0 -167 73.5 -303.5t206 -215.5t298.5 -79
q263 0 432 190l78 -65q-101 -112 -234.5 -170.5t-283.5 -58.5z" />
    <glyph glyph-name="D" unicode="D" horiz-adv-x="1478" 
d="M195 0v1372h428q211 0 381 -88.5t266 -245t96 -350.5q0 -196 -96 -353.5t-266 -246t-381 -88.5h-428zM301 98h322q273 0 451.5 167.5t178.5 422.5t-177.5 420.5t-452.5 165.5h-322v-1176z" />
    <glyph glyph-name="E" unicode="E" horiz-adv-x="1015" 
d="M195 0v1372h688v-98h-582v-514h449v-98h-449v-564h592v-98h-698z" />
    <glyph glyph-name="F" unicode="F" horiz-adv-x="952" 
d="M195 0v1372h675v-98h-569v-553h436v-98h-436v-623h-106z" />
    <glyph glyph-name="G" unicode="G" horiz-adv-x="1484" 
d="M799 -18q-190 0 -348 93.5t-248 254t-90 352.5q0 145 54.5 277t146 226.5t218.5 150t267 55.5q146 0 278.5 -59.5t227.5 -164.5l-82 -67q-82 89 -192 137.5t-232 48.5q-159 0 -290.5 -79t-207.5 -218t-76 -307q0 -166 73.5 -302t206 -215t298.5 -79q256 0 432 182v359
h-451v98h557v-483q-100 -124 -241 -192t-301 -68z" />
    <glyph glyph-name="H" unicode="H" horiz-adv-x="1388" 
d="M195 0v1372h106v-631h786v631h107v-1372h-107v643h-786v-643h-106z" />
    <glyph glyph-name="I" unicode="I" horiz-adv-x="495" 
d="M195 0v1372h106v-1372h-106z" />
    <glyph glyph-name="J" unicode="J" horiz-adv-x="878" 
d="M354 -20q-193 0 -303 180l84 67q91 -149 223 -149q107 0 168.5 79t61.5 216v901h-412v98h518v-999q0 -179 -92 -286t-248 -107z" />
    <glyph glyph-name="K" unicode="K" horiz-adv-x="1075" 
d="M195 0v1372h106v-643l592 643h137l-614 -665l628 -707h-145l-598 674v-674h-106z" />
    <glyph glyph-name="L" unicode="L" horiz-adv-x="964" 
d="M195 0v1372h106v-1274h571v-98h-677z" />
    <glyph glyph-name="M" unicode="M" horiz-adv-x="1673" 
d="M195 0v1413h34l609 -893l606 893h35v-1413h-107v1124l-518 -762h-35l-518 758v-1120h-106z" />
    <glyph glyph-name="N" unicode="N" horiz-adv-x="1478" 
d="M1245 -41l-944 1192v-1151h-106v1413h38l945 -1192v1151h106v-1413h-39z" />
    <glyph glyph-name="O" unicode="O" horiz-adv-x="1597" 
d="M799 -18q-186 0 -344 94t-250 256.5t-92 353.5q0 192 92 354.5t249.5 256.5t344.5 94q140 0 267.5 -55.5t219 -149.5t145.5 -224.5t54 -275.5q0 -143 -54 -273.5t-145.5 -225t-219 -150t-267.5 -55.5zM799 86q159 0 290.5 78.5t207 216.5t75.5 305t-75.5 305t-207 216.5
t-290.5 78.5t-290.5 -78.5t-207.5 -216.5t-76 -305t76 -305t207.5 -216.5t290.5 -78.5z" />
    <glyph glyph-name="P" unicode="P" horiz-adv-x="1060" 
d="M195 0v1372h307q206 0 336.5 -112t130.5 -289t-130.5 -288.5t-336.5 -111.5h-201v-571h-106zM301 670h199q163 0 262.5 82.5t99.5 218.5q0 135 -100 219t-262 84h-199v-604z" />
    <glyph glyph-name="Q" unicode="Q" horiz-adv-x="1597" 
d="M799 88q159 0 290.5 78t207 215.5t75.5 304.5t-75.5 305t-207 216.5t-290.5 78.5t-290.5 -78.5t-207.5 -216.5t-76 -305t76 -304.5t207.5 -215.5t290.5 -78zM1225 -360q-198 0 -331 95t-155 251q-174 15 -317.5 111.5t-226 252t-82.5 336.5q0 192 92 354.5t249.5 256.5
t344.5 94q140 0 267.5 -55.5t219 -149.5t145.5 -224.5t54 -275.5q0 -182 -83.5 -338.5t-229.5 -253.5t-322 -110q23 -109 127.5 -174.5t259.5 -65.5q118 0 193 18l16 -96q-94 -26 -221 -26z" />
    <glyph glyph-name="R" unicode="R" horiz-adv-x="1126" 
d="M195 0v1372h309q206 0 336.5 -110t130.5 -283q0 -143 -90.5 -245.5t-239.5 -133.5l403 -600h-126l-396 586h-221v-586h-106zM301 684h203q162 0 261 80.5t99 214.5q0 132 -99.5 213.5t-260.5 81.5h-203v-590z" />
    <glyph glyph-name="S" unicode="S" horiz-adv-x="1007" 
d="M504 -18q-134 0 -248 66t-184 185l82 64q135 -217 352 -217q129 0 211 75t82 193q0 103 -70.5 176.5t-222.5 130.5q-180 67 -265 163.5t-85 228.5q0 153 100 248.5t260 95.5q226 0 367 -203l-82 -62q-117 166 -285 166q-116 0 -185 -66.5t-69 -172.5q0 -98 68.5 -170
t216.5 -129q184 -70 271 -168t87 -232q0 -163 -113 -267.5t-288 -104.5z" />
    <glyph glyph-name="T" unicode="T" horiz-adv-x="1122" 
d="M508 0v1274h-457v98h1020v-98h-457v-1274h-106z" />
    <glyph glyph-name="U" unicode="U" horiz-adv-x="1353" 
d="M678 -18q-221 0 -357.5 156t-136.5 411v823h107v-813q0 -215 105 -344t280 -129t281 129t106 344v813h106v-823q0 -254 -135.5 -410.5t-355.5 -156.5z" />
    <glyph glyph-name="V" unicode="V" horiz-adv-x="1181" 
d="M573 -41l-501 1413h108l410 -1159l411 1159h109l-502 -1413h-35z" />
    <glyph glyph-name="W" unicode="W" horiz-adv-x="1933" 
d="M518 -41l-457 1413h111l369 -1143l407 1143h35l410 -1143l368 1143h111l-457 -1413h-35l-413 1159l-414 -1159h-35z" />
    <glyph glyph-name="X" unicode="X" horiz-adv-x="1130" 
d="M61 0l441 700l-414 672h127l358 -586l361 586h121l-420 -672l434 -700h-127l-377 612l-383 -612h-121z" />
    <glyph glyph-name="Y" unicode="Y" horiz-adv-x="1067" 
d="M477 0v543l-426 829h119l365 -710l368 710h113l-432 -829v-543h-107z" />
    <glyph glyph-name="Z" unicode="Z" horiz-adv-x="1196" 
d="M92 0v35l830 1239h-793v98h965v-35l-832 -1239h815v-98h-985z" />
    <glyph glyph-name="bracketleft" unicode="[" horiz-adv-x="634" 
d="M215 -430v1884h338v-92h-238v-1700h238v-92h-338z" />
    <glyph glyph-name="backslash" unicode="\" horiz-adv-x="739" 
d="M633 -246l-633 1618h109l630 -1618h-106z" />
    <glyph glyph-name="bracketright" unicode="]" horiz-adv-x="634" 
d="M82 -430v92h237v1700h-237v92h338v-1884h-338z" />
    <glyph glyph-name="asciicircum" unicode="^" horiz-adv-x="880" 
d="M176 819l-84 49l299 504h98l299 -504l-83 -49l-265 445z" />
    <glyph glyph-name="underscore" unicode="_" horiz-adv-x="593" 
d="M-41 -352v106h676v-106h-676z" />
    <glyph glyph-name="grave" unicode="`" horiz-adv-x="323" 
d="M248 1057l-228 243l82 70l201 -268z" />
    <glyph glyph-name="a" unicode="a" horiz-adv-x="983" 
d="M403 -18q-140 0 -230.5 81t-90.5 207q0 132 100 216.5t254 84.5q180 0 303 -102v98q0 136 -73 217.5t-193 81.5q-163 0 -258 -133l-74 64q66 78 154 121t184 43q160 0 260.5 -108t100.5 -278v-575h-101v174q-55 -92 -141.5 -142t-194.5 -50zM420 72q132 0 220 82.5
t97 214.5q-126 112 -301 112q-116 0 -185 -57t-69 -152q0 -91 64.5 -145.5t173.5 -54.5z" />
    <glyph glyph-name="b" unicode="b" horiz-adv-x="1163" 
d="M612 -18q-116 0 -209.5 55.5t-148.5 152.5v-190h-100v1454h100v-704q55 98 149 154.5t211 56.5q190 0 318.5 -141.5t128.5 -348.5t-128.5 -348t-320.5 -141zM600 76q155 0 255.5 112t100.5 283t-100.5 283t-253.5 112q-157 0 -257.5 -112.5t-100.5 -282.5
q0 -171 100 -283t256 -112z" />
    <glyph glyph-name="c" unicode="c" horiz-adv-x="1042" 
d="M584 -18q-204 0 -343 141t-139 348q0 135 62.5 247.5t172 177.5t241.5 65q109 0 206 -47.5t170 -133.5l-73 -63q-133 149 -306 149q-159 0 -263.5 -111.5t-104.5 -279.5q0 -173 109 -286t276 -113q175 0 303 143l66 -55q-149 -182 -377 -182z" />
    <glyph glyph-name="d" unicode="d" horiz-adv-x="1171" 
d="M553 -18q-192 0 -321.5 141t-129.5 348q0 208 130 349t323 141q118 0 212 -56t151 -155v704h100v-1454h-100v193q-57 -98 -152 -154.5t-213 -56.5zM565 76q158 0 259.5 112.5t101.5 282.5q0 171 -101 283t-258 112q-156 0 -258 -112t-102 -283q0 -170 101.5 -282.5
t256.5 -112.5z" />
    <glyph glyph-name="e" unicode="e" horiz-adv-x="1099" 
d="M586 -18q-212 0 -348 137t-136 350q0 211 130.5 351.5t328.5 140.5q192 0 319.5 -132t127.5 -333q0 -35 -4 -58h-797q10 -163 116 -262.5t267 -99.5q196 0 328 153l65 -55q-151 -192 -397 -192zM209 528h694q-10 152 -105 245t-237 93q-144 0 -240.5 -94t-111.5 -244z
" />
    <glyph glyph-name="f" unicode="f" horiz-adv-x="620" 
d="M225 0v852h-143v90h143v248q0 120 64.5 192t173.5 72q118 0 199 -90l-64 -72q-57 68 -137 68q-65 0 -100 -43.5t-35 -126.5v-248h272v-90h-272v-852h-101z" />
    <glyph glyph-name="g" unicode="g" horiz-adv-x="1052" 
d="M516 344q126 0 204.5 73.5t78.5 190.5t-78.5 190.5t-204.5 73.5t-204.5 -73.5t-78.5 -190.5q0 -116 79 -190t204 -74zM541 -422q156 0 248 59.5t92 159.5q0 99 -90 157t-246 58q-157 0 -249.5 -58.5t-92.5 -158.5t91.5 -158.5t246.5 -58.5zM541 -512q-196 0 -317.5 84
t-121.5 219q0 84 50 148t139 100q-152 41 -152 158q0 103 113 149q-119 103 -119 262q0 154 108.5 254.5t274.5 100.5q62 0 137 -21h328v-90h-182q100 -97 100 -244q0 -154 -108 -254t-275 -100q-104 0 -184 41q-44 -3 -71.5 -27t-27.5 -61q0 -49 50 -77t137 -28h153
q184 0 296 -82.5t112 -216.5q0 -141 -121.5 -228t-318.5 -87z" />
    <glyph glyph-name="h" unicode="h" horiz-adv-x="1050" 
d="M154 0v1454h100v-670q50 84 130 130.5t177 46.5q153 0 249.5 -108.5t96.5 -277.5v-575h-100v557q0 140 -73 226.5t-195 86.5q-124 0 -204.5 -89t-80.5 -224v-557h-100z" />
    <glyph glyph-name="i" unicode="i" horiz-adv-x="421" 
d="M162 0v942h100v-942h-100zM211 1149q-32 0 -55 23t-23 57q0 32 23 55t55 23t55 -23t23 -55q0 -34 -22 -57t-56 -23z" />
    <glyph glyph-name="j" unicode="j" horiz-adv-x="419" 
d="M45 -512q-98 0 -168 78l64 72q46 -56 106 -56q54 0 83.5 39.5t29.5 112.5v1208h100v-1206q0 -114 -58.5 -181t-156.5 -67zM209 1149q-32 0 -55 23t-23 57q0 32 23 55t55 23t55 -23t23 -55q0 -34 -22 -57t-56 -23z" />
    <glyph glyph-name="k" unicode="k" horiz-adv-x="860" 
d="M154 0v1454h100v-954l453 442h127l-469 -455l485 -487h-137l-459 461v-461h-100z" />
    <glyph glyph-name="l" unicode="l" horiz-adv-x="407" 
d="M154 0v1454h100v-1454h-100z" />
    <glyph glyph-name="m" unicode="m" horiz-adv-x="1693" 
d="M154 0v942h100v-158q50 84 128.5 130.5t174.5 46.5q107 0 190 -58t123 -158q45 99 133.5 157.5t196.5 58.5q155 0 252.5 -108.5t97.5 -277.5v-575h-100v557q0 140 -72.5 224.5t-193.5 84.5q-122 0 -201.5 -86.5t-79.5 -222.5v-557h-100v557q0 139 -73 224t-193 85
q-123 0 -203 -87t-80 -222v-557h-100z" />
    <glyph glyph-name="n" unicode="n" horiz-adv-x="1050" 
d="M154 0v942h100v-158q50 84 130 130.5t177 46.5q153 0 249.5 -108.5t96.5 -277.5v-575h-100v557q0 140 -72.5 224.5t-195.5 84.5q-125 0 -205 -87t-80 -222v-557h-100z" />
    <glyph glyph-name="o" unicode="o" horiz-adv-x="1155" 
d="M578 -18q-198 0 -337 142.5t-139 346.5q0 133 63.5 246t173 178.5t239.5 65.5q97 0 185 -39t151.5 -104.5t101 -156t37.5 -190.5q0 -204 -138.5 -346.5t-336.5 -142.5zM578 76q158 0 264 113.5t106 281.5q0 167 -106.5 281t-263.5 114t-264 -114t-107 -281
q0 -166 107 -280.5t264 -114.5z" />
    <glyph glyph-name="p" unicode="p" horiz-adv-x="1163" 
d="M600 76q155 0 255.5 112t100.5 283t-100.5 283t-253.5 112q-157 0 -257.5 -112.5t-100.5 -282.5q0 -171 100 -283t256 -112zM154 -512v1454h100v-192q55 98 149 154.5t211 56.5q190 0 318.5 -141.5t128.5 -348.5t-128.5 -348t-320.5 -141q-116 0 -209.5 55.5
t-148.5 152.5v-702h-100z" />
    <glyph glyph-name="q" unicode="q" horiz-adv-x="1165" 
d="M563 76q156 0 256.5 112.5t100.5 282.5q0 171 -100 283t-255 112q-156 0 -257 -112t-101 -283t100.5 -283t255.5 -112zM911 -512v705q-56 -98 -150.5 -154.5t-211.5 -56.5q-190 0 -318.5 141t-128.5 348q0 208 129 349t322 141q115 0 208 -56t150 -153v190h101v-1454
h-101z" />
    <glyph glyph-name="r" unicode="r" horiz-adv-x="616" 
d="M154 0v942h100v-149q46 80 117 124t157 44q23 0 58 -5l-21 -106q-24 6 -55 6q-115 0 -185.5 -81.5t-70.5 -215.5v-559h-100z" />
    <glyph glyph-name="s" unicode="s" horiz-adv-x="901" 
d="M469 -18q-122 0 -225 52.5t-172 151.5l75 62q123 -172 326 -172q104 0 170 45t66 121q0 67 -57.5 110.5t-188.5 77.5q-169 44 -248.5 112.5t-79.5 168.5q0 112 86.5 181t224.5 69q217 0 353 -164l-74 -62q-104 131 -281 131q-94 0 -151 -40t-57 -111q0 -66 57.5 -109.5
t189.5 -77.5q168 -44 247 -111.5t79 -168.5q0 -118 -94.5 -192t-245.5 -74z" />
    <glyph glyph-name="t" unicode="t" horiz-adv-x="704" 
d="M459 -18q-109 0 -171.5 69t-62.5 189v612h-143v90h143v238h101v-238h260v-90h-260v-608q0 -81 37.5 -124.5t105.5 -43.5q86 0 141 61l54 -61q-82 -94 -205 -94z" />
    <glyph glyph-name="u" unicode="u" 
d="M487 -18q-152 0 -248 108t-96 277v575h101v-557q0 -140 72 -224.5t192 -84.5q125 0 205 87t80 222v557h100v-942h-100v158q-51 -84 -130.5 -130t-175.5 -46z" />
    <glyph glyph-name="v" unicode="v" horiz-adv-x="923" 
d="M444 -41l-393 983h107l305 -772l305 772h104l-393 -983h-35z" />
    <glyph glyph-name="w" unicode="w" horiz-adv-x="1347" 
d="M365 -41l-324 983h96l248 -747l270 768h35l273 -768l245 747h99l-326 -983h-35l-272 786l-275 -786h-34z" />
    <glyph glyph-name="x" unicode="x" horiz-adv-x="858" 
d="M51 0l316 479l-306 463h121l250 -385l252 385h113l-305 -463l315 -479h-119l-262 401l-262 -401h-113z" />
    <glyph glyph-name="y" unicode="y" horiz-adv-x="903" 
d="M199 -512l190 496l-348 958h109l294 -813l316 813h102l-561 -1454h-102z" />
    <glyph glyph-name="z" unicode="z" horiz-adv-x="913" 
d="M72 0v29l594 823h-557v90h722v-29l-593 -823h591v-90h-757z" />
    <glyph glyph-name="braceleft" unicode="{" horiz-adv-x="645" 
d="M500 -430q-106 0 -174 69.5t-68 176.5v497q0 68 -40 111t-103 43h-13v90h13q63 0 103 43t40 111v497q0 107 68 176.5t174 69.5h63v-94h-63q-63 0 -102.5 -41.5t-39.5 -110.5v-497q0 -74 -32.5 -125.5t-94.5 -71.5v-4q62 -20 94.5 -71.5t32.5 -125.5v-497
q0 -69 39.5 -110.5t102.5 -41.5h63v-94h-63z" />
    <glyph glyph-name="bar" unicode="|" horiz-adv-x="509" 
d="M205 -512v1966h100v-1966h-100z" />
    <glyph glyph-name="braceright" unicode="}" horiz-adv-x="645" 
d="M82 -430v94h63q63 0 102.5 41.5t39.5 110.5v497q0 74 32.5 125.5t94.5 71.5v4q-62 20 -94.5 71.5t-32.5 125.5v497q0 69 -39.5 110.5t-102.5 41.5h-63v94h63q106 0 174 -69.5t68 -176.5v-497q0 -68 40 -111t103 -43h13v-90h-13q-63 0 -103 -43t-40 -111v-497
q0 -107 -68 -176.5t-174 -69.5h-63z" />
    <glyph glyph-name="asciitilde" unicode="~" horiz-adv-x="888" 
d="M608 557q-75 0 -192 61q-56 28 -83 38t-54 10q-89 0 -138 -101l-80 39q30 76 89.5 118t130.5 42q79 0 192 -59q55 -29 81.5 -39.5t55.5 -10.5q91 0 138 103l79 -41q-30 -76 -89 -118t-130 -42z" />
    <glyph glyph-name="nbspace" unicode="&#xa0;" horiz-adv-x="450" 
 />
    <glyph glyph-name="exclamdown" unicode="&#xa1;" horiz-adv-x="450" 
d="M164 -430l24 1057h76l25 -1057h-125zM225 788q-34 0 -58 23.5t-24 58.5t24.5 58.5t59.5 23.5q34 0 57 -23.5t23 -58.5t-23.5 -58.5t-58.5 -23.5z" />
    <glyph glyph-name="cent" unicode="&#xa2;" horiz-adv-x="1042" 
d="M520 -219v205q-181 25 -299.5 160.5t-118.5 324.5t119 326t299 159v205h101v-203q195 -18 333 -178l-73 -63q-131 147 -301 147q-160 0 -266.5 -111t-106.5 -278q0 -173 109 -285t276 -112q177 0 303 141l66 -55q-134 -165 -340 -180v-203h-101z" />
    <glyph glyph-name="sterling" unicode="&#xa3;" horiz-adv-x="892" 
d="M72 0v35q130 98 201 214t71 271q0 58 -12 117h-211v98h186q-6 17 -13.5 36t-16.5 42t-15 37q-61 146 -61 237q0 128 89 216t228 88q84 0 161.5 -34.5t131.5 -96.5l-66 -70q-110 102 -225 102q-96 0 -154.5 -57t-58.5 -148q0 -76 62 -229q36 -95 45 -123h266v-98h-244
q15 -65 15 -121q0 -245 -179 -418h580v-98h-780z" />
    <glyph glyph-name="currency" unicode="&#xa4;" horiz-adv-x="929" 
d="M139 303l-67 68l147 147q-57 75 -57 178q0 99 57 178l-147 146l67 67l146 -147q77 59 180 59t178 -57l148 145l67 -67l-147 -146q57 -83 57 -178q0 -100 -59 -178l149 -147l-67 -68l-148 148q-77 -58 -178 -58q-103 0 -178 60zM465 485q85 0 143 61t58 150t-58 150
t-143 61q-86 0 -143.5 -60.5t-57.5 -150.5q0 -88 57.5 -149.5t143.5 -61.5z" />
    <glyph glyph-name="yen" unicode="&#xa5;" horiz-adv-x="1067" 
d="M477 0v227h-225v99h225v153h-225v99h207l-408 794h119l365 -710l368 710h113l-414 -794h209v-99h-227v-153h227v-99h-227v-227h-107z" />
    <glyph glyph-name="brokenbar" unicode="&#xa6;" horiz-adv-x="509" 
d="M205 -512v727h100v-727h-100zM205 727v727h100v-727h-100z" />
    <glyph glyph-name="section" unicode="&#xa7;" horiz-adv-x="952" 
d="M453 -285q-166 0 -263 160l78 51q81 -119 187 -119q69 0 113 42.5t44 109.5q0 77 -65 149t-215 164q-80 44 -124 115.5t-44 163.5q0 122 71.5 209t182.5 106q-170 128 -170 277q0 107 73 177.5t185 70.5q165 0 262 -160l-78 -51q-77 118 -186 118q-69 0 -113.5 -42
t-44.5 -109q0 -75 64.5 -147t207.5 -160q80 -46 125 -117t45 -164q0 -120 -71.5 -207t-181.5 -108q176 -128 176 -281q0 -107 -73 -177.5t-185 -70.5zM477 328q91 0 152 65.5t61 163.5q0 95 -61 160t-152 65q-92 0 -153.5 -64.5t-61.5 -160.5q0 -98 61.5 -163.5t153.5 -65.5
z" />
    <glyph glyph-name="dieresis" unicode="&#xa8;" horiz-adv-x="536" 
d="M98 1151q-34 0 -56 22t-22 56q0 32 23 55t55 23t55 -23t23 -55q0 -33 -22.5 -55.5t-55.5 -22.5zM438 1151q-33 0 -55.5 22.5t-22.5 55.5q0 32 23 55t57 23q31 0 53.5 -23t22.5 -55q0 -34 -22 -56t-56 -22z" />
    <glyph glyph-name="copyright" unicode="&#xa9;" horiz-adv-x="1650" 
d="M825 -18q-140 0 -268 56.5t-220.5 151t-148 224.5t-55.5 272q0 191 93.5 353.5t252.5 257t346 94.5q140 0 268.5 -56t221.5 -150.5t148 -225t55 -273.5q0 -142 -55 -272t-148 -224.5t-221.5 -151t-268.5 -56.5zM825 80q161 0 296 80.5t213.5 220t78.5 305.5t-78.5 305.5
t-213.5 220t-296 80.5q-120 0 -229 -47.5t-187.5 -128.5t-124.5 -193t-46 -237q0 -167 78.5 -306.5t213 -219.5t295.5 -80zM840 340q-148 0 -245 100t-97 254q0 152 95.5 252.5t240.5 100.5q168 0 278 -144l-61 -55q-94 113 -213 113q-107 0 -176.5 -75.5t-69.5 -191.5
q0 -118 72 -193t186 -75q123 0 213 111l55 -52q-111 -145 -278 -145z" />
    <glyph glyph-name="ordfeminine" unicode="&#xaa;" horiz-adv-x="612" 
d="M260 811q-88 0 -143.5 51t-55.5 131q0 83 61 135t157 52q93 0 170 -52q0 80 -42.5 130.5t-111.5 50.5q-77 0 -135 -58l-51 56q75 84 196 84q104 0 170 -62t66 -160v-348h-92v80q-28 -40 -79 -65t-110 -25zM274 893q68 0 115.5 40.5t56.5 108.5q-82 56 -163 56
q-60 0 -94.5 -28t-34.5 -75q0 -46 32 -74t88 -28z" />
    <glyph glyph-name="guillemotleft" unicode="&#xab;" horiz-adv-x="880" 
d="M348 145l-256 367l256 367l78 -56l-219 -311l219 -311zM670 145l-256 367l256 367l78 -56l-220 -311l217 -311z" />
    <glyph glyph-name="logicalnot" unicode="&#xac;" horiz-adv-x="888" 
d="M729 375v241h-668v99h766v-340h-98z" />
    <glyph glyph-name="uni00AD" unicode="&#xad;" horiz-adv-x="622" 
d="M92 479v107h438v-107h-438z" />
    <glyph glyph-name="registered" unicode="&#xae;" horiz-adv-x="1650" 
d="M825 -18q-140 0 -268 56.5t-220.5 151t-148 224.5t-55.5 272q0 191 93.5 353.5t252.5 257t346 94.5q140 0 268.5 -56t221.5 -150.5t148 -225t55 -273.5q0 -142 -55 -272t-148 -224.5t-221.5 -151t-268.5 -56.5zM825 80q161 0 296 80.5t213.5 220t78.5 305.5t-78.5 305.5
t-213.5 220t-296 80.5q-120 0 -229 -47.5t-187.5 -128.5t-124.5 -193t-46 -237q0 -167 78.5 -306.5t213 -219.5t295.5 -80zM623 350v684h215q106 0 172.5 -58.5t66.5 -150.5q0 -67 -38.5 -117.5t-106.5 -72.5l160 -285h-105l-151 271h-123v-271h-90zM713 705h116
q71 0 114.5 33.5t43.5 88.5q0 56 -44 89.5t-114 33.5h-116v-245z" />
    <glyph glyph-name="macron" unicode="&#xaf;" horiz-adv-x="450" 
d="M20 1180v92h410v-92h-410z" />
    <glyph glyph-name="degree" unicode="&#xb0;" horiz-adv-x="866" 
d="M432 811q-121 0 -205 84.5t-84 206.5t83.5 205.5t205.5 83.5q121 0 206 -84.5t85 -204.5q0 -122 -84.5 -206.5t-206.5 -84.5zM432 899q83 0 139 58.5t56 144.5q0 85 -56 143t-139 58q-82 0 -137 -58t-55 -143q0 -86 55 -144.5t137 -58.5z" />
    <glyph glyph-name="plusminus" unicode="&#xb1;" horiz-adv-x="888" 
d="M61 289v98h334v299h-334v98h334v330h99v-330h333v-98h-333v-299h333v-98h-766z" />
    <glyph glyph-name="uni00B2" unicode="&#xb2;" horiz-adv-x="700" 
d="M72 891v37l225 211q126 117 164.5 169.5t38.5 108.5q0 70 -42.5 112t-111.5 42t-114 -45.5t-58 -130.5l-90 22q23 114 92.5 177t173.5 63q107 0 175.5 -66.5t68.5 -169.5q0 -74 -48 -144.5t-184 -197.5l-108 -98h364v-90h-546z" />
    <glyph glyph-name="uni00B3" unicode="&#xb3;" horiz-adv-x="696" 
d="M340 872q-88 0 -157 44.5t-101 123.5l82 43q52 -125 180 -125q75 0 120.5 41.5t45.5 110.5q0 73 -52 115.5t-141 42.5h-98v35l217 245h-319v90h473v-36l-223 -254q109 -12 173 -75t64 -161q0 -104 -74.5 -172t-189.5 -68z" />
    <glyph glyph-name="acute" unicode="&#xb4;" horiz-adv-x="323" 
d="M76 1057l-56 45l201 268l82 -70z" />
    <glyph glyph-name="uni00B5" unicode="&#xb5;" horiz-adv-x="1056" 
d="M154 -512v1454h100v-557q0 -140 72 -224.5t192 -84.5q125 0 205 87t80 222v557h100v-942h-100v156q-52 -83 -128.5 -128.5t-170.5 -45.5q-161 0 -250 122v-616h-100z" />
    <glyph glyph-name="paragraph" unicode="&#xb6;" horiz-adv-x="815" 
d="M334 -512q-105 0 -178 82l63 72q52 -60 115 -60q61 0 94 43t33 123v944q-158 0 -263.5 96.5t-105.5 241.5q0 147 105 244.5t264 97.5h272v-98h-172v-1528q0 -118 -61.5 -188t-165.5 -70z" />
    <glyph glyph-name="periodcentered" unicode="&#xb7;" horiz-adv-x="450" 
d="M223 436q-34 0 -57 23.5t-23 58.5t23.5 58.5t58.5 23.5q34 0 58 -23.5t24 -58.5t-24.5 -58.5t-59.5 -23.5z" />
    <glyph glyph-name="cedilla" unicode="&#xb8;" horiz-adv-x="409" 
d="M186 -510q-56 0 -99.5 19.5t-66.5 44.5l39 71q18 -21 51.5 -37t73.5 -16q53 0 85 28.5t32 75.5q0 50 -35.5 80.5t-97.5 30.5h-64l62 219h86l-41 -139q84 -12 131 -62t47 -124q0 -85 -56 -138t-147 -53z" />
    <glyph glyph-name="uni00B9" unicode="&#xb9;" horiz-adv-x="602" 
d="M313 891v614l-178 -139l-53 66l291 227h35v-768h-95z" />
    <glyph glyph-name="ordmasculine" unicode="&#xba;" horiz-adv-x="700" 
d="M350 811q-121 0 -205 84.5t-84 206.5t83.5 205.5t205.5 83.5q121 0 205 -84.5t84 -204.5q0 -122 -84 -206.5t-205 -84.5zM350 899q83 0 139 58.5t56 144.5q0 85 -56 143t-139 58q-82 0 -138 -58t-56 -143q0 -86 56 -144.5t138 -58.5z" />
    <glyph glyph-name="guillemotright" unicode="&#xbb;" horiz-adv-x="880" 
d="M211 145l-76 56l217 311l-219 311l78 56l256 -367zM532 145l-77 56l219 311l-219 311l77 56l256 -367z" />
    <glyph glyph-name="onequarter" unicode="&#xbc;" horiz-adv-x="1370" 
d="M283 0l692 1372h106l-692 -1372h-106zM313 627v614l-178 -141l-53 67l291 228h35v-768h-95zM1096 0v125h-383v35l438 608h35v-561h102v-82h-102v-125h-90zM848 207h248v350z" />
    <glyph glyph-name="onehalf" unicode="&#xbd;" horiz-adv-x="1452" 
d="M283 0l692 1372h106l-692 -1372h-106zM313 627v614l-178 -141l-53 67l291 228h35v-768h-95zM823 0v37l226 211q126 115 164 168.5t38 109.5q0 70 -41 110t-110 40q-71 0 -115 -43.5t-59 -128.5l-88 24q22 113 91 175.5t173 62.5q107 0 175.5 -66.5t68.5 -169.5
q0 -74 -48 -144.5t-184 -197.5l-106 -98h362v-90h-547z" />
    <glyph glyph-name="threequarters" unicode="&#xbe;" horiz-adv-x="1449" 
d="M362 0l693 1372h106l-692 -1372h-107zM332 606q-89 0 -157.5 44.5t-102.5 123.5l84 43q52 -125 178 -125q75 0 121.5 42t46.5 112q0 72 -52.5 113.5t-140.5 41.5h-98v35l217 250h-319v86h471v-37l-222 -254q110 -12 174 -74.5t64 -160.5q0 -104 -74.5 -172t-189.5 -68z
M1176 0v125h-383v35l438 608h35v-561h102v-82h-102v-125h-90zM928 207h248v350z" />
    <glyph glyph-name="questiondown" unicode="&#xbf;" horiz-adv-x="878" 
d="M438 -446q-151 0 -248.5 85.5t-97.5 221.5q0 88 50 158.5t177 162.5q98 70 133 113.5t35 93.5q0 54 -36.5 86.5t-118.5 52.5l30 88q230 -52 230 -225q0 -71 -42.5 -129.5t-152.5 -138.5q-113 -80 -156.5 -138t-43.5 -122q0 -94 68.5 -154.5t178.5 -60.5q87 0 155.5 43.5
t125.5 134.5l82 -66q-63 -100 -158 -153t-211 -53zM453 788q-34 0 -58 23.5t-24 58.5t24.5 58.5t59.5 23.5q34 0 57 -23.5t23 -58.5t-23.5 -58.5t-58.5 -23.5z" />
    <glyph glyph-name="Agrave" unicode="&#xc0;" horiz-adv-x="1236" 
d="M82 0l518 1413h37l518 -1413h-117l-141 393h-557l-141 -393h-117zM373 492h489l-244 679zM598 1487l-227 244l82 69l200 -268z" />
    <glyph glyph-name="Aacute" unicode="&#xc1;" horiz-adv-x="1236" 
d="M82 0l518 1413h37l518 -1413h-117l-141 393h-557l-141 -393h-117zM373 492h489l-244 679zM623 1487l-56 45l201 268l82 -69z" />
    <glyph glyph-name="Acircumflex" unicode="&#xc2;" horiz-adv-x="1236" 
d="M82 0l518 1413h37l518 -1413h-117l-141 393h-557l-141 -393h-117zM373 492h489l-244 679zM414 1513l-52 68l259 193l260 -193l-54 -68l-206 152z" />
    <glyph glyph-name="Atilde" unicode="&#xc3;" horiz-adv-x="1236" 
d="M82 0l518 1413h37l518 -1413h-117l-141 393h-557l-141 -393h-117zM373 492h489l-244 679zM446 1569l-79 37q22 63 63.5 97t97.5 34q44 0 105 -37q56 -39 86 -39q50 0 78 78l80 -39q-20 -61 -63 -96t-99 -35q-51 0 -107 39q-55 37 -84 37q-50 0 -78 -76z" />
    <glyph glyph-name="Adieresis" unicode="&#xc4;" horiz-adv-x="1236" 
d="M82 0l518 1413h37l518 -1413h-117l-141 393h-557l-141 -393h-117zM373 492h489l-244 679zM451 1581q-34 0 -56 22t-22 56q0 32 23 55t55 23t54.5 -23t22.5 -55q0 -33 -22 -55.5t-55 -22.5zM791 1581q-33 0 -55.5 22.5t-22.5 55.5q0 32 23 55t57 23q31 0 53 -23t22 -55
q0 -34 -21.5 -56t-55.5 -22z" />
    <glyph glyph-name="Aring" unicode="&#xc5;" horiz-adv-x="1236" 
d="M82 0l518 1413h37l518 -1413h-117l-141 393h-557l-141 -393h-117zM373 492h489l-244 679zM621 1464q-75 0 -130 54.5t-55 128.5t55 128t130 54t129.5 -54.5t54.5 -127.5q0 -74 -54.5 -128.5t-129.5 -54.5zM621 1540q43 0 72.5 30t29.5 77t-29.5 76.5t-72.5 29.5
t-73 -29.5t-30 -76.5t30 -77t73 -30z" />
    <glyph glyph-name="AE" unicode="&#xc6;" horiz-adv-x="1554" 
d="M-10 0l665 1372h758v-98h-633l66 -514h465v-98h-453l72 -564h502v-98h-594l-50 383h-501l-181 -383h-116zM334 481h442l-94 738z" />
    <glyph glyph-name="Ccedilla" unicode="&#xc7;" horiz-adv-x="1415" 
d="M745 -510q-56 0 -100 20t-65 44l38 71q46 -53 125 -53q53 0 85 28.5t32 75.5q0 50 -35.5 80.5t-97.5 30.5h-65l59 199q-266 28 -437 223.5t-171 470.5q0 196 92 359.5t250.5 257.5t347.5 94q145 0 276 -59.5t226 -164.5l-82 -67q-82 90 -191 138t-231 48
q-121 0 -228 -46.5t-183.5 -126t-120.5 -191.5t-44 -238q0 -167 73.5 -303.5t206 -215.5t298.5 -79q263 0 432 190l78 -65q-100 -110 -232 -169.5t-278 -59.5l-33 -115q83 -12 130.5 -62t47.5 -124q0 -85 -56 -138t-147 -53z" />
    <glyph glyph-name="Egrave" unicode="&#xc8;" horiz-adv-x="1015" 
d="M195 0v1372h688v-98h-582v-514h449v-98h-449v-564h592v-98h-698zM518 1487l-227 244l82 69l200 -268z" />
    <glyph glyph-name="Eacute" unicode="&#xc9;" horiz-adv-x="1015" 
d="M195 0v1372h688v-98h-582v-514h449v-98h-449v-564h592v-98h-698zM543 1487l-56 45l201 268l82 -69z" />
    <glyph glyph-name="Ecircumflex" unicode="&#xca;" horiz-adv-x="1015" 
d="M195 0v1372h688v-98h-582v-514h449v-98h-449v-564h592v-98h-698zM332 1513l-51 68l258 193l260 -193l-54 -68l-206 152z" />
    <glyph glyph-name="Edieresis" unicode="&#xcb;" horiz-adv-x="1015" 
d="M195 0v1372h688v-98h-582v-514h449v-98h-449v-564h592v-98h-698zM369 1581q-34 0 -56 22t-22 56q0 32 23 55t55 23t54.5 -23t22.5 -55q0 -33 -22 -55.5t-55 -22.5zM709 1581q-33 0 -55.5 22.5t-22.5 55.5q0 32 23 55t57 23q31 0 53 -23t22 -55q0 -34 -21.5 -56t-55.5 -22
z" />
    <glyph glyph-name="Igrave" unicode="&#xcc;" horiz-adv-x="493" 
d="M195 0v1372h106v-1372h-106zM227 1487l-227 244l82 69l201 -268z" />
    <glyph glyph-name="Iacute" unicode="&#xcd;" horiz-adv-x="499" 
d="M195 0v1372h106v-1372h-106zM252 1487l-55 45l200 268l82 -69z" />
    <glyph glyph-name="Icircumflex" unicode="&#xce;" horiz-adv-x="497" 
d="M195 0v1372h106v-1372h-106zM41 1513l-51 68l258 193l260 -193l-53 -68l-207 152z" />
    <glyph glyph-name="Idieresis" unicode="&#xcf;" horiz-adv-x="495" 
d="M195 0v1372h106v-1372h-106zM88 1579q-34 0 -56 23t-22 57q0 32 23 55t55 23t55 -23t23 -55q0 -34 -23 -57t-55 -23zM408 1579q-33 0 -56.5 23.5t-23.5 56.5q0 32 23 55t57 23q32 0 54.5 -23t22.5 -55q0 -34 -22.5 -57t-54.5 -23z" />
    <glyph glyph-name="Eth" unicode="&#xd0;" horiz-adv-x="1511" 
d="M227 0v641h-217v98h217v633h428q158 0 296.5 -52t236.5 -142.5t154.5 -217.5t56.5 -272q0 -147 -56.5 -275t-154.5 -218.5t-236.5 -142.5t-296.5 -52h-428zM334 98h321q135 0 252.5 44.5t200.5 122.5t130.5 187.5t47.5 235.5q0 255 -178 420.5t-453 165.5h-321v-535h287
v-98h-287v-543z" />
    <glyph glyph-name="Ntilde" unicode="&#xd1;" horiz-adv-x="1478" 
d="M1245 -41l-944 1192v-1151h-106v1413h38l945 -1192v1151h106v-1413h-39zM561 1569l-80 37q22 63 64 97t98 34q44 0 105 -37q56 -39 86 -39q49 0 77 78l80 -39q-20 -61 -63 -96t-99 -35q-50 0 -106 39q-55 37 -84 37q-50 0 -78 -76z" />
    <glyph glyph-name="Ograve" unicode="&#xd2;" horiz-adv-x="1597" 
d="M799 -18q-186 0 -344 94t-250 256.5t-92 353.5q0 192 92 354.5t249.5 256.5t344.5 94q140 0 267.5 -55.5t219 -149.5t145.5 -224.5t54 -275.5q0 -143 -54 -273.5t-145.5 -225t-219 -150t-267.5 -55.5zM799 86q159 0 290.5 78.5t207 216.5t75.5 305t-75.5 305t-207 216.5
t-290.5 78.5t-290.5 -78.5t-207.5 -216.5t-76 -305t76 -305t207.5 -216.5t290.5 -78.5zM776 1487l-227 244l82 69l200 -268z" />
    <glyph glyph-name="Oacute" unicode="&#xd3;" horiz-adv-x="1597" 
d="M799 -18q-186 0 -344 94t-250 256.5t-92 353.5q0 192 92 354.5t249.5 256.5t344.5 94q140 0 267.5 -55.5t219 -149.5t145.5 -224.5t54 -275.5q0 -143 -54 -273.5t-145.5 -225t-219 -150t-267.5 -55.5zM799 86q159 0 290.5 78.5t207 216.5t75.5 305t-75.5 305t-207 216.5
t-290.5 78.5t-290.5 -78.5t-207.5 -216.5t-76 -305t76 -305t207.5 -216.5t290.5 -78.5zM803 1487l-55 45l200 268l82 -69z" />
    <glyph glyph-name="Ocircumflex" unicode="&#xd4;" horiz-adv-x="1597" 
d="M799 -18q-186 0 -344 94t-250 256.5t-92 353.5q0 192 92 354.5t249.5 256.5t344.5 94q140 0 267.5 -55.5t219 -149.5t145.5 -224.5t54 -275.5q0 -143 -54 -273.5t-145.5 -225t-219 -150t-267.5 -55.5zM799 86q159 0 290.5 78.5t207 216.5t75.5 305t-75.5 305t-207 216.5
t-290.5 78.5t-290.5 -78.5t-207.5 -216.5t-76 -305t76 -305t207.5 -216.5t290.5 -78.5zM592 1513l-51 68l258 193l260 -193l-53 -68l-207 152z" />
    <glyph glyph-name="Otilde" unicode="&#xd5;" horiz-adv-x="1597" 
d="M799 -18q-186 0 -344 94t-250 256.5t-92 353.5q0 192 92 354.5t249.5 256.5t344.5 94q140 0 267.5 -55.5t219 -149.5t145.5 -224.5t54 -275.5q0 -143 -54 -273.5t-145.5 -225t-219 -150t-267.5 -55.5zM799 86q159 0 290.5 78.5t207 216.5t75.5 305t-75.5 305t-207 216.5
t-290.5 78.5t-290.5 -78.5t-207.5 -216.5t-76 -305t76 -305t207.5 -216.5t290.5 -78.5zM625 1569l-80 37q22 63 64 97t98 34q9 0 18 -1t15.5 -2.5t15 -4.5t13 -5t12.5 -6.5t11 -6t10.5 -6t8.5 -5.5q56 -39 86 -39q50 0 78 78l80 -39q-20 -61 -63 -96t-99 -35q-51 0 -107 39
q-55 37 -84 37q-49 0 -77 -76z" />
    <glyph glyph-name="Odieresis" unicode="&#xd6;" horiz-adv-x="1597" 
d="M799 -18q-186 0 -344 94t-250 256.5t-92 353.5q0 192 92 354.5t249.5 256.5t344.5 94q140 0 267.5 -55.5t219 -149.5t145.5 -224.5t54 -275.5q0 -143 -54 -273.5t-145.5 -225t-219 -150t-267.5 -55.5zM799 86q159 0 290.5 78.5t207 216.5t75.5 305t-75.5 305t-207 216.5
t-290.5 78.5t-290.5 -78.5t-207.5 -216.5t-76 -305t76 -305t207.5 -216.5t290.5 -78.5zM629 1581q-34 0 -56 22t-22 56q0 32 23 55t55 23t55 -23t23 -55q0 -33 -22.5 -55.5t-55.5 -22.5zM969 1581q-33 0 -55.5 22.5t-22.5 55.5q0 32 23 55t57 23q31 0 53.5 -23t22.5 -55
q0 -34 -22 -56t-56 -22z" />
    <glyph glyph-name="multiply" unicode="&#xd7;" horiz-adv-x="886" 
d="M186 344l-63 66l256 256l-256 256l63 65l256 -256l258 256l64 -65l-256 -256l256 -256l-64 -66l-258 256z" />
    <glyph glyph-name="Oslash" unicode="&#xd8;" horiz-adv-x="1597" 
d="M330 -68l-80 58l108 155q-115 99 -180 240t-65 301q0 192 92 354.5t249.5 256.5t344.5 94q196 0 360 -105l105 150l82 -58l-107 -149q115 -99 180.5 -240.5t65.5 -302.5q0 -143 -54 -273.5t-145.5 -225t-219 -150t-267.5 -55.5q-197 0 -361 104zM420 231l678 969
q-134 86 -299 86q-159 0 -290.5 -78.5t-207.5 -216.5t-76 -305q0 -136 51.5 -254t143.5 -201zM799 86q159 0 290.5 78.5t207 216.5t75.5 305q0 135 -51.5 253.5t-142.5 201.5l-680 -969q134 -86 301 -86z" />
    <glyph glyph-name="Ugrave" unicode="&#xd9;" horiz-adv-x="1353" 
d="M678 -18q-221 0 -357.5 156t-136.5 411v823h107v-813q0 -215 105 -344t280 -129t281 129t106 344v813h106v-823q0 -254 -135.5 -410.5t-355.5 -156.5zM655 1487l-227 244l82 69l201 -268z" />
    <glyph glyph-name="Uacute" unicode="&#xda;" horiz-adv-x="1353" 
d="M678 -18q-221 0 -357.5 156t-136.5 411v823h107v-813q0 -215 105 -344t280 -129t281 129t106 344v813h106v-823q0 -254 -135.5 -410.5t-355.5 -156.5zM682 1487l-55 45l200 268l82 -69z" />
    <glyph glyph-name="Ucircumflex" unicode="&#xdb;" horiz-adv-x="1353" 
d="M678 -18q-221 0 -357.5 156t-136.5 411v823h107v-813q0 -215 105 -344t280 -129t281 129t106 344v813h106v-823q0 -254 -135.5 -410.5t-355.5 -156.5zM471 1513l-51 68l258 193l260 -193l-53 -68l-207 152z" />
    <glyph glyph-name="Udieresis" unicode="&#xdc;" horiz-adv-x="1353" 
d="M678 -18q-221 0 -357.5 156t-136.5 411v823h107v-813q0 -215 105 -344t280 -129t281 129t106 344v813h106v-823q0 -254 -135.5 -410.5t-355.5 -156.5zM508 1581q-34 0 -56 22t-22 56q0 32 23 55t55 23t55 -23t23 -55q0 -33 -22.5 -55.5t-55.5 -22.5zM848 1581
q-33 0 -55.5 22.5t-22.5 55.5q0 32 23 55t57 23q31 0 53.5 -23t22.5 -55q0 -34 -22 -56t-56 -22z" />
    <glyph glyph-name="Yacute" unicode="&#xdd;" horiz-adv-x="1067" 
d="M477 0v543l-426 829h119l365 -710l368 710h113l-432 -829v-543h-107zM537 1487l-56 45l201 268l82 -69z" />
    <glyph glyph-name="Thorn" unicode="&#xde;" horiz-adv-x="1273" 
d="M195 0v1372h106v-295h428q203 0 328 -106.5t125 -274.5t-125.5 -273.5t-329.5 -105.5h-426v-317h-106zM301 416h428q159 0 252.5 75.5t93.5 204.5q0 128 -94.5 205.5t-251.5 77.5h-428v-563z" />
    <glyph glyph-name="germandbls" unicode="&#xdf;" horiz-adv-x="1040" 
d="M664 -18q-55 0 -103 10.5t-68 20.5t-26 16l43 82q7 -5 22.5 -12.5t51 -16t73.5 -8.5q101 0 161.5 55t60.5 139q0 56 -34.5 108t-111.5 122q-96 87 -143 162t-47 163q0 104 61.5 193.5t183.5 175.5q-23 79 -94 125.5t-164 46.5q-128 0 -202 -88t-74 -236v-1040h-100v1040
q0 184 103.5 299t272.5 115q151 0 255 -87.5t104 -211.5q-126 -84 -186 -161.5t-60 -166.5q0 -70 39.5 -130.5t126.5 -137.5q87 -80 128.5 -145.5t41.5 -145.5q0 -122 -87 -204t-228 -82z" />
    <glyph glyph-name="agrave" unicode="&#xe0;" horiz-adv-x="983" 
d="M403 -18q-140 0 -230.5 81t-90.5 207q0 132 100 216.5t254 84.5q180 0 303 -102v98q0 136 -73 217.5t-193 81.5q-163 0 -258 -133l-74 64q66 78 154 121t184 43q160 0 260.5 -108t100.5 -278v-575h-101v174q-55 -92 -141.5 -142t-194.5 -50zM420 72q132 0 220 82.5
t97 214.5q-126 112 -301 112q-116 0 -185 -57t-69 -152q0 -91 64.5 -145.5t173.5 -54.5zM463 1057l-227 243l81 70l201 -268z" />
    <glyph glyph-name="aacute" unicode="&#xe1;" horiz-adv-x="983" 
d="M403 -18q-140 0 -230.5 81t-90.5 207q0 132 100 216.5t254 84.5q180 0 303 -102v98q0 136 -73 217.5t-193 81.5q-163 0 -258 -133l-74 64q66 78 154 121t184 43q160 0 260.5 -108t100.5 -278v-575h-101v174q-55 -92 -141.5 -142t-194.5 -50zM420 72q132 0 220 82.5
t97 214.5q-126 112 -301 112q-116 0 -185 -57t-69 -152q0 -91 64.5 -145.5t173.5 -54.5zM487 1057l-55 45l201 268l82 -70z" />
    <glyph glyph-name="acircumflex" unicode="&#xe2;" horiz-adv-x="983" 
d="M403 -18q-140 0 -230.5 81t-90.5 207q0 132 100 216.5t254 84.5q180 0 303 -102v98q0 136 -73 217.5t-193 81.5q-163 0 -258 -133l-74 64q66 78 154 121t184 43q160 0 260.5 -108t100.5 -278v-575h-101v174q-55 -92 -141.5 -142t-194.5 -50zM420 72q132 0 220 82.5
t97 214.5q-126 112 -301 112q-116 0 -185 -57t-69 -152q0 -91 64.5 -145.5t173.5 -54.5zM279 1083l-52 68l258 192l260 -192l-53 -68l-207 152z" />
    <glyph glyph-name="atilde" unicode="&#xe3;" horiz-adv-x="983" 
d="M403 -18q-140 0 -230.5 81t-90.5 207q0 132 100 216.5t254 84.5q180 0 303 -102v98q0 136 -73 217.5t-193 81.5q-163 0 -258 -133l-74 64q66 78 154 121t184 43q160 0 260.5 -108t100.5 -278v-575h-101v174q-55 -92 -141.5 -142t-194.5 -50zM420 72q132 0 220 82.5
t97 214.5q-126 112 -301 112q-116 0 -185 -57t-69 -152q0 -91 64.5 -145.5t173.5 -54.5zM311 1139l-80 37q22 63 64 97t98 34q44 0 105 -37q56 -39 86 -39q50 0 78 78l79 -39q-20 -62 -63 -96.5t-98 -34.5q-51 0 -107 39q-53 36 -84 36q-51 0 -78 -75z" />
    <glyph glyph-name="adieresis" unicode="&#xe4;" horiz-adv-x="983" 
d="M403 -18q-140 0 -230.5 81t-90.5 207q0 132 100 216.5t254 84.5q180 0 303 -102v98q0 136 -73 217.5t-193 81.5q-163 0 -258 -133l-74 64q66 78 154 121t184 43q160 0 260.5 -108t100.5 -278v-575h-101v174q-55 -92 -141.5 -142t-194.5 -50zM420 72q132 0 220 82.5
t97 214.5q-126 112 -301 112q-116 0 -185 -57t-69 -152q0 -91 64.5 -145.5t173.5 -54.5zM315 1151q-34 0 -55.5 22t-21.5 56q0 32 22.5 55t54.5 23t55 -23t23 -55q0 -33 -22.5 -55.5t-55.5 -22.5zM655 1151q-33 0 -55 22.5t-22 55.5t23 55.5t56 22.5q31 0 53.5 -23t22.5 -55
q0 -34 -22 -56t-56 -22z" />
    <glyph glyph-name="aring" unicode="&#xe5;" horiz-adv-x="983" 
d="M403 -18q-140 0 -230.5 81t-90.5 207q0 132 100 216.5t254 84.5q180 0 303 -102v98q0 136 -73 217.5t-193 81.5q-163 0 -258 -133l-74 64q66 78 154 121t184 43q160 0 260.5 -108t100.5 -278v-575h-101v174q-55 -92 -141.5 -142t-194.5 -50zM420 72q132 0 220 82.5
t97 214.5q-126 112 -301 112q-116 0 -185 -57t-69 -152q0 -91 64.5 -145.5t173.5 -54.5zM485 1034q-75 0 -129.5 54.5t-54.5 128.5t54.5 128t129.5 54t130 -55t55 -127q0 -74 -55 -128.5t-130 -54.5zM485 1110q43 0 73 30t30 77t-30 76.5t-73 29.5t-72.5 -29.5t-29.5 -76.5
t29.5 -77t72.5 -30z" />
    <glyph glyph-name="ae" unicode="&#xe6;" horiz-adv-x="1701" 
d="M412 -18q-147 0 -238.5 80t-91.5 206q0 134 98.5 218.5t257.5 84.5q178 0 303 -102v98q0 136 -73 217.5t-195 81.5q-163 0 -258 -133l-74 64q65 78 153 121t185 43q115 0 202 -59t128 -165q58 107 155.5 167.5t217.5 60.5q183 0 305.5 -132.5t122.5 -332.5q0 -35 -4 -58
h-764q11 -164 110.5 -265t253.5 -101q179 0 314 157l65 -55q-151 -192 -385 -192q-136 0 -241 66t-160 181q-48 -115 -151.5 -183t-235.5 -68zM420 72q133 0 220.5 81.5t96.5 215.5q-129 112 -301 112q-114 0 -184 -57t-70 -152q0 -91 64 -145.5t174 -54.5zM844 532h661
q-9 152 -99.5 246t-225.5 94q-136 0 -228.5 -95t-107.5 -245z" />
    <glyph glyph-name="ccedilla" unicode="&#xe7;" horiz-adv-x="1042" 
d="M541 -510q-56 0 -99.5 19.5t-66.5 44.5l39 71q18 -21 51.5 -37t73.5 -16q54 0 85 28t31 76q0 50 -35.5 80.5t-97.5 30.5h-63l57 201q-181 23 -297.5 159t-116.5 324q0 135 62.5 247.5t172 177.5t241.5 65q109 0 206 -47.5t170 -133.5l-73 -63q-133 149 -306 149
q-159 0 -263.5 -111.5t-104.5 -279.5q0 -173 109 -286t276 -113q175 0 303 143l66 -55q-143 -176 -363 -182l-33 -115q84 -12 131 -62t47 -124q0 -85 -56 -138t-146 -53z" />
    <glyph glyph-name="egrave" unicode="&#xe8;" horiz-adv-x="1099" 
d="M586 -18q-212 0 -348 137t-136 350q0 211 130.5 351.5t328.5 140.5q192 0 319.5 -132t127.5 -333q0 -35 -4 -58h-797q10 -163 116 -262.5t267 -99.5q196 0 328 153l65 -55q-151 -192 -397 -192zM209 528h694q-10 152 -105 245t-237 93q-144 0 -240.5 -94t-111.5 -244z
M530 1057l-227 243l82 70l201 -268z" />
    <glyph glyph-name="eacute" unicode="&#xe9;" horiz-adv-x="1099" 
d="M586 -18q-212 0 -348 137t-136 350q0 211 130.5 351.5t328.5 140.5q192 0 319.5 -132t127.5 -333q0 -35 -4 -58h-797q10 -163 116 -262.5t267 -99.5q196 0 328 153l65 -55q-151 -192 -397 -192zM209 528h694q-10 152 -105 245t-237 93q-144 0 -240.5 -94t-111.5 -244z
M555 1057l-55 45l200 268l82 -70z" />
    <glyph glyph-name="ecircumflex" unicode="&#xea;" horiz-adv-x="1099" 
d="M586 -18q-212 0 -348 137t-136 350q0 211 130.5 351.5t328.5 140.5q192 0 319.5 -132t127.5 -333q0 -35 -4 -58h-797q10 -163 116 -262.5t267 -99.5q196 0 328 153l65 -55q-151 -192 -397 -192zM209 528h694q-10 152 -105 245t-237 93q-144 0 -240.5 -94t-111.5 -244z
M346 1083l-51 68l258 192l260 -192l-53 -68l-207 152z" />
    <glyph glyph-name="edieresis" unicode="&#xeb;" horiz-adv-x="1099" 
d="M586 -18q-212 0 -348 137t-136 350q0 211 130.5 351.5t328.5 140.5q192 0 319.5 -132t127.5 -333q0 -35 -4 -58h-797q10 -163 116 -262.5t267 -99.5q196 0 328 153l65 -55q-151 -192 -397 -192zM209 528h694q-10 152 -105 245t-237 93q-144 0 -240.5 -94t-111.5 -244z
M381 1151q-34 0 -56 22t-22 56q0 32 23 55t55 23t55 -23t23 -55q0 -33 -22.5 -55.5t-55.5 -22.5zM721 1151q-33 0 -55.5 22.5t-22.5 55.5q0 32 23 55t57 23q31 0 53.5 -23t22.5 -55q0 -34 -22 -56t-56 -22z" />
    <glyph glyph-name="igrave" unicode="&#xec;" horiz-adv-x="409" 
d="M156 0v942h100v-942h-100zM186 1057l-227 243l82 70l201 -268z" />
    <glyph glyph-name="iacute" unicode="&#xed;" horiz-adv-x="415" 
d="M156 0v942h100v-942h-100zM209 1057l-55 45l200 268l82 -70z" />
    <glyph glyph-name="icircumflex" unicode="&#xee;" horiz-adv-x="405" 
d="M154 0v942h100v-942h-100zM0 1083l-51 68l258 192l260 -192l-53 -68l-207 152z" />
    <glyph glyph-name="idieresis" unicode="&#xef;" horiz-adv-x="411" 
d="M156 0v942h100v-942h-100zM45 1149q-32 0 -54 23t-22 57q0 32 23 55t55 23t55 -23t23 -55q0 -34 -23 -57t-57 -23zM365 1149q-32 0 -55 23t-23 57q0 32 23 55t57 23q31 0 53 -23t22 -55q0 -34 -22 -57t-55 -23z" />
    <glyph glyph-name="eth" unicode="&#xf0;" horiz-adv-x="1101" 
d="M537 -20q-189 0 -317 135.5t-128 337.5q0 199 125 334t307 135q113 0 208 -55.5t153 -151.5q-51 257 -293 459l-281 -162l-45 73l252 146q-116 84 -223 141l49 82q143 -77 264 -172l193 113l43 -76l-166 -94q321 -281 321 -693q0 -240 -129.5 -396t-332.5 -156zM539 74
q150 0 247 107t97 272q0 163 -97.5 268.5t-248.5 105.5q-149 0 -244.5 -105.5t-95.5 -268.5q0 -165 96.5 -272t245.5 -107z" />
    <glyph glyph-name="ntilde" unicode="&#xf1;" horiz-adv-x="1050" 
d="M154 0v942h100v-158q50 84 130 130.5t177 46.5q153 0 249.5 -108.5t96.5 -277.5v-575h-100v557q0 140 -72.5 224.5t-195.5 84.5q-125 0 -205 -87t-80 -222v-557h-100zM356 1139l-80 37q22 63 64 97t98 34q44 0 105 -37q56 -39 86 -39q50 0 78 78l79 -39
q-20 -62 -63 -96.5t-98 -34.5q-51 0 -107 39q-53 36 -84 36q-51 0 -78 -75z" />
    <glyph glyph-name="ograve" unicode="&#xf2;" horiz-adv-x="1155" 
d="M578 -18q-198 0 -337 142.5t-139 346.5q0 133 63.5 246t173 178.5t239.5 65.5q97 0 185 -39t151.5 -104.5t101 -156t37.5 -190.5q0 -204 -138.5 -346.5t-336.5 -142.5zM578 76q158 0 264 113.5t106 281.5q0 167 -106.5 281t-263.5 114t-264 -114t-107 -281
q0 -166 107 -280.5t264 -114.5zM551 1057l-227 243l82 70l200 -268z" />
    <glyph glyph-name="oacute" unicode="&#xf3;" horiz-adv-x="1155" 
d="M578 -18q-198 0 -337 142.5t-139 346.5q0 133 63.5 246t173 178.5t239.5 65.5q97 0 185 -39t151.5 -104.5t101 -156t37.5 -190.5q0 -204 -138.5 -346.5t-336.5 -142.5zM578 76q158 0 264 113.5t106 281.5q0 167 -106.5 281t-263.5 114t-264 -114t-107 -281
q0 -166 107 -280.5t264 -114.5zM575 1057l-55 45l201 268l82 -70z" />
    <glyph glyph-name="ocircumflex" unicode="&#xf4;" horiz-adv-x="1155" 
d="M578 -18q-198 0 -337 142.5t-139 346.5q0 133 63.5 246t173 178.5t239.5 65.5q97 0 185 -39t151.5 -104.5t101 -156t37.5 -190.5q0 -204 -138.5 -346.5t-336.5 -142.5zM578 76q158 0 264 113.5t106 281.5q0 167 -106.5 281t-263.5 114t-264 -114t-107 -281
q0 -166 107 -280.5t264 -114.5zM365 1083l-52 68l258 192l260 -192l-53 -68l-207 152z" />
    <glyph glyph-name="otilde" unicode="&#xf5;" horiz-adv-x="1155" 
d="M578 -18q-198 0 -337 142.5t-139 346.5q0 133 63.5 246t173 178.5t239.5 65.5q97 0 185 -39t151.5 -104.5t101 -156t37.5 -190.5q0 -204 -138.5 -346.5t-336.5 -142.5zM578 76q158 0 264 113.5t106 281.5q0 167 -106.5 281t-263.5 114t-264 -114t-107 -281
q0 -166 107 -280.5t264 -114.5zM397 1139l-80 37q22 63 64 97t98 34q44 0 105 -37q56 -39 86 -39q50 0 78 78l79 -39q-20 -62 -63 -96.5t-98 -34.5q-51 0 -107 39q-53 36 -84 36q-51 0 -78 -75z" />
    <glyph glyph-name="odieresis" unicode="&#xf6;" horiz-adv-x="1155" 
d="M578 -18q-198 0 -337 142.5t-139 346.5q0 133 63.5 246t173 178.5t239.5 65.5q97 0 185 -39t151.5 -104.5t101 -156t37.5 -190.5q0 -204 -138.5 -346.5t-336.5 -142.5zM578 76q158 0 264 113.5t106 281.5q0 167 -106.5 281t-263.5 114t-264 -114t-107 -281
q0 -166 107 -280.5t264 -114.5zM401 1151q-34 0 -55.5 22t-21.5 56q0 32 22.5 55t54.5 23t55 -23t23 -55q0 -33 -22.5 -55.5t-55.5 -22.5zM741 1151q-33 0 -55 22.5t-22 55.5t23 55.5t56 22.5q31 0 53.5 -23t22.5 -55q0 -34 -22 -56t-56 -22z" />
    <glyph glyph-name="divide" unicode="&#xf7;" horiz-adv-x="888" 
d="M446 279q-34 0 -56.5 22.5t-22.5 56.5t23.5 57t55.5 23q33 0 56.5 -23.5t23.5 -56.5t-23.5 -56t-56.5 -23zM61 616v99h766v-99h-766zM446 893q-32 0 -55.5 23.5t-23.5 56.5q0 34 22.5 57t56.5 23q33 0 56.5 -23.5t23.5 -56.5t-23.5 -56.5t-56.5 -23.5z" />
    <glyph glyph-name="oslash" unicode="&#xf8;" horiz-adv-x="1155" 
d="M262 -59l-74 53l76 108q-77 69 -119.5 164t-42.5 205q0 133 63.5 246t173 178.5t239.5 65.5q126 0 239 -66l76 106l74 -53l-76 -108q76 -69 119 -164.5t43 -204.5q0 -204 -138.5 -346.5t-336.5 -142.5q-129 0 -240 65zM322 182l442 633q-85 51 -186 51q-157 0 -264 -114
t-107 -281q0 -174 115 -289zM578 76q158 0 264 113.5t106 281.5q0 174 -112 289l-443 -633q82 -51 185 -51z" />
    <glyph glyph-name="ugrave" unicode="&#xf9;" 
d="M487 -18q-152 0 -248 108t-96 277v575h101v-557q0 -140 72 -224.5t192 -84.5q125 0 205 87t80 222v557h100v-942h-100v158q-51 -84 -130.5 -130t-175.5 -46zM492 1057l-228 243l82 70l201 -268z" />
    <glyph glyph-name="uacute" unicode="&#xfa;" 
d="M487 -18q-152 0 -248 108t-96 277v575h101v-557q0 -140 72 -224.5t192 -84.5q125 0 205 87t80 222v557h100v-942h-100v158q-51 -84 -130.5 -130t-175.5 -46zM516 1057l-55 45l201 268l81 -70z" />
    <glyph glyph-name="ucircumflex" unicode="&#xfb;" 
d="M487 -18q-152 0 -248 108t-96 277v575h101v-557q0 -140 72 -224.5t192 -84.5q125 0 205 87t80 222v557h100v-942h-100v158q-51 -84 -130.5 -130t-175.5 -46zM307 1083l-51 68l258 192l260 -192l-53 -68l-207 152z" />
    <glyph glyph-name="udieresis" unicode="&#xfc;" 
d="M487 -18q-152 0 -248 108t-96 277v575h101v-557q0 -140 72 -224.5t192 -84.5q125 0 205 87t80 222v557h100v-942h-100v158q-51 -84 -130.5 -130t-175.5 -46zM344 1151q-34 0 -56 22t-22 56q0 32 23 55t55 23t55 -23t23 -55q0 -33 -22.5 -55.5t-55.5 -22.5zM684 1151
q-33 0 -55.5 22.5t-22.5 55.5q0 32 23 55t57 23q31 0 53.5 -23t22.5 -55q0 -34 -22 -56t-56 -22z" />
    <glyph glyph-name="yacute" unicode="&#xfd;" horiz-adv-x="903" 
d="M199 -512l190 496l-348 958h109l294 -813l316 813h102l-561 -1454h-102zM457 1057l-56 45l201 268l82 -70z" />
    <glyph glyph-name="thorn" unicode="&#xfe;" horiz-adv-x="1163" 
d="M600 76q155 0 255.5 112t100.5 283t-100.5 283t-253.5 112q-157 0 -257.5 -112.5t-100.5 -282.5q0 -171 100 -283t256 -112zM154 -512v1966h100v-704q55 98 149 154.5t211 56.5q190 0 318.5 -141.5t128.5 -348.5t-128.5 -348t-320.5 -141q-116 0 -209.5 55.5
t-148.5 152.5v-702h-100z" />
    <glyph glyph-name="ydieresis" unicode="&#xff;" horiz-adv-x="903" 
d="M199 -512l190 496l-348 958h109l294 -813l316 813h102l-561 -1454h-102zM283 1151q-34 0 -56 22t-22 56q0 32 23 55t55 23t54.5 -23t22.5 -55q0 -33 -22 -55.5t-55 -22.5zM623 1151q-33 0 -55.5 22.5t-22.5 55.5q0 32 23 55t57 23q31 0 53 -23t22 -55q0 -34 -21.5 -56
t-55.5 -22z" />
    <glyph glyph-name="Amacron" unicode="&#x100;" horiz-adv-x="1236" 
d="M82 0l518 1413h37l518 -1413h-117l-141 393h-557l-141 -393h-117zM373 492h489l-244 679zM416 1610v92h409v-92h-409z" />
    <glyph glyph-name="amacron" unicode="&#x101;" horiz-adv-x="983" 
d="M403 -18q-140 0 -230.5 81t-90.5 207q0 132 100 216.5t254 84.5q180 0 303 -102v98q0 136 -73 217.5t-193 81.5q-163 0 -258 -133l-74 64q66 78 154 121t184 43q160 0 260.5 -108t100.5 -278v-575h-101v174q-55 -92 -141.5 -142t-194.5 -50zM420 72q132 0 220 82.5
t97 214.5q-126 112 -301 112q-116 0 -185 -57t-69 -152q0 -91 64.5 -145.5t173.5 -54.5zM281 1180v92h409v-92h-409z" />
    <glyph glyph-name="Abreve" unicode="&#x102;" horiz-adv-x="1236" 
d="M82 0l518 1413h37l518 -1413h-117l-141 393h-557l-141 -393h-117zM373 492h489l-244 679zM621 1509q-99 0 -159.5 64.5t-60.5 169.5h86q0 -66 37.5 -107t96.5 -41q60 0 97.5 40.5t37.5 107.5h86q0 -105 -61 -169.5t-160 -64.5z" />
    <glyph glyph-name="abreve" unicode="&#x103;" horiz-adv-x="983" 
d="M403 -18q-140 0 -230.5 81t-90.5 207q0 132 100 216.5t254 84.5q180 0 303 -102v98q0 136 -73 217.5t-193 81.5q-163 0 -258 -133l-74 64q66 78 154 121t184 43q160 0 260.5 -108t100.5 -278v-575h-101v174q-55 -92 -141.5 -142t-194.5 -50zM420 72q132 0 220 82.5
t97 214.5q-126 112 -301 112q-116 0 -185 -57t-69 -152q0 -91 64.5 -145.5t173.5 -54.5zM483 1079q-98 0 -158.5 64t-60.5 170h86q0 -66 37 -107t96 -41q60 0 97.5 40.5t37.5 107.5h87q0 -104 -61 -169t-161 -65z" />
    <glyph glyph-name="Aogonek" unicode="&#x104;" horiz-adv-x="1236" 
d="M1042 -508q-101 0 -163 57t-62 148q0 170 244 303h-23l-141 393h-557l-141 -393h-117l518 1413h37l518 -1413q-137 -95 -190.5 -158t-53.5 -131q0 -63 38 -98t106 -35q41 0 90 12v-82q-43 -16 -103 -16zM373 492h489l-244 679z" />
    <glyph glyph-name="aogonek" unicode="&#x105;" horiz-adv-x="983" 
d="M420 72q132 0 220 82.5t97 214.5q-126 112 -301 112q-116 0 -185 -57t-69 -152q0 -91 64.5 -145.5t173.5 -54.5zM727 -508q-101 0 -163 57t-62 148q0 169 243 303h-6v174q-55 -92 -141.5 -142t-194.5 -50q-140 0 -230.5 81t-90.5 207q0 132 101 216.5t261 84.5
q173 0 295 -102v98q0 136 -73 217.5t-193 81.5q-163 0 -258 -133l-74 64q66 78 154 121t184 43q160 0 260.5 -108t100.5 -278v-575q-137 -95 -190.5 -158t-53.5 -131q0 -63 38.5 -98t104.5 -35q41 0 90 12v-82q-43 -16 -102 -16z" />
    <glyph glyph-name="Cacute" unicode="&#x106;" horiz-adv-x="1415" 
d="M795 -18q-145 0 -272 54.5t-216.5 148t-141.5 222.5t-52 273q0 196 92 359.5t250.5 257.5t347.5 94q145 0 276 -59.5t226 -164.5l-82 -67q-82 90 -191 138t-231 48q-121 0 -228 -46.5t-183.5 -126t-120.5 -191.5t-44 -238q0 -167 73.5 -303.5t206 -215.5t298.5 -79
q263 0 432 190l78 -65q-101 -112 -234.5 -170.5t-283.5 -58.5zM788 1487l-55 45l201 268l82 -69z" />
    <glyph glyph-name="cacute" unicode="&#x107;" horiz-adv-x="1042" 
d="M584 -18q-204 0 -343 141t-139 348q0 135 62.5 247.5t172 177.5t241.5 65q109 0 206 -47.5t170 -133.5l-73 -63q-133 149 -306 149q-159 0 -263.5 -111.5t-104.5 -279.5q0 -173 109 -286t276 -113q175 0 303 143l66 -55q-149 -182 -377 -182zM571 1057l-55 45l201 268
l82 -70z" />
    <glyph glyph-name="Ccircumflex" unicode="&#x108;" horiz-adv-x="1415" 
d="M795 -18q-145 0 -272 54.5t-216.5 148t-141.5 222.5t-52 273q0 196 92 359.5t250.5 257.5t347.5 94q145 0 276 -59.5t226 -164.5l-82 -67q-82 90 -191 138t-231 48q-121 0 -228 -46.5t-183.5 -126t-120.5 -191.5t-44 -238q0 -167 73.5 -303.5t206 -215.5t298.5 -79
q263 0 432 190l78 -65q-101 -112 -234.5 -170.5t-283.5 -58.5zM578 1513l-52 68l258 193l260 -193l-53 -68l-207 152z" />
    <glyph glyph-name="ccircumflex" unicode="&#x109;" horiz-adv-x="1042" 
d="M584 -18q-204 0 -343 141t-139 348q0 135 62.5 247.5t172 177.5t241.5 65q109 0 206 -47.5t170 -133.5l-73 -63q-133 149 -306 149q-159 0 -263.5 -111.5t-104.5 -279.5q0 -173 109 -286t276 -113q175 0 303 143l66 -55q-149 -182 -377 -182zM360 1083l-51 68l258 192
l260 -192l-53 -68l-207 152z" />
    <glyph glyph-name="Cdotaccent" unicode="&#x10a;" horiz-adv-x="1415" 
d="M795 -18q-145 0 -272 54.5t-216.5 148t-141.5 222.5t-52 273q0 196 92 359.5t250.5 257.5t347.5 94q145 0 276 -59.5t226 -164.5l-82 -67q-82 90 -191 138t-231 48q-121 0 -228 -46.5t-183.5 -126t-120.5 -191.5t-44 -238q0 -167 73.5 -303.5t206 -215.5t298.5 -79
q263 0 432 190l78 -65q-101 -112 -234.5 -170.5t-283.5 -58.5zM784 1581q-31 0 -54 22.5t-23 55.5t22.5 55.5t56.5 22.5q31 0 53.5 -23t22.5 -55q0 -34 -22 -56t-56 -22z" />
    <glyph glyph-name="cdotaccent" unicode="&#x10b;" horiz-adv-x="1042" 
d="M584 -18q-204 0 -343 141t-139 348q0 135 62.5 247.5t172 177.5t241.5 65q109 0 206 -47.5t170 -133.5l-73 -63q-133 149 -306 149q-159 0 -263.5 -111.5t-104.5 -279.5q0 -173 109 -286t276 -113q175 0 303 143l66 -55q-149 -182 -377 -182zM567 1151q-31 0 -54.5 22.5
t-23.5 55.5q0 32 23 55t57 23q31 0 53.5 -23t22.5 -55q0 -34 -22 -56t-56 -22z" />
    <glyph glyph-name="Ccaron" unicode="&#x10c;" horiz-adv-x="1415" 
d="M795 -18q-145 0 -272 54.5t-216.5 148t-141.5 222.5t-52 273q0 196 92 359.5t250.5 257.5t347.5 94q145 0 276 -59.5t226 -164.5l-82 -67q-82 90 -191 138t-231 48q-121 0 -228 -46.5t-183.5 -126t-120.5 -191.5t-44 -238q0 -167 73.5 -303.5t206 -215.5t298.5 -79
q263 0 432 190l78 -65q-101 -112 -234.5 -170.5t-283.5 -58.5zM784 1503l-258 193l52 67l206 -151l207 151l53 -67z" />
    <glyph glyph-name="ccaron" unicode="&#x10d;" horiz-adv-x="1042" 
d="M584 -18q-204 0 -343 141t-139 348q0 135 62.5 247.5t172 177.5t241.5 65q109 0 206 -47.5t170 -133.5l-73 -63q-133 149 -306 149q-159 0 -263.5 -111.5t-104.5 -279.5q0 -173 109 -286t276 -113q175 0 303 143l66 -55q-149 -182 -377 -182zM567 1073l-258 193l51 67
l207 -151l207 151l53 -67z" />
    <glyph glyph-name="Dcaron" unicode="&#x10e;" horiz-adv-x="1478" 
d="M195 0v1372h428q211 0 381 -88.5t266 -245t96 -350.5q0 -196 -96 -353.5t-266 -246t-381 -88.5h-428zM301 98h322q273 0 451.5 167.5t178.5 422.5t-177.5 420.5t-452.5 165.5h-322v-1176zM721 1503l-258 193l51 67l207 -151l207 151l53 -67z" />
    <glyph glyph-name="dcaron" unicode="&#x10f;" horiz-adv-x="1296" 
d="M553 -18q-192 0 -321.5 141t-129.5 348q0 208 130 349t323 141q118 0 212 -56t151 -155v704h100v-1454h-100v193q-57 -98 -152 -154.5t-213 -56.5zM565 76q158 0 259.5 112.5t101.5 282.5q0 171 -101 283t-258 112q-156 0 -258 -112t-102 -283q0 -170 101.5 -282.5
t256.5 -112.5zM1198 1100l-74 18l76 352l117 -30z" />
    <glyph glyph-name="Dcroat" unicode="&#x110;" horiz-adv-x="1511" 
d="M227 0v641h-217v98h217v633h428q158 0 296.5 -52t236.5 -142.5t154.5 -217.5t56.5 -272q0 -147 -56.5 -275t-154.5 -218.5t-236.5 -142.5t-296.5 -52h-428zM334 98h321q135 0 252.5 44.5t200.5 122.5t130.5 187.5t47.5 235.5q0 255 -178 420.5t-453 165.5h-321v-535h287
v-98h-287v-543z" />
    <glyph glyph-name="dcroat" unicode="&#x111;" horiz-adv-x="1185" 
d="M553 -18q-192 0 -321.5 141t-129.5 348q0 208 130 349t323 141q118 0 212 -56t151 -155v401h-355v90h355v213h100v-213h117v-90h-117v-1151h-100v193q-57 -98 -152 -154.5t-213 -56.5zM565 76q158 0 259.5 112.5t101.5 282.5q0 171 -101 283t-258 112q-156 0 -258 -112
t-102 -283q0 -170 101.5 -282.5t256.5 -112.5z" />
    <glyph glyph-name="Emacron" unicode="&#x112;" horiz-adv-x="1015" 
d="M195 0v1372h688v-98h-582v-514h449v-98h-449v-564h592v-98h-698zM336 1610v92h409v-92h-409z" />
    <glyph glyph-name="emacron" unicode="&#x113;" horiz-adv-x="1099" 
d="M586 -18q-212 0 -348 137t-136 350q0 211 130.5 351.5t328.5 140.5q192 0 319.5 -132t127.5 -333q0 -35 -4 -58h-797q10 -163 116 -262.5t267 -99.5q196 0 328 153l65 -55q-151 -192 -397 -192zM209 528h694q-10 152 -105 245t-237 93q-144 0 -240.5 -94t-111.5 -244z
M348 1180v92h410v-92h-410z" />
    <glyph glyph-name="Ebreve" unicode="&#x114;" horiz-adv-x="1015" 
d="M195 0v1372h688v-98h-582v-514h449v-98h-449v-564h592v-98h-698zM539 1509q-99 0 -159.5 64.5t-60.5 169.5h87q0 -66 37 -107t96 -41q60 0 97.5 40.5t37.5 107.5h86q0 -105 -61 -169.5t-160 -64.5z" />
    <glyph glyph-name="ebreve" unicode="&#x115;" horiz-adv-x="1099" 
d="M586 -18q-212 0 -348 137t-136 350q0 211 130.5 351.5t328.5 140.5q192 0 319.5 -132t127.5 -333q0 -35 -4 -58h-797q10 -163 116 -262.5t267 -99.5q196 0 328 153l65 -55q-151 -192 -397 -192zM209 528h694q-10 152 -105 245t-237 93q-144 0 -240.5 -94t-111.5 -244z
M551 1079q-98 0 -158.5 64t-60.5 170h86q0 -66 37 -107t96 -41q60 0 97.5 40.5t37.5 107.5h86q0 -105 -61 -169.5t-160 -64.5z" />
    <glyph glyph-name="Edotaccent" unicode="&#x116;" horiz-adv-x="1015" 
d="M195 0v1372h688v-98h-582v-514h449v-98h-449v-564h592v-98h-698zM541 1581q-31 0 -54.5 22.5t-23.5 55.5q0 32 23 55t57 23q31 0 53 -23t22 -55q0 -34 -21.5 -56t-55.5 -22z" />
    <glyph glyph-name="edotaccent" unicode="&#x117;" horiz-adv-x="1099" 
d="M586 -18q-212 0 -348 137t-136 350q0 211 130.5 351.5t328.5 140.5q192 0 319.5 -132t127.5 -333q0 -35 -4 -58h-797q10 -163 116 -262.5t267 -99.5q196 0 328 153l65 -55q-151 -192 -397 -192zM209 528h694q-10 152 -105 245t-237 93q-144 0 -240.5 -94t-111.5 -244z
M553 1151q-31 0 -54.5 22.5t-23.5 55.5q0 32 23 55t57 23q31 0 53.5 -23t22.5 -55q0 -34 -22 -56t-56 -22z" />
    <glyph glyph-name="Eogonek" unicode="&#x118;" horiz-adv-x="1015" 
d="M782 -508q-102 0 -164.5 57t-62.5 148q0 169 244 303h-604v1372h688v-98h-582v-514h449v-98h-449v-564h592v-98q-137 -95 -190.5 -158t-53.5 -131q0 -63 38.5 -98t105.5 -35q41 0 90 12v-82q-43 -16 -101 -16z" />
    <glyph glyph-name="eogonek" unicode="&#x119;" horiz-adv-x="1099" 
d="M803 -508q-114 0 -183 63t-69 169q0 139 127 266q-58 -8 -94 -8q-211 0 -346.5 137.5t-135.5 349.5q0 211 130.5 351.5t328.5 140.5q192 0 319.5 -132t127.5 -333q0 -35 -4 -58h-797q10 -163 116 -262.5t267 -99.5q196 0 328 153l65 -55q-43 -52 -98 -98
q-133 -104 -186.5 -183.5t-53.5 -152.5q0 -78 46 -120t128 -42q50 0 99 14v-81q-55 -19 -115 -19zM209 528h694q-10 152 -105 245t-237 93q-144 0 -240.5 -94t-111.5 -244z" />
    <glyph glyph-name="Ecaron" unicode="&#x11a;" horiz-adv-x="1015" 
d="M195 0v1372h688v-98h-582v-514h449v-98h-449v-564h592v-98h-698zM539 1503l-258 193l51 67l207 -151l206 151l54 -67z" />
    <glyph glyph-name="ecaron" unicode="&#x11b;" horiz-adv-x="1099" 
d="M586 -18q-212 0 -348 137t-136 350q0 211 130.5 351.5t328.5 140.5q192 0 319.5 -132t127.5 -333q0 -35 -4 -58h-797q10 -163 116 -262.5t267 -99.5q196 0 328 153l65 -55q-151 -192 -397 -192zM209 528h694q-10 152 -105 245t-237 93q-144 0 -240.5 -94t-111.5 -244z
M553 1073l-258 193l51 67l207 -151l207 151l53 -67z" />
    <glyph glyph-name="Gcircumflex" unicode="&#x11c;" horiz-adv-x="1484" 
d="M799 -18q-190 0 -348 93.5t-248 254t-90 352.5q0 145 54.5 277t146 226.5t218.5 150t267 55.5q146 0 278.5 -59.5t227.5 -164.5l-82 -67q-82 89 -192 137.5t-232 48.5q-159 0 -290.5 -79t-207.5 -218t-76 -307q0 -166 73.5 -302t206 -215t298.5 -79q256 0 432 182v359
h-451v98h557v-483q-100 -124 -241 -192t-301 -68zM578 1513l-52 68l258 193l260 -193l-53 -68l-207 152z" />
    <glyph glyph-name="gcircumflex" unicode="&#x11d;" horiz-adv-x="1052" 
d="M516 344q126 0 204.5 73.5t78.5 190.5t-78.5 190.5t-204.5 73.5t-204.5 -73.5t-78.5 -190.5q0 -116 79 -190t204 -74zM541 -422q156 0 248 59.5t92 159.5q0 99 -90 157t-246 58q-157 0 -249.5 -58.5t-92.5 -158.5t91.5 -158.5t246.5 -58.5zM541 -512q-196 0 -317.5 84
t-121.5 219q0 84 50 148t139 100q-152 41 -152 158q0 103 113 149q-119 103 -119 262q0 154 108.5 254.5t274.5 100.5q62 0 137 -21h328v-90h-182q100 -97 100 -244q0 -154 -108 -254t-275 -100q-104 0 -184 41q-44 -3 -71.5 -27t-27.5 -61q0 -49 50 -77t137 -28h153
q184 0 296 -82.5t112 -216.5q0 -141 -121.5 -228t-318.5 -87zM332 1083l-51 68l258 192l260 -192l-54 -68l-206 152z" />
    <glyph glyph-name="Gbreve" unicode="&#x11e;" horiz-adv-x="1484" 
d="M799 -18q-190 0 -348 93.5t-248 254t-90 352.5q0 145 54.5 277t146 226.5t218.5 150t267 55.5q146 0 278.5 -59.5t227.5 -164.5l-82 -67q-82 89 -192 137.5t-232 48.5q-159 0 -290.5 -79t-207.5 -218t-76 -307q0 -166 73.5 -302t206 -215t298.5 -79q256 0 432 182v359
h-451v98h557v-483q-100 -124 -241 -192t-301 -68zM784 1509q-98 0 -158.5 64t-60.5 170h86q0 -66 37 -107t96 -41q60 0 98 40.5t38 107.5h86q0 -104 -61 -169t-161 -65z" />
    <glyph glyph-name="gbreve" unicode="&#x11f;" horiz-adv-x="1052" 
d="M516 344q126 0 204.5 73.5t78.5 190.5t-78.5 190.5t-204.5 73.5t-204.5 -73.5t-78.5 -190.5q0 -116 79 -190t204 -74zM541 -422q156 0 248 59.5t92 159.5q0 99 -90 157t-246 58q-157 0 -249.5 -58.5t-92.5 -158.5t91.5 -158.5t246.5 -58.5zM541 -512q-196 0 -317.5 84
t-121.5 219q0 84 50 148t139 100q-152 41 -152 158q0 103 113 149q-119 103 -119 262q0 154 108.5 254.5t274.5 100.5q62 0 137 -21h328v-90h-182q100 -97 100 -244q0 -154 -108 -254t-275 -100q-104 0 -184 41q-44 -3 -71.5 -27t-27.5 -61q0 -49 50 -77t137 -28h153
q184 0 296 -82.5t112 -216.5q0 -141 -121.5 -228t-318.5 -87zM539 1079q-99 0 -159.5 64.5t-60.5 169.5h87q0 -66 37 -107t96 -41q60 0 97.5 40.5t37.5 107.5h86q0 -105 -61 -169.5t-160 -64.5z" />
    <glyph glyph-name="Gdotaccent" unicode="&#x120;" horiz-adv-x="1484" 
d="M799 -18q-190 0 -348 93.5t-248 254t-90 352.5q0 145 54.5 277t146 226.5t218.5 150t267 55.5q146 0 278.5 -59.5t227.5 -164.5l-82 -67q-82 89 -192 137.5t-232 48.5q-159 0 -290.5 -79t-207.5 -218t-76 -307q0 -166 73.5 -302t206 -215t298.5 -79q256 0 432 182v359
h-451v98h557v-483q-100 -124 -241 -192t-301 -68zM784 1581q-31 0 -54 22.5t-23 55.5t22.5 55.5t56.5 22.5q31 0 53.5 -23t22.5 -55q0 -34 -22 -56t-56 -22z" />
    <glyph glyph-name="gdotaccent" unicode="&#x121;" horiz-adv-x="1052" 
d="M516 344q126 0 204.5 73.5t78.5 190.5t-78.5 190.5t-204.5 73.5t-204.5 -73.5t-78.5 -190.5q0 -116 79 -190t204 -74zM541 -422q156 0 248 59.5t92 159.5q0 99 -90 157t-246 58q-157 0 -249.5 -58.5t-92.5 -158.5t91.5 -158.5t246.5 -58.5zM541 -512q-196 0 -317.5 84
t-121.5 219q0 84 50 148t139 100q-152 41 -152 158q0 103 113 149q-119 103 -119 262q0 154 108.5 254.5t274.5 100.5q62 0 137 -21h328v-90h-182q100 -97 100 -244q0 -154 -108 -254t-275 -100q-104 0 -184 41q-44 -3 -71.5 -27t-27.5 -61q0 -49 50 -77t137 -28h153
q184 0 296 -82.5t112 -216.5q0 -141 -121.5 -228t-318.5 -87zM539 1151q-31 0 -54.5 22.5t-23.5 55.5q0 32 23 55t57 23q31 0 53 -23t22 -55q0 -34 -21.5 -56t-55.5 -22z" />
    <glyph glyph-name="Gcommaaccent" unicode="&#x122;" horiz-adv-x="1484" 
d="M799 -18q-190 0 -348 93.5t-248 254t-90 352.5q0 145 54.5 277t146 226.5t218.5 150t267 55.5q146 0 278.5 -59.5t227.5 -164.5l-82 -67q-82 89 -192 137.5t-232 48.5q-159 0 -290.5 -79t-207.5 -218t-76 -307q0 -166 73.5 -302t206 -215t298.5 -79q256 0 432 182v359
h-451v98h557v-483q-100 -124 -241 -192t-301 -68zM713 -496l-70 21l84 360l115 -32z" />
    <glyph glyph-name="gcommaaccent" unicode="&#x123;" horiz-adv-x="1052" 
d="M516 344q126 0 204.5 73.5t78.5 190.5t-78.5 190.5t-204.5 73.5t-204.5 -73.5t-78.5 -190.5q0 -116 79 -190t204 -74zM541 -422q156 0 248 59.5t92 159.5q0 99 -90 157t-246 58q-157 0 -249.5 -58.5t-92.5 -158.5t91.5 -158.5t246.5 -58.5zM541 -512q-196 0 -317.5 84
t-121.5 219q0 84 50 148t139 100q-152 44 -152 160q0 106 113 147q-119 103 -119 262q0 154 108.5 254.5t274.5 100.5q62 0 137 -21h328v-90h-182q100 -97 100 -244q0 -154 -108 -254t-275 -100q-104 0 -184 41q-45 -3 -70.5 -27t-25.5 -63q0 -103 184 -103h153
q184 0 296 -82.5t112 -216.5q0 -141 -121.5 -228t-318.5 -87zM608 1079l-112 31l116 350l70 -20z" />
    <glyph glyph-name="Hcircumflex" unicode="&#x124;" horiz-adv-x="1388" 
d="M195 0v1372h106v-631h786v631h107v-1372h-107v643h-786v-643h-106zM487 1513l-51 68l258 193l260 -193l-53 -68l-207 152z" />
    <glyph glyph-name="hcircumflex" unicode="&#x125;" horiz-adv-x="1050" 
d="M154 0v1454h100v-670q50 84 130 130.5t177 46.5q153 0 249.5 -108.5t96.5 -277.5v-575h-100v557q0 140 -73 226.5t-195 86.5q-124 0 -204.5 -89t-80.5 -224v-557h-100zM328 1550l-52 68l259 192l260 -192l-54 -68l-206 152z" />
    <glyph glyph-name="Hbar" unicode="&#x126;" horiz-adv-x="1431" 
d="M215 0v1006h-154v94h154v272h107v-272h788v272h107v-272h153v-94h-153v-1006h-107v643h-788v-643h-107zM322 741h788v265h-788v-265z" />
    <glyph glyph-name="hbar" unicode="&#x127;" horiz-adv-x="1060" 
d="M162 0v1151h-121v90h121v213h100v-213h348v-90h-348v-367q51 84 131 130.5t176 46.5q153 0 251 -108.5t98 -277.5v-575h-101v557q0 140 -73.5 224.5t-194.5 84.5q-125 0 -206 -87t-81 -222v-557h-100z" />
    <glyph glyph-name="Imacron" unicode="&#x12a;" horiz-adv-x="491" 
d="M195 0v1372h106v-1372h-106zM41 1610v92h410v-92h-410z" />
    <glyph glyph-name="imacron" unicode="&#x12b;" horiz-adv-x="409" 
d="M152 0v942h100v-942h-100zM0 1180v92h410v-92h-410z" />
    <glyph glyph-name="Ibreve" unicode="&#x12c;" horiz-adv-x="501" 
d="M195 0v1372h106v-1372h-106zM250 1509q-98 0 -158.5 64t-60.5 170h86q0 -66 37 -107t96 -41q60 0 97.5 40.5t37.5 107.5h86q0 -105 -61 -169.5t-160 -64.5z" />
    <glyph glyph-name="ibreve" unicode="&#x12d;" horiz-adv-x="409" 
d="M156 0v942h100v-942h-100zM209 1079q-98 0 -158.5 64t-60.5 170h86q0 -66 37 -107t96 -41q60 0 97.5 40.5t37.5 107.5h86q0 -105 -61 -169.5t-160 -64.5z" />
    <glyph glyph-name="Iogonek" unicode="&#x12e;" horiz-adv-x="497" 
d="M252 -508q-105 0 -168.5 59t-63.5 158q0 157 191 291h-18v1372h106v-1372q-99 -84 -140.5 -146.5t-41.5 -127.5q0 -69 39.5 -108.5t109.5 -39.5q36 0 88 12v-82q-43 -16 -102 -16z" />
    <glyph glyph-name="iogonek" unicode="&#x12f;" horiz-adv-x="403" 
d="M201 -508q-101 0 -161 55.5t-60 149.5q0 158 190 303h-12v942h100v-942q-99 -91 -140.5 -156.5t-41.5 -126.5q0 -65 38 -102t103 -37q35 0 84 12v-82q-43 -16 -100 -16zM207 1149q-32 0 -55 23t-23 57q0 32 23 55t55 23t55 -23t23 -55q0 -34 -22 -57t-56 -23z" />
    <glyph glyph-name="Idotaccent" unicode="&#x130;" horiz-adv-x="493" 
d="M195 0v1372h106v-1372h-106zM252 1581q-31 0 -54.5 22.5t-23.5 55.5q0 32 23 55t57 23q31 0 53.5 -23t22.5 -55q0 -34 -22 -56t-56 -22z" />
    <glyph glyph-name="dotlessi" unicode="&#x131;" horiz-adv-x="407" 
d="M154 0v942h100v-942h-100z" />
    <glyph glyph-name="uni0132" unicode="&#x132;" horiz-adv-x="1374" 
d="M195 0v1372h106v-1372h-106zM850 -20q-195 0 -305 180l86 67q84 -143 221 -143q108 0 169.5 76.5t61.5 212.5v901h-411v98h518v-999q0 -179 -92 -286t-248 -107z" />
    <glyph glyph-name="uni0133" unicode="&#x133;" horiz-adv-x="823" 
d="M154 0v942h100v-942h-100zM455 -512q-96 0 -166 78l63 72q46 -56 105 -56q112 0 112 152v1208h101v-1206q0 -114 -57.5 -181t-157.5 -67zM203 1149q-32 0 -55 23t-23 57q0 32 23 55t55 23t55 -23t23 -55q0 -34 -22 -57t-56 -23zM621 1149q-32 0 -55 23t-23 57
q0 33 22.5 55.5t55.5 22.5q32 0 54.5 -23t22.5 -55q0 -34 -22 -57t-55 -23z" />
    <glyph glyph-name="Jcircumflex" unicode="&#x134;" horiz-adv-x="878" 
d="M354 -20q-193 0 -303 180l84 67q91 -149 223 -149q107 0 168.5 79t61.5 216v901h-412v98h518v-999q0 -179 -92 -286t-248 -107zM225 1513l-51 68l258 193l260 -193l-53 -68l-207 152z" />
    <glyph glyph-name="jcircumflex" unicode="&#x135;" horiz-adv-x="415" 
d="M45 -512q-98 0 -168 78l64 72q46 -56 106 -56q54 0 83.5 39.5t29.5 112.5v1208h100v-1206q0 -114 -58.5 -181t-156.5 -67zM2 1083l-53 68l260 192l258 -192l-51 -68l-207 152z" />
    <glyph glyph-name="Kcommaaccent" unicode="&#x136;" horiz-adv-x="1075" 
d="M195 0v1372h106v-643l592 643h137l-614 -665l628 -707h-145l-598 674v-674h-106zM518 -496l-69 21l83 360l115 -32z" />
    <glyph glyph-name="kcommaaccent" unicode="&#x137;" horiz-adv-x="860" 
d="M154 0v1454h100v-954l453 442h127l-469 -455l485 -487h-137l-459 461v-461h-100zM406 -496l-70 21l84 360l115 -32z" />
    <glyph glyph-name="Lacute" unicode="&#x139;" horiz-adv-x="964" 
d="M195 0v1372h106v-1274h571v-98h-677zM252 1487l-55 45l200 268l82 -69z" />
    <glyph glyph-name="lacute" unicode="&#x13a;" horiz-adv-x="415" 
d="M154 0v1454h100v-1454h-100zM209 1524l-55 45l200 268l82 -70z" />
    <glyph glyph-name="Lcommaaccent" unicode="&#x13b;" horiz-adv-x="964" 
d="M195 0v1372h106v-1274h571v-98h-677zM459 -496l-70 21l84 360l115 -32z" />
    <glyph glyph-name="lcommaaccent" unicode="&#x13c;" horiz-adv-x="413" 
d="M154 0v1454h100v-1454h-100zM131 -496l-70 21l84 360l115 -32z" />
    <glyph glyph-name="Lcaron" unicode="&#x13d;" horiz-adv-x="964" 
d="M195 0v1372h106v-1274h571v-98h-677zM485 1018l-73 18l75 353l117 -31z" />
    <glyph glyph-name="lcaron" unicode="&#x13e;" horiz-adv-x="532" 
d="M154 0v1454h100v-1454h-100zM434 1100l-74 18l76 352l117 -30z" />
    <glyph glyph-name="Ldot" unicode="&#x13f;" horiz-adv-x="954" 
d="M735 635q-34 0 -57 23.5t-23 58.5t23.5 58.5t58.5 23.5q34 0 58 -23.5t24 -58.5t-24.5 -58.5t-59.5 -23.5zM195 0v1372h106v-1274h571v-98h-677z" />
    <glyph glyph-name="ldot" unicode="&#x140;" horiz-adv-x="573" 
d="M489 643q-34 0 -56.5 23.5t-22.5 58.5t23.5 58.5t58.5 23.5q34 0 57.5 -23.5t23.5 -58.5t-24.5 -58.5t-59.5 -23.5zM154 0v1454h100v-1454h-100z" />
    <glyph glyph-name="Lslash" unicode="&#x141;" horiz-adv-x="974" 
d="M205 0v578l-144 -82v110l144 82v684h106v-622l258 147v-106l-258 -150v-543h572v-98h-678z" />
    <glyph glyph-name="lslash" unicode="&#x142;" horiz-adv-x="448" 
d="M174 0v670l-143 -82v100l143 82v684h100v-625l144 82v-100l-144 -82v-729h-100z" />
    <glyph glyph-name="Nacute" unicode="&#x143;" horiz-adv-x="1478" 
d="M1245 -41l-944 1192v-1151h-106v1413h38l945 -1192v1151h106v-1413h-39zM739 1487l-55 45l201 268l82 -69z" />
    <glyph glyph-name="nacute" unicode="&#x144;" horiz-adv-x="1050" 
d="M154 0v942h100v-158q50 84 130 130.5t177 46.5q153 0 249.5 -108.5t96.5 -277.5v-575h-100v557q0 140 -72.5 224.5t-195.5 84.5q-125 0 -205 -87t-80 -222v-557h-100zM535 1057l-56 45l201 268l82 -70z" />
    <glyph glyph-name="Ncommaaccent" unicode="&#x145;" horiz-adv-x="1478" 
d="M1245 -41l-944 1192v-1151h-106v1413h38l945 -1192v1151h106v-1413h-39zM662 -496l-70 21l84 360l115 -32z" />
    <glyph glyph-name="ncommaaccent" unicode="&#x146;" horiz-adv-x="1050" 
d="M154 0v942h100v-158q50 84 130 130.5t177 46.5q153 0 249.5 -108.5t96.5 -277.5v-575h-100v557q0 140 -72.5 224.5t-195.5 84.5q-125 0 -205 -87t-80 -222v-557h-100zM457 -496l-70 21l84 360l115 -32z" />
    <glyph glyph-name="Ncaron" unicode="&#x147;" horiz-adv-x="1478" 
d="M1245 -41l-944 1192v-1151h-106v1413h38l945 -1192v1151h106v-1413h-39zM735 1503l-258 193l51 67l207 -151l207 151l53 -67z" />
    <glyph glyph-name="ncaron" unicode="&#x148;" horiz-adv-x="1050" 
d="M154 0v942h100v-158q50 84 130 130.5t177 46.5q153 0 249.5 -108.5t96.5 -277.5v-575h-100v557q0 140 -72.5 224.5t-195.5 84.5q-125 0 -205 -87t-80 -222v-557h-100zM530 1073l-258 193l52 67l206 -151l207 151l54 -67z" />
    <glyph glyph-name="napostrophe" unicode="&#x149;" horiz-adv-x="1122" 
d="M225 0v942h101v-158q50 84 130 130.5t177 46.5q153 0 249.5 -108.5t96.5 -277.5v-575h-100v557q0 140 -73 224.5t-196 84.5q-124 0 -204 -87t-80 -222v-557h-101zM125 1065l-74 18l76 353l117 -31z" />
    <glyph glyph-name="Eng" unicode="&#x14a;" horiz-adv-x="1478" 
d="M946 -512q-199 0 -313 180l86 68q87 -144 231 -144q106 0 166 76t60 213v117l-875 1149v-1147h-106v1413h38l945 -1237v1196h106v-1491q0 -179 -91 -286t-247 -107z" />
    <glyph glyph-name="eng" unicode="&#x14b;" horiz-adv-x="1050" 
d="M692 -512q-96 0 -166 78l64 72q46 -56 104 -56q55 0 84 39t29 113v823q0 140 -72.5 224.5t-195.5 84.5q-125 0 -205 -87t-80 -222v-557h-100v942h100v-158q50 84 130 130.5t177 46.5q153 0 249.5 -108.5t96.5 -277.5v-839q0 -114 -57.5 -181t-157.5 -67z" />
    <glyph glyph-name="Omacron" unicode="&#x14c;" horiz-adv-x="1597" 
d="M799 -18q-186 0 -344 94t-250 256.5t-92 353.5q0 192 92 354.5t249.5 256.5t344.5 94q140 0 267.5 -55.5t219 -149.5t145.5 -224.5t54 -275.5q0 -143 -54 -273.5t-145.5 -225t-219 -150t-267.5 -55.5zM799 86q159 0 290.5 78.5t207 216.5t75.5 305t-75.5 305t-207 216.5
t-290.5 78.5t-290.5 -78.5t-207.5 -216.5t-76 -305t76 -305t207.5 -216.5t290.5 -78.5zM594 1610v92h410v-92h-410z" />
    <glyph glyph-name="omacron" unicode="&#x14d;" horiz-adv-x="1155" 
d="M578 -18q-198 0 -337 142.5t-139 346.5q0 133 63.5 246t173 178.5t239.5 65.5q97 0 185 -39t151.5 -104.5t101 -156t37.5 -190.5q0 -204 -138.5 -346.5t-336.5 -142.5zM578 76q158 0 264 113.5t106 281.5q0 167 -106.5 281t-263.5 114t-264 -114t-107 -281
q0 -166 107 -280.5t264 -114.5zM367 1180v92h409v-92h-409z" />
    <glyph glyph-name="Obreve" unicode="&#x14e;" horiz-adv-x="1597" 
d="M799 -18q-186 0 -344 94t-250 256.5t-92 353.5q0 192 92 354.5t249.5 256.5t344.5 94q140 0 267.5 -55.5t219 -149.5t145.5 -224.5t54 -275.5q0 -143 -54 -273.5t-145.5 -225t-219 -150t-267.5 -55.5zM799 86q159 0 290.5 78.5t207 216.5t75.5 305t-75.5 305t-207 216.5
t-290.5 78.5t-290.5 -78.5t-207.5 -216.5t-76 -305t76 -305t207.5 -216.5t290.5 -78.5zM799 1509q-98 0 -158.5 64t-60.5 170h86q0 -66 37 -107t96 -41q60 0 97.5 40.5t37.5 107.5h86q0 -105 -61 -169.5t-160 -64.5z" />
    <glyph glyph-name="obreve" unicode="&#x14f;" horiz-adv-x="1155" 
d="M578 -18q-198 0 -337 142.5t-139 346.5q0 133 63.5 246t173 178.5t239.5 65.5q97 0 185 -39t151.5 -104.5t101 -156t37.5 -190.5q0 -204 -138.5 -346.5t-336.5 -142.5zM578 76q158 0 264 113.5t106 281.5q0 167 -106.5 281t-263.5 114t-264 -114t-107 -281
q0 -166 107 -280.5t264 -114.5zM571 1079q-98 0 -158.5 64t-60.5 170h86q0 -66 37 -107t96 -41q60 0 98 40.5t38 107.5h86q0 -104 -61 -169t-161 -65z" />
    <glyph glyph-name="Ohungarumlaut" unicode="&#x150;" horiz-adv-x="1597" 
d="M799 -18q-186 0 -344 94t-250 256.5t-92 353.5q0 192 92 354.5t249.5 256.5t344.5 94q140 0 267.5 -55.5t219 -149.5t145.5 -224.5t54 -275.5q0 -143 -54 -273.5t-145.5 -225t-219 -150t-267.5 -55.5zM799 86q159 0 290.5 78.5t207 216.5t75.5 305t-75.5 305t-207 216.5
t-290.5 78.5t-290.5 -78.5t-207.5 -216.5t-76 -305t76 -305t207.5 -216.5t290.5 -78.5zM696 1485l-61 41l166 264l86 -59zM920 1485l-62 41l166 264l86 -59z" />
    <glyph glyph-name="ohungarumlaut" unicode="&#x151;" horiz-adv-x="1155" 
d="M578 -18q-198 0 -337 142.5t-139 346.5q0 133 63.5 246t173 178.5t239.5 65.5q97 0 185 -39t151.5 -104.5t101 -156t37.5 -190.5q0 -204 -138.5 -346.5t-336.5 -142.5zM578 76q158 0 264 113.5t106 281.5q0 167 -106.5 281t-263.5 114t-264 -114t-107 -281
q0 -166 107 -280.5t264 -114.5zM469 1055l-61 41l165 264l86 -60zM692 1055l-61 41l166 264l86 -60z" />
    <glyph glyph-name="OE" unicode="&#x152;" horiz-adv-x="1665" 
d="M842 0q-156 0 -291.5 52t-231.5 143t-151 218.5t-55 274.5q0 194 94 350.5t261 245t374 88.5h690v-98h-582v-514h449v-98h-449v-564h592v-98h-700zM844 98v1176q-273 0 -446 -164t-173 -422q0 -259 173.5 -424.5t445.5 -165.5z" />
    <glyph glyph-name="oe" unicode="&#x153;" horiz-adv-x="1947" 
d="M578 -18q-198 0 -337 142.5t-139 346.5q0 133 63.5 246t173 178.5t239.5 65.5q135 0 247 -72.5t172 -192.5q56 122 166 193.5t246 71.5q192 0 319 -132t127 -333q0 -12 -4 -58h-796q11 -163 116 -262.5t267 -99.5q196 0 325 153l66 -55q-72 -94 -173.5 -143t-223.5 -49
q-147 0 -262 71t-173 193q-58 -120 -170.5 -192t-248.5 -72zM578 76q158 0 265 114t107 281t-107.5 281t-264.5 114t-264 -114t-107 -281q0 -166 107 -280.5t264 -114.5zM1057 528h694q-9 151 -104.5 243.5t-239.5 92.5t-239.5 -93t-110.5 -243z" />
    <glyph glyph-name="Racute" unicode="&#x154;" horiz-adv-x="1126" 
d="M195 0v1372h309q206 0 336.5 -110t130.5 -283q0 -143 -90.5 -245.5t-239.5 -133.5l403 -600h-126l-396 586h-221v-586h-106zM301 684h203q162 0 261 80.5t99 214.5q0 132 -99.5 213.5t-260.5 81.5h-203v-590zM549 1487l-55 45l200 268l82 -69z" />
    <glyph glyph-name="racute" unicode="&#x155;" horiz-adv-x="620" 
d="M154 0v942h100v-149q46 80 117 124t157 44q23 0 58 -5l-21 -106q-24 6 -55 6q-115 0 -185.5 -81.5t-70.5 -215.5v-559h-100zM373 1057l-56 45l201 268l82 -70z" />
    <glyph glyph-name="Rcommaaccent" unicode="&#x156;" horiz-adv-x="1126" 
d="M195 0v1372h309q206 0 336.5 -110t130.5 -283q0 -143 -90.5 -245.5t-239.5 -133.5l403 -600h-126l-396 586h-221v-586h-106zM301 684h203q162 0 261 80.5t99 214.5q0 132 -99.5 213.5t-260.5 81.5h-203v-590zM526 -496l-69 21l84 360l114 -32z" />
    <glyph glyph-name="rcommaaccent" unicode="&#x157;" horiz-adv-x="616" 
d="M154 0v942h100v-149q46 80 117 124t157 44q23 0 58 -5l-21 -106q-24 6 -55 6q-115 0 -185.5 -81.5t-70.5 -215.5v-559h-100zM131 -496l-70 21l84 360l115 -32z" />
    <glyph glyph-name="Rcaron" unicode="&#x158;" horiz-adv-x="1126" 
d="M195 0v1372h309q206 0 336.5 -110t130.5 -283q0 -143 -90.5 -245.5t-239.5 -133.5l403 -600h-126l-396 586h-221v-586h-106zM301 684h203q162 0 261 80.5t99 214.5q0 132 -99.5 213.5t-260.5 81.5h-203v-590zM563 1503l-258 193l51 67l207 -151l207 151l53 -67z" />
    <glyph glyph-name="rcaron" unicode="&#x159;" horiz-adv-x="620" 
d="M154 0v942h100v-149q46 80 117 124t157 44q23 0 58 -5l-21 -106q-24 6 -55 6q-115 0 -185.5 -81.5t-70.5 -215.5v-559h-100zM371 1073l-258 193l51 67l207 -151l207 151l53 -67z" />
    <glyph glyph-name="Sacute" unicode="&#x15a;" horiz-adv-x="1007" 
d="M504 -18q-134 0 -248 66t-184 185l82 64q135 -217 352 -217q129 0 211 75t82 193q0 103 -70.5 176.5t-222.5 130.5q-180 67 -265 163.5t-85 228.5q0 153 100 248.5t260 95.5q226 0 367 -203l-82 -62q-117 166 -285 166q-116 0 -185 -66.5t-69 -172.5q0 -98 68.5 -170
t216.5 -129q184 -70 271 -168t87 -232q0 -163 -113 -267.5t-288 -104.5zM543 1487l-56 45l201 268l82 -69z" />
    <glyph glyph-name="sacute" unicode="&#x15b;" horiz-adv-x="901" 
d="M469 -18q-122 0 -225 52.5t-172 151.5l75 62q123 -172 326 -172q104 0 170 45t66 121q0 67 -57.5 110.5t-188.5 77.5q-169 44 -248.5 112.5t-79.5 168.5q0 112 86.5 181t224.5 69q217 0 353 -164l-74 -62q-104 131 -281 131q-94 0 -151 -40t-57 -111q0 -66 57.5 -109.5
t189.5 -77.5q168 -44 247 -111.5t79 -168.5q0 -118 -94.5 -192t-245.5 -74zM465 1057l-55 45l200 268l82 -70z" />
    <glyph glyph-name="Scircumflex" unicode="&#x15c;" horiz-adv-x="1007" 
d="M504 -18q-134 0 -248 66t-184 185l82 64q135 -217 352 -217q129 0 211 75t82 193q0 103 -70.5 176.5t-222.5 130.5q-180 67 -265 163.5t-85 228.5q0 153 100 248.5t260 95.5q226 0 367 -203l-82 -62q-117 166 -285 166q-116 0 -185 -66.5t-69 -172.5q0 -98 68.5 -170
t216.5 -129q184 -70 271 -168t87 -232q0 -163 -113 -267.5t-288 -104.5zM332 1513l-51 68l258 193l260 -193l-54 -68l-206 152z" />
    <glyph glyph-name="scircumflex" unicode="&#x15d;" horiz-adv-x="901" 
d="M469 -18q-122 0 -225 52.5t-172 151.5l75 62q123 -172 326 -172q104 0 170 45t66 121q0 67 -57.5 110.5t-188.5 77.5q-169 44 -248.5 112.5t-79.5 168.5q0 112 86.5 181t224.5 69q217 0 353 -164l-74 -62q-104 131 -281 131q-94 0 -151 -40t-57 -111q0 -66 57.5 -109.5
t189.5 -77.5q168 -44 247 -111.5t79 -168.5q0 -118 -94.5 -192t-245.5 -74zM254 1083l-51 68l258 192l260 -192l-53 -68l-207 152z" />
    <glyph glyph-name="Scedilla" unicode="&#x15e;" horiz-adv-x="1007" 
d="M487 -510q-56 0 -99 19.5t-66 44.5l38 71q46 -53 125 -53q53 0 85 28.5t32 75.5q0 50 -35.5 80.5t-97.5 30.5h-63l55 197q-120 9 -222.5 74t-166.5 175l82 64q135 -217 352 -217q129 0 211 75t82 193q0 103 -70.5 176.5t-222.5 130.5q-180 67 -265 163.5t-85 228.5
q0 153 100 248.5t260 95.5q226 0 367 -203l-82 -62q-117 166 -285 166q-116 0 -185 -66.5t-69 -172.5q0 -98 68.5 -170t216.5 -129q184 -70 271 -168t87 -232q0 -153 -100.5 -255.5t-259.5 -114.5l-33 -117q84 -12 131 -62t47 -124q0 -85 -56 -138t-147 -53z" />
    <glyph glyph-name="scedilla" unicode="&#x15f;" horiz-adv-x="901" 
d="M436 -510q-56 0 -99.5 19.5t-66.5 44.5l41 71q16 -20 49.5 -36.5t73.5 -16.5q54 0 85.5 28.5t31.5 75.5q0 50 -35 80.5t-96 30.5h-66l56 199q-213 22 -338 200l75 62q123 -172 326 -172q106 0 171 45t65 121q0 67 -57.5 110.5t-188.5 77.5q-169 44 -248.5 112.5
t-79.5 168.5q0 112 86.5 181t224.5 69q217 0 353 -164l-74 -62q-104 131 -281 131q-96 0 -152 -40t-56 -111q0 -66 57.5 -109.5t189.5 -77.5q168 -44 247 -111.5t79 -168.5q0 -114 -87.5 -186.5t-227.5 -77.5l-31 -117q83 -12 130.5 -62t47.5 -124q0 -85 -57 -138t-148 -53z
" />
    <glyph glyph-name="Scaron" unicode="&#x160;" horiz-adv-x="1007" 
d="M504 -18q-134 0 -248 66t-184 185l82 64q135 -217 352 -217q129 0 211 75t82 193q0 103 -70.5 176.5t-222.5 130.5q-180 67 -265 163.5t-85 228.5q0 153 100 248.5t260 95.5q226 0 367 -203l-82 -62q-117 166 -285 166q-116 0 -185 -66.5t-69 -172.5q0 -98 68.5 -170
t216.5 -129q184 -70 271 -168t87 -232q0 -163 -113 -267.5t-288 -104.5zM539 1503l-258 193l51 67l207 -151l206 151l54 -67z" />
    <glyph glyph-name="scaron" unicode="&#x161;" horiz-adv-x="901" 
d="M469 -18q-122 0 -225 52.5t-172 151.5l75 62q123 -172 326 -172q104 0 170 45t66 121q0 67 -57.5 110.5t-188.5 77.5q-169 44 -248.5 112.5t-79.5 168.5q0 112 86.5 181t224.5 69q217 0 353 -164l-74 -62q-104 131 -281 131q-94 0 -151 -40t-57 -111q0 -66 57.5 -109.5
t189.5 -77.5q168 -44 247 -111.5t79 -168.5q0 -118 -94.5 -192t-245.5 -74zM461 1073l-258 193l51 67l207 -151l207 151l53 -67z" />
    <glyph glyph-name="uni0162" unicode="&#x162;" horiz-adv-x="1122" 
d="M375 -446l39 71q18 -21 51.5 -37t73.5 -16q53 0 84.5 28.5t31.5 75.5q0 50 -35.5 80.5t-97.5 30.5h-63l59 213h-10v1274h-457v98h1020v-98h-457v-1274h-10l-39 -133q84 -12 131 -62t47 -124q0 -85 -56 -138t-146 -53q-56 0 -99.5 19.5t-66.5 44.5z" />
    <glyph glyph-name="uni0163" unicode="&#x163;" horiz-adv-x="704" 
d="M399 -510q-56 0 -99.5 19.5t-66.5 44.5l41 71q16 -20 49.5 -36.5t73.5 -16.5q54 0 85.5 28.5t31.5 75.5q0 50 -34.5 80.5t-96.5 30.5h-66l60 207q-72 23 -112 87.5t-40 158.5v612h-143v90h143v238h101v-238h260v-90h-260v-608q0 -81 37.5 -124.5t105.5 -43.5q86 0 141 61
l54 -61q-82 -94 -207 -94l-31 -115q83 -12 130.5 -62t47.5 -124q0 -85 -56.5 -138t-148.5 -53z" />
    <glyph glyph-name="Tcaron" unicode="&#x164;" horiz-adv-x="1122" 
d="M508 0v1274h-457v98h1020v-98h-457v-1274h-106zM565 1503l-258 193l51 67l207 -151l207 151l53 -67z" />
    <glyph glyph-name="tcaron" unicode="&#x165;" horiz-adv-x="704" 
d="M459 -18q-109 0 -171.5 69t-62.5 189v612h-143v90h143v238h101v-238h260v-90h-260v-608q0 -81 37.5 -124.5t105.5 -43.5q86 0 141 61l54 -61q-82 -94 -205 -94zM520 1100l-74 18l76 352l117 -30z" />
    <glyph glyph-name="Tbar" unicode="&#x166;" horiz-adv-x="1122" 
d="M508 0v653h-240v99h240v522h-457v98h1020v-98h-457v-522h252v-99h-252v-653h-106z" />
    <glyph glyph-name="tbar" unicode="&#x167;" horiz-adv-x="704" 
d="M459 -18q-109 0 -171.5 69t-62.5 189v256h-121v90h121v266h-143v90h143v238h101v-238h260v-90h-260v-266h213v-90h-213v-252q0 -81 37.5 -124.5t105.5 -43.5q86 0 141 61l54 -61q-82 -94 -205 -94z" />
    <glyph glyph-name="Umacron" unicode="&#x16a;" horiz-adv-x="1353" 
d="M678 -18q-221 0 -357.5 156t-136.5 411v823h107v-813q0 -215 105 -344t280 -129t281 129t106 344v813h106v-823q0 -254 -135.5 -410.5t-355.5 -156.5zM473 1610v92h410v-92h-410z" />
    <glyph glyph-name="umacron" unicode="&#x16b;" 
d="M487 -18q-152 0 -248 108t-96 277v575h101v-557q0 -140 72 -224.5t192 -84.5q125 0 205 87t80 222v557h100v-942h-100v158q-51 -84 -130.5 -130t-175.5 -46zM309 1180v92h410v-92h-410z" />
    <glyph glyph-name="Ubreve" unicode="&#x16c;" horiz-adv-x="1353" 
d="M678 -18q-221 0 -357.5 156t-136.5 411v823h107v-813q0 -215 105 -344t280 -129t281 129t106 344v813h106v-823q0 -254 -135.5 -410.5t-355.5 -156.5zM678 1509q-98 0 -158.5 64t-60.5 170h86q0 -66 37 -107t96 -41q60 0 97.5 40.5t37.5 107.5h86q0 -105 -61 -169.5
t-160 -64.5z" />
    <glyph glyph-name="ubreve" unicode="&#x16d;" 
d="M487 -18q-152 0 -248 108t-96 277v575h101v-557q0 -140 72 -224.5t192 -84.5q125 0 205 87t80 222v557h100v-942h-100v158q-51 -84 -130.5 -130t-175.5 -46zM514 1079q-98 0 -158.5 64t-60.5 170h86q0 -66 37 -107t96 -41q60 0 97.5 40.5t37.5 107.5h86
q0 -105 -61 -169.5t-160 -64.5z" />
    <glyph glyph-name="Uring" unicode="&#x16e;" horiz-adv-x="1353" 
d="M678 -18q-221 0 -357.5 156t-136.5 411v823h107v-813q0 -215 105 -344t280 -129t281 129t106 344v813h106v-823q0 -254 -135.5 -410.5t-355.5 -156.5zM678 1464q-75 0 -129.5 54.5t-54.5 128.5t54.5 128t129.5 54q74 0 129 -54.5t55 -127.5q0 -74 -54.5 -128.5
t-129.5 -54.5zM678 1540q43 0 72.5 30t29.5 77t-29.5 76.5t-72.5 29.5q-44 0 -73.5 -29.5t-29.5 -76.5t30 -77t73 -30z" />
    <glyph glyph-name="uring" unicode="&#x16f;" 
d="M487 -18q-152 0 -248 108t-96 277v575h101v-557q0 -140 72 -224.5t192 -84.5q125 0 205 87t80 222v557h100v-942h-100v158q-51 -84 -130.5 -130t-175.5 -46zM514 1034q-75 0 -129.5 54.5t-54.5 128.5t54.5 128t129.5 54q74 0 129 -54.5t55 -127.5q0 -74 -54.5 -128.5
t-129.5 -54.5zM514 1110q43 0 72.5 30t29.5 77t-29.5 76.5t-72.5 29.5t-72.5 -29.5t-29.5 -76.5t29.5 -77t72.5 -30z" />
    <glyph glyph-name="Uhungarumlaut" unicode="&#x170;" horiz-adv-x="1353" 
d="M678 -18q-221 0 -357.5 156t-136.5 411v823h107v-813q0 -215 105 -344t280 -129t281 129t106 344v813h106v-823q0 -254 -135.5 -410.5t-355.5 -156.5zM573 1485l-61 41l166 264l86 -59zM797 1485l-62 41l166 264l86 -59z" />
    <glyph glyph-name="uhungarumlaut" unicode="&#x171;" 
d="M487 -18q-152 0 -248 108t-96 277v575h101v-557q0 -140 72 -224.5t192 -84.5q125 0 205 87t80 222v557h100v-942h-100v158q-51 -84 -130.5 -130t-175.5 -46zM410 1055l-62 41l166 264l86 -60zM633 1055l-62 41l166 264l86 -60z" />
    <glyph glyph-name="Uogonek" unicode="&#x172;" horiz-adv-x="1353" 
d="M780 -508q-101 0 -164 59.5t-63 153.5q0 152 172 281q-32 -4 -47 -4q-219 0 -356.5 156.5t-137.5 410.5v823h107v-813q0 -216 104 -344.5t281 -128.5q175 0 281 129t106 344v813h106v-823q0 -178 -71 -311.5t-205 -210.5q-244 -139 -244 -306q0 -67 39 -105t107 -38
q43 0 92 12v-82q-46 -16 -107 -16z" />
    <glyph glyph-name="uogonek" unicode="&#x173;" 
d="M780 -508q-102 0 -163.5 57t-61.5 148q0 169 238 303v158q-51 -84 -130.5 -130t-175.5 -46q-152 0 -248 108t-96 277v575h101v-557q0 -140 72 -224.5t192 -84.5q125 0 205 87t80 222v557h100v-942q-136 -96 -190 -158.5t-54 -130.5q0 -63 38 -98t106 -35q41 0 90 12v-82
q-43 -16 -103 -16z" />
    <glyph glyph-name="Wcircumflex" unicode="&#x174;" horiz-adv-x="1933" 
d="M518 -41l-457 1413h111l369 -1143l407 1143h35l410 -1143l368 1143h111l-457 -1413h-35l-413 1159l-414 -1159h-35zM756 1513l-51 68l258 193l260 -193l-54 -68l-206 152z" />
    <glyph glyph-name="wcircumflex" unicode="&#x175;" horiz-adv-x="1347" 
d="M365 -41l-324 983h96l248 -747l270 768h35l273 -768l245 747h99l-326 -983h-35l-272 786l-275 -786h-34zM467 1083l-51 68l258 192l260 -192l-53 -68l-207 152z" />
    <glyph glyph-name="Ycircumflex" unicode="&#x176;" horiz-adv-x="1067" 
d="M477 0v543l-426 829h119l365 -710l368 710h113l-432 -829v-543h-107zM328 1513l-52 68l259 193l260 -193l-54 -68l-206 152z" />
    <glyph glyph-name="ycircumflex" unicode="&#x177;" horiz-adv-x="903" 
d="M199 -512l190 496l-348 958h109l294 -813l316 813h102l-561 -1454h-102zM246 1083l-51 68l258 192l260 -192l-54 -68l-206 152z" />
    <glyph glyph-name="Ydieresis" unicode="&#x178;" horiz-adv-x="1067" 
d="M477 0v543l-426 829h119l365 -710l368 710h113l-432 -829v-543h-107zM365 1581q-34 0 -56 22t-22 56q0 32 23 55t55 23t54.5 -23t22.5 -55q0 -33 -22 -55.5t-55 -22.5zM705 1581q-33 0 -55.5 22.5t-22.5 55.5q0 32 23 55t57 23q31 0 53 -23t22 -55q0 -34 -21.5 -56
t-55.5 -22z" />
    <glyph glyph-name="Zacute" unicode="&#x179;" horiz-adv-x="1196" 
d="M92 0v35l830 1239h-793v98h965v-35l-832 -1239h815v-98h-985zM610 1487l-55 45l201 268l82 -69z" />
    <glyph glyph-name="zacute" unicode="&#x17a;" horiz-adv-x="913" 
d="M72 0v29l594 823h-557v90h722v-29l-593 -823h591v-90h-757zM471 1057l-55 45l200 268l82 -70z" />
    <glyph glyph-name="Zdotaccent" unicode="&#x17b;" horiz-adv-x="1196" 
d="M92 0v35l830 1239h-793v98h965v-35l-832 -1239h815v-98h-985zM608 1581q-31 0 -54.5 22.5t-23.5 55.5q0 32 23 55t57 23q31 0 53.5 -23t22.5 -55q0 -34 -22 -56t-56 -22z" />
    <glyph glyph-name="zdotaccent" unicode="&#x17c;" horiz-adv-x="913" 
d="M72 0v29l594 823h-557v90h722v-29l-593 -823h591v-90h-757zM467 1151q-31 0 -54.5 22.5t-23.5 55.5q0 32 23 55t57 23q31 0 53.5 -23t22.5 -55q0 -34 -22 -56t-56 -22z" />
    <glyph glyph-name="Zcaron" unicode="&#x17d;" horiz-adv-x="1196" 
d="M92 0v35l830 1239h-793v98h965v-35l-832 -1239h815v-98h-985zM606 1503l-258 193l51 67l207 -151l207 151l53 -67z" />
    <glyph glyph-name="zcaron" unicode="&#x17e;" horiz-adv-x="913" 
d="M72 0v29l594 823h-557v90h722v-29l-593 -823h591v-90h-757zM467 1073l-258 193l51 67l207 -151l207 151l53 -67z" />
    <glyph glyph-name="uni018F" unicode="&#x18f;" horiz-adv-x="1507" 
d="M743 -18q-135 0 -254 51t-204 139t-134 212t-49 265q0 52 2 72h1178q-12 249 -164 407t-379 158q-124 0 -237.5 -49.5t-200.5 -142.5l-80 69q103 108 240.5 168t281.5 60q137 0 258 -55t207.5 -149t136.5 -226t50 -281q0 -147 -50 -277t-136 -222t-207 -145.5t-259 -53.5
zM750 86q219 0 365 148.5t165 388.5h-1065q14 -235 163.5 -386t371.5 -151z" />
    <glyph glyph-name="florin" unicode="&#x192;" horiz-adv-x="747" 
d="M92 -512q-94 0 -164 53l43 86q54 -43 119 -43q62 0 101 42.5t45 115.5l96 1110h-172v90h180l22 260q11 115 76 183.5t166 68.5q94 0 164 -53l-43 -86q-54 43 -119 43q-61 0 -99 -42t-44 -116l-25 -258h240v-90h-246l-98 -1112q-11 -115 -76 -183.5t-166 -68.5z" />
    <glyph glyph-name="Aringacute" unicode="&#x1fa;" horiz-adv-x="1236" 
d="M82 0l493 1346q-62 14 -101.5 62t-39.5 112q0 74 54 126t130 52q78 0 131.5 -52t53.5 -126q0 -64 -39.5 -113t-101.5 -61l493 -1346h-117l-141 393h-557l-141 -393h-117zM373 492h489l-244 679zM618 1415q43 0 73 30t30 75q0 44 -30 74t-73 30t-71.5 -30t-28.5 -74
q0 -46 28.5 -75.5t71.5 -29.5zM586 1745l-37 61l280 183l54 -93z" />
    <glyph glyph-name="aringacute" unicode="&#x1fb;" horiz-adv-x="983" 
d="M403 -18q-140 0 -230.5 81t-90.5 207q0 132 100 216.5t254 84.5q180 0 303 -102v98q0 136 -73 217.5t-193 81.5q-163 0 -258 -133l-74 64q66 78 154 121t184 43q160 0 260.5 -108t100.5 -278v-575h-101v174q-55 -92 -141.5 -142t-194.5 -50zM420 72q132 0 220 82.5
t97 214.5q-126 112 -301 112q-116 0 -185 -57t-69 -152q0 -91 64.5 -145.5t173.5 -54.5zM492 1026q-77 0 -131 52.5t-54 127.5q0 74 54.5 126t130.5 52q78 0 131 -51.5t53 -126.5t-53 -127.5t-131 -52.5zM492 1102q44 0 73 29t29 75q0 45 -29 75t-73 30q-43 0 -72 -30.5
t-29 -74.5q0 -45 29 -74.5t72 -29.5zM459 1432l-37 61l280 182l54 -92z" />
    <glyph glyph-name="AEacute" unicode="&#x1fc;" horiz-adv-x="1554" 
d="M-10 0l665 1372h758v-98h-633l66 -514h465v-98h-453l72 -564h502v-98h-594l-50 383h-501l-181 -383h-116zM334 481h442l-94 738zM811 1487l-55 45l200 268l82 -69z" />
    <glyph glyph-name="aeacute" unicode="&#x1fd;" horiz-adv-x="1701" 
d="M412 -18q-147 0 -238.5 80t-91.5 206q0 134 98.5 218.5t257.5 84.5q178 0 303 -102v98q0 136 -73 217.5t-195 81.5q-163 0 -258 -133l-74 64q65 78 153 121t185 43q115 0 202 -59t128 -165q58 107 155.5 167.5t217.5 60.5q183 0 305.5 -132.5t122.5 -332.5q0 -35 -4 -58
h-764q11 -164 110.5 -265t253.5 -101q179 0 314 157l65 -55q-151 -192 -385 -192q-136 0 -241 66t-160 181q-48 -115 -151.5 -183t-235.5 -68zM420 72q133 0 220.5 81.5t96.5 215.5q-129 112 -301 112q-114 0 -184 -57t-70 -152q0 -91 64 -145.5t174 -54.5zM844 532h661
q-9 152 -99.5 246t-225.5 94q-136 0 -228.5 -95t-107.5 -245zM823 1057l-55 45l201 268l82 -70z" />
    <glyph glyph-name="Oslashacute" unicode="&#x1fe;" horiz-adv-x="1597" 
d="M330 -68l-80 58l108 155q-115 99 -180 240t-65 301q0 192 92 354.5t249.5 256.5t344.5 94q196 0 360 -105l105 150l82 -58l-107 -149q115 -99 180.5 -240.5t65.5 -302.5q0 -143 -54 -273.5t-145.5 -225t-219 -150t-267.5 -55.5q-197 0 -361 104zM420 231l678 969
q-134 86 -299 86q-159 0 -290.5 -78.5t-207.5 -216.5t-76 -305q0 -136 51.5 -254t143.5 -201zM799 86q159 0 290.5 78.5t207 216.5t75.5 305q0 135 -51.5 253.5t-142.5 201.5l-680 -969q134 -86 301 -86zM803 1487l-55 45l200 268l82 -69z" />
    <glyph glyph-name="oslashacute" unicode="&#x1ff;" horiz-adv-x="1155" 
d="M262 -59l-74 53l76 108q-77 69 -119.5 164t-42.5 205q0 133 63.5 246t173 178.5t239.5 65.5q126 0 239 -66l76 106l74 -53l-76 -108q76 -69 119 -164.5t43 -204.5q0 -204 -138.5 -346.5t-336.5 -142.5q-129 0 -240 65zM322 182l442 633q-85 51 -186 51q-157 0 -264 -114
t-107 -281q0 -174 115 -289zM578 76q158 0 264 113.5t106 281.5q0 174 -112 289l-443 -633q82 -51 185 -51zM575 1057l-55 45l201 268l82 -70z" />
    <glyph glyph-name="Scommaaccent" unicode="&#x218;" horiz-adv-x="1007" 
d="M504 -18q-134 0 -248 66t-184 185l82 64q135 -217 352 -217q129 0 211 75t82 193q0 103 -70.5 176.5t-222.5 130.5q-180 67 -265 163.5t-85 228.5q0 153 100 248.5t260 95.5q226 0 367 -203l-82 -62q-117 166 -285 166q-116 0 -185 -66.5t-69 -172.5q0 -98 68.5 -170
t216.5 -129q184 -70 271 -168t87 -232q0 -163 -113 -267.5t-288 -104.5zM426 -496l-70 21l84 360l115 -32z" />
    <glyph glyph-name="scommaaccent" unicode="&#x219;" horiz-adv-x="901" 
d="M469 -18q-122 0 -225 52.5t-172 151.5l75 62q123 -172 326 -172q104 0 170 45t66 121q0 67 -57.5 110.5t-188.5 77.5q-169 44 -248.5 112.5t-79.5 168.5q0 112 86.5 181t224.5 69q217 0 353 -164l-74 -62q-104 131 -281 131q-94 0 -151 -40t-57 -111q0 -66 57.5 -109.5
t189.5 -77.5q168 -44 247 -111.5t79 -168.5q0 -118 -94.5 -192t-245.5 -74zM377 -496l-70 21l84 360l115 -32z" />
    <glyph glyph-name="uni021A" unicode="&#x21a;" horiz-adv-x="1122" 
d="M508 0v1274h-457v98h1020v-98h-457v-1274h-106zM492 -496l-70 21l84 360l115 -32z" />
    <glyph glyph-name="uni021B" unicode="&#x21b;" horiz-adv-x="704" 
d="M459 -18q-109 0 -171.5 69t-62.5 189v612h-143v90h143v238h101v-238h260v-90h-260v-608q0 -81 37.5 -124.5t105.5 -43.5q86 0 141 61l54 -61q-82 -94 -205 -94zM365 -496l-70 21l84 360l115 -32z" />
    <glyph glyph-name="uni0232" unicode="&#x232;" horiz-adv-x="1067" 
d="M477 0v543l-426 829h119l365 -710l368 710h113l-432 -829v-543h-107zM330 1610v92h409v-92h-409z" />
    <glyph glyph-name="uni0233" unicode="&#x233;" horiz-adv-x="903" 
d="M199 -512l190 496l-348 958h109l294 -813l316 813h102l-561 -1454h-102zM248 1180v92h409v-92h-409z" />
    <glyph glyph-name="uni0244" unicode="&#x244;" horiz-adv-x="1398" 
d="M696 -18q-220 0 -354.5 156t-134.5 411v194h-156v99h156v530h106v-530h772v530h107v-530h156v-99h-156v-194q0 -253 -138 -410t-358 -157zM702 86q175 0 279 129t104 344v184h-772v-184q0 -215 106 -344t283 -129z" />
    <glyph glyph-name="uni0259" unicode="&#x259;" horiz-adv-x="1099" 
d="M539 -18q-192 0 -319.5 131.5t-127.5 332.5q0 35 4 58h797q-9 161 -106 261.5t-248 100.5q-203 0 -332 -153l-66 57q73 93 175 142t221 49q205 0 332.5 -136.5t127.5 -345.5q0 -215 -130.5 -356t-327.5 -141zM539 76q142 0 238.5 93.5t113.5 244.5h-694q10 -152 105 -245
t237 -93z" />
    <glyph glyph-name="uni0289" unicode="&#x289;" horiz-adv-x="1064" 
d="M498 -18q-152 0 -248 108t-96 277v151h-103v90h103v334h100v-334h549v334h100v-334h101v-90h-101v-518h-100v158q-51 -84 -130 -130t-175 -46zM518 76q125 0 205 87t80 222v133h-549v-133q0 -140 72 -224.5t192 -84.5z" />
    <glyph glyph-name="uni02BC" unicode="&#x2bc;" horiz-adv-x="233" 
d="M94 1018l-74 18l76 353l117 -31z" />
    <glyph glyph-name="circumflex" unicode="&#x2c6;" horiz-adv-x="559" 
d="M72 1083l-52 68l259 192l260 -192l-54 -68l-206 152z" />
    <glyph glyph-name="caron" unicode="&#x2c7;" horiz-adv-x="559" 
d="M279 1073l-259 193l52 67l207 -151l206 151l54 -67z" />
    <glyph glyph-name="breve" unicode="&#x2d8;" horiz-adv-x="481" 
d="M240 1079q-99 0 -159.5 64.5t-60.5 169.5h86q0 -66 37.5 -107t96.5 -41q60 0 97.5 40.5t37.5 107.5h86q0 -105 -61 -169.5t-160 -64.5z" />
    <glyph glyph-name="dotaccent" unicode="&#x2d9;" horiz-adv-x="196" 
d="M98 1151q-31 0 -54.5 22.5t-23.5 55.5q0 32 23 55t57 23q31 0 53.5 -23t22.5 -55q0 -34 -22 -56t-56 -22z" />
    <glyph glyph-name="ring" unicode="&#x2da;" horiz-adv-x="409" 
d="M205 1034q-75 0 -130 54.5t-55 128.5t55 128t130 54t129.5 -54.5t54.5 -127.5q0 -74 -54.5 -128.5t-129.5 -54.5zM205 1110q43 0 72.5 30t29.5 77t-29.5 76.5t-72.5 29.5t-73 -29.5t-30 -76.5t30 -77t73 -30z" />
    <glyph glyph-name="ogonek" unicode="&#x2db;" horiz-adv-x="378" 
d="M246 -508q-101 0 -163.5 57t-62.5 148q0 170 244 303h94q-136 -95 -189.5 -158t-53.5 -131q0 -63 37.5 -98t105.5 -35q40 0 90 12v-82q-43 -16 -102 -16z" />
    <glyph glyph-name="tilde" unicode="&#x2dc;" horiz-adv-x="550" 
d="M100 1139l-80 37q22 63 64 97t98 34q44 0 105 -37q56 -39 86 -39q50 0 78 78l79 -39q-20 -62 -63 -96.5t-98 -34.5q-51 0 -107 39q-53 36 -84 36q-51 0 -78 -75z" />
    <glyph glyph-name="hungarumlaut" unicode="&#x2dd;" horiz-adv-x="516" 
d="M82 1055l-62 41l166 264l86 -60zM305 1055l-61 41l166 264l86 -60z" />
    <glyph glyph-name="uni0301" unicode="&#x301;" horiz-adv-x="0" 
d="M-678 1487l-55 45l201 268l81 -69z" />
    <glyph glyph-name="uni030A" unicode="&#x30a;" horiz-adv-x="0" 
d="M-676 1464q-75 0 -129.5 54.5t-54.5 128.5t54.5 128t129.5 54q74 0 129 -54.5t55 -127.5q0 -74 -54.5 -128.5t-129.5 -54.5zM-676 1540q43 0 73 30t30 77t-29.5 76.5t-73.5 29.5q-43 0 -72.5 -29.5t-29.5 -76.5t29.5 -77t72.5 -30z" />
    <glyph glyph-name="uni0326" unicode="&#x326;" horiz-adv-x="239" 
d="M90 -496l-70 21l84 360l115 -32z" />
    <glyph glyph-name="uni0401" unicode="&#x401;" horiz-adv-x="1015" 
d="M195 0v1372h688v-98h-582v-514h449v-98h-449v-564h592v-98h-698zM369 1581q-34 0 -56 22t-22 56q0 32 23 55t55 23t54.5 -23t22.5 -55q0 -33 -22 -55.5t-55 -22.5zM709 1581q-33 0 -55.5 22.5t-22.5 55.5q0 32 23 55t57 23q31 0 53 -23t22 -55q0 -34 -21.5 -56t-55.5 -22
z" />
    <glyph glyph-name="uni0402" unicode="&#x402;" horiz-adv-x="1341" 
d="M866 -18q-100 0 -161 41l38 92q50 -35 125 -35q110 0 177 88t67 231q0 154 -79 248t-208 94q-149 0 -309 -75v-666h-106v1274h-390v98h959v-98h-463v-508q148 74 318 74q173 0 279 -121.5t106 -315.5q0 -189 -98 -305t-255 -116z" />
    <glyph glyph-name="uni0403" unicode="&#x403;" horiz-adv-x="964" 
d="M195 0v1372h698v-98h-592v-1274h-106zM547 1487l-55 45l200 268l82 -69z" />
    <glyph glyph-name="uni0404" unicode="&#x404;" horiz-adv-x="1394" 
d="M774 -18q-144 0 -267 52.5t-209.5 145t-135.5 224t-49 284.5q0 152 48.5 282.5t133.5 223t206 145t261 52.5q150 0 283 -60.5t231 -167.5l-80 -69q-173 192 -434 192q-226 0 -373 -150t-164 -395h709v-98h-709q15 -249 167 -403t384 -154q131 0 245 51.5t196 145.5
l75 -66q-208 -235 -518 -235z" />
    <glyph glyph-name="uni0405" unicode="&#x405;" horiz-adv-x="1007" 
d="M504 -18q-134 0 -248 66t-184 185l82 64q135 -217 352 -217q129 0 211 75t82 193q0 103 -70.5 176.5t-222.5 130.5q-180 67 -265 163.5t-85 228.5q0 153 100 248.5t260 95.5q226 0 367 -203l-82 -62q-117 166 -285 166q-116 0 -185 -66.5t-69 -172.5q0 -98 68.5 -170
t216.5 -129q184 -70 271 -168t87 -232q0 -163 -113 -267.5t-288 -104.5z" />
    <glyph glyph-name="uni0406" unicode="&#x406;" horiz-adv-x="495" 
d="M195 0v1372h106v-1372h-106z" />
    <glyph glyph-name="uni0407" unicode="&#x407;" horiz-adv-x="505" 
d="M195 0v1372h106v-1372h-106zM88 1579q-34 0 -56 23t-22 57q0 32 23 55t55 23t55 -23t23 -55q0 -34 -23 -57t-55 -23zM408 1579q-33 0 -56.5 23.5t-23.5 56.5q0 32 23 55t57 23q32 0 54.5 -23t22.5 -55q0 -34 -22.5 -57t-54.5 -23z" />
    <glyph glyph-name="uni0408" unicode="&#x408;" horiz-adv-x="878" 
d="M354 -20q-193 0 -303 180l84 67q91 -149 223 -149q107 0 168.5 79t61.5 216v901h-412v98h518v-999q0 -179 -92 -286t-248 -107z" />
    <glyph glyph-name="uni0409" unicode="&#x409;" horiz-adv-x="1921" 
d="M129 -10q-50 0 -88 10v106q42 -10 86 -10q186 0 186 297v979h820v-551h206q206 0 337.5 -115t131.5 -296t-131.5 -295.5t-337.5 -114.5h-313v1274h-606v-879q0 -199 -74.5 -302t-216.5 -103zM1133 88h206q162 0 262.5 90t100.5 232q0 141 -100 227t-263 86h-206v-635z
" />
    <glyph glyph-name="uni040A" unicode="&#x40a;" horiz-adv-x="1976" 
d="M195 0v1372h106v-588h786v588h107v-588h209q202 0 331.5 -109.5t129.5 -281.5q0 -173 -130 -283t-333 -110h-314v686h-786v-686h-106zM1194 98h207q160 0 258 81t98 214q0 132 -98.5 212.5t-257.5 80.5h-207v-588z" />
    <glyph glyph-name="uni040B" unicode="&#x40b;" horiz-adv-x="1347" 
d="M410 0v1274h-390v98h959v-98h-463v-508q148 74 315 74t275 -110t108 -286v-444h-106v444q0 133 -78.5 215t-206.5 82q-147 0 -307 -75v-666h-106z" />
    <glyph glyph-name="uni040C" unicode="&#x40c;" horiz-adv-x="1075" 
d="M195 0v1372h106v-643l592 643h137l-614 -665l628 -707h-145l-598 674v-674h-106zM586 1487l-56 45l201 268l82 -69z" />
    <glyph glyph-name="uni040E" unicode="&#x40e;" horiz-adv-x="1067" 
d="M317 0l152 350l-428 1022h115l370 -885l379 885h111l-588 -1372h-111zM537 1505q-103 0 -167.5 66.5t-64.5 173.5h94q0 -69 39 -112.5t99 -43.5q61 0 100 43.5t39 112.5h94q0 -107 -64.5 -173.5t-168.5 -66.5z" />
    <glyph glyph-name="uni040F" unicode="&#x40f;" horiz-adv-x="1339" 
d="M616 -307v307h-421v1372h106v-1274h737v1274h107v-1372h-422v-307h-107z" />
    <glyph glyph-name="uni0410" unicode="&#x410;" horiz-adv-x="1236" 
d="M82 0l518 1413h37l518 -1413h-117l-141 393h-557l-141 -393h-117zM373 492h489l-244 679z" />
    <glyph glyph-name="uni0411" unicode="&#x411;" horiz-adv-x="1071" 
d="M195 0v1372h671v-98h-565v-483h201q206 0 336.5 -110.5t130.5 -285.5t-130.5 -285t-336.5 -110h-307zM301 98h199q163 0 262.5 81t99.5 216q0 134 -99.5 215.5t-262.5 81.5h-199v-594z" />
    <glyph glyph-name="uni0412" unicode="&#x412;" horiz-adv-x="1101" 
d="M195 0v1372h284q188 0 309 -97t121 -247q0 -99 -56 -176.5t-155 -122.5q134 -39 212.5 -132t78.5 -218q0 -165 -131 -272t-336 -107h-327zM301 98h219q163 0 263 79t100 208q0 128 -100.5 207.5t-262.5 79.5h-219v-574zM301 770h178q145 0 234.5 70t89.5 184
q0 113 -89.5 181.5t-234.5 68.5h-178v-504z" />
    <glyph glyph-name="uni0413" unicode="&#x413;" horiz-adv-x="964" 
d="M195 0v1372h698v-98h-592v-1274h-106z" />
    <glyph glyph-name="uni0414" unicode="&#x414;" horiz-adv-x="1325" 
d="M248 98h739v1176h-594v-510q0 -262 -34.5 -421t-110.5 -245zM51 -307v405q111 0 173.5 175.5t62.5 488.5v610h807v-1274h170v-405h-107v307h-999v-307h-107z" />
    <glyph glyph-name="uni0415" unicode="&#x415;" horiz-adv-x="1015" 
d="M195 0v1372h688v-98h-582v-514h449v-98h-449v-564h592v-98h-698z" />
    <glyph glyph-name="uni0416" unicode="&#x416;" horiz-adv-x="1564" 
d="M20 0l596 705l-577 667h129l561 -647v647h107v-647l559 647h131l-578 -667l596 -705h-137l-571 676v-676h-107v676l-571 -676h-138z" />
    <glyph glyph-name="uni0417" unicode="&#x417;" horiz-adv-x="1058" 
d="M526 -18q-146 0 -261.5 71t-182.5 205l90 55q55 -114 146 -173.5t210 -59.5q138 0 222 78.5t84 206.5q0 140 -104 222.5t-281 82.5h-99v98h99q149 0 239 77t90 202q0 109 -72 177t-190 68q-174 0 -276 -166l-82 56q60 100 155 154.5t211 54.5q160 0 263.5 -96t103.5 -244
q0 -109 -59.5 -193t-165.5 -129q130 -43 205 -139.5t75 -227.5q0 -167 -117.5 -273.5t-302.5 -106.5z" />
    <glyph glyph-name="uni0418" unicode="&#x418;" horiz-adv-x="1470" 
d="M195 -41v1413h106v-1169l940 1210h35v-1413h-107v1169l-940 -1210h-34z" />
    <glyph glyph-name="uni0419" unicode="&#x419;" horiz-adv-x="1470" 
d="M195 -41v1413h106v-1169l940 1210h35v-1413h-107v1169l-940 -1210h-34zM735 1505q-103 0 -167 66.5t-64 173.5h94q0 -69 38.5 -112.5t98.5 -43.5q61 0 100 43.5t39 112.5h95q0 -107 -65 -173.5t-169 -66.5z" />
    <glyph glyph-name="uni041A" unicode="&#x41a;" horiz-adv-x="1075" 
d="M195 0v1372h106v-643l592 643h137l-614 -665l628 -707h-145l-598 674v-674h-106z" />
    <glyph glyph-name="uni041B" unicode="&#x41b;" horiz-adv-x="1327" 
d="M129 -10q-50 0 -88 10v106q42 -10 86 -10q186 0 186 297v979h820v-1372h-107v1274h-606v-879q0 -199 -74.5 -302t-216.5 -103z" />
    <glyph glyph-name="uni041C" unicode="&#x41c;" horiz-adv-x="1673" 
d="M195 0v1413h34l609 -893l606 893h35v-1413h-107v1124l-518 -762h-35l-518 758v-1120h-106z" />
    <glyph glyph-name="uni041D" unicode="&#x41d;" horiz-adv-x="1388" 
d="M195 0v1372h106v-631h786v631h107v-1372h-107v643h-786v-643h-106z" />
    <glyph glyph-name="uni041E" unicode="&#x41e;" horiz-adv-x="1597" 
d="M799 -18q-186 0 -344 94t-250 256.5t-92 353.5q0 192 92 354.5t249.5 256.5t344.5 94q140 0 267.5 -55.5t219 -149.5t145.5 -224.5t54 -275.5q0 -143 -54 -273.5t-145.5 -225t-219 -150t-267.5 -55.5zM799 86q159 0 290.5 78.5t207 216.5t75.5 305t-75.5 305t-207 216.5
t-290.5 78.5t-290.5 -78.5t-207.5 -216.5t-76 -305t76 -305t207.5 -216.5t290.5 -78.5z" />
    <glyph glyph-name="uni041F" unicode="&#x41f;" horiz-adv-x="1366" 
d="M195 0v1372h976v-1372h-106v1274h-764v-1274h-106z" />
    <glyph glyph-name="uni0420" unicode="&#x420;" horiz-adv-x="1060" 
d="M195 0v1372h307q206 0 336.5 -112t130.5 -289t-130.5 -288.5t-336.5 -111.5h-201v-571h-106zM301 670h199q163 0 262.5 82.5t99.5 218.5q0 135 -100 219t-262 84h-199v-604z" />
    <glyph glyph-name="uni0421" unicode="&#x421;" horiz-adv-x="1415" 
d="M795 -18q-145 0 -272 54.5t-216.5 148t-141.5 222.5t-52 273q0 196 92 359.5t250.5 257.5t347.5 94q145 0 276 -59.5t226 -164.5l-82 -67q-82 90 -191 138t-231 48q-121 0 -228 -46.5t-183.5 -126t-120.5 -191.5t-44 -238q0 -167 73.5 -303.5t206 -215.5t298.5 -79
q263 0 432 190l78 -65q-101 -112 -234.5 -170.5t-283.5 -58.5z" />
    <glyph glyph-name="uni0422" unicode="&#x422;" horiz-adv-x="1122" 
d="M508 0v1274h-457v98h1020v-98h-457v-1274h-106z" />
    <glyph glyph-name="uni0423" unicode="&#x423;" horiz-adv-x="1067" 
d="M317 0l152 350l-428 1022h115l370 -885l379 885h111l-588 -1372h-111z" />
    <glyph glyph-name="uni0424" unicode="&#x424;" horiz-adv-x="1581" 
d="M737 -90v172q-177 0 -320 78.5t-223.5 217t-80.5 310.5q0 171 80.5 308.5t223 215.5t320.5 78v172h107v-172q178 0 320.5 -78t223 -215.5t80.5 -308.5q0 -172 -80.5 -310.5t-223.5 -217t-320 -78.5v-172h-107zM737 180v1012q-224 0 -368 -142.5t-144 -361.5
q0 -220 145 -364t367 -144zM844 180q222 0 367 144t145 364q0 219 -144 361.5t-368 142.5v-1012z" />
    <glyph glyph-name="uni0425" unicode="&#x425;" horiz-adv-x="1130" 
d="M61 0l441 700l-414 672h127l358 -586l361 586h121l-420 -672l434 -700h-127l-377 612l-383 -612h-121z" />
    <glyph glyph-name="uni0426" unicode="&#x426;" horiz-adv-x="1347" 
d="M1169 -307v307h-974v1372h106v-1274h737v1274h107v-1274h131v-405h-107z" />
    <glyph glyph-name="uni0427" unicode="&#x427;" horiz-adv-x="1144" 
d="M844 0v543q-142 -74 -309 -74t-274 110.5t-107 286.5v506h106v-506q0 -134 78 -216.5t205 -82.5q146 0 301 76v729h106v-1372h-106z" />
    <glyph glyph-name="uni0428" unicode="&#x428;" horiz-adv-x="2101" 
d="M195 0v1372h106v-1274h694v1274h107v-1274h698v1274h107v-1372h-1712z" />
    <glyph glyph-name="uni0429" unicode="&#x429;" horiz-adv-x="2109" 
d="M1931 -307v307h-1736v1372h106v-1274h694v1274h107v-1274h698v1274h107v-1274h131v-405h-107z" />
    <glyph glyph-name="uni042A" unicode="&#x42a;" horiz-adv-x="1120" 
d="M233 0v1274h-213v98h320v-551h201q206 0 336.5 -115t130.5 -296t-130.5 -295.5t-336.5 -114.5h-308zM340 98h199q163 0 262.5 85.5t99.5 226.5t-99.5 227t-262.5 86h-199v-625z" />
    <glyph glyph-name="uni042B" unicode="&#x42b;" horiz-adv-x="1474" 
d="M195 0v1372h106v-551h180q206 0 336.5 -115t130.5 -296t-130.5 -295.5t-336.5 -114.5h-286zM301 98h178q163 0 263 85.5t100 226.5t-100 227t-263 86h-178v-625zM1174 0v1372h106v-1372h-106z" />
    <glyph glyph-name="uni042C" unicode="&#x42c;" horiz-adv-x="1081" 
d="M195 0v1372h106v-551h201q206 0 336.5 -115t130.5 -296t-130.5 -295.5t-336.5 -114.5h-307zM301 98h199q163 0 262.5 85.5t99.5 226.5t-99.5 227t-262.5 86h-199v-625z" />
    <glyph glyph-name="uni042D" unicode="&#x42d;" horiz-adv-x="1394" 
d="M621 -18q-153 0 -286 60.5t-233 172.5l76 68q82 -94 196.5 -144.5t246.5 -50.5q230 0 381.5 152.5t166.5 402.5h-669v98h669q-15 245 -161.5 394t-372.5 149q-129 0 -240.5 -49t-193.5 -141l-82 69q99 107 232 167.5t282 60.5q185 0 333.5 -90.5t232 -251t83.5 -359.5
q0 -202 -85.5 -364t-236.5 -253t-339 -91z" />
    <glyph glyph-name="uni042E" unicode="&#x42e;" horiz-adv-x="1918" 
d="M1151 -18q-170 0 -316.5 87.5t-235.5 239t-99 334.5h-199v-643h-106v1372h106v-631h201q12 180 101.5 329t234.5 235t313 86q177 0 328 -94t239 -256.5t88 -354.5q0 -143 -52 -273.5t-140 -225t-209 -150t-254 -55.5zM1151 86q112 0 212.5 46.5t173 126t115 191.5
t42.5 238q0 166 -72 303.5t-197 216t-274 78.5t-274 -78.5t-197 -216t-72 -303.5q0 -126 42.5 -238t115 -191.5t173 -126t212.5 -46.5z" />
    <glyph glyph-name="uni042F" unicode="&#x42f;" horiz-adv-x="1105" 
d="M82 0l371 604q-139 37 -222.5 137.5t-83.5 237.5q0 173 130.5 283t334.5 110h299v-1372h-106v588h-234l-360 -588h-129zM612 686h193v588h-193q-160 0 -259 -81t-99 -214t98.5 -213t259.5 -80z" />
    <glyph glyph-name="uni0430" unicode="&#x430;" horiz-adv-x="983" 
d="M403 -18q-140 0 -230.5 81t-90.5 207q0 132 100 216.5t254 84.5q180 0 303 -102v98q0 136 -73 217.5t-193 81.5q-163 0 -258 -133l-74 64q66 78 154 121t184 43q160 0 260.5 -108t100.5 -278v-575h-101v174q-55 -92 -141.5 -142t-194.5 -50zM420 72q132 0 220 82.5
t97 214.5q-126 112 -301 112q-116 0 -185 -57t-69 -152q0 -91 64.5 -145.5t173.5 -54.5z" />
    <glyph glyph-name="uni0431" unicode="&#x431;" horiz-adv-x="1122" 
d="M561 -20q-204 0 -326 155t-122 416v104q0 337 104.5 499.5t337.5 188.5q139 15 211 38.5t117 70.5l53 -72q-52 -60 -130 -90t-239 -47q-187 -20 -267 -148.5t-83 -410.5q55 109 153.5 173.5t219.5 64.5q181 0 305.5 -135t124.5 -332q0 -202 -131.5 -338.5t-327.5 -136.5z
M571 74q149 0 246.5 107.5t97.5 271.5q0 161 -97.5 267.5t-246.5 106.5t-246.5 -105.5t-97.5 -268.5q0 -165 97 -272t247 -107z" />
    <glyph glyph-name="uni0432" unicode="&#x432;" horiz-adv-x="913" 
d="M154 0v942h317q134 0 220.5 -69.5t86.5 -176.5q0 -65 -34.5 -117t-96.5 -83q81 -31 127.5 -92.5t46.5 -141.5q0 -114 -88.5 -188t-224.5 -74h-354zM254 90h252q97 0 156 49t59 129q0 78 -59 125t-156 47h-252v-350zM254 530h215q94 0 151.5 45t57.5 117t-57.5 116
t-151.5 44h-215v-322z" />
    <glyph glyph-name="uni0433" unicode="&#x433;" horiz-adv-x="733" 
d="M154 0v942h528v-90h-428v-852h-100z" />
    <glyph glyph-name="uni0434" unicode="&#x434;" horiz-adv-x="1026" 
d="M229 90h523v762h-426v-305q0 -336 -97 -457zM51 -266v356q86 0 130 107t44 350v395h627v-852h133v-356h-100v266h-733v-266h-101z" />
    <glyph glyph-name="uni0435" unicode="&#x435;" horiz-adv-x="1099" 
d="M586 -18q-212 0 -348 137t-136 350q0 211 130.5 351.5t328.5 140.5q192 0 319.5 -132t127.5 -333q0 -35 -4 -58h-797q10 -163 116 -262.5t267 -99.5q196 0 328 153l65 -55q-151 -192 -397 -192zM209 528h694q-10 152 -105 245t-237 93q-144 0 -240.5 -94t-111.5 -244z
" />
    <glyph glyph-name="uni0436" unicode="&#x436;" horiz-adv-x="1189" 
d="M10 0l428 477l-403 465h115l395 -453v453h100v-453l395 453h115l-403 -465l428 -477h-129l-406 453v-453h-100v453l-406 -453h-129z" />
    <glyph glyph-name="uni0437" unicode="&#x437;" horiz-adv-x="874" 
d="M446 -18q-117 0 -215.5 52t-158.5 144l73 60q116 -166 299 -166q105 0 171.5 53t66.5 137q0 83 -66 130.5t-182 47.5h-117v90h91q103 0 165 49t62 128q0 74 -56.5 118.5t-150.5 44.5q-139 0 -242 -127l-71 58q130 160 319 160q132 0 216.5 -70t84.5 -180
q0 -70 -35.5 -126t-99.5 -89q84 -30 133 -93t49 -147q0 -118 -95.5 -196t-240.5 -78z" />
    <glyph glyph-name="uni0438" unicode="&#x438;" horiz-adv-x="1056" 
d="M154 -33v975h100v-747l618 780h31v-975h-100v748l-619 -781h-30z" />
    <glyph glyph-name="uni0439" unicode="&#x439;" horiz-adv-x="1056" 
d="M154 -33v975h100v-747l618 780h31v-975h-100v748l-619 -781h-30zM530 1075q-101 0 -163 66.5t-62 173.5h94q0 -70 35.5 -113t95.5 -43q57 0 93 43.5t36 112.5h95q0 -107 -62 -173.5t-162 -66.5z" />
    <glyph glyph-name="uni043A" unicode="&#x43a;" horiz-adv-x="856" 
d="M154 0v942h100v-450l448 450h127l-464 -463l481 -479h-137l-455 451v-451h-100z" />
    <glyph glyph-name="uni043B" unicode="&#x43b;" horiz-adv-x="1011" 
d="M96 -8q-37 0 -55 6v96q24 -8 49 -8q67 0 103 55.5t36 159.5v641h629v-942h-100v852h-428v-545q0 -156 -59.5 -235.5t-174.5 -79.5z" />
    <glyph glyph-name="uni043C" unicode="&#x43c;" horiz-adv-x="1249" 
d="M154 0v975h30l441 -613l440 613h31v-975h-101v725l-356 -502h-31l-354 502v-725h-100z" />
    <glyph glyph-name="uni043D" unicode="&#x43d;" horiz-adv-x="1040" 
d="M154 0v942h100v-422h532v422h101v-942h-101v430h-532v-430h-100z" />
    <glyph glyph-name="uni043E" unicode="&#x43e;" horiz-adv-x="1155" 
d="M578 -18q-198 0 -337 142.5t-139 346.5q0 133 63.5 246t173 178.5t239.5 65.5q97 0 185 -39t151.5 -104.5t101 -156t37.5 -190.5q0 -204 -138.5 -346.5t-336.5 -142.5zM578 76q158 0 264 113.5t106 281.5q0 167 -106.5 281t-263.5 114t-264 -114t-107 -281
q0 -166 107 -280.5t264 -114.5z" />
    <glyph glyph-name="uni043F" unicode="&#x43f;" horiz-adv-x="1026" 
d="M154 0v942h718v-942h-100v852h-518v-852h-100z" />
    <glyph glyph-name="uni0440" unicode="&#x440;" horiz-adv-x="1163" 
d="M600 76q155 0 255.5 112t100.5 283t-100.5 283t-253.5 112q-157 0 -257.5 -112.5t-100.5 -282.5q0 -171 100 -283t256 -112zM154 -512v1454h100v-192q55 98 149 154.5t211 56.5q190 0 318.5 -141.5t128.5 -348.5t-128.5 -348t-320.5 -141q-116 0 -209.5 55.5
t-148.5 152.5v-702h-100z" />
    <glyph glyph-name="uni0441" unicode="&#x441;" horiz-adv-x="1042" 
d="M584 -18q-204 0 -343 141t-139 348q0 135 62.5 247.5t172 177.5t241.5 65q109 0 206 -47.5t170 -133.5l-73 -63q-133 149 -306 149q-159 0 -263.5 -111.5t-104.5 -279.5q0 -173 109 -286t276 -113q175 0 303 143l66 -55q-149 -182 -377 -182z" />
    <glyph glyph-name="uni0442" unicode="&#x442;" horiz-adv-x="837" 
d="M369 0v852h-308v90h715v-90h-307v-852h-100z" />
    <glyph glyph-name="uni0443" unicode="&#x443;" horiz-adv-x="903" 
d="M199 -512l190 496l-348 958h109l294 -813l316 813h102l-561 -1454h-102z" />
    <glyph glyph-name="uni0444" unicode="&#x444;" horiz-adv-x="1232" 
d="M565 76v790q-157 0 -263.5 -114t-106.5 -281q0 -168 106 -281.5t264 -113.5zM565 -514v496q-97 0 -185 38.5t-151 104t-100 156t-37 190.5q0 203 138 346.5t335 143.5v493h101v-493q97 0 185 -39t151.5 -104.5t101 -156t37.5 -190.5q0 -204 -138.5 -346.5t-336.5 -142.5
v-496h-101zM666 76q158 0 264 113.5t106 281.5t-106 281.5t-264 113.5v-790z" />
    <glyph glyph-name="uni0445" unicode="&#x445;" horiz-adv-x="858" 
d="M51 0l316 479l-306 463h121l250 -385l252 385h113l-305 -463l315 -479h-119l-262 401l-262 -401h-113z" />
    <glyph glyph-name="uni0446" unicode="&#x446;" horiz-adv-x="1038" 
d="M877 -266v266h-723v942h100v-852h504v852h100v-852h119v-356h-100z" />
    <glyph glyph-name="uni0447" unicode="&#x447;" horiz-adv-x="937" 
d="M684 0v319q-129 -34 -240 -34q-145 0 -233 83.5t-88 221.5v352h100v-352q0 -99 64.5 -155t179.5 -56q92 0 217 29v534h100v-942h-100z" />
    <glyph glyph-name="uni0448" unicode="&#x448;" horiz-adv-x="1525" 
d="M154 0v942h100v-852h459v852h100v-852h459v852h100v-942h-1218z" />
    <glyph glyph-name="uni0449" unicode="&#x449;" horiz-adv-x="1546" 
d="M1384 -266v266h-1230v942h100v-852h459v852h100v-852h459v852h100v-852h113v-356h-101z" />
    <glyph glyph-name="uni044A" unicode="&#x44a;" horiz-adv-x="935" 
d="M203 0v852h-193v90h293v-360h227q141 0 232.5 -82.5t91.5 -208.5t-91.5 -208.5t-230.5 -82.5h-329zM303 90h227q100 0 162 56t62 145t-62 145t-162 56h-227v-402z" />
    <glyph glyph-name="uni044B" unicode="&#x44b;" horiz-adv-x="1193" 
d="M154 0v942h100v-360h207q139 0 229 -82.5t90 -208.5t-89.5 -208.5t-227.5 -82.5h-309zM254 90h207q98 0 158.5 56t60.5 145t-60.5 145t-158.5 56h-207v-402zM940 0v942h100v-942h-100z" />
    <glyph glyph-name="uni044C" unicode="&#x44c;" horiz-adv-x="886" 
d="M154 0v942h100v-360h225q142 0 234 -82.5t92 -208.5t-91.5 -208.5t-230.5 -82.5h-329zM254 90h225q101 0 163.5 56t62.5 145t-62.5 145t-163.5 56h-225v-402z" />
    <glyph glyph-name="uni044D" unicode="&#x44d;" horiz-adv-x="1042" 
d="M465 -18q-115 0 -214 45t-169 129l68 67q135 -147 313 -147q153 0 257 98.5t118 255.5h-525v90h523q-13 154 -112.5 250t-244.5 96q-177 0 -313 -145l-70 61q75 86 174.5 132.5t208.5 46.5q200 0 330.5 -140t130.5 -350q0 -213 -132.5 -351t-342.5 -138z" />
    <glyph glyph-name="uni044E" unicode="&#x44e;" horiz-adv-x="1429" 
d="M862 -18q-185 0 -317.5 129t-147.5 319h-143v-430h-100v942h100v-422h145q17 187 149 314t314 127q127 0 234 -65.5t169 -178.5t62 -246q0 -134 -62 -246.5t-169 -177.5t-234 -65zM862 76q154 0 257.5 114t103.5 281t-104.5 281t-256.5 114q-153 0 -256.5 -113.5
t-103.5 -281.5q0 -166 103.5 -280.5t256.5 -114.5z" />
    <glyph glyph-name="uni044F" unicode="&#x44f;" horiz-adv-x="929" 
d="M92 0l252 381q-101 28 -161 101.5t-60 172.5q0 124 91.5 205.5t231.5 81.5h330v-942h-100v369h-223l-244 -369h-117zM449 459h227v393h-227q-101 0 -163.5 -55t-62.5 -144q0 -86 63 -140t163 -54z" />
    <glyph glyph-name="uni0451" unicode="&#x451;" horiz-adv-x="1099" 
d="M586 -18q-212 0 -348 137t-136 350q0 211 130.5 351.5t328.5 140.5q192 0 319.5 -132t127.5 -333q0 -35 -4 -58h-797q10 -163 116 -262.5t267 -99.5q196 0 328 153l65 -55q-151 -192 -397 -192zM209 528h694q-10 152 -105 245t-237 93q-144 0 -240.5 -94t-111.5 -244z
M381 1151q-34 0 -56 22t-22 56q0 32 23 55t55 23t55 -23t23 -55q0 -33 -22.5 -55.5t-55.5 -22.5zM721 1151q-33 0 -55.5 22.5t-22.5 55.5q0 32 23 55t57 23q31 0 53.5 -23t22.5 -55q0 -34 -22 -56t-56 -22z" />
    <glyph glyph-name="uni0452" unicode="&#x452;" horiz-adv-x="1052" 
d="M692 -512q-107 0 -178 88l66 66q49 -60 114 -60q59 0 92 42.5t33 119.5v713q0 141 -72 225t-192 84q-123 0 -203 -87t-80 -222v-457h-100v1087h-121v91h121v276h100v-276h349v-91h-349v-403q51 85 129.5 130.5t173.5 45.5q152 0 248.5 -108t96.5 -277v-729
q0 -117 -62.5 -187.5t-165.5 -70.5z" />
    <glyph glyph-name="uni0453" unicode="&#x453;" horiz-adv-x="733" 
d="M154 0v942h528v-90h-428v-852h-100zM422 1057l-55 45l200 268l82 -70z" />
    <glyph glyph-name="uni0454" unicode="&#x454;" horiz-adv-x="1042" 
d="M578 -18q-207 0 -341.5 139t-134.5 350q0 208 134 349t335 141q110 0 207.5 -47t169.5 -134l-69 -63q-133 149 -312 149q-146 0 -245.5 -97t-114.5 -249h538v-90h-538q14 -158 118 -256t261 -98q180 0 311 143l64 -55q-152 -182 -383 -182z" />
    <glyph glyph-name="uni0455" unicode="&#x455;" horiz-adv-x="901" 
d="M469 -18q-122 0 -225 52.5t-172 151.5l75 62q123 -172 326 -172q104 0 170 45t66 121q0 67 -57.5 110.5t-188.5 77.5q-169 44 -248.5 112.5t-79.5 168.5q0 112 86.5 181t224.5 69q217 0 353 -164l-74 -62q-104 131 -281 131q-94 0 -151 -40t-57 -111q0 -66 57.5 -109.5
t189.5 -77.5q168 -44 247 -111.5t79 -168.5q0 -118 -94.5 -192t-245.5 -74z" />
    <glyph glyph-name="uni0456" unicode="&#x456;" horiz-adv-x="421" 
d="M162 0v942h100v-942h-100zM211 1149q-32 0 -55 23t-23 57q0 32 23 55t55 23t55 -23t23 -55q0 -34 -22 -57t-56 -23z" />
    <glyph glyph-name="uni0457" unicode="&#x457;" horiz-adv-x="411" 
d="M156 0v942h100v-942h-100zM45 1149q-32 0 -54 23t-22 57q0 32 23 55t55 23t55 -23t23 -55q0 -34 -23 -57t-57 -23zM365 1149q-32 0 -55 23t-23 57q0 32 23 55t57 23q31 0 53 -23t22 -55q0 -34 -22 -57t-55 -23z" />
    <glyph glyph-name="uni0458" unicode="&#x458;" horiz-adv-x="419" 
d="M45 -512q-98 0 -168 78l64 72q46 -56 106 -56q54 0 83.5 39.5t29.5 112.5v1208h100v-1206q0 -114 -58.5 -181t-156.5 -67zM209 1149q-32 0 -55 23t-23 57q0 32 23 55t55 23t55 -23t23 -55q0 -34 -22 -57t-56 -23z" />
    <glyph glyph-name="uni0459" unicode="&#x459;" horiz-adv-x="1490" 
d="M96 -8q-37 0 -55 6v96q24 -8 49 -8q67 0 103 55.5t36 159.5v641h627v-360h227q141 0 233.5 -82.5t92.5 -208.5t-92 -208.5t-232 -82.5h-329v852h-426v-545q0 -156 -59.5 -235.5t-174.5 -79.5zM856 82h227q99 0 162.5 59.5t63.5 149.5q0 89 -63 145t-163 56h-227v-410z
" />
    <glyph glyph-name="uni045A" unicode="&#x45a;" horiz-adv-x="1521" 
d="M154 0v942h100v-391h532v391h101v-391h231q139 0 230.5 -78t91.5 -197q0 -120 -92 -198t-230 -78h-332v461h-532v-461h-100zM887 90h231q98 0 159.5 51.5t61.5 134.5q0 82 -61.5 133.5t-159.5 51.5h-231v-371z" />
    <glyph glyph-name="uni045B" unicode="&#x45b;" horiz-adv-x="1052" 
d="M172 0v1087h-121v91h121v276h100v-276h349v-91h-349v-403q51 85 129.5 130.5t173.5 45.5q152 0 248.5 -108t96.5 -277v-475h-101v457q0 141 -72 225t-192 84q-123 0 -203 -87t-80 -222v-457h-100z" />
    <glyph glyph-name="uni045C" unicode="&#x45c;" horiz-adv-x="856" 
d="M154 0v942h100v-450l448 450h127l-464 -463l481 -479h-137l-455 451v-451h-100zM467 1057l-55 45l200 268l82 -70z" />
    <glyph glyph-name="uni045E" unicode="&#x45e;" horiz-adv-x="903" 
d="M199 -512l190 496l-348 958h109l294 -813l316 813h102l-561 -1454h-102zM455 1075q-101 0 -163.5 66.5t-62.5 173.5h95q0 -70 35.5 -113t95.5 -43q57 0 93 43.5t36 112.5h94q0 -107 -61.5 -173.5t-161.5 -66.5z" />
    <glyph glyph-name="uni045F" unicode="&#x45f;" horiz-adv-x="1013" 
d="M457 -266v266h-303v942h100v-852h506v852h100v-942h-303v-266h-100z" />
    <glyph glyph-name="uni0490" unicode="&#x490;" horiz-adv-x="964" 
d="M195 0v1372h591v193h107v-291h-592v-1274h-106z" />
    <glyph glyph-name="uni0491" unicode="&#x491;" horiz-adv-x="733" 
d="M154 0v942h428v158h100v-248h-428v-852h-100z" />
    <glyph glyph-name="Wgrave" unicode="&#x1e80;" horiz-adv-x="1933" 
d="M518 -41l-457 1413h111l369 -1143l407 1143h35l410 -1143l368 1143h111l-457 -1413h-35l-413 1159l-414 -1159h-35zM942 1487l-227 244l82 69l200 -268z" />
    <glyph glyph-name="wgrave" unicode="&#x1e81;" horiz-adv-x="1347" 
d="M365 -41l-324 983h96l248 -747l270 768h35l273 -768l245 747h99l-326 -983h-35l-272 786l-275 -786h-34zM651 1057l-227 243l82 70l201 -268z" />
    <glyph glyph-name="Wacute" unicode="&#x1e82;" horiz-adv-x="1933" 
d="M518 -41l-457 1413h111l369 -1143l407 1143h35l410 -1143l368 1143h111l-457 -1413h-35l-413 1159l-414 -1159h-35zM967 1487l-56 45l201 268l82 -69z" />
    <glyph glyph-name="wacute" unicode="&#x1e83;" horiz-adv-x="1347" 
d="M365 -41l-324 983h96l248 -747l270 768h35l273 -768l245 747h99l-326 -983h-35l-272 786l-275 -786h-34zM678 1057l-55 45l200 268l82 -70z" />
    <glyph glyph-name="Wdieresis" unicode="&#x1e84;" horiz-adv-x="1933" 
d="M518 -41l-457 1413h111l369 -1143l407 1143h35l410 -1143l368 1143h111l-457 -1413h-35l-413 1159l-414 -1159h-35zM793 1581q-34 0 -56 22t-22 56q0 32 23 55t55 23t54.5 -23t22.5 -55q0 -33 -22 -55.5t-55 -22.5zM1133 1581q-33 0 -55.5 22.5t-22.5 55.5q0 32 23 55
t57 23q31 0 53 -23t22 -55q0 -34 -21.5 -56t-55.5 -22z" />
    <glyph glyph-name="wdieresis" unicode="&#x1e85;" horiz-adv-x="1347" 
d="M365 -41l-324 983h96l248 -747l270 768h35l273 -768l245 747h99l-326 -983h-35l-272 786l-275 -786h-34zM504 1151q-34 0 -56 22t-22 56q0 32 23 55t55 23t55 -23t23 -55q0 -33 -22.5 -55.5t-55.5 -22.5zM844 1151q-33 0 -55.5 22.5t-22.5 55.5q0 32 23 55t57 23
q31 0 53.5 -23t22.5 -55q0 -34 -22 -56t-56 -22z" />
    <glyph glyph-name="uni1E9E" unicode="&#x1e9e;" horiz-adv-x="1314" 
d="M786 -18q-137 0 -192 45l37 90q53 -37 162 -37q147 0 235 87t88 228q0 149 -99 238.5t-263 89.5h-92v90l311 461h-371q-142 0 -226.5 -92.5t-84.5 -247.5v-934h-107v932q0 195 116.5 317.5t301.5 122.5h526v-37l-348 -514q199 -9 321 -124t122 -296q0 -183 -122.5 -301
t-314.5 -118z" />
    <glyph glyph-name="Ygrave" unicode="&#x1ef2;" horiz-adv-x="1067" 
d="M477 0v543l-426 829h119l365 -710l368 710h113l-432 -829v-543h-107zM512 1487l-227 244l82 69l200 -268z" />
    <glyph glyph-name="ygrave" unicode="&#x1ef3;" horiz-adv-x="903" 
d="M199 -512l190 496l-348 958h109l294 -813l316 813h102l-561 -1454h-102zM432 1057l-227 243l82 70l200 -268z" />
    <glyph glyph-name="endash" unicode="&#x2013;" horiz-adv-x="991" 
d="M51 487v91h889v-91h-889z" />
    <glyph glyph-name="emdash" unicode="&#x2014;" horiz-adv-x="1441" 
d="M51 487v91h1340v-91h-1340z" />
    <glyph glyph-name="quoteleft" unicode="&#x2018;" horiz-adv-x="329" 
d="M184 1006l-112 28l116 352l70 -20z" />
    <glyph glyph-name="quoteright" unicode="&#x2019;" horiz-adv-x="342" 
d="M141 1006l-69 20l84 363l114 -35z" />
    <glyph glyph-name="quotesinglbase" unicode="&#x201a;" horiz-adv-x="342" 
d="M141 -248l-69 23l84 360l114 -33z" />
    <glyph glyph-name="quotedblleft" unicode="&#x201c;" horiz-adv-x="573" 
d="M186 1004l-114 34l129 348l69 -22zM418 1004l-115 34l129 348l70 -22z" />
    <glyph glyph-name="quotedblright" unicode="&#x201d;" horiz-adv-x="573" 
d="M141 1006l-69 20l84 363l114 -35zM375 1006l-72 20l86 363l113 -35z" />
    <glyph glyph-name="quotedblbase" unicode="&#x201e;" horiz-adv-x="573" 
d="M141 -248l-69 23l84 360l114 -33zM373 -248l-70 23l84 360l115 -33z" />
    <glyph glyph-name="dagger" unicode="&#x2020;" horiz-adv-x="946" 
d="M436 -512l-16 1364h-328v90h328v430h106v-430h328v-90h-328l-16 -1364h-74z" />
    <glyph glyph-name="daggerdbl" unicode="&#x2021;" horiz-adv-x="946" 
d="M436 -512l-6 512h-338v90h336l-8 762h-328v90h328v430h106v-430h328v-90h-328l-8 -762h336v-90h-338l-6 -512h-74z" />
    <glyph glyph-name="bullet" unicode="&#x2022;" horiz-adv-x="634" 
d="M317 408q-47 0 -79.5 33t-32.5 79q0 48 32.5 81.5t79.5 33.5q46 0 79.5 -34t33.5 -81q0 -46 -33.5 -79t-79.5 -33z" />
    <glyph glyph-name="ellipsis" unicode="&#x2026;" horiz-adv-x="1394" 
d="M223 -10q-34 0 -57 23.5t-23 58.5t23.5 58.5t58.5 23.5q34 0 58 -23.5t24 -58.5t-24.5 -58.5t-59.5 -23.5zM696 -10q-35 0 -58.5 23.5t-23.5 58.5t23.5 58.5t60.5 23.5q34 0 57 -23.5t23 -58.5t-23.5 -58.5t-58.5 -23.5zM1167 -10q-34 0 -57 23.5t-23 58.5t23.5 58.5
t58.5 23.5q34 0 58 -23.5t24 -58.5t-24.5 -58.5t-59.5 -23.5z" />
    <glyph glyph-name="perthousand" unicode="&#x2030;" horiz-adv-x="2156" 
d="M328 0l692 1372h106l-694 -1372h-104zM350 811q-121 0 -205 84.5t-84 204.5q0 123 83.5 207t205.5 84t206.5 -84.5t84.5 -206.5q0 -120 -85 -204.5t-206 -84.5zM350 901q83 0 138 57t55 142q0 86 -55 143t-138 57q-82 0 -136 -57t-54 -143q0 -85 54 -142t136 -57z
M1124 -18q-121 0 -204.5 84t-83.5 204q0 123 83 207t205 84t206.5 -84.5t84.5 -206.5q0 -120 -85 -204t-206 -84zM1124 72q83 0 138 56.5t55 141.5q0 86 -55 143.5t-138 57.5q-82 0 -136 -57.5t-54 -143.5q0 -85 54 -141.5t136 -56.5zM1804 -18q-121 0 -204.5 84t-83.5 204
q0 123 83 207t205 84t206.5 -84.5t84.5 -206.5q0 -120 -85 -204t-206 -84zM1804 72q83 0 138 56.5t55 141.5q0 86 -55 143.5t-138 57.5q-82 0 -136 -57.5t-54 -143.5q0 -85 54 -141.5t136 -56.5z" />
    <glyph glyph-name="guilsinglleft" unicode="&#x2039;" horiz-adv-x="608" 
d="M428 152l-356 360l356 360l68 -65l-291 -293l291 -295z" />
    <glyph glyph-name="guilsinglright" unicode="&#x203a;" horiz-adv-x="608" 
d="M180 152l-67 67l290 295l-290 293l67 65l357 -360z" />
    <glyph glyph-name="fraction" unicode="&#x2044;" horiz-adv-x="163" 
d="M-317 0l692 1372h106l-692 -1372h-106z" />
    <glyph glyph-name="uni2070" unicode="&#x2070;" horiz-adv-x="731" 
d="M367 872q-124 0 -204.5 112t-80.5 284q0 168 80.5 278.5t204.5 110.5t203 -110.5t79 -278.5q0 -172 -79 -284t-203 -112zM367 958q83 0 135.5 86.5t52.5 221.5t-52.5 220t-135.5 85q-85 0 -138 -85t-53 -220q0 -137 53 -222.5t138 -85.5z" />
    <glyph glyph-name="uni2074" unicode="&#x2074;" horiz-adv-x="665" 
d="M383 891v117h-383v43l436 608h41v-561h96v-90h-96v-117h-94zM133 1098h250v350z" />
    <glyph glyph-name="uni2075" unicode="&#x2075;" horiz-adv-x="696" 
d="M330 872q-89 0 -156.5 44t-101.5 124l78 45q50 -127 182 -127q75 0 121.5 47t46.5 125q0 80 -48 127.5t-130 47.5q-86 0 -156 -62l-33 14l43 381h381v-90h-301l-18 -178q54 21 108 21q109 0 178.5 -72t69.5 -186t-73.5 -187.5t-190.5 -73.5z" />
    <glyph glyph-name="uni2076" unicode="&#x2076;" horiz-adv-x="661" 
d="M317 872q-114 0 -185 75.5t-71 199.5q0 138 89 274t247 228l54 -70q-97 -58 -156 -118.5t-100 -145.5q60 49 143 49q104 0 173 -69t69 -173q0 -109 -74.5 -179.5t-188.5 -70.5zM322 958q73 0 118 44t45 118q0 72 -44.5 115t-118.5 43t-120 -43t-46 -115q0 -73 46 -117.5
t120 -44.5z" />
    <glyph glyph-name="uni2077" unicode="&#x2077;" horiz-adv-x="620" 
d="M182 891l293 657h-373v90h498v-34l-315 -713h-103z" />
    <glyph glyph-name="uni2078" unicode="&#x2078;" horiz-adv-x="714" 
d="M358 872q-117 0 -191.5 65.5t-74.5 166.5q0 61 34.5 113.5t90.5 80.5q-39 28 -61.5 68.5t-22.5 83.5q0 88 64.5 147.5t160.5 59.5q97 0 161.5 -59.5t64.5 -147.5q0 -90 -84 -154q56 -26 89.5 -78.5t33.5 -113.5q0 -101 -74.5 -166.5t-190.5 -65.5zM358 958q75 0 122.5 40
t47.5 106t-46.5 104.5t-123.5 38.5q-78 0 -125 -38.5t-47 -104.5t47.5 -106t124.5 -40zM358 1333q59 0 95 32.5t36 86.5q0 53 -36.5 86t-94.5 33t-94.5 -33t-36.5 -86q0 -54 36 -86.5t95 -32.5z" />
    <glyph glyph-name="uni2079" unicode="&#x2079;" horiz-adv-x="661" 
d="M264 877l-53 69q96 56 155.5 117t100.5 147q-60 -49 -143 -49q-104 0 -173 69t-69 173q0 109 74 179.5t188 70.5t185 -75.5t71 -199.5q0 -138 -89 -273.5t-247 -227.5zM340 1247q75 0 120.5 43t45.5 115q0 73 -45.5 117.5t-120.5 44.5q-73 0 -118.5 -44.5t-45.5 -117.5
q0 -72 45 -115t119 -43z" />
    <glyph glyph-name="uni2080" unicode="&#x2080;" horiz-adv-x="731" 
d="M367 -264q-124 0 -204.5 111.5t-80.5 283.5q0 168 80.5 278.5t204.5 110.5t203 -110.5t79 -278.5q0 -172 -79 -283.5t-203 -111.5zM367 -178q83 0 135.5 86t52.5 221t-52.5 220t-135.5 85q-85 0 -138 -85t-53 -220q0 -136 53 -221.5t138 -85.5z" />
    <glyph glyph-name="uni2081" unicode="&#x2081;" horiz-adv-x="602" 
d="M313 -246v615l-178 -140l-53 66l291 227h35v-768h-95z" />
    <glyph glyph-name="uni2082" unicode="&#x2082;" horiz-adv-x="700" 
d="M72 -246v37l225 211q126 117 164.5 170t38.5 109q0 70 -42.5 111.5t-111.5 41.5t-114 -45.5t-58 -130.5l-90 23q23 114 92.5 176.5t173.5 62.5q107 0 175.5 -66t68.5 -169q0 -74 -48 -144.5t-184 -197.5l-108 -99h364v-90h-546z" />
    <glyph glyph-name="uni2083" unicode="&#x2083;" horiz-adv-x="696" 
d="M340 -264q-88 0 -157 44.5t-101 123.5l82 43q52 -125 180 -125q75 0 120.5 41t45.5 110q0 73 -52 115.5t-141 42.5h-98v35l217 246h-319v90h473v-37l-223 -254q109 -12 173 -75t64 -161q0 -104 -74.5 -171.5t-189.5 -67.5z" />
    <glyph glyph-name="uni2084" unicode="&#x2084;" horiz-adv-x="665" 
d="M383 -246v117h-383v43l436 608h41v-561h96v-90h-96v-117h-94zM133 -39h250v350z" />
    <glyph glyph-name="uni2085" unicode="&#x2085;" horiz-adv-x="696" 
d="M330 -264q-89 0 -156.5 44t-101.5 124l78 45q50 -127 182 -127q75 0 121.5 47t46.5 125q0 80 -48 127t-130 47q-86 0 -156 -62l-33 15l43 381h381v-90h-301l-18 -179q54 21 108 21q109 0 178.5 -72t69.5 -186t-73.5 -187t-190.5 -73z" />
    <glyph glyph-name="uni2086" unicode="&#x2086;" horiz-adv-x="661" 
d="M317 -264q-115 0 -185.5 75t-70.5 199q0 138 89 274t247 228l54 -70q-97 -58 -156 -118.5t-100 -145.5q60 49 143 49q104 0 173 -68.5t69 -172.5q0 -109 -74.5 -179.5t-188.5 -70.5zM322 -178q73 0 118 44t45 118q0 72 -44.5 114.5t-118.5 42.5t-120 -43t-46 -114
q0 -73 46 -117.5t120 -44.5z" />
    <glyph glyph-name="uni2087" unicode="&#x2087;" horiz-adv-x="620" 
d="M182 -246l293 658h-373v90h498v-35l-315 -713h-103z" />
    <glyph glyph-name="uni2088" unicode="&#x2088;" horiz-adv-x="714" 
d="M358 -264q-117 0 -191.5 65t-74.5 166q0 61 34.5 114t90.5 81q-40 28 -62 68t-22 83q0 88 64.5 147.5t160.5 59.5q97 0 161.5 -59.5t64.5 -147.5q0 -89 -84 -153q56 -26 89.5 -79t33.5 -114q0 -101 -74.5 -166t-190.5 -65zM358 -178q76 0 123 39.5t47 105.5t-46.5 105
t-123.5 39q-78 0 -125 -39t-47 -105t47.5 -105.5t124.5 -39.5zM358 197q59 0 95 32t36 86q0 53 -36.5 86t-94.5 33t-94.5 -33t-36.5 -86q0 -54 36 -86t95 -32z" />
    <glyph glyph-name="uni2089" unicode="&#x2089;" horiz-adv-x="661" 
d="M264 -260l-53 70q96 56 155.5 117t100.5 147q-60 -49 -143 -49q-104 0 -173 68.5t-69 172.5q0 109 74 179.5t188 70.5q115 0 185.5 -75t70.5 -199q0 -138 -89 -274t-247 -228zM340 111q75 0 120.5 42.5t45.5 114.5q0 73 -45.5 117.5t-120.5 44.5q-73 0 -118.5 -44.5
t-45.5 -117.5q0 -72 45 -114.5t119 -42.5z" />
    <glyph glyph-name="Euro" unicode="&#x20ac;" horiz-adv-x="1273" 
d="M764 -18q-204 0 -348.5 144.5t-186.5 383.5h-168v98h158q-4 58 -4 76q0 22 4 80h-158v98h170q42 239 187 384t350 145q242 0 418 -228l-82 -67q-72 98 -153 144t-181 46q-163 0 -277 -114t-149 -310h502l-23 -98h-493q-2 -27 -2 -78q0 -53 2 -78h458l-22 -98h-424
q37 -196 152 -310t280 -114q102 0 185 47t159 146l74 -62q-177 -235 -428 -235z" />
    <glyph glyph-name="uni20B4" unicode="&#x20b4;" horiz-adv-x="1021" 
d="M500 -18q-156 0 -256.5 89.5t-100.5 227.5q0 122 80 211h-121v98h818v-98h-572q-98 -88 -98 -203q0 -101 69.5 -161t186.5 -60q192 0 287 160l75 -60q-60 -99 -155 -151.5t-213 -52.5zM102 760v98h564q102 86 102 207q0 101 -68 161t-182 60q-187 0 -282 -160l-80 62
q60 97 154.5 150t209.5 53q156 0 256.5 -90t100.5 -228q0 -125 -84 -215h127v-98h-818z" />
    <glyph glyph-name="uni20BD" unicode="&#x20bd;" horiz-adv-x="1083" 
d="M215 0v317h-154v99h154v155h-154v99h154v702h309q206 0 336.5 -112t130.5 -289t-130.5 -288.5t-336.5 -111.5h-202v-155h421v-99h-421v-317h-107zM322 670h200q163 0 263 83.5t100 219.5q0 135 -100 218t-263 83h-200v-604z" />
    <glyph glyph-name="uni2116" unicode="&#x2116;" horiz-adv-x="2220" 
d="M1245 -41l-944 1192v-1151h-106v1413h38l945 -1192v1151h106v-1413h-39zM1528 578v98h559v-98h-559zM1806 811q-121 0 -204.5 84.5t-83.5 206.5t83.5 205.5t204.5 83.5t206 -84.5t85 -204.5q0 -122 -84.5 -206.5t-206.5 -84.5zM1806 899q83 0 139 58.5t56 144.5
q0 85 -56 143t-139 58q-82 0 -137 -58t-55 -143q0 -86 55 -144.5t137 -58.5z" />
    <glyph glyph-name="trademark" unicode="&#x2122;" horiz-adv-x="1177" 
d="M195 782v531h-175v82h437v-82h-172v-531h-90zM516 782v623h35l246 -340l243 340h35v-623h-88v404l-174 -242h-35l-174 242v-404h-88z" />
    <glyph glyph-name="arrowleft" unicode="&#x2190;" horiz-adv-x="2048" 
d="M860 184q-30 106 -75 191t-110.5 153.5t-157.5 106t-204 37.5h-6v69h6q112 0 204 37.5t157.5 106t110.5 153.5t75 191h123q-30 -146 -119.5 -269.5t-212.5 -203.5h1090v-99h-1090q123 -80 212.5 -203.5t119.5 -269.5h-123z" />
    <glyph glyph-name="arrowup" unicode="&#x2191;" horiz-adv-x="2048" 
d="M975 0v1090q-80 -123 -203.5 -212.5t-269.5 -119.5v123q106 30 191 75t153 110t105.5 157t37.5 204v7h70v-7q0 -112 37.5 -204t105.5 -157t153 -110t191 -75v-123q-146 30 -269.5 119.5t-203.5 212.5v-1090h-98z" />
    <glyph glyph-name="arrowright" unicode="&#x2192;" horiz-adv-x="2048" 
d="M1065 184q30 146 119.5 269.5t212.5 203.5h-1090v99h1090q-123 80 -212.5 203.5t-119.5 269.5h123q30 -106 75 -191t110.5 -153.5t157.5 -106t204 -37.5h6v-69h-6q-112 0 -204 -37.5t-157.5 -106t-110.5 -153.5t-75 -191h-123z" />
    <glyph glyph-name="arrowdown" unicode="&#x2193;" horiz-adv-x="2048" 
d="M989 0v6q0 112 -37.5 204t-105.5 157.5t-153 110.5t-191 75v123q146 -30 269.5 -119.5t203.5 -212.5v1090h98v-1090q80 123 203.5 212.5t269.5 119.5v-123q-106 -30 -191 -75t-153 -110.5t-105.5 -157.5t-37.5 -204v-6h-70z" />
    <glyph glyph-name="uni2196" unicode="&#x2196;" horiz-adv-x="2048" 
d="M1493 123l-772 770q32 -132 8 -288.5t-106 -280.5l-88 86q54 97 82 189t30.5 186.5t-36 185.5t-117.5 170l-7 4l52 51l4 -6q79 -79 170 -117.5t185.5 -36t186.5 30.5t189 82l86 -88q-124 -82 -280.5 -106t-288.5 8l770 -773z" />
    <glyph glyph-name="uni2197" unicode="&#x2197;" horiz-adv-x="2048" 
d="M555 123l-68 67l770 773q-132 -32 -288.5 -8t-280.5 106l86 88q97 -54 189 -82t186.5 -30.5t185.5 36t170 117.5l4 6l52 -51l-7 -4q-79 -79 -117.5 -170t-36 -185.5t30.5 -186.5t82 -189l-88 -86q-82 124 -106 280.5t8 288.5z" />
    <glyph glyph-name="uni2198" unicode="&#x2198;" horiz-adv-x="2048" 
d="M1509 143l-4 7q-79 79 -170 117t-185.5 35.5t-186.5 -30.5t-189 -82l-86 89q124 82 280.5 106t288.5 -8l-770 772l68 68l772 -771q-32 132 -8 289t106 281l88 -86q-54 -97 -82 -189t-30.5 -186.5t36 -185.5t117.5 -170l7 -4z" />
    <glyph glyph-name="uni2199" unicode="&#x2199;" horiz-adv-x="2048" 
d="M539 143l-52 52l7 4q79 79 117.5 170t36 185.5t-30.5 186.5t-82 189l88 86q82 -124 106 -281t-8 -289l772 771l68 -68l-770 -772q132 32 288.5 8t280.5 -106l-86 -89q-97 54 -189 82t-186.5 30.5t-185.5 -35.5t-170 -117z" />
    <glyph glyph-name="minus" unicode="&#x2212;" horiz-adv-x="888" 
d="M61 616v99h766v-99h-766z" />
    <glyph glyph-name="approxequal" unicode="&#x2248;" horiz-adv-x="888" 
d="M608 410q-75 0 -192 61q-92 49 -137 49q-89 0 -138 -102l-80 39q30 76 89.5 118.5t130.5 42.5q75 0 192 -61q54 -29 81 -39t56 -10q92 0 138 102l79 -39q-30 -76 -89 -118.5t-130 -42.5zM608 702q-74 0 -192 62q-92 49 -137 49q-89 0 -138 -102l-80 41q30 75 89 117
t131 42q75 0 192 -61q43 -21 58.5 -28.5t37 -14t41.5 -6.5q92 0 138 102l79 -39q-31 -76 -89.5 -119t-129.5 -43z" />
    <glyph glyph-name="notequal" unicode="&#x2260;" horiz-adv-x="888" 
d="M106 287l130 174h-175v98h248l158 213h-406v98h480l129 174h112l-129 -174h174v-98h-245l-160 -213h405v-98h-477l-131 -174h-113z" />
    <glyph glyph-name="lessequal" unicode="&#x2264;" horiz-adv-x="888" 
d="M61 240v98h766v-98h-766zM784 383l-723 336v100l723 336l41 -88l-645 -297l645 -301z" />
    <glyph glyph-name="greaterequal" unicode="&#x2265;" horiz-adv-x="888" 
d="M61 240v98h766v-98h-766zM104 383l-41 86l646 301l-646 297l41 88l723 -336v-100z" />
    <glyph glyph-name="uniF6D1" unicode="&#xf6d1;" horiz-adv-x="505" 
d="M252 1075q-103 0 -167.5 66.5t-64.5 173.5h95q0 -69 38.5 -112.5t98.5 -43.5q61 0 100 43.5t39 112.5h94q0 -107 -64.5 -173.5t-168.5 -66.5z" />
    <glyph glyph-name="uniF6D4" unicode="&#xf6d4;" horiz-adv-x="489" 
d="M246 1075q-101 0 -163.5 66.5t-62.5 173.5h95q0 -70 35.5 -113t95.5 -43q57 0 93 43.5t36 112.5h94q0 -107 -61.5 -173.5t-161.5 -66.5z" />
    <glyph glyph-name="s_t" unicode="&#xfb06;" horiz-adv-x="1607" 
d="M469 -18q-122 0 -225 52.5t-172 151.5l75 62q123 -172 326 -172q106 0 171 45t65 121q0 67 -57 110.5t-187 77.5q-171 44 -250.5 112.5t-79.5 168.5q0 112 86.5 181t224.5 69q79 0 158 -29q-41 93 -41 180q0 146 96 243t244 97q143 0 236.5 -89.5t93.5 -225.5
q0 -116 -70 -195h353v-90h-287v-608q0 -81 38 -124.5t107 -43.5q86 0 142 59l51 -59q-79 -94 -205 -94q-108 0 -171 69t-63 189v612h-143v90q64 0 108 57.5t44 139.5q0 98 -65.5 158.5t-168.5 60.5q-109 0 -177.5 -68.5t-68.5 -177.5q0 -148 142 -315l-74 -62
q-104 131 -281 131q-96 0 -152 -40t-56 -111q0 -66 57 -109.5t186 -77.5q171 -44 250.5 -111.5t79.5 -168.5q0 -118 -94.5 -192t-245.5 -74z" />
    <glyph glyph-name="c_h" horiz-adv-x="2082" 
d="M584 -18q-204 0 -343 141t-139 348q0 135 62.5 247.5t172 177.5t241.5 65q92 0 176 -35q-49 98 -49 204q0 142 84.5 232t218.5 90q128 0 207 -83.5t79 -223.5v-361q52 84 131.5 130.5t176.5 46.5q153 0 250.5 -108.5t97.5 -277.5v-575h-101v557q0 140 -73.5 226.5
t-194.5 86.5q-125 0 -206 -88.5t-81 -224.5v-557h-100v1143q0 101 -51 158t-139 57q-92 0 -147.5 -62.5t-55.5 -165.5q0 -174 153 -350l-73 -63q-133 149 -306 149q-159 0 -263.5 -111.5t-104.5 -279.5q0 -173 109 -286t276 -113q175 0 303 143l66 -55q-149 -182 -377 -182z
" />
    <glyph glyph-name="c_k" horiz-adv-x="1900" 
d="M584 -18q-204 0 -343 141t-139 348q0 135 62.5 247.5t172 177.5t241.5 65q92 0 176 -35q-49 98 -49 204q0 142 84.5 232t218.5 90q129 0 207.5 -84t78.5 -225v-643l453 442h127l-469 -455l485 -487h-137l-459 461v-461h-100v1143q0 101 -51 158t-139 57
q-92 0 -147.5 -62.5t-55.5 -165.5q0 -174 153 -350l-73 -63q-133 149 -306 149q-159 0 -263.5 -111.5t-104.5 -279.5q0 -173 109 -286t276 -113q175 0 303 143l66 -55q-149 -182 -377 -182z" />
    <glyph glyph-name="c_t" horiz-adv-x="1744" 
d="M584 -18q-204 0 -343 141t-139 348q0 206 138 348t340 142q94 0 170 -33q-45 92 -45 184q0 148 95.5 244t243.5 96q144 0 237 -88t93 -221q0 -121 -71 -201h350v-90h-287v-608q-6 -64 24 -107t76 -55t98 1.5t89 51.5l51 -59q-79 -94 -205 -94q-109 0 -171 69t-62 189v612
h-144v90q61 0 108.5 56t47.5 141q0 98 -63.5 158.5t-167.5 60.5q-110 0 -178 -66.5t-68 -177.5q0 -148 153 -334l-73 -63q-133 149 -306 149q-159 0 -263.5 -111.5t-104.5 -279.5q0 -173 109 -286t276 -113q175 0 303 143l66 -55q-149 -182 -377 -182z" />
    <glyph glyph-name="s_p" horiz-adv-x="2066" 
d="M1057 -477v1419q92 57 92 182q0 106 -68.5 170t-175.5 64q-109 0 -177.5 -67t-68.5 -171q0 -82 39.5 -166.5t100.5 -156.5l-74 -62q-104 131 -281 131q-96 0 -152 -40t-56 -111q0 -66 57.5 -109.5t189.5 -77.5q168 -44 247 -111.5t79 -168.5q0 -118 -94.5 -192
t-245.5 -74q-122 0 -225 52.5t-172 151.5l75 62q123 -172 326 -172q106 0 171 45t65 121q0 67 -57.5 110.5t-188.5 77.5q-169 44 -248.5 112.5t-79.5 168.5q0 112 86.5 181t224.5 69q77 0 156 -27q-37 84 -37 178q0 148 95 244t245 96q145 0 241.5 -90t96.5 -227
q0 -131 -86 -220v-165q57 99 151 155t210 56q190 0 318 -141t128 -349t-128.5 -348.5t-319.5 -140.5q-116 0 -209 55.5t-150 152.5v-667h-100zM1503 76q155 0 256 112t101 283t-100 283t-255 112q-156 0 -256 -112.5t-100 -282.5q0 -171 99.5 -283t254.5 -112z" />
    <glyph glyph-name="I.alt" horiz-adv-x="618" 
d="M72 0v98h184v1176h-184v98h475v-98h-185v-1176h185v-98h-475z" />
    <glyph glyph-name="a.alt" horiz-adv-x="1169" 
d="M553 -18q-125 0 -228.5 64t-163 176.5t-59.5 248.5q0 207 131 348.5t324 141.5q115 0 208 -56t150 -153v190h101v-942h-101v193q-56 -98 -150.5 -154.5t-211.5 -56.5zM567 76q156 0 256.5 112.5t100.5 282.5q0 171 -100 283t-255 112q-157 0 -259.5 -112.5t-102.5 -282.5
t102.5 -282.5t257.5 -112.5z" />
    <glyph glyph-name="g.alt" horiz-adv-x="1169" 
d="M567 76q156 0 256.5 112.5t100.5 282.5q0 171 -100 283t-255 112q-157 0 -259.5 -112.5t-102.5 -282.5t102.5 -282.5t257.5 -112.5zM578 -512q-112 0 -208 45.5t-157 130.5l78 66q104 -148 289 -148q148 0 241.5 94.5t93.5 247.5v269q-56 -98 -150.5 -154.5t-211.5 -56.5
q-125 0 -228.5 64t-163 176.5t-59.5 248.5q0 207 131 348.5t324 141.5q115 0 208 -56t150 -153v190h101v-1018q0 -192 -123 -314t-315 -122z" />
    <glyph glyph-name="l.alt" horiz-adv-x="546" 
d="M373 -18q-101 0 -160 69t-59 187v1216h100v-1214q0 -164 129 -164q72 0 117 53l57 -63q-78 -84 -184 -84z" />
    <glyph glyph-name="y.alt" 
d="M487 -514q-208 0 -344 174l78 64q111 -144 271 -144q135 0 218 93.5t83 246.5v238q-51 -84 -130.5 -130t-175.5 -46q-152 0 -248 108t-96 277v575h101v-557q0 -140 72 -224.5t192 -84.5q125 0 205 87t80 222v557h100v-1022q0 -190 -114.5 -312t-291.5 -122z" />
    <glyph glyph-name="Igrave.alt" horiz-adv-x="618" 
d="M72 0v98h184v1176h-184v98h475v-98h-185v-1176h185v-98h-475zM289 1487l-228 244l82 69l201 -268z" />
    <glyph glyph-name="Iacute.alt" horiz-adv-x="618" 
d="M72 0v98h184v1176h-184v98h475v-98h-185v-1176h185v-98h-475zM313 1487l-55 45l201 268l82 -69z" />
    <glyph glyph-name="Icircumflex.alt" horiz-adv-x="618" 
d="M72 0v98h184v1176h-184v98h475v-98h-185v-1176h185v-98h-475zM102 1513l-51 68l258 193l260 -193l-53 -68l-207 152z" />
    <glyph glyph-name="Idieresis.alt" horiz-adv-x="618" 
d="M72 0v98h184v1176h-184v98h475v-98h-185v-1176h185v-98h-475zM139 1581q-34 0 -56 22t-22 56q0 32 23 55t55 23t55 -23t23 -55q0 -33 -22.5 -55.5t-55.5 -22.5zM479 1581q-33 0 -55.5 22.5t-22.5 55.5q0 32 23 55t57 23q31 0 53.5 -23t22.5 -55q0 -34 -22 -56t-56 -22z
" />
    <glyph glyph-name="agrave.alt" horiz-adv-x="1169" 
d="M553 -18q-125 0 -228.5 64t-163 176.5t-59.5 248.5q0 207 131 348.5t324 141.5q115 0 208 -56t150 -153v190h101v-942h-101v193q-56 -98 -150.5 -154.5t-211.5 -56.5zM567 76q156 0 256.5 112.5t100.5 282.5q0 171 -100 283t-255 112q-157 0 -259.5 -112.5t-102.5 -282.5
t102.5 -282.5t257.5 -112.5zM563 1057l-227 243l82 70l200 -268z" />
    <glyph glyph-name="aacute.alt" horiz-adv-x="1169" 
d="M553 -18q-125 0 -228.5 64t-163 176.5t-59.5 248.5q0 207 131 348.5t324 141.5q115 0 208 -56t150 -153v190h101v-942h-101v193q-56 -98 -150.5 -154.5t-211.5 -56.5zM567 76q156 0 256.5 112.5t100.5 282.5q0 171 -100 283t-255 112q-157 0 -259.5 -112.5t-102.5 -282.5
t102.5 -282.5t257.5 -112.5zM588 1057l-56 45l201 268l82 -70z" />
    <glyph glyph-name="acircumflex.alt" horiz-adv-x="1169" 
d="M553 -18q-125 0 -228.5 64t-163 176.5t-59.5 248.5q0 207 131 348.5t324 141.5q115 0 208 -56t150 -153v190h101v-942h-101v193q-56 -98 -150.5 -154.5t-211.5 -56.5zM567 76q156 0 256.5 112.5t100.5 282.5q0 171 -100 283t-255 112q-157 0 -259.5 -112.5t-102.5 -282.5
t102.5 -282.5t257.5 -112.5zM377 1083l-51 68l258 192l260 -192l-53 -68l-207 152z" />
    <glyph glyph-name="atilde.alt" horiz-adv-x="1169" 
d="M553 -18q-125 0 -228.5 64t-163 176.5t-59.5 248.5q0 207 131 348.5t324 141.5q115 0 208 -56t150 -153v190h101v-942h-101v193q-56 -98 -150.5 -154.5t-211.5 -56.5zM567 76q156 0 256.5 112.5t100.5 282.5q0 171 -100 283t-255 112q-157 0 -259.5 -112.5t-102.5 -282.5
t102.5 -282.5t257.5 -112.5zM412 1139l-80 37q22 63 64 97t98 34q9 0 18 -1t15.5 -2.5t15 -4.5t13 -5t12.5 -6.5t11 -6t10.5 -6t8.5 -5.5q56 -39 86 -39q50 0 78 78l80 -39q-20 -61 -63 -96t-99 -35q-51 0 -107 39q-53 36 -84 36q-50 0 -77 -75z" />
    <glyph glyph-name="adieresis.alt" horiz-adv-x="1169" 
d="M553 -18q-125 0 -228.5 64t-163 176.5t-59.5 248.5q0 207 131 348.5t324 141.5q115 0 208 -56t150 -153v190h101v-942h-101v193q-56 -98 -150.5 -154.5t-211.5 -56.5zM567 76q156 0 256.5 112.5t100.5 282.5q0 171 -100 283t-255 112q-157 0 -259.5 -112.5t-102.5 -282.5
t102.5 -282.5t257.5 -112.5zM414 1151q-34 0 -56 22t-22 56q0 32 23 55t55 23t55 -23t23 -55q0 -33 -22.5 -55.5t-55.5 -22.5zM754 1151q-33 0 -55.5 22.5t-22.5 55.5q0 32 23 55t57 23q31 0 53 -23t22 -55q0 -34 -21.5 -56t-55.5 -22z" />
    <glyph glyph-name="aring.alt" horiz-adv-x="1169" 
d="M553 -18q-125 0 -228.5 64t-163 176.5t-59.5 248.5q0 207 131 348.5t324 141.5q115 0 208 -56t150 -153v190h101v-942h-101v193q-56 -98 -150.5 -154.5t-211.5 -56.5zM567 76q156 0 256.5 112.5t100.5 282.5q0 171 -100 283t-255 112q-157 0 -259.5 -112.5t-102.5 -282.5
t102.5 -282.5t257.5 -112.5zM586 1034q-75 0 -130 54.5t-55 128.5t55 128t130 54q74 0 129 -54.5t55 -127.5q0 -74 -54.5 -128.5t-129.5 -54.5zM586 1110q43 0 72.5 30t29.5 77t-29.5 76.5t-72.5 29.5q-44 0 -73.5 -29.5t-29.5 -76.5t30 -77t73 -30z" />
    <glyph glyph-name="yacute.alt" 
d="M487 -514q-208 0 -344 174l78 64q111 -144 271 -144q135 0 218 93.5t83 246.5v238q-51 -84 -130.5 -130t-175.5 -46q-152 0 -248 108t-96 277v575h101v-557q0 -140 72 -224.5t192 -84.5q125 0 205 87t80 222v557h100v-1022q0 -190 -114.5 -312t-291.5 -122zM516 1057
l-55 45l201 268l81 -70z" />
    <glyph glyph-name="ydieresis.alt" 
d="M487 -514q-208 0 -344 174l78 64q111 -144 271 -144q135 0 218 93.5t83 246.5v238q-51 -84 -130.5 -130t-175.5 -46q-152 0 -248 108t-96 277v575h101v-557q0 -140 72 -224.5t192 -84.5q125 0 205 87t80 222v557h100v-1022q0 -190 -114.5 -312t-291.5 -122zM344 1151
q-34 0 -56 22t-22 56q0 32 23 55t55 23t55 -23t23 -55q0 -33 -22.5 -55.5t-55.5 -22.5zM684 1151q-33 0 -55.5 22.5t-22.5 55.5q0 32 23 55t57 23q31 0 53.5 -23t22.5 -55q0 -34 -22 -56t-56 -22z" />
    <glyph glyph-name="amacron.alt" horiz-adv-x="1169" 
d="M553 -18q-125 0 -228.5 64t-163 176.5t-59.5 248.5q0 207 131 348.5t324 141.5q115 0 208 -56t150 -153v190h101v-942h-101v193q-56 -98 -150.5 -154.5t-211.5 -56.5zM567 76q156 0 256.5 112.5t100.5 282.5q0 171 -100 283t-255 112q-157 0 -259.5 -112.5t-102.5 -282.5
t102.5 -282.5t257.5 -112.5zM381 1180v92h410v-92h-410z" />
    <glyph glyph-name="abreve.alt" horiz-adv-x="1169" 
d="M553 -18q-125 0 -228.5 64t-163 176.5t-59.5 248.5q0 207 131 348.5t324 141.5q115 0 208 -56t150 -153v190h101v-942h-101v193q-56 -98 -150.5 -154.5t-211.5 -56.5zM567 76q156 0 256.5 112.5t100.5 282.5q0 171 -100 283t-255 112q-157 0 -259.5 -112.5t-102.5 -282.5
t102.5 -282.5t257.5 -112.5zM584 1079q-98 0 -158.5 64t-60.5 170h86q0 -66 37 -107t96 -41q60 0 97.5 40.5t37.5 107.5h86q0 -105 -61 -169.5t-160 -64.5z" />
    <glyph glyph-name="aogonek.alt" horiz-adv-x="1169" 
d="M567 76q156 0 256.5 112.5t100.5 282.5q0 171 -100 283t-255 112q-157 0 -259.5 -112.5t-102.5 -282.5t102.5 -282.5t257.5 -112.5zM903 -508q-102 0 -163.5 57t-61.5 148q0 170 242 303h-5v193q-125 -211 -362 -211q-125 0 -228.5 64t-163 176.5t-59.5 248.5
q0 207 131 348.5t324 141.5q115 0 208 -56t150 -153v190h101v-942q-137 -95 -190.5 -158t-53.5 -131q0 -63 37.5 -98t105.5 -35q41 0 91 12v-82q-43 -16 -103 -16z" />
    <glyph glyph-name="gcircumflex.alt" horiz-adv-x="1169" 
d="M567 76q156 0 256.5 112.5t100.5 282.5q0 171 -100 283t-255 112q-157 0 -259.5 -112.5t-102.5 -282.5t102.5 -282.5t257.5 -112.5zM578 -512q-112 0 -208 45.5t-157 130.5l78 66q104 -148 289 -148q148 0 241.5 94.5t93.5 247.5v269q-56 -98 -150.5 -154.5t-211.5 -56.5
q-125 0 -228.5 64t-163 176.5t-59.5 248.5q0 207 131 348.5t324 141.5q115 0 208 -56t150 -153v190h101v-1018q0 -192 -123 -314t-315 -122zM377 1083l-51 68l258 192l260 -192l-53 -68l-207 152z" />
    <glyph glyph-name="gbreve.alt" horiz-adv-x="1169" 
d="M567 76q156 0 256.5 112.5t100.5 282.5q0 171 -100 283t-255 112q-157 0 -259.5 -112.5t-102.5 -282.5t102.5 -282.5t257.5 -112.5zM578 -512q-112 0 -208 45.5t-157 130.5l78 66q104 -148 289 -148q148 0 241.5 94.5t93.5 247.5v269q-56 -98 -150.5 -154.5t-211.5 -56.5
q-125 0 -228.5 64t-163 176.5t-59.5 248.5q0 207 131 348.5t324 141.5q115 0 208 -56t150 -153v190h101v-1018q0 -192 -123 -314t-315 -122zM584 1079q-98 0 -158.5 64t-60.5 170h86q0 -66 37 -107t96 -41q60 0 97.5 40.5t37.5 107.5h86q0 -105 -61 -169.5t-160 -64.5z" />
    <glyph glyph-name="gdotaccent.alt" horiz-adv-x="1169" 
d="M567 76q156 0 256.5 112.5t100.5 282.5q0 171 -100 283t-255 112q-157 0 -259.5 -112.5t-102.5 -282.5t102.5 -282.5t257.5 -112.5zM578 -512q-112 0 -208 45.5t-157 130.5l78 66q104 -148 289 -148q148 0 241.5 94.5t93.5 247.5v269q-56 -98 -150.5 -154.5t-211.5 -56.5
q-125 0 -228.5 64t-163 176.5t-59.5 248.5q0 207 131 348.5t324 141.5q115 0 208 -56t150 -153v190h101v-1018q0 -192 -123 -314t-315 -122zM586 1151q-31 0 -54.5 22.5t-23.5 55.5q0 32 23 55t57 23q31 0 53.5 -23t22.5 -55q0 -34 -22 -56t-56 -22z" />
    <glyph glyph-name="gcommaaccent.alt" horiz-adv-x="1169" 
d="M567 76q156 0 256.5 112.5t100.5 282.5q0 171 -100 283t-255 112q-157 0 -259.5 -112.5t-102.5 -282.5t102.5 -282.5t257.5 -112.5zM578 -512q-112 0 -208 45.5t-157 130.5l78 66q104 -148 289 -148q148 0 241.5 94.5t93.5 247.5v269q-56 -98 -150.5 -154.5t-211.5 -56.5
q-125 0 -228.5 64t-163 176.5t-59.5 248.5q0 207 131 348.5t324 141.5q115 0 208 -56t150 -153v190h101v-1018q0 -192 -123 -314t-315 -122zM635 1079l-111 31l117 350l68 -20z" />
    <glyph glyph-name="Imacron.alt" horiz-adv-x="618" 
d="M72 0v98h184v1176h-184v98h475v-98h-185v-1176h185v-98h-475zM106 1610v92h410v-92h-410z" />
    <glyph glyph-name="Ibreve.alt" horiz-adv-x="618" 
d="M72 0v98h184v1176h-184v98h475v-98h-185v-1176h185v-98h-475zM309 1509q-98 0 -158.5 64t-60.5 170h86q0 -66 37 -107t96 -41q60 0 97.5 40.5t37.5 107.5h86q0 -105 -61 -169.5t-160 -64.5z" />
    <glyph glyph-name="Iogonek.alt" horiz-adv-x="618" 
d="M434 -508q-101 0 -163 57t-62 148q0 170 244 303h-381v98h184v1176h-184v98h475v-98h-185v-1176h185v-98q-137 -95 -190.5 -158t-53.5 -131q0 -63 37.5 -98t105.5 -35q42 0 91 12v-82q-43 -16 -103 -16z" />
    <glyph glyph-name="Idotaccent.alt" horiz-adv-x="618" 
d="M72 0v98h184v1176h-184v98h475v-98h-185v-1176h185v-98h-475zM309 1581q-31 0 -54.5 22.5t-23.5 55.5q0 32 23 55t57 23q31 0 53.5 -23t22.5 -55q0 -34 -22 -56t-56 -22z" />
    <glyph glyph-name="lacute.alt" horiz-adv-x="548" 
d="M375 -18q-101 0 -160 69t-59 187v1216h100v-1214q0 -164 129 -164q72 0 117 53l57 -63q-78 -84 -184 -84zM209 1524l-55 45l200 268l82 -70z" />
    <glyph glyph-name="lcommaaccent.alt" horiz-adv-x="546" 
d="M373 -18q-101 0 -160 69t-59 187v1216h100v-1214q0 -164 129 -164q72 0 117 53l57 -63q-78 -84 -184 -84zM293 -496l-70 21l84 360l115 -32z" />
    <glyph glyph-name="lcaron.alt" horiz-adv-x="567" 
d="M373 -18q-101 0 -160 69t-59 187v1216h100v-1214q0 -164 129 -164q72 0 117 53l57 -63q-78 -84 -184 -84zM434 1100l-74 18l76 352l117 -30z" />
    <glyph glyph-name="ldot.alt" horiz-adv-x="573" 
d="M489 659q-34 0 -56.5 23.5t-22.5 58.5t23.5 58.5t58.5 23.5q34 0 57.5 -23.5t23.5 -58.5t-24.5 -58.5t-59.5 -23.5zM373 -18q-101 0 -160 69t-59 187v1216h100v-1214q0 -164 129 -164q72 0 117 53l57 -63q-78 -84 -184 -84z" />
    <glyph glyph-name="lslash.alt" horiz-adv-x="577" 
d="M393 -18q-102 0 -160.5 68t-58.5 188v432l-143 -82v100l143 82v684h100v-625l195 111v-100l-195 -113v-487q0 -164 129 -164q72 0 117 53l58 -63q-78 -84 -185 -84z" />
    <glyph glyph-name="ycircumflex.alt" 
d="M487 -514q-208 0 -344 174l78 64q111 -144 271 -144q135 0 218 93.5t83 246.5v238q-51 -84 -130.5 -130t-175.5 -46q-152 0 -248 108t-96 277v575h101v-557q0 -140 72 -224.5t192 -84.5q125 0 205 87t80 222v557h100v-1022q0 -190 -114.5 -312t-291.5 -122zM307 1083
l-51 68l258 192l260 -192l-53 -68l-207 152z" />
    <glyph glyph-name="aringacute.alt" horiz-adv-x="1169" 
d="M553 -18q-125 0 -228.5 64t-163 176.5t-59.5 248.5q0 207 131 348.5t324 141.5q115 0 208 -56t150 -153v190h101v-942h-101v193q-56 -98 -150.5 -154.5t-211.5 -56.5zM567 76q156 0 256.5 112.5t100.5 282.5q0 171 -100 283t-255 112q-157 0 -259.5 -112.5t-102.5 -282.5
t102.5 -282.5t257.5 -112.5zM588 1026q-78 0 -132.5 52.5t-54.5 127.5q0 74 54.5 126t132.5 52q77 0 130.5 -51.5t53.5 -126.5t-53.5 -127.5t-130.5 -52.5zM588 1102q43 0 71.5 29.5t28.5 74.5q0 44 -28.5 74.5t-71.5 30.5q-44 0 -73.5 -30.5t-29.5 -74.5q0 -46 29.5 -75
t73.5 -29zM553 1432l-37 61l281 182l53 -92z" />
    <glyph glyph-name="uni0233.alt" 
d="M487 -514q-208 0 -344 174l78 64q111 -144 271 -144q135 0 218 93.5t83 246.5v238q-51 -84 -130.5 -130t-175.5 -46q-152 0 -248 108t-96 277v575h101v-557q0 -140 72 -224.5t192 -84.5q125 0 205 87t80 222v557h100v-1022q0 -190 -114.5 -312t-291.5 -122zM309 1180v92
h410v-92h-410z" />
    <glyph glyph-name="uni0406.alt" horiz-adv-x="618" 
d="M72 0v98h184v1176h-184v98h475v-98h-185v-1176h185v-98h-475z" />
    <glyph glyph-name="uni0407.alt" horiz-adv-x="618" 
d="M72 0v98h184v1176h-184v98h475v-98h-185v-1176h185v-98h-475zM139 1581q-34 0 -56 22t-22 56q0 32 23 55t55 23t55 -23t23 -55q0 -33 -22.5 -55.5t-55.5 -22.5zM479 1581q-33 0 -55.5 22.5t-22.5 55.5q0 32 23 55t57 23q31 0 53.5 -23t22.5 -55q0 -34 -22 -56t-56 -22z
" />
    <glyph glyph-name="uni0430.alt" horiz-adv-x="1169" 
d="M553 -18q-125 0 -228.5 64t-163 176.5t-59.5 248.5q0 207 131 348.5t324 141.5q115 0 208 -56t150 -153v190h101v-942h-101v193q-56 -98 -150.5 -154.5t-211.5 -56.5zM567 76q156 0 256.5 112.5t100.5 282.5q0 171 -100 283t-255 112q-157 0 -259.5 -112.5t-102.5 -282.5
t102.5 -282.5t257.5 -112.5z" />
    <glyph glyph-name="uni0443.alt" 
d="M487 -514q-208 0 -344 174l78 64q111 -144 271 -144q135 0 218 93.5t83 246.5v238q-51 -84 -130.5 -130t-175.5 -46q-152 0 -248 108t-96 277v575h101v-557q0 -140 72 -224.5t192 -84.5q125 0 205 87t80 222v557h100v-1022q0 -190 -114.5 -312t-291.5 -122z" />
    <glyph glyph-name="uni045E.alt" 
d="M487 -514q-208 0 -344 174l78 64q111 -144 271 -144q135 0 218 93.5t83 246.5v238q-51 -84 -130.5 -130t-175.5 -46q-152 0 -248 108t-96 277v575h101v-557q0 -140 72 -224.5t192 -84.5q125 0 205 87t80 222v557h100v-1022q0 -190 -114.5 -312t-291.5 -122zM516 1075
q-101 0 -163 66.5t-62 173.5h94q0 -70 35.5 -113t95.5 -43q57 0 93 43.5t36 112.5h94q0 -107 -61.5 -173.5t-161.5 -66.5z" />
    <glyph glyph-name="ygrave.alt" 
d="M487 -514q-208 0 -344 174l78 64q111 -144 271 -144q135 0 218 93.5t83 246.5v238q-51 -84 -130.5 -130t-175.5 -46q-152 0 -248 108t-96 277v575h101v-557q0 -140 72 -224.5t192 -84.5q125 0 205 87t80 222v557h100v-1022q0 -190 -114.5 -312t-291.5 -122zM492 1057
l-228 243l82 70l201 -268z" />
    <glyph glyph-name="fl.alt" horiz-adv-x="1118" 
d="M944 -18q-100 0 -159.5 68.5t-59.5 187.5v895q0 104 -55 165.5t-146 61.5q-90 0 -144 -61.5t-54 -165.5v-191h254v-90h-254v-852h-101v852h-143v90h143v191q0 142 83.5 231.5t215.5 89.5t216.5 -90t84.5 -231v-893q0 -164 129 -164q71 0 119 53l55 -63q-75 -84 -184 -84z
" />
    <glyph glyph-name="ffl.alt" horiz-adv-x="1628" 
d="M1454 -18q-102 0 -160.5 68t-58.5 188v895q0 104 -55 165.5t-146 61.5t-145.5 -61.5t-54.5 -165.5v-191h256v-90h-256v-852h-101v852h-407v-852h-101v852h-143v90h143v248q0 120 64.5 192t173.5 72q118 0 199 -90l-64 -72q-57 68 -137 68q-65 0 -100 -43.5t-35 -126.5
v-248h407v191q0 142 84.5 231.5t216.5 89.5t216.5 -90t84.5 -231v-893q0 -164 129 -164q72 0 117 53l57 -63q-75 -84 -184 -84z" />
    <glyph glyph-name="parenleft.case" horiz-adv-x="720" 
d="M600 -297q-199 178 -312.5 433.5t-113.5 527.5q0 273 113 528.5t313 435.5l70 -63q-183 -170 -287 -406.5t-104 -492.5q0 -255 103.5 -490t287.5 -409z" />
    <glyph glyph-name="parenright.case" horiz-adv-x="720" 
d="M121 -297l-70 64q184 174 287.5 409t103.5 490q0 256 -104 492.5t-287 406.5l70 63q200 -180 313 -435.5t113 -528.5q0 -272 -113.5 -527.5t-312.5 -433.5z" />
    <glyph glyph-name="hyphen.case" horiz-adv-x="622" 
d="M92 623v106h438v-106h-438z" />
    <glyph glyph-name="colon.case" horiz-adv-x="450" 
d="M223 133q-34 0 -57 23.5t-23 58.5t23.5 58.5t58.5 23.5q34 0 58 -23.5t24 -58.5t-24.5 -58.5t-59.5 -23.5zM223 932q-34 0 -57 23.5t-23 58.5t23.5 58.5t58.5 23.5q34 0 58 -23.5t24 -58.5t-24.5 -58.5t-59.5 -23.5z" />
    <glyph glyph-name="at.case" horiz-adv-x="1859" 
d="M868 -154q-208 29 -371 140.5t-253 282.5t-90 372q0 163 61.5 308.5t167.5 249.5t253.5 165t313.5 61q162 0 306 -58t247 -157.5t163 -239t60 -296.5q0 -191 -84 -308.5t-219 -117.5q-84 0 -145.5 46t-85.5 120q-39 -74 -116.5 -120t-168.5 -46q-143 0 -241.5 109.5
t-98.5 267.5q0 159 99.5 266.5t246.5 107.5q81 0 150.5 -34.5t112.5 -96.5v105h96v-459q0 -78 42 -126t111 -48q92 0 146.5 89t54.5 239q0 189 -87.5 341t-242 238t-346.5 86q-147 0 -276 -52.5t-221 -144t-145.5 -219.5t-53.5 -274q0 -184 83 -337.5t228 -248t326 -114.5z
M924 342q112 0 187 81.5t75 201.5t-75 201t-187 81q-110 0 -183 -80.5t-73 -201.5t73.5 -202t182.5 -81z" />
    <glyph glyph-name="bracketleft.case" horiz-adv-x="634" 
d="M215 -287v1884h338v-92h-238v-1700h238v-92h-338z" />
    <glyph glyph-name="bracketright.case" horiz-adv-x="634" 
d="M82 -287v92h237v1700h-237v92h338v-1884h-338z" />
    <glyph glyph-name="braceleft.case" horiz-adv-x="645" 
d="M500 -287q-106 0 -174 69.5t-68 176.5v498q0 67 -40 110t-103 43h-13v90h13q63 0 103 43t40 111v498q0 107 68 176t174 69h63v-94h-63q-63 0 -102.5 -41t-39.5 -110v-498q0 -74 -32.5 -125.5t-94.5 -71.5v-4q62 -20 94.5 -71t32.5 -125v-498q0 -69 39.5 -110.5
t102.5 -41.5h63v-94h-63z" />
    <glyph glyph-name="braceright.case" horiz-adv-x="645" 
d="M82 -287v94h63q63 0 102.5 41.5t39.5 110.5v498q0 74 32.5 125t94.5 71v4q-62 20 -94.5 71.5t-32.5 125.5v498q0 69 -39.5 110t-102.5 41h-63v94h63q106 0 174 -69t68 -176v-498q0 -68 40 -111t103 -43h13v-90h-13q-63 0 -103 -43t-40 -110v-498q0 -107 -68 -176.5
t-174 -69.5h-63z" />
    <glyph glyph-name="exclamdown.case" horiz-adv-x="450" 
d="M164 0l24 1057h76l25 -1057h-125zM225 1219q-34 0 -58 23t-24 58t24.5 58.5t59.5 23.5q34 0 57 -23.5t23 -58.5t-23.5 -58t-58.5 -23z" />
    <glyph glyph-name="guillemotleft.case" horiz-adv-x="880" 
d="M348 289l-256 366l256 367l78 -55l-219 -312l219 -311zM670 289l-256 366l256 367l78 -55l-220 -312l217 -311z" />
    <glyph glyph-name="periodcentered.case" horiz-adv-x="450" 
d="M223 580q-34 0 -57 23.5t-23 58.5t23.5 58t58.5 23q34 0 58 -23t24 -58t-24.5 -58.5t-59.5 -23.5z" />
    <glyph glyph-name="guillemotright.case" horiz-adv-x="880" 
d="M211 289l-76 55l217 311l-219 312l78 55l256 -367zM532 289l-77 55l219 311l-219 312l77 55l256 -367z" />
    <glyph glyph-name="questiondown.case" horiz-adv-x="878" 
d="M438 -16q-151 0 -248.5 85.5t-97.5 221.5q0 88 50 158.5t177 162.5q98 70 133 113.5t35 93.5q0 54 -36.5 86.5t-118.5 52.5l30 89q230 -52 230 -226q0 -71 -42.5 -129.5t-152.5 -138.5q-113 -80 -156.5 -138t-43.5 -122q0 -94 68.5 -154.5t178.5 -60.5q87 0 155.5 43.5
t125.5 134.5l82 -66q-63 -100 -158 -153t-211 -53zM453 1219q-34 0 -58 23t-24 58t24.5 58.5t59.5 23.5q34 0 57 -23.5t23 -58.5t-23.5 -58t-58.5 -23z" />
    <glyph glyph-name="endash.case" horiz-adv-x="991" 
d="M51 631v90h889v-90h-889z" />
    <glyph glyph-name="emdash.case" horiz-adv-x="1441" 
d="M51 631v90h1340v-90h-1340z" />
    <glyph glyph-name="bullet.case" horiz-adv-x="634" 
d="M317 551q-47 0 -79.5 33.5t-32.5 79.5q0 47 32.5 80.5t79.5 33.5q46 0 79.5 -33.5t33.5 -80.5q0 -46 -33.5 -79.5t-79.5 -33.5z" />
    <glyph glyph-name="guilsinglleft.case" horiz-adv-x="608" 
d="M428 295l-356 360l356 361l68 -66l-291 -293l291 -295z" />
    <glyph glyph-name="guilsinglright.case" horiz-adv-x="608" 
d="M180 295l-67 67l290 295l-290 293l67 66l357 -361z" />
    <glyph glyph-name="zero.dnom" horiz-adv-x="731" 
d="M367 -18q-124 0 -204.5 111.5t-80.5 283.5q0 168 80.5 278.5t204.5 110.5t203 -110.5t79 -278.5q0 -172 -79 -283.5t-203 -111.5zM367 68q83 0 135.5 86t52.5 221t-52.5 220t-135.5 85q-85 0 -138 -85t-53 -220q0 -136 53 -221.5t138 -85.5z" />
    <glyph glyph-name="one.dnom" horiz-adv-x="602" 
d="M313 0v614l-178 -139l-53 66l291 227h35v-768h-95z" />
    <glyph glyph-name="two.dnom" horiz-adv-x="700" 
d="M72 0v37l225 211q126 117 164.5 169.5t38.5 108.5q0 70 -42.5 112t-111.5 42t-114 -45.5t-58 -130.5l-90 22q23 114 92.5 177t173.5 63q107 0 175.5 -66.5t68.5 -169.5q0 -74 -48 -144.5t-184 -197.5l-108 -98h364v-90h-546z" />
    <glyph glyph-name="three.dnom" horiz-adv-x="696" 
d="M340 -18q-88 0 -157 44.5t-101 123.5l82 43q52 -125 180 -125q75 0 120.5 41t45.5 110q0 73 -52 115.5t-141 42.5h-98v35l217 245h-319v91h473v-37l-223 -254q109 -12 173 -75t64 -161q0 -104 -74.5 -171.5t-189.5 -67.5z" />
    <glyph glyph-name="four.dnom" horiz-adv-x="665" 
d="M383 0v117h-383v43l436 608h41v-561h96v-90h-96v-117h-94zM133 207h250v350z" />
    <glyph glyph-name="five.dnom" horiz-adv-x="696" 
d="M330 -18q-89 0 -156.5 44t-101.5 124l78 45q50 -127 182 -127q75 0 121.5 47t46.5 125q0 80 -48 127t-130 47q-86 0 -156 -62l-33 15l43 381h381v-91h-301l-18 -178q54 21 108 21q109 0 178.5 -72t69.5 -186t-73.5 -187t-190.5 -73z" />
    <glyph glyph-name="six.dnom" horiz-adv-x="661" 
d="M317 -18q-115 0 -185.5 75t-70.5 199q0 138 89 274t247 228l54 -70q-97 -58 -156 -118.5t-100 -145.5q60 49 143 49q104 0 173 -69t69 -173q0 -109 -74.5 -179t-188.5 -70zM322 68q73 0 118 43.5t45 117.5q0 72 -44.5 115t-118.5 43t-120 -43t-46 -115q0 -73 46 -117
t120 -44z" />
    <glyph glyph-name="seven.dnom" horiz-adv-x="620" 
d="M182 0l293 657h-373v91h498v-35l-315 -713h-103z" />
    <glyph glyph-name="eight.dnom" horiz-adv-x="714" 
d="M358 -18q-117 0 -191.5 65t-74.5 166q0 61 34.5 114t90.5 81q-40 28 -62 68t-22 83q0 88 64.5 147.5t160.5 59.5q97 0 161.5 -59.5t64.5 -147.5q0 -89 -84 -153q56 -26 89.5 -79t33.5 -114q0 -101 -74.5 -166t-190.5 -65zM358 68q76 0 123 39.5t47 105.5t-46.5 104.5
t-123.5 38.5q-78 0 -125 -38.5t-47 -104.5t47.5 -105.5t124.5 -39.5zM358 442q59 0 95 32.5t36 86.5q0 53 -36.5 86t-94.5 33t-94.5 -33t-36.5 -86q0 -54 36 -86.5t95 -32.5z" />
    <glyph glyph-name="nine.dnom" horiz-adv-x="661" 
d="M264 -14l-53 69q96 56 155.5 117t100.5 147q-60 -49 -143 -49q-104 0 -173 69t-69 173q0 109 74 179.5t188 70.5t185 -75.5t71 -199.5q0 -138 -89 -273.5t-247 -227.5zM340 356q75 0 120.5 43t45.5 115q0 73 -45.5 117.5t-120.5 44.5q-73 0 -118.5 -44.5t-45.5 -117.5
q0 -72 45 -115t119 -43z" />
    <glyph glyph-name="Iacute_J.loclNLD" horiz-adv-x="1374" 
d="M195 0v1372h106v-1372h-106zM850 -20q-195 0 -305 180l86 67q84 -143 221 -143q108 0 169.5 76.5t61.5 212.5v901h-411v98h518v-999q0 -179 -92 -286t-248 -107zM268 1487l-55 45l201 268l80 -69zM938 1487l-55 45l200 268l80 -69z" />
    <glyph glyph-name="iacute_j.loclNLD" horiz-adv-x="825" 
d="M154 0v942h100v-942h-100zM457 -512q-98 0 -168 78l63 72q46 -56 107 -56q54 0 83 39.5t29 112.5v1208h101v-1206q0 -114 -58.5 -181t-156.5 -67zM223 1057l-55 45l203 268l80 -70zM641 1057l-55 45l202 268l80 -70z" />
    <glyph glyph-name="zero.numr" horiz-adv-x="731" 
d="M367 606q-124 0 -204.5 111.5t-80.5 283.5q0 168 80.5 279t204.5 111t203 -111t79 -279q0 -172 -79 -283.5t-203 -111.5zM367 692q83 0 135.5 86t52.5 221t-52.5 220.5t-135.5 85.5q-85 0 -138 -85.5t-53 -220.5q0 -136 53 -221.5t138 -85.5z" />
    <glyph glyph-name="one.numr" horiz-adv-x="602" 
d="M313 625v614l-178 -139l-53 65l291 228h35v-768h-95z" />
    <glyph glyph-name="two.numr" horiz-adv-x="700" 
d="M72 625v37l225 210q126 117 164.5 170t38.5 109q0 70 -42.5 112t-111.5 42t-113.5 -46t-58.5 -131l-90 23q23 114 92.5 177t173.5 63q107 0 175.5 -66.5t68.5 -169.5q0 -74 -48 -144.5t-184 -197.5l-108 -98h364v-90h-546z" />
    <glyph glyph-name="three.numr" horiz-adv-x="696" 
d="M340 606q-88 0 -157 44.5t-101 123.5l82 43q52 -125 180 -125q75 0 120.5 41.5t45.5 110.5q0 73 -51.5 115t-141.5 42h-98v35l217 246h-319v90h473v-37l-223 -254q109 -12 173 -74.5t64 -160.5q0 -104 -74.5 -172t-189.5 -68z" />
    <glyph glyph-name="four.numr" horiz-adv-x="665" 
d="M383 625v116h-383v43l436 609h41v-562h96v-90h-96v-116h-94zM133 831h250v351z" />
    <glyph glyph-name="five.numr" horiz-adv-x="696" 
d="M330 606q-89 0 -156.5 44t-101.5 124l78 45q50 -127 182 -127q75 0 121.5 47t46.5 125q0 80 -48 127t-130 47q-87 0 -156 -61l-33 14l43 381h381v-90h-301l-18 -178q52 20 108 20q109 0 178.5 -72t69.5 -186t-73.5 -187t-190.5 -73z" />
    <glyph glyph-name="six.numr" horiz-adv-x="661" 
d="M317 606q-114 0 -185 75.5t-71 199.5q0 138 89 273.5t247 227.5l54 -69q-97 -58 -156 -118.5t-100 -145.5q60 49 143 49q104 0 173 -69t69 -173q0 -109 -74.5 -179.5t-188.5 -70.5zM322 692q73 0 118 44t45 118q0 72 -44.5 115t-118.5 43t-120 -43t-46 -115
q0 -73 46 -117.5t120 -44.5z" />
    <glyph glyph-name="seven.numr" horiz-adv-x="620" 
d="M182 625l293 657h-373v90h498v-35l-315 -712h-103z" />
    <glyph glyph-name="eight.numr" horiz-adv-x="714" 
d="M358 606q-117 0 -191.5 65.5t-74.5 166.5q0 61 34.5 113.5t90.5 80.5q-39 28 -61.5 68.5t-22.5 83.5q0 88 64.5 147.5t160.5 59.5q97 0 161.5 -59.5t64.5 -147.5q0 -90 -84 -154q56 -26 89.5 -78.5t33.5 -113.5q0 -101 -74.5 -166.5t-190.5 -65.5zM358 692q75 0 122.5 40
t47.5 106t-46.5 104.5t-123.5 38.5q-78 0 -125 -38.5t-47 -104.5t47.5 -106t124.5 -40zM358 1067q59 0 95 32.5t36 86.5q0 53 -36.5 86t-94.5 33t-94.5 -33t-36.5 -86q0 -54 36 -86.5t95 -32.5z" />
    <glyph glyph-name="nine.numr" horiz-adv-x="661" 
d="M264 610l-53 70q96 56 155.5 117t100.5 147q-60 -49 -143 -49q-104 0 -173 69t-69 173q0 109 74 179t188 70q115 0 185.5 -75t70.5 -199q0 -138 -89 -274t-247 -228zM340 981q75 0 120.5 43t45.5 115q0 73 -45.5 117t-120.5 44q-73 0 -118.5 -44t-45.5 -117
q0 -72 45 -115t119 -43z" />
    <glyph glyph-name="zero.osf" horiz-adv-x="1024" 
d="M514 -18q-177 0 -289 145.5t-112 374.5q0 228 113 374t288 146q174 0 285.5 -146t111.5 -374q0 -227 -112 -373.5t-285 -146.5zM514 76q132 0 212.5 117t80.5 309t-80.5 309t-212.5 117q-134 0 -215.5 -117t-81.5 -309q0 -191 82 -308.5t215 -117.5z" />
    <glyph glyph-name="one.osf" horiz-adv-x="567" 
d="M303 0v864l-221 -153l-51 73l338 240h34v-1024h-100z" />
    <glyph glyph-name="two.osf" horiz-adv-x="901" 
d="M92 0v53q0 70 21 129.5t50 98.5t80.5 77.5t89.5 59.5t101 51q133 67 191.5 120t58.5 134q0 90 -63.5 147.5t-165.5 57.5q-101 0 -167.5 -60t-88.5 -170l-95 21q26 143 121 223t232 80q143 0 237 -85.5t94 -215.5q0 -38 -9.5 -71.5t-23 -59t-39.5 -51.5t-47 -43
t-57.5 -38.5t-59 -33t-63.5 -31.5q-64 -31 -107 -56.5t-88.5 -63t-69 -83.5t-25.5 -100h600v-90h-707z" />
    <glyph glyph-name="three.osf" horiz-adv-x="921" 
d="M436 -307q-137 0 -247 77.5t-148 204.5l86 37q38 -105 120.5 -165t188.5 -60q129 0 209 82t80 213q0 136 -88.5 218.5t-235.5 82.5h-143v35l395 495h-528v91h694v-35l-395 -496q181 -4 293 -111t112 -274q0 -169 -112 -282t-281 -113z" />
    <glyph glyph-name="four.osf" horiz-adv-x="921" 
d="M174 90h465v692zM639 -307v307h-608v35l667 989h41v-934h131v-90h-131v-307h-100z" />
    <glyph glyph-name="five.osf" horiz-adv-x="952" 
d="M449 -307q-136 0 -243 77.5t-145 204.5l86 37q37 -105 118 -165t184 -60q133 0 214.5 91t81.5 235q0 142 -81.5 232.5t-212.5 90.5q-68 0 -135.5 -25t-110.5 -69l-33 18l78 644h571v-91h-487l-51 -428q82 45 184 45q166 0 274.5 -117t108.5 -294q0 -183 -114 -304.5
t-287 -121.5z" />
    <glyph glyph-name="six.osf" horiz-adv-x="993" 
d="M508 -18q-180 0 -293 123.5t-113 320.5q0 257 147 490t425 397l57 -74q-376 -227 -483 -551q45 58 116 91.5t156 33.5q167 0 279 -118.5t112 -293.5q0 -179 -115 -299t-288 -120zM510 76q130 0 213.5 91t83.5 232q0 140 -83 230t-214 90q-132 0 -217.5 -90.5
t-85.5 -229.5q0 -141 85.5 -232t217.5 -91z" />
    <glyph glyph-name="seven.osf" horiz-adv-x="880" 
d="M141 -305l551 1218h-651v91h788v-35l-577 -1274h-111z" />
    <glyph glyph-name="eight.osf" horiz-adv-x="1003" 
d="M502 -18q-165 0 -282.5 113t-117.5 270q0 113 63.5 205t166.5 141q-76 45 -120 116.5t-44 155.5q0 138 96.5 232t237.5 94t237.5 -93.5t96.5 -230.5q0 -87 -44 -159t-122 -115q106 -51 168.5 -142t62.5 -204q0 -158 -116.5 -270.5t-282.5 -112.5zM502 76q131 0 214 84
t83 211q0 124 -83 205t-214 81q-130 0 -213.5 -80.5t-83.5 -205.5q0 -127 83.5 -211t213.5 -84zM502 752q101 0 166 64t65 165q0 103 -65 168t-166 65q-100 0 -166 -65.5t-66 -167.5q0 -101 66 -165t166 -64z" />
    <glyph glyph-name="nine.osf" horiz-adv-x="993" 
d="M322 -309l-60 73q376 227 483 551q-43 -58 -115 -91.5t-157 -33.5q-167 0 -279 118.5t-112 293.5q0 179 115 299.5t288 120.5q180 0 293 -123.5t113 -320.5q0 -257 -146.5 -490t-422.5 -397zM483 285q132 0 217.5 90t85.5 229q0 141 -85.5 232.5t-217.5 91.5
q-130 0 -213.5 -91.5t-83.5 -232.5q0 -140 82.5 -229.5t214.5 -89.5z" />
    <glyph glyph-name="zero.tab" horiz-adv-x="1085" 
d="M545 -18q-207 0 -335 194t-128 510t127.5 510.5t333.5 194.5q209 0 335 -194t126 -511q0 -316 -126.5 -510t-332.5 -194zM543 86q161 0 254.5 161t93.5 439t-93.5 439t-254.5 161q-160 0 -254 -161t-94 -439q0 -279 94 -439.5t254 -160.5z" />
    <glyph glyph-name="one.tab" horiz-adv-x="1085" 
d="M176 0v100h381v1149l-348 -219l-55 80l473 303h37v-1313h340v-100h-828z" />
    <glyph glyph-name="two.tab" horiz-adv-x="1085" 
d="M123 0v104q0 83 25 152.5t78 131.5t119 114t163 112q112 70 177.5 126t103.5 123.5t38 146.5q0 125 -77.5 200.5t-206.5 75.5q-125 0 -206 -76t-112 -225l-100 14q25 182 138 287t282 105q174 0 284.5 -106t110.5 -271q0 -75 -24 -139.5t-76 -123.5t-116.5 -109
t-160.5 -112q-169 -106 -248 -204.5t-79 -227.5h706v-98h-819z" />
    <glyph glyph-name="three.tab" horiz-adv-x="1085" 
d="M514 -18q-142 0 -253.5 73t-178.5 213l90 54q113 -242 346 -242q145 0 233.5 87t88.5 226q0 147 -102 232.5t-279 85.5h-135v34l442 527h-580v100h758v-37l-442 -524q201 -6 325.5 -120.5t124.5 -293.5q0 -180 -124 -297.5t-314 -117.5z" />
    <glyph glyph-name="four.tab" horiz-adv-x="1085" 
d="M711 0v303h-639v35l704 1075h35v-1012h182v-98h-182v-303h-100zM223 401h488v742z" />
    <glyph glyph-name="five.tab" horiz-adv-x="1085" 
d="M500 -18q-140 0 -250.5 73t-177.5 213l90 54q113 -242 342 -242q147 0 239.5 95.5t92.5 250.5q0 150 -90.5 244t-233.5 94q-80 0 -154.5 -29.5t-121.5 -81.5l-35 21l118 698h596v-100h-512l-77 -453q92 43 198 43q181 0 299.5 -123t118.5 -313q0 -193 -125 -318.5
t-317 -125.5z" />
    <glyph glyph-name="six.tab" horiz-adv-x="1085" 
d="M539 -18q-194 0 -315.5 132t-121.5 345q0 242 162 498.5t451 455.5l65 -80q-180 -121 -310.5 -272t-203.5 -318q116 125 291 125q183 0 309.5 -127t126.5 -313q0 -188 -130.5 -317t-323.5 -129zM549 80q144 0 238 99t94 247t-94 246t-238 98t-239 -98t-95 -246t95 -247
t239 -99z" />
    <glyph glyph-name="seven.tab" horiz-adv-x="1085" 
d="M209 0l637 1272h-733v100h880v-35l-669 -1337h-115z" />
    <glyph glyph-name="eight.tab" horiz-adv-x="1085" 
d="M543 -18q-192 0 -316.5 113.5t-124.5 283.5q0 123 71 219t194 139q-91 47 -142 127t-51 176q0 149 105 250t264 101q157 0 262.5 -101.5t105.5 -249.5q0 -98 -50.5 -176.5t-141.5 -126.5q123 -43 193.5 -139t70.5 -219q0 -169 -125 -283t-315 -114zM543 80
q147 0 240.5 85.5t93.5 217.5q0 133 -92.5 217t-241.5 84t-241.5 -84.5t-92.5 -216.5q0 -133 92 -218t242 -85zM543 782q116 0 189 71.5t73 182.5q0 113 -72.5 184.5t-189.5 71.5q-118 0 -190 -71.5t-72 -184.5q0 -111 72.5 -182.5t189.5 -71.5z" />
    <glyph glyph-name="nine.tab" horiz-adv-x="1085" 
d="M371 -41l-66 80q180 121 310.5 272t203.5 318q-116 -125 -291 -125q-183 0 -309.5 127t-126.5 313q0 188 131 317.5t324 129.5q194 0 315 -132.5t121 -345.5q0 -241 -162 -497.5t-450 -456.5zM535 602q145 0 240 98t95 246t-95.5 247t-239.5 99q-142 0 -236 -99t-94 -247
t94 -246t236 -98z" />
    <glyph glyph-name="zero.tabosf" horiz-adv-x="962" 
d="M483 -18q-177 0 -289 145.5t-112 374.5q0 228 113 374t288 146q174 0 286 -146t112 -374q0 -227 -112.5 -373.5t-285.5 -146.5zM483 76q132 0 212.5 117t80.5 309t-80.5 309t-212.5 117q-134 0 -215.5 -117t-81.5 -309q0 -191 82 -308.5t215 -117.5z" />
    <glyph glyph-name="one.tabosf" horiz-adv-x="962" 
d="M162 0v90h317v774l-274 -194l-51 73l389 281h37v-934h301v-90h-719z" />
    <glyph glyph-name="two.tabosf" horiz-adv-x="962" 
d="M123 0v53q0 70 21 129.5t50 98.5t80.5 77.5t89.5 59.5t101 51q133 67 191.5 120t58.5 134q0 90 -64 147.5t-166 57.5q-101 0 -167.5 -60t-88.5 -170l-94 21q26 143 120.5 223t231.5 80q143 0 237.5 -85.5t94.5 -215.5q0 -38 -9.5 -71.5t-23 -59t-39.5 -51.5t-47 -43
t-57.5 -38.5t-59 -33t-63.5 -31.5q-64 -31 -107.5 -56.5t-88.5 -63t-69 -83.5t-26 -100h600v-90h-706z" />
    <glyph glyph-name="three.tabosf" horiz-adv-x="962" 
d="M446 -307q-137 0 -247 77.5t-148 204.5l86 37q38 -105 120.5 -165t188.5 -60q129 0 209 82t80 213q0 136 -88 218.5t-235 82.5h-144v35l396 495h-529v91h694v-35l-395 -496q181 -4 293.5 -111t112.5 -274q0 -169 -112.5 -282t-281.5 -113z" />
    <glyph glyph-name="four.tabosf" horiz-adv-x="962" 
d="M184 90h465v692zM649 -307v307h-608v35l668 989h41v-934h131v-90h-131v-307h-101z" />
    <glyph glyph-name="five.tabosf" horiz-adv-x="962" 
d="M449 -307q-136 0 -243 77.5t-145 204.5l86 37q37 -105 118 -165t184 -60q133 0 214.5 91t81.5 235q0 142 -81.5 232.5t-212.5 90.5q-68 0 -135.5 -25t-110.5 -69l-33 18l78 644h571v-91h-487l-51 -428q82 45 184 45q166 0 274.5 -117t108.5 -294q0 -183 -114 -304.5
t-287 -121.5z" />
    <glyph glyph-name="six.tabosf" horiz-adv-x="962" 
d="M487 -18q-180 0 -292.5 123.5t-112.5 320.5q0 257 146.5 490t424.5 397l58 -74q-377 -228 -484 -551q45 58 116.5 91.5t156.5 33.5q167 0 279 -118.5t112 -293.5q0 -179 -115.5 -299t-288.5 -120zM489 76q130 0 213.5 91t83.5 232q0 140 -83 230t-214 90
q-132 0 -217.5 -90.5t-85.5 -229.5q0 -141 85.5 -232t217.5 -91z" />
    <glyph glyph-name="seven.tabosf" horiz-adv-x="962" 
d="M203 -305l551 1218h-652v91h789v-35l-578 -1274h-110z" />
    <glyph glyph-name="eight.tabosf" horiz-adv-x="962" 
d="M481 -18q-165 0 -282 113t-117 270q0 113 63 205t166 141q-76 45 -120 116.5t-44 155.5q0 138 96.5 232t237.5 94t237.5 -93.5t96.5 -230.5q0 -87 -44 -159t-122 -115q107 -51 169.5 -142t62.5 -204q0 -158 -117 -270.5t-283 -112.5zM481 76q131 0 214 84t83 211
q0 124 -83 205t-214 81q-130 0 -213.5 -80.5t-83.5 -205.5q0 -127 83.5 -211t213.5 -84zM481 752q102 0 167 64t65 165q0 103 -65.5 168t-166.5 65q-100 0 -165.5 -65.5t-65.5 -167.5q0 -101 65.5 -165t165.5 -64z" />
    <glyph glyph-name="nine.tabosf" horiz-adv-x="962" 
d="M311 -309l-59 73q376 227 483 551q-43 -58 -115 -91.5t-157 -33.5q-167 0 -279 118.5t-112 293.5q0 179 115 299.5t288 120.5q180 0 293 -123.5t113 -320.5q0 -257 -146.5 -489.5t-423.5 -397.5zM473 285q132 0 217.5 90t85.5 229q0 141 -85.5 232.5t-217.5 91.5
q-130 0 -213.5 -91.5t-83.5 -232.5q0 -140 82.5 -229.5t214.5 -89.5z" />
    <glyph glyph-name="foundryicon" horiz-adv-x="3149" 
d="M350 471v408h-145v63h364v-63h-147v-408h-72zM590 346q-15 0 -21 2v58q49 0 64 40l12 33l-129 326h76l90 -238l90 238h76l-158 -389q-33 -70 -100 -70zM897 346v459h49l19 -39q38 45 98 45q65 0 111.5 -51t46.5 -121q0 -73 -46.5 -123.5t-111.5 -50.5q-59 0 -96 43v-162
h-70zM1057 528q39 0 67.5 33t28.5 78q0 43 -29 74.5t-67 31.5q-40 0 -68 -31.5t-28 -74.5q0 -46 28 -78.5t68 -32.5zM1436 465q-66 0 -113 50.5t-47 123.5q0 71 47 121.5t113 50.5q64 0 109.5 -49.5t45.5 -120.5l-2 -31h-243q3 -34 29 -59t61 -25q55 0 75 35h72
q-18 -46 -58.5 -71t-88.5 -25zM1346 666h180q-1 34 -29 58t-61 24q-34 0 -60 -22.5t-30 -59.5zM1704 471v408h-145v63h364v-63h-147v-408h-72zM1944 346q-15 0 -21 2v58q49 0 64 40l12 33l-129 326h76l90 -238l90 238h76l-158 -389q-33 -70 -100 -70zM2251 346v459h49
l18 -39q38 45 99 45q64 0 110.5 -50.5t46.5 -121.5q0 -73 -46 -123.5t-111 -50.5q-60 0 -97 43v-162h-69zM2410 528q39 0 68 33t29 78q0 43 -29.5 74.5t-67.5 31.5q-40 0 -68 -31.5t-28 -74.5q0 -46 28 -78.5t68 -32.5zM2789 465q-66 0 -112.5 50.5t-46.5 123.5
q0 71 46.5 121.5t112.5 50.5q65 0 110.5 -50t45.5 -120l-2 -31h-244q3 -34 29 -59t61 -25q56 0 76 35h72q-18 -46 -59 -71t-89 -25zM2699 666h180q-1 34 -29 58t-61 24q-34 0 -60 -22.5t-30 -59.5z" />
    </font>
</defs>
</svg>
