<?xml version="1.0" standalone="no"?>
<!DOCTYPE svg PUBLIC "-//W3C//DTD SVG 1.1//EN" "http://www.w3.org/Graphics/SVG/1.1/DTD/svg11.dtd" >
<svg xmlns="http://www.w3.org/2000/svg" xmlns:xlink="http://www.w3.org/1999/xlink" version="1.1">
<metadata>
Created by FontForge 20170731 at Sat Apr 29 09:38:43 2023
 By Aleksey,,,
Copyright (c) 2015-2019 by Typetype. Designers Yulia Gonina and Ivan Gladkikh, technical designers Kseniya Karataeva, Anna Tikhonova, Nadyr Rakhimov, Maria Mizeritskaya. New remastered version created in 2019 by Yulia Gonina. All rights reserved. For font testing only. Special version for DaFont.
</metadata>
<defs>
<font id="TTChocolates-Medium" horiz-adv-x="1069" >
  <font-face 
    font-family="TT Chocolates Trl Light"
    font-weight="500"
    font-stretch="normal"
    units-per-em="2048"
    panose-1="2 0 8 3 3 0 0 2 0 3"
    ascent="1638"
    descent="-410"
    x-height="942"
    cap-height="1372"
    bbox="-903 -543 2945 2054"
    underline-thickness="40"
    underline-position="-347"
    unicode-range="U+000D-FB06"
  />
<missing-glyph horiz-adv-x="0" 
 />
    <glyph glyph-name="ff" unicode="ff" horiz-adv-x="1241" 
d="M205 0v782h-144v160h144v211q0 135 80 218t211 83q141 0 239 -98l-98 -131q-63 69 -133 69q-57 0 -90 -38t-33 -103v-211h391v211q0 135 80 218t211 83q142 0 240 -98l-99 -131q-66 69 -133 69q-58 0 -90.5 -38t-32.5 -103v-211h266v-160h-266v-782h-176v782h-391v-782
h-176z" />
    <glyph glyph-name="fi" unicode="fi" horiz-adv-x="1060" 
d="M205 0v782h-144v160h144v123q0 171 106.5 280t272.5 109q91 0 173 -33.5t132 -89.5l-103 -125q-76 88 -198 88q-95 0 -151 -62.5t-56 -168.5v-121h547v-942h-176v782h-371v-782h-176z" />
    <glyph glyph-name="fl" unicode="fl" horiz-adv-x="1060" 
d="M205 0v782h-144v160h144v154q0 158 101 258t261 100q158 0 259.5 -100.5t101.5 -257.5v-1096h-176v1096q0 90 -50.5 144t-134.5 54t-135 -54t-51 -144v-154h248v-160h-248v-782h-176z" />
    <glyph glyph-name="ffi" unicode="ffi" horiz-adv-x="1628" 
d="M205 0v782h-144v160h144v211q0 135 80 218t211 83q141 0 239 -98l-98 -131q-63 69 -133 69q-57 0 -90 -38t-33 -103v-211h391v123q0 172 106 280.5t273 108.5q91 0 173 -33.5t132 -89.5l-102 -125q-76 88 -199 88q-95 0 -151 -62.5t-56 -168.5v-121h547v-942h-176v782
h-371v-782h-176v782h-391v-782h-176z" />
    <glyph glyph-name="ffl" unicode="ffl" horiz-adv-x="1628" 
d="M205 0v782h-144v160h144v211q0 135 80 218t211 83q141 0 239 -98l-98 -131q-63 69 -133 69q-57 0 -90 -38t-33 -103v-211h391v154q0 158 101 258t260 100t260.5 -100.5t101.5 -257.5v-1096h-176v1096q0 91 -50.5 144.5t-135.5 53.5q-84 0 -134.5 -54t-50.5 -144v-154h248
v-160h-248v-782h-176v782h-391v-782h-176z" />
    <glyph glyph-name="f_f_j" unicode="ffj" horiz-adv-x="1628" 
d="M1225 -512q-114 0 -195 78l88 143q47 -55 99 -55q50 0 76 37t26 100v991h-371v-782h-176v782h-391v-782h-176v782h-144v160h144v211q0 135 80 218t211 83q141 0 239 -98l-98 -131q-63 69 -133 69q-57 0 -90 -38t-33 -103v-211h391v123q0 172 106 280.5t273 108.5
q91 0 173 -33.5t132 -89.5l-102 -125q-76 88 -199 88q-95 0 -151 -62.5t-56 -168.5v-121h547v-1157q0 -133 -74 -215t-196 -82z" />
    <glyph glyph-name="f_j" unicode="fj" horiz-adv-x="1060" 
d="M657 -512q-113 0 -194 78l88 143q50 -55 98 -55q50 0 76.5 37t26.5 100v991h-371v-782h-176v782h-144v160h144v123q0 171 106.5 280t272.5 109q91 0 173 -33.5t132 -89.5l-103 -125q-76 88 -198 88q-95 0 -151 -62.5t-56 -168.5v-121h547v-1157q0 -133 -74.5 -215
t-196.5 -82z" />
    <glyph glyph-name=".notdef" horiz-adv-x="0" 
 />
    <glyph glyph-name=".null" horiz-adv-x="0" 
 />
    <glyph glyph-name=".null" horiz-adv-x="0" 
 />
    <glyph glyph-name="nonmarkingreturn" horiz-adv-x="682" 
 />
    <glyph glyph-name="CR" unicode="&#xd;" horiz-adv-x="0" 
 />
    <glyph glyph-name="space" unicode=" " horiz-adv-x="450" 
 />
    <glyph glyph-name="exclam" unicode="!" horiz-adv-x="512" 
d="M256 -12q-52 0 -87.5 35t-35.5 88q0 52 35 87t88 35t88 -35t35 -87q0 -53 -35.5 -88t-87.5 -35zM186 360l-30 1012h200l-30 -1012h-140z" />
    <glyph glyph-name="quotedbl" unicode="&#x22;" horiz-adv-x="657" 
d="M129 928l-27 444h168l-26 -444h-115zM414 928l-27 444h168l-27 -444h-114z" />
    <glyph glyph-name="numbersign" unicode="#" horiz-adv-x="1361" 
d="M188 0l93 354h-240l37 152h241l97 360h-242l39 152h242l92 354h172l-94 -354h282l94 354h173l-95 -354h242l-39 -152h-242l-96 -360h242l-39 -152h-240l-94 -354h-170l92 354h-282l-95 -354h-170zM489 506h285l96 360h-284z" />
    <glyph glyph-name="dollar" unicode="$" horiz-adv-x="1040" 
d="M451 -229v209q-123 12 -227 78.5t-173 177.5l144 118q131 -207 323 -207q108 0 174 57t66 150q0 82 -60 142.5t-198 115.5q-188 76 -274.5 175t-86.5 235q0 144 85 243t227 124v213h157v-213q198 -27 332 -205l-139 -121q-116 158 -271 158q-92 0 -146 -50.5t-54 -134.5
q0 -80 57 -137t191 -111q192 -78 281 -179.5t89 -239.5q0 -150 -93.5 -255t-246.5 -130v-213h-157z" />
    <glyph glyph-name="percent" unicode="%" horiz-adv-x="1615" 
d="M397 0l643 1372h179l-641 -1372h-181zM377 748q-137 0 -231.5 94.5t-94.5 230.5q0 135 94.5 228.5t231.5 93.5t231 -94t94 -230q0 -135 -94.5 -229t-230.5 -94zM377 895q72 0 119 50.5t47 125.5t-47 125.5t-119 50.5t-119 -50.5t-47 -125.5t47 -125.5t119 -50.5z
M1241 -23q-138 0 -232 94.5t-94 231.5q0 135 94.5 228.5t231.5 93.5q135 0 229.5 -93.5t94.5 -228.5q0 -137 -94 -231.5t-230 -94.5zM1241 125q70 0 117 50.5t47 125.5t-47 125.5t-117 50.5q-72 0 -119 -50.5t-47 -125.5t47 -125.5t119 -50.5z" />
    <glyph glyph-name="ampersand" unicode="&#x26;" horiz-adv-x="1429" 
d="M1180 -29l-197 209q-187 -203 -444 -203q-193 0 -320 112.5t-127 281.5q0 132 82.5 245t226.5 177q-69 79 -102 147t-33 141q0 135 96.5 224.5t241.5 89.5q150 0 250 -95.5t100 -238.5h-186q0 74 -44.5 121t-117.5 47q-68 0 -110.5 -40t-42.5 -104q0 -92 106 -204
l408 -432q86 183 86 432h356v-154h-195q-23 -223 -127 -401l222 -232zM553 143q184 0 317 152l-356 381q-110 -39 -172.5 -114.5t-62.5 -174.5q0 -110 74.5 -177t199.5 -67z" />
    <glyph glyph-name="quotesingle" unicode="'" horiz-adv-x="372" 
d="M129 928l-27 444h168l-26 -444h-115z" />
    <glyph glyph-name="parenleft" unicode="(" horiz-adv-x="741" 
d="M580 -461q-200 180 -313 439t-113 540q0 283 113 544t313 443l120 -100q-169 -165 -268.5 -402.5t-99.5 -478.5q0 -243 99 -478t269 -404z" />
    <glyph glyph-name="parenright" unicode=")" horiz-adv-x="741" 
d="M162 -461l-121 103q170 169 269.5 404.5t99.5 477.5q0 241 -100 478.5t-269 402.5l121 100q200 -182 313 -443t113 -544q0 -281 -113 -540t-313 -439z" />
    <glyph glyph-name="asterisk" unicode="*" horiz-adv-x="714" 
d="M246 829l-103 74l117 158l-188 59l39 117l186 -61v196h121v-196l186 61l39 -117l-186 -59l114 -158l-98 -74l-115 160z" />
    <glyph glyph-name="plus" unicode="+" horiz-adv-x="911" 
d="M375 264v322h-314v159h314v306h160v-306h315v-159h-315v-322h-160z" />
    <glyph glyph-name="comma" unicode="," horiz-adv-x="503" 
d="M180 -313l-108 39l129 489l190 -70z" />
    <glyph glyph-name="hyphen" unicode="-" horiz-adv-x="624" 
d="M82 442v179h461v-179h-461z" />
    <glyph glyph-name="period" unicode="." horiz-adv-x="512" 
d="M256 -12q-52 0 -87.5 35t-35.5 88q0 52 35 87t88 35t88 -35t35 -87q0 -53 -35.5 -88t-87.5 -35z" />
    <glyph glyph-name="slash" unicode="/" horiz-adv-x="778" 
d="M0 -246l590 1618h188l-590 -1618h-188z" />
    <glyph glyph-name="zero" unicode="0" horiz-adv-x="1241" 
d="M621 -23q-229 0 -368.5 195t-139.5 514t139.5 514t368.5 195q152 0 267 -88.5t177.5 -249.5t62.5 -371q0 -318 -139 -513.5t-368 -195.5zM621 158q143 0 224 140.5t81 387.5t-81 387.5t-224 140.5q-144 0 -225 -140t-81 -388q0 -249 80.5 -388.5t225.5 -139.5z" />
    <glyph glyph-name="one" unicode="1" horiz-adv-x="710" 
d="M326 0v1110l-187 -127l-98 145l405 281h70v-1409h-190z" />
    <glyph glyph-name="two" unicode="2" horiz-adv-x="1126" 
d="M131 0v168q0 69 21.5 130.5t53.5 107.5t86.5 93t101.5 79t118 75q157 90 232 165.5t75 174.5t-67.5 161.5t-173.5 62.5q-108 0 -179 -66t-100 -195l-176 35q34 189 154.5 296.5t300.5 107.5q188 0 310 -113t122 -285q0 -79 -27 -146t-84.5 -127t-125 -110t-169.5 -112
q-50 -31 -85 -54.5t-75 -57t-64.5 -64t-41 -69.5t-16.5 -79h692v-178h-883z" />
    <glyph glyph-name="three" unicode="3" horiz-adv-x="1095" 
d="M518 -23q-149 0 -268 73.5t-189 209.5l154 102q95 -206 305 -206q120 0 191 68.5t71 181.5q0 124 -88 194t-235 70h-158v69l365 455h-504v178h799v-69l-383 -476q176 -22 285.5 -137.5t109.5 -283.5q0 -187 -127.5 -308t-327.5 -121z" />
    <glyph glyph-name="four" unicode="4" horiz-adv-x="1085" 
d="M662 0v250h-631v86l737 1073h84v-981h172v-178h-172v-250h-190zM281 428h381v555z" />
    <glyph glyph-name="five" unicode="5" horiz-adv-x="1105" 
d="M520 -23q-146 0 -262.5 73.5t-185.5 209.5l151 102q99 -206 299 -206q123 0 197 75t74 201q0 128 -78.5 204.5t-208.5 76.5q-133 0 -230 -78l-67 39l106 698h637v-178h-495l-51 -326q71 23 141 23q190 0 313 -128t123 -323q0 -202 -130.5 -332.5t-332.5 -130.5z" />
    <glyph glyph-name="six" unicode="6" horiz-adv-x="1105" 
d="M551 -23q-207 0 -338 137t-131 357q0 248 172.5 501.5t474.5 448.5l109 -133q-331 -230 -480 -473q98 70 226 70q187 0 318.5 -131.5t131.5 -319.5q0 -191 -139 -324t-344 -133zM561 156q122 0 202.5 79t80.5 199q0 119 -80.5 196t-202.5 77q-124 0 -206.5 -77
t-82.5 -196q0 -120 83 -199t206 -79z" />
    <glyph glyph-name="seven" unicode="7" horiz-adv-x="1064" 
d="M195 0l542 1194h-614v178h870v-69l-596 -1303h-202z" />
    <glyph glyph-name="eight" unicode="8" horiz-adv-x="1146" 
d="M575 -23q-202 0 -337.5 116.5t-135.5 287.5q0 115 64 207.5t174 144.5q-79 46 -125.5 124.5t-46.5 170.5q0 155 117.5 261t289.5 106q170 0 287 -106t117 -261q0 -94 -45.5 -171.5t-124.5 -123.5q109 -52 172 -144.5t63 -207.5q0 -171 -135 -287.5t-334 -116.5zM575 150
q122 0 200.5 69t78.5 176t-78.5 175.5t-200.5 68.5q-123 0 -202.5 -69t-79.5 -175q0 -107 79.5 -176t202.5 -69zM575 811q94 0 153.5 58t59.5 149q0 89 -59.5 147t-153.5 58q-95 0 -156 -58t-61 -147q0 -91 61 -149t156 -58z" />
    <glyph glyph-name="nine" unicode="9" horiz-adv-x="1105" 
d="M377 -49l-109 133q329 227 480 473q-95 -70 -226 -70q-186 0 -318 132t-132 319q0 191 140 324t345 133t336 -137t131 -357q0 -248 -172.5 -501.5t-474.5 -448.5zM547 666q123 0 205 76.5t82 195.5q0 120 -82.5 199.5t-204.5 79.5t-203.5 -79.5t-81.5 -199.5
q0 -119 81 -195.5t204 -76.5z" />
    <glyph glyph-name="colon" unicode=":" horiz-adv-x="512" 
d="M256 -12q-52 0 -87.5 35t-35.5 88q0 52 35 87t88 35t88 -35t35 -87q0 -53 -35.5 -88t-87.5 -35zM256 709q-53 0 -88 34t-35 88q0 53 35.5 88t87.5 35t87.5 -35t35.5 -88q0 -54 -35 -88t-88 -34z" />
    <glyph glyph-name="semicolon" unicode=";" horiz-adv-x="524" 
d="M180 -313l-108 39l129 489l190 -70zM264 709q-52 0 -86.5 34.5t-34.5 87.5t35.5 88t87.5 35t86.5 -35t34.5 -88q0 -54 -34.5 -88t-88.5 -34z" />
    <glyph glyph-name="less" unicode="&#x3c;" horiz-adv-x="905" 
d="M778 258l-717 334v147l715 336l68 -141l-576 -268l576 -267z" />
    <glyph glyph-name="equal" unicode="=" horiz-adv-x="911" 
d="M61 414v157h789v-157h-789zM61 762v158h789v-158h-789z" />
    <glyph glyph-name="greater" unicode="&#x3e;" horiz-adv-x="905" 
d="M127 258l-66 141l576 267l-576 268l68 141l715 -336v-147z" />
    <glyph glyph-name="question" unicode="?" horiz-adv-x="917" 
d="M420 -12q-52 0 -87.5 35t-35.5 88q0 52 35 87t88 35t88 -35t35 -87q0 -53 -35.5 -88t-87.5 -35zM522 330q-258 59 -258 241q0 75 47 139t160 146q92 68 128 115.5t36 99.5q0 69 -55.5 107.5t-141.5 38.5q-162 0 -264 -140l-123 115q76 100 179 151.5t223 51.5
q165 0 268.5 -90t103.5 -236q0 -88 -50 -158.5t-175 -156.5q-84 -58 -114.5 -95t-30.5 -79q0 -41 28.5 -65.5t96.5 -43.5z" />
    <glyph glyph-name="at" unicode="@" horiz-adv-x="1943" 
d="M846 -338q-312 57 -507.5 286t-195.5 541q0 175 65.5 329.5t179 264.5t272 174t337.5 64q230 0 419 -100.5t297 -277t108 -392.5q0 -206 -95 -331.5t-247 -125.5q-86 0 -153.5 43t-100.5 115q-46 -75 -120.5 -117.5t-162.5 -42.5q-150 0 -255 112t-105 271
q0 157 105.5 269t254.5 112q145 0 238 -104v86h157v-424q0 -79 39.5 -127.5t102.5 -48.5q80 0 128 79.5t48 217.5q0 181 -84.5 326t-235.5 226.5t-340 81.5q-146 0 -273.5 -51t-218 -140t-142.5 -214.5t-52 -269.5q0 -263 163 -451.5t419 -228.5zM969 238q98 0 162.5 68.5
t64.5 168.5q0 99 -65 167.5t-162 68.5q-93 0 -157 -68.5t-64 -167.5q0 -100 63.5 -168.5t157.5 -68.5z" />
    <glyph glyph-name="A" unicode="A" horiz-adv-x="1245" 
d="M51 0l535 1409h71l537 -1409h-203l-114 313h-508l-115 -313h-203zM434 492h377l-188 516z" />
    <glyph glyph-name="B" unicode="B" horiz-adv-x="1140" 
d="M174 0v1372h340q193 0 317.5 -104.5t124.5 -263.5q0 -89 -44 -162t-126 -119q113 -44 177.5 -132t64.5 -200q0 -169 -135 -280t-344 -111h-375zM365 178h184q131 0 210 59.5t79 161.5q0 101 -79 160t-210 59h-184v-440zM365 797h149q116 0 184 53t68 145t-68.5 145.5
t-183.5 53.5h-149v-397z" />
    <glyph glyph-name="C" unicode="C" horiz-adv-x="1394" 
d="M784 -23q-195 0 -353.5 91.5t-248.5 252t-90 357.5q0 199 93 364t252.5 259t350.5 94q151 0 285 -61.5t232 -172.5l-138 -129q-72 85 -171.5 130.5t-211.5 45.5q-213 0 -351 -147t-138 -373q0 -228 141 -376t359 -148q117 0 217 47t168 131l133 -125
q-98 -115 -233.5 -177.5t-295.5 -62.5z" />
    <glyph glyph-name="D" unicode="D" horiz-adv-x="1468" 
d="M174 0v1372h477q205 0 371 -89t260 -246t94 -351t-93.5 -351t-259.5 -246t-372 -89h-477zM365 178h286q227 0 375 144t148 364q0 221 -148 364.5t-375 143.5h-286v-1016z" />
    <glyph glyph-name="E" unicode="E" horiz-adv-x="1038" 
d="M174 0v1372h731v-178h-540v-397h409v-179h-409v-440h550v-178h-741z" />
    <glyph glyph-name="F" unicode="F" horiz-adv-x="972" 
d="M174 0v1372h727v-178h-536v-442h403v-179h-403v-573h-191z" />
    <glyph glyph-name="G" unicode="G" horiz-adv-x="1476" 
d="M780 -20q-192 0 -349.5 91.5t-248 251.5t-90.5 355q0 148 55 281t148 228.5t222 151.5t271 56q151 0 286.5 -61.5t234.5 -172.5l-138 -129q-74 85 -173.5 130.5t-211.5 45.5q-212 0 -351.5 -148t-139.5 -374t141.5 -373t358.5 -147q223 0 368 158v249h-368v179h559v-484
q-102 -138 -252.5 -213t-321.5 -75z" />
    <glyph glyph-name="H" unicode="H" horiz-adv-x="1406" 
d="M174 0v1372h191v-590h677v590h191v-1372h-191v604h-677v-604h-191z" />
    <glyph glyph-name="I" unicode="I" horiz-adv-x="538" 
d="M174 0v1372h191v-1372h-191z" />
    <glyph glyph-name="J" unicode="J" horiz-adv-x="923" 
d="M360 -23q-229 0 -340 195l144 119q76 -135 198 -135q94 0 150.5 70t56.5 188v780h-385v178h576v-956q0 -196 -110.5 -317.5t-289.5 -121.5z" />
    <glyph glyph-name="K" unicode="K" horiz-adv-x="1153" 
d="M174 0v1372h191v-627l520 627h229l-547 -657l576 -715h-242l-536 666v-666h-191z" />
    <glyph glyph-name="L" unicode="L" horiz-adv-x="976" 
d="M174 0v1372h191v-1194h530v-178h-721z" />
    <glyph glyph-name="M" unicode="M" horiz-adv-x="1681" 
d="M174 0v1409h70l596 -823l598 823h69v-1409h-190v930l-445 -606h-65l-442 606v-930h-191z" />
    <glyph glyph-name="N" unicode="N" horiz-adv-x="1482" 
d="M1239 -37l-874 1018v-981h-191v1409h70l874 -1018v981h191v-1409h-70z" />
    <glyph glyph-name="O" unicode="O" horiz-adv-x="1572" 
d="M788 -23q-143 0 -272 55.5t-222 150.5t-147.5 226t-54.5 277q0 145 54.5 276t147 226t222 151t272.5 56q142 0 270.5 -55.5t221 -150.5t147 -226t54.5 -277q0 -144 -54.5 -275t-147 -226.5t-221 -151.5t-270.5 -56zM786 164q211 0 351.5 148.5t140.5 373.5
q0 224 -140.5 373t-351.5 149q-212 0 -351.5 -148.5t-139.5 -373.5t139.5 -373.5t351.5 -148.5z" />
    <glyph glyph-name="P" unicode="P" horiz-adv-x="1103" 
d="M174 0v1372h354q212 0 348 -120t136 -308q0 -187 -135.5 -308.5t-344.5 -121.5h-167v-514h-191zM365 692h163q133 0 213 68t80 184q0 114 -80.5 182t-212.5 68h-163v-502z" />
    <glyph glyph-name="Q" unicode="Q" horiz-adv-x="1572" 
d="M786 164q211 0 351.5 148.5t140.5 373.5q0 224 -140.5 373t-351.5 149q-212 0 -351.5 -148.5t-139.5 -373.5t139.5 -373.5t351.5 -148.5zM1239 -393q-226 0 -377 104.5t-174 272.5q-167 23 -303.5 121t-214.5 251t-78 330q0 145 54.5 276t147.5 226t221.5 151t270.5 56
t270.5 -55.5t221.5 -150t148 -225.5t55 -276q0 -175 -76.5 -327t-211 -251t-300.5 -124q23 -92 118 -146.5t234 -54.5q155 0 187 16l22 -176q-112 -18 -215 -18z" />
    <glyph glyph-name="R" unicode="R" horiz-adv-x="1169" 
d="M174 0v1372h361q209 0 343 -117t134 -299q0 -133 -77.5 -237.5t-205.5 -147.5l369 -571h-226l-348 541h-159v-541h-191zM365 719h163q134 0 213.5 64t79.5 173q0 107 -80.5 172.5t-212.5 65.5h-163v-475z" />
    <glyph glyph-name="S" unicode="S" horiz-adv-x="1040" 
d="M516 -25q-146 0 -267.5 68t-197.5 193l144 118q127 -200 323 -200q109 0 174.5 53.5t65.5 146.5q0 82 -60 142.5t-198 115.5q-188 76 -274.5 175t-86.5 235q0 164 110 268.5t283 104.5q247 0 408 -211l-139 -121q-113 154 -271 154q-92 0 -146 -49t-54 -132
q0 -80 57 -137t191 -111q192 -78 281 -179.5t89 -239.5q0 -173 -121.5 -283.5t-310.5 -110.5z" />
    <glyph glyph-name="T" unicode="T" horiz-adv-x="1167" 
d="M489 0v1194h-438v178h1065v-178h-436v-1194h-191z" />
    <glyph glyph-name="U" unicode="U" horiz-adv-x="1366" 
d="M688 -23q-238 0 -381 159.5t-143 420.5v815h190v-805q0 -184 91.5 -297.5t234.5 -113.5q148 0 240 113t92 298v805h190v-815q0 -258 -142.5 -419t-371.5 -161z" />
    <glyph glyph-name="V" unicode="V" horiz-adv-x="1193" 
d="M561 -37l-520 1409h203l352 -985l356 985h201l-522 -1409h-70z" />
    <glyph glyph-name="W" unicode="W" horiz-adv-x="1961" 
d="M530 -37l-479 1409h201l326 -971l368 971h70l368 -971l326 971h201l-481 -1409h-70l-379 1012l-381 -1012h-70z" />
    <glyph glyph-name="X" unicode="X" horiz-adv-x="1204" 
d="M61 0l428 690l-397 682h223l301 -526l312 526h209l-412 -674l418 -698h-223l-320 543l-328 -543h-211z" />
    <glyph glyph-name="Y" unicode="Y" horiz-adv-x="1083" 
d="M440 0v520l-420 852h211l314 -639l321 639h197l-432 -852v-520h-191z" />
    <glyph glyph-name="Z" unicode="Z" horiz-adv-x="1236" 
d="M92 0v70l752 1124h-723v178h1024v-69l-750 -1125h746v-178h-1049z" />
    <glyph glyph-name="bracketleft" unicode="[" horiz-adv-x="663" 
d="M195 -430v1884h407v-160h-233v-1564h233v-160h-407z" />
    <glyph glyph-name="backslash" unicode="\" horiz-adv-x="778" 
d="M590 -246l-590 1618h188l590 -1618h-188z" />
    <glyph glyph-name="bracketright" unicode="]" horiz-adv-x="663" 
d="M61 -430v160h234v1564h-234v160h408v-1884h-408z" />
    <glyph glyph-name="asciicircum" unicode="^" horiz-adv-x="913" 
d="M215 776l-133 74l301 522h147l301 -522l-133 -74l-241 418z" />
    <glyph glyph-name="underscore" unicode="_" horiz-adv-x="593" 
d="M-41 -383v176h676v-176h-676z" />
    <glyph glyph-name="grave" unicode="`" horiz-adv-x="393" 
d="M272 1036l-252 297l132 99l221 -322z" />
    <glyph glyph-name="a" unicode="a" horiz-adv-x="1001" 
d="M401 -23q-145 0 -237 83t-92 212q0 134 104 222t262 88q140 0 264 -68v47q0 109 -64 176.5t-167 67.5q-135 0 -221 -117l-119 117q142 160 350 160q174 0 286 -112t112 -284v-569h-177v125q-118 -148 -301 -148zM438 127q109 0 182 64.5t80 168.5q-121 82 -251 82
q-92 0 -146.5 -43.5t-54.5 -115.5t51 -114t139 -42z" />
    <glyph glyph-name="b" unicode="b" horiz-adv-x="1165" 
d="M627 -23q-97 0 -180.5 40.5t-141.5 113.5v-131h-172v1454h176v-647q59 74 142 116t180 42q189 0 320.5 -143.5t131.5 -350.5q0 -206 -132.5 -350t-323.5 -144zM598 143q131 0 217 93t86 235t-86 235t-217 93q-132 0 -218.5 -93.5t-86.5 -234.5q0 -142 86.5 -235
t218.5 -93z" />
    <glyph glyph-name="c" unicode="c" horiz-adv-x="1032" 
d="M571 -23q-135 0 -247.5 65t-177 178t-64.5 249q0 135 65 249t177.5 180.5t246.5 66.5q117 0 220.5 -51.5t173.5 -143.5l-125 -111q-106 140 -269 140q-133 0 -220 -93t-87 -233q0 -143 89 -236.5t225 -93.5q165 0 274 140l119 -107q-69 -92 -174 -145.5t-226 -53.5z" />
    <glyph glyph-name="d" unicode="d" horiz-adv-x="1165" 
d="M535 -23q-189 0 -321 143.5t-132 350.5q0 135 60.5 248.5t166 179.5t232.5 66q95 0 177 -39t138 -109v637h176v-1454h-170v141q-57 -77 -141.5 -120.5t-185.5 -43.5zM567 143q133 0 220 93.5t87 234.5q0 143 -87 235.5t-220 92.5q-131 0 -217 -93t-86 -235t86.5 -235
t216.5 -93z" />
    <glyph glyph-name="e" unicode="e" horiz-adv-x="1089" 
d="M573 -23q-216 0 -353.5 139.5t-137.5 354.5q0 213 134 353.5t339 140.5q195 0 324 -129.5t129 -331.5q0 -30 -7 -84h-735q15 -128 100 -202.5t218 -74.5q176 0 290 138l111 -105q-73 -96 -180.5 -147.5t-231.5 -51.5zM270 565h553q-19 116 -91 179t-183 63
q-112 0 -185.5 -64.5t-93.5 -177.5z" />
    <glyph glyph-name="f" unicode="f" horiz-adv-x="673" 
d="M205 0v782h-144v160h144v211q0 135 80 218t211 83q141 0 239 -98l-98 -131q-63 69 -133 69q-57 0 -90 -38t-33 -103v-211h266v-160h-266v-782h-176z" />
    <glyph glyph-name="g" unicode="g" horiz-adv-x="1075" 
d="M555 -362q132 0 207.5 45t75.5 124q0 80 -74 125t-207 45q-131 0 -204.5 -44.5t-73.5 -125.5q0 -80 73 -124.5t203 -44.5zM530 410q102 0 164 55.5t62 146.5q0 92 -61.5 147.5t-164.5 55.5q-101 0 -162 -55.5t-61 -147.5q0 -91 61 -146.5t162 -55.5zM555 -512
q-205 0 -329 86t-124 227q0 160 156 238q-131 50 -131 164q0 110 111 162q-107 96 -107 247q0 156 113 254.5t293 98.5q75 0 149 -23h328v-139h-140q58 -76 58 -189q0 -156 -112.5 -255t-287.5 -99q-92 0 -176 33q-31 -6 -48 -26.5t-17 -49.5q0 -90 170 -90h131
q194 0 308 -85t114 -228q0 -149 -125 -237.5t-334 -88.5z" />
    <glyph glyph-name="h" unicode="h" 
d="M133 0v1454h176v-633q113 144 281 144q155 0 255.5 -109.5t100.5 -275.5v-580h-176v547q0 117 -62.5 187.5t-166.5 70.5q-103 0 -167.5 -72.5t-64.5 -187.5v-545h-176z" />
    <glyph glyph-name="i" unicode="i" horiz-adv-x="440" 
d="M131 0v942h176v-942h-176zM219 1120q-49 0 -83 34t-34 83q0 51 34 85t85 34q48 0 82.5 -34.5t34.5 -84.5q0 -49 -34.5 -83t-84.5 -34z" />
    <glyph glyph-name="j" unicode="j" horiz-adv-x="442" 
d="M39 -512q-112 0 -193 78l86 143q50 -55 99 -55q50 0 76 37t26 100v1151h176v-1157q0 -133 -73.5 -215t-196.5 -82zM221 1120q-49 0 -83 34t-34 83q0 51 34 85t85 34q48 0 82.5 -34.5t34.5 -84.5q0 -49 -34.5 -83t-84.5 -34z" />
    <glyph glyph-name="k" unicode="k" horiz-adv-x="935" 
d="M133 0v1454h176v-950l385 438h207l-399 -446l424 -496h-228l-389 457v-457h-176z" />
    <glyph glyph-name="l" unicode="l" horiz-adv-x="442" 
d="M133 0v1454h176v-1454h-176z" />
    <glyph glyph-name="m" unicode="m" horiz-adv-x="1703" 
d="M133 0v942h172v-127q113 150 285 150q98 0 178 -48t125 -131q115 179 315 179q163 0 268 -110t105 -275v-580h-176v547q0 117 -61.5 187.5t-165.5 70.5t-168 -71.5t-64 -188.5v-545h-176v547q0 117 -62.5 187.5t-166.5 70.5q-103 0 -167.5 -72.5t-64.5 -187.5v-545h-176z
" />
    <glyph glyph-name="n" unicode="n" 
d="M133 0v942h172v-127q113 150 285 150q155 0 255.5 -109.5t100.5 -275.5v-580h-176v547q0 117 -62.5 187.5t-166.5 70.5q-103 0 -167.5 -72.5t-64.5 -187.5v-545h-176z" />
    <glyph glyph-name="o" unicode="o" horiz-adv-x="1140" 
d="M571 -23q-134 0 -246.5 66t-177.5 179.5t-65 248.5q0 134 65 247.5t177.5 180t246.5 66.5q133 0 245.5 -66t177.5 -179.5t65 -248.5q0 -204 -143 -349t-345 -145zM571 143q133 0 219.5 92.5t86.5 235.5t-86.5 235.5t-219.5 92.5t-220 -92.5t-87 -235.5t87 -235.5
t220 -92.5z" />
    <glyph glyph-name="p" unicode="p" horiz-adv-x="1165" 
d="M598 143q131 0 220 93t89 235t-89 235t-220 93q-132 0 -218.5 -93.5t-86.5 -234.5q0 -142 86.5 -235t218.5 -93zM133 -512v1454h172v-141q57 77 141 120.5t185 43.5q189 0 320.5 -143.5t131.5 -350.5q0 -206 -132.5 -350t-323.5 -144q-95 0 -177.5 39t-140.5 109v-637
h-176z" />
    <glyph glyph-name="q" unicode="q" horiz-adv-x="1165" 
d="M567 143q133 0 220 93.5t87 234.5q0 143 -87 235.5t-220 92.5q-131 0 -217 -93t-86 -235t86.5 -235t216.5 -93zM856 -512v647q-57 -74 -139.5 -116t-181.5 -42q-189 0 -321 143.5t-132 350.5q0 135 60.5 248.5t166 179.5t232.5 66q97 0 180 -40.5t141 -113.5v131h170
v-1454h-176z" />
    <glyph glyph-name="r" unicode="r" horiz-adv-x="655" 
d="M133 0v942h172v-137q100 160 266 160q22 0 64 -7l-29 -192q-37 12 -71 12q-102 0 -164 -64.5t-62 -172.5v-541h-176z" />
    <glyph glyph-name="s" unicode="s" horiz-adv-x="915" 
d="M463 -23q-126 0 -232.5 49.5t-179.5 143.5l117 121q122 -154 303 -154q83 0 134.5 32.5t51.5 84.5q0 49 -45.5 79.5t-152.5 57.5q-181 44 -263.5 115t-82.5 182q0 126 93.5 201.5t248.5 75.5q228 0 372 -162l-112 -119q-107 121 -266 121q-74 0 -117 -28.5t-43 -74.5
q0 -49 44 -78.5t150 -56.5q183 -42 267 -115t84 -184q0 -130 -102.5 -210.5t-268.5 -80.5z" />
    <glyph glyph-name="t" unicode="t" horiz-adv-x="759" 
d="M485 -23q-131 0 -205.5 80t-74.5 217v508h-144v160h144v254h176v-254h268v-160h-268v-497q0 -71 33 -109.5t94 -38.5q77 0 139 62l82 -117q-94 -105 -244 -105z" />
    <glyph glyph-name="u" unicode="u" 
d="M479 -23q-155 0 -255.5 109.5t-100.5 275.5v580h176v-547q0 -117 62.5 -187.5t166.5 -70.5q103 0 167.5 72.5t64.5 187.5v545h176v-942h-172v127q-113 -150 -285 -150z" />
    <glyph glyph-name="v" unicode="v" horiz-adv-x="931" 
d="M432 -37l-412 979h189l256 -631l258 631h188l-409 -979h-70z" />
    <glyph glyph-name="w" unicode="w" horiz-adv-x="1404" 
d="M367 -37l-336 979h176l209 -606l250 627h71l252 -627l209 606h176l-336 -979h-69l-267 676l-266 -676h-69z" />
    <glyph glyph-name="x" unicode="x" horiz-adv-x="915" 
d="M41 0l307 477l-299 465h209l205 -330l205 330h196l-299 -457l309 -485h-206l-215 346l-215 -346h-197z" />
    <glyph glyph-name="y" unicode="y" horiz-adv-x="950" 
d="M197 -512l180 483l-346 971h190l252 -717l266 717h181l-543 -1454h-180z" />
    <glyph glyph-name="z" unicode="z" horiz-adv-x="940" 
d="M72 0v70l518 712h-481v160h759v-70l-516 -712h508v-160h-788z" />
    <glyph glyph-name="braceleft" unicode="{" horiz-adv-x="673" 
d="M547 -430q-138 0 -219.5 81t-81.5 218v420q0 62 -42 102.5t-106 40.5h-16v160h16q64 0 106 40.5t42 102.5v420q0 137 81.5 218t219.5 81h65v-160h-65q-58 0 -93.5 -38.5t-35.5 -100.5v-420q0 -84 -37 -141.5t-107 -77.5v-8q70 -20 107 -77.5t37 -141.5v-420
q0 -62 35.5 -100.5t93.5 -38.5h65v-160h-65z" />
    <glyph glyph-name="bar" unicode="|" horiz-adv-x="587" 
d="M205 -512v1966h178v-1966h-178z" />
    <glyph glyph-name="braceright" unicode="}" horiz-adv-x="673" 
d="M61 -430v160h66q58 0 93.5 38.5t35.5 100.5v420q0 84 36.5 141.5t106.5 77.5v8q-70 20 -106.5 77.5t-36.5 141.5v420q0 62 -35.5 100.5t-93.5 38.5h-66v160h66q138 0 219.5 -81t81.5 -218v-420q0 -62 41.5 -102.5t105.5 -40.5h17v-160h-17q-64 0 -105.5 -40.5
t-41.5 -102.5v-420q0 -137 -81.5 -218t-219.5 -81h-66z" />
    <glyph glyph-name="asciitilde" unicode="~" horiz-adv-x="911" 
d="M602 532q-74 0 -186 60q-56 28 -78 36.5t-43 8.5q-72 0 -121 -98l-113 67q30 90 96 139.5t150 49.5q76 0 189 -62q50 -26 72 -34.5t44 -8.5q40 0 69 23.5t54 74.5l115 -67q-30 -91 -96.5 -140t-151.5 -49z" />
    <glyph glyph-name="nbspace" unicode="&#xa0;" horiz-adv-x="450" 
 />
    <glyph glyph-name="exclamdown" unicode="&#xa1;" horiz-adv-x="512" 
d="M156 -430l30 1012h140l30 -1012h-200zM256 709q-53 0 -88 35t-35 87q0 53 35.5 88t87.5 35t87.5 -35t35.5 -88q0 -52 -35 -87t-88 -35z" />
    <glyph glyph-name="cent" unicode="&#xa2;" horiz-adv-x="1032" 
d="M473 -229v217q-170 33 -280.5 167t-110.5 314t110.5 315.5t280.5 169.5v217h160v-210q99 -12 185 -62t147 -129l-125 -111q-106 140 -269 140q-133 0 -220 -93t-87 -233q0 -143 89 -236.5t225 -93.5q165 0 274 140l119 -107q-59 -80 -147.5 -131t-190.5 -63v-211h-160z
" />
    <glyph glyph-name="sterling" unicode="&#xa3;" horiz-adv-x="974" 
d="M82 0v74q258 200 258 477q0 34 -4 59h-193v144h152l-41 100q-61 122 -61 215q0 137 104 231.5t264 94.5q186 0 318 -135l-109 -134q-102 91 -207 91q-83 0 -131.5 -44t-48.5 -118q0 -34 12 -70t45 -104q40 -86 52 -127h272v-144h-238q4 -20 4 -65q0 -205 -149 -367h532
v-178h-831z" />
    <glyph glyph-name="currency" unicode="&#xa4;" horiz-adv-x="995" 
d="M168 260l-107 107l150 151q-49 81 -49 178q0 99 49 176l-150 152l107 106l151 -151q77 49 177 49q97 0 178 -49l153 151l107 -106l-154 -152q49 -81 49 -176q0 -97 -51 -176l156 -153l-107 -107l-153 154q-81 -49 -178 -49t-174 49zM496 516q73 0 121.5 51.5t48.5 128.5
t-48.5 129t-121.5 52t-121.5 -52t-48.5 -129t48.5 -128.5t121.5 -51.5z" />
    <glyph glyph-name="yen" unicode="&#xa5;" horiz-adv-x="1083" 
d="M440 0v182h-219v144h219v108h-219v144h191l-392 794h211l314 -639l321 639h197l-406 -794h195v-144h-221v-108h221v-144h-221v-182h-191z" />
    <glyph glyph-name="brokenbar" unicode="&#xa6;" horiz-adv-x="587" 
d="M205 -512v748h178v-748h-178zM205 707v747h178v-747h-178z" />
    <glyph glyph-name="section" unicode="&#xa7;" horiz-adv-x="1003" 
d="M469 -289q-93 0 -170 44t-129 122l125 98q68 -104 166 -104q57 0 93 32.5t36 86.5q0 61 -57 118t-195 136q-195 111 -195 303q0 117 63.5 205.5t166.5 124.5q-73 62 -105 120t-32 123q0 119 84.5 197t214.5 78q185 0 296 -166l-122 -99q-71 105 -166 105q-59 0 -95 -32.5
t-36 -86.5q0 -61 56.5 -116.5t199.5 -139.5q192 -113 192 -299q0 -118 -64 -207t-167 -125q73 -62 105 -120t32 -123q0 -119 -84 -197t-213 -78zM502 367q79 0 130.5 53t51.5 135q0 79 -51.5 131.5t-130.5 52.5t-131 -53t-52 -131q0 -82 51.5 -135t131.5 -53z" />
    <glyph glyph-name="dieresis" unicode="&#xa8;" horiz-adv-x="665" 
d="M137 1120q-49 0 -83 34t-34 83q0 51 33.5 85t83.5 34t84.5 -34t34.5 -85q0 -49 -34.5 -83t-84.5 -34zM526 1120q-49 0 -82.5 33.5t-33.5 83.5q0 51 33 85t83 34t84.5 -34t34.5 -85q0 -49 -34.5 -83t-84.5 -34z" />
    <glyph glyph-name="copyright" unicode="&#xa9;" horiz-adv-x="1669" 
d="M834 -33q-141 0 -272.5 58.5t-227.5 155.5t-153.5 230t-57.5 275q0 115 37 224t103.5 197.5t154.5 156t195.5 104.5t220.5 37q142 0 274 -58t227.5 -155t153 -230t57.5 -276q0 -190 -96.5 -356t-261 -264.5t-354.5 -98.5zM834 113q150 0 278.5 77t203.5 209t75 287
q0 156 -75 288t-203.5 209t-278.5 77t-278 -77t-202.5 -209t-74.5 -288q0 -117 44 -223t118.5 -182.5t177.5 -122t215 -45.5zM840 340q-148 0 -246 100.5t-98 251.5t98 251.5t246 100.5q90 0 166.5 -41.5t126.5 -115.5l-99 -88q-78 110 -190 110q-92 0 -146.5 -60
t-54.5 -157q0 -98 55.5 -157.5t149.5 -59.5q115 0 196 111l95 -86q-54 -75 -130.5 -117.5t-168.5 -42.5z" />
    <glyph glyph-name="ordfeminine" unicode="&#xaa;" horiz-adv-x="667" 
d="M276 748q-100 0 -162.5 56.5t-62.5 143.5q0 91 69 149t179 58q95 0 166 -41q-2 66 -42.5 108t-103.5 42q-75 0 -133 -64l-86 100q95 95 234 95q126 0 204 -72t78 -188v-375h-151v67q-70 -79 -189 -79zM307 864q63 0 106.5 36.5t49.5 96.5q-63 41 -146 41q-55 0 -84.5 -22
t-29.5 -62t27.5 -65t76.5 -25z" />
    <glyph glyph-name="guillemotleft" unicode="&#xab;" horiz-adv-x="956" 
d="M352 121l-270 391l270 391l125 -86l-213 -305l213 -305zM711 121l-273 391l273 391l123 -86l-211 -305l211 -305z" />
    <glyph glyph-name="logicalnot" unicode="&#xac;" horiz-adv-x="911" 
d="M690 350v236h-629v159h789v-395h-160z" />
    <glyph glyph-name="uni00AD" unicode="&#xad;" horiz-adv-x="624" 
d="M82 442v179h461v-179h-461z" />
    <glyph glyph-name="registered" unicode="&#xae;" horiz-adv-x="1669" 
d="M834 -33q-141 0 -272.5 58.5t-227.5 155.5t-153.5 230t-57.5 275q0 115 37 224t103.5 197.5t154.5 156t195.5 104.5t220.5 37q142 0 274 -58t227.5 -155t153 -230t57.5 -276q0 -190 -96.5 -356t-261 -264.5t-354.5 -98.5zM834 113q150 0 278.5 77t203.5 209t75 287
q0 156 -75 288t-203.5 209t-278.5 77t-278 -77t-202.5 -209t-74.5 -288q0 -117 44 -223t118.5 -182.5t177.5 -122t215 -45.5zM606 350v684h246q112 0 184 -61t72 -156q0 -65 -35.5 -115t-97.5 -77l149 -275h-159l-131 248h-89v-248h-139zM745 719h101q56 0 88.5 25.5
t32.5 72.5q0 44 -32.5 70t-88.5 26h-101v-194z" />
    <glyph glyph-name="macron" unicode="&#xaf;" horiz-adv-x="495" 
d="M20 1163v144h455v-144h-455z" />
    <glyph glyph-name="degree" unicode="&#xb0;" horiz-adv-x="917" 
d="M459 748q-137 0 -231.5 94.5t-94.5 230.5q0 135 95.5 228.5t230.5 93.5q137 0 231 -94t94 -230q0 -135 -94 -229t-231 -94zM459 895q72 0 119 50.5t47 125.5t-47 125.5t-119 50.5q-71 0 -118.5 -50.5t-47.5 -125.5t47.5 -125.5t118.5 -50.5z" />
    <glyph glyph-name="plusminus" unicode="&#xb1;" horiz-adv-x="911" 
d="M61 254v160h314v258h-314v159h314v308h160v-308h315v-159h-315v-258h315v-160h-789z" />
    <glyph glyph-name="uni00B2" unicode="&#xb2;" horiz-adv-x="739" 
d="M63 872v64l248 225q98 91 129 135t31 90q0 60 -32.5 96t-86.5 36q-56 0 -91 -40.5t-46 -113.5l-154 39q22 121 100.5 189.5t196.5 68.5q123 0 200 -73t77 -187q0 -75 -42 -140t-155 -163l-94 -82h313v-144h-594z" />
    <glyph glyph-name="uni00B3" unicode="&#xb3;" horiz-adv-x="729" 
d="M352 850q-102 0 -181 46.5t-110 125.5l127 80q48 -109 162 -109q61 0 97 31.5t36 85.5q0 57 -42 88t-119 31h-105v71l193 207h-297v131h514v-69l-203 -226q102 -17 162.5 -81.5t60.5 -157.5q0 -110 -83.5 -182t-211.5 -72z" />
    <glyph glyph-name="acute" unicode="&#xb4;" horiz-adv-x="393" 
d="M123 1036l-103 74l222 322l131 -99z" />
    <glyph glyph-name="uni00B5" unicode="&#xb5;" horiz-adv-x="1079" 
d="M133 -512v1454h176v-547q0 -117 63 -187.5t167 -70.5q103 0 167 72t64 188v545h176v-942h-172v127q-105 -150 -268 -150q-116 0 -197 72v-561h-176z" />
    <glyph glyph-name="paragraph" unicode="&#xb6;" horiz-adv-x="862" 
d="M336 -512q-117 0 -199 82l88 133q52 -55 107 -55q52 0 80 37.5t28 101.5v875q-158 0 -263 101t-105 255q0 153 104.5 253.5t263.5 100.5h361v-166h-185v-1419q0 -133 -76.5 -216t-203.5 -83z" />
    <glyph glyph-name="periodcentered" unicode="&#xb7;" horiz-adv-x="450" 
d="M223 401q-51 0 -86 35.5t-35 87.5t35 87.5t88 35.5t88 -35.5t35 -87.5q0 -53 -35.5 -88t-89.5 -35z" />
    <glyph glyph-name="cedilla" unicode="&#xb8;" horiz-adv-x="452" 
d="M203 -522q-47 0 -91.5 14t-64.5 26t-27 19l46 113q4 -5 17 -15.5t41.5 -22t59.5 -11.5q47 0 77 24.5t30 61.5t-33 62.5t-84 25.5h-80l68 248h133l-39 -140q80 -15 128 -68t48 -130q0 -90 -64 -148.5t-165 -58.5z" />
    <glyph glyph-name="uni00B9" unicode="&#xb9;" horiz-adv-x="600" 
d="M287 872v560l-170 -119l-76 114l334 232h71v-787h-159z" />
    <glyph glyph-name="ordmasculine" unicode="&#xba;" horiz-adv-x="753" 
d="M377 748q-136 0 -231 94t-95 229t95 229.5t231 94.5t230.5 -94.5t94.5 -229.5q0 -136 -94 -229.5t-231 -93.5zM377 895q72 0 119 50.5t47 125.5t-47 125.5t-119 50.5t-119 -50.5t-47 -125.5t47 -125.5t119 -50.5z" />
    <glyph glyph-name="guillemotright" unicode="&#xbb;" horiz-adv-x="956" 
d="M246 121l-123 86l211 305l-211 305l123 86l272 -391zM604 121l-125 86l213 305l-213 305l125 86l270 -391z" />
    <glyph glyph-name="onequarter" unicode="&#xbc;" horiz-adv-x="1413" 
d="M276 0l644 1372h180l-643 -1372h-181zM279 604v559l-170 -116l-78 114l334 232h71v-789h-157zM1110 0v113h-387v77l457 598h73v-544h99v-131h-99v-113h-143zM911 244h199v264z" />
    <glyph glyph-name="onehalf" unicode="&#xbd;" horiz-adv-x="1507" 
d="M276 0l644 1372h180l-643 -1372h-181zM279 604v559l-170 -116l-78 114l334 232h71v-789h-157zM842 0v66l248 223q98 91 128.5 134.5t30.5 90.5q0 60 -32.5 96.5t-86.5 36.5q-56 0 -91 -40.5t-46 -112.5l-153 36q22 122 100 191.5t195 69.5q124 0 201 -73.5t77 -189.5
q0 -74 -42 -138.5t-154 -164.5l-95 -82h314v-143h-594z" />
    <glyph glyph-name="threequarters" unicode="&#xbe;" horiz-adv-x="1536" 
d="M401 0l643 1372h181l-643 -1372h-181zM332 582q-100 0 -179.5 47.5t-111.5 126.5l127 80q23 -53 66 -82t98 -29q60 0 95.5 32.5t35.5 86.5q0 57 -42.5 88t-119.5 31h-104v69l194 207h-297v133h514v-72l-202 -223q101 -17 161 -81.5t60 -157.5q0 -111 -83 -183.5
t-212 -72.5zM1233 0v113h-387v77l457 598h73v-544h99v-131h-99v-113h-143zM1034 244h199v264z" />
    <glyph glyph-name="questiondown" unicode="&#xbf;" horiz-adv-x="917" 
d="M465 -453q-165 0 -269 90t-104 236q0 88 50 158.5t175 156.5q84 58 115 95t31 79q0 41 -28.5 65.5t-96.5 43.5l57 141q258 -59 258 -241q0 -75 -47 -139t-160 -146q-92 -68 -127.5 -115.5t-35.5 -99.5q0 -69 55 -107t141 -38q163 0 264 139l123 -115
q-76 -100 -178.5 -151.5t-222.5 -51.5zM498 709q-53 0 -88 35t-35 87q0 53 35.5 88t87.5 35t87.5 -35t35.5 -88q0 -52 -35 -87t-88 -35z" />
    <glyph glyph-name="Agrave" unicode="&#xc0;" horiz-adv-x="1245" 
d="M51 0l535 1409h71l537 -1409h-203l-114 313h-508l-115 -313h-203zM434 492h377l-188 516zM598 1466l-252 297l131 99l221 -322z" />
    <glyph glyph-name="Aacute" unicode="&#xc1;" horiz-adv-x="1245" 
d="M51 0l535 1409h71l537 -1409h-203l-114 313h-508l-115 -313h-203zM434 492h377l-188 516zM631 1466l-103 74l222 322l131 -99z" />
    <glyph glyph-name="Acircumflex" unicode="&#xc2;" horiz-adv-x="1245" 
d="M51 0l535 1409h71l537 -1409h-203l-114 313h-508l-115 -313h-203zM434 492h377l-188 516zM399 1497l-71 117l290 192l291 -192l-69 -117l-222 141z" />
    <glyph glyph-name="Atilde" unicode="&#xc3;" horiz-adv-x="1245" 
d="M51 0l535 1409h71l537 -1409h-203l-114 313h-508l-115 -313h-203zM434 492h377l-188 516zM442 1556l-112 68q25 74 73.5 115t110.5 41q42 0 109 -35q64 -37 90 -37t44.5 17t35.5 57l112 -70q-23 -73 -72 -114.5t-112 -41.5q-49 0 -111 37q-57 35 -90 35q-25 0 -42 -16
t-36 -56z" />
    <glyph glyph-name="Adieresis" unicode="&#xc4;" horiz-adv-x="1245" 
d="M51 0l535 1409h71l537 -1409h-203l-114 313h-508l-115 -313h-203zM434 492h377l-188 516zM424 1550q-50 0 -83.5 34t-33.5 83q0 51 33.5 85t83.5 34t84.5 -34t34.5 -85q0 -49 -34.5 -83t-84.5 -34zM813 1550q-49 0 -83 34t-34 83q0 51 33.5 85t83.5 34t84.5 -34t34.5 -85
q0 -49 -34.5 -83t-84.5 -34z" />
    <glyph glyph-name="Aring" unicode="&#xc5;" horiz-adv-x="1245" 
d="M51 0l535 1409h71l537 -1409h-203l-114 313h-508l-115 -313h-203zM434 492h377l-188 516zM618 1444q-90 0 -152.5 60t-62.5 147q0 85 62.5 146t152.5 61q91 0 154.5 -60.5t63.5 -146.5q0 -87 -63 -147t-155 -60zM618 1556q41 0 69 27t28 68t-27.5 67.5t-69.5 26.5
q-40 0 -67 -26.5t-27 -67.5t27 -68t67 -27z" />
    <glyph glyph-name="AE" unicode="&#xc6;" horiz-adv-x="1605" 
d="M-20 0l661 1372h836v-178h-605l56 -397h432v-179h-408l62 -440h479v-178h-641l-43 313h-477l-142 -313h-210zM412 492h370l-86 620z" />
    <glyph glyph-name="Ccedilla" unicode="&#xc7;" horiz-adv-x="1394" 
d="M745 -522q-46 0 -89.5 14t-63.5 26t-27 19l45 113q4 -5 17 -15.5t42 -22t60 -11.5q47 0 77 24.5t30 61.5t-33 62.5t-84 25.5h-80l57 209q-265 31 -434.5 224.5t-169.5 469.5q0 199 93 364t252.5 259t350.5 94q151 0 285 -61.5t232 -172.5l-138 -129q-72 85 -171.5 130.5
t-211.5 45.5q-213 0 -351 -147t-138 -373q0 -228 141 -376t359 -148q117 0 217 47t168 131l133 -125q-91 -108 -216 -170.5t-270 -66.5l-26 -97q80 -15 128 -68t48 -130q0 -90 -65.5 -148.5t-166.5 -58.5z" />
    <glyph glyph-name="Egrave" unicode="&#xc8;" horiz-adv-x="1038" 
d="M174 0v1372h731v-178h-540v-397h409v-179h-409v-440h550v-178h-741zM518 1466l-252 297l131 99l221 -322z" />
    <glyph glyph-name="Eacute" unicode="&#xc9;" horiz-adv-x="1038" 
d="M174 0v1372h731v-178h-540v-397h409v-179h-409v-440h550v-178h-741zM551 1466l-102 74l221 322l131 -99z" />
    <glyph glyph-name="Ecircumflex" unicode="&#xca;" horiz-adv-x="1038" 
d="M174 0v1372h731v-178h-540v-397h409v-179h-409v-440h550v-178h-741zM319 1497l-71 117l291 192l290 -192l-69 -117l-221 141z" />
    <glyph glyph-name="Edieresis" unicode="&#xcb;" horiz-adv-x="1038" 
d="M174 0v1372h731v-178h-540v-397h409v-179h-409v-440h550v-178h-741zM346 1550q-50 0 -83.5 34t-33.5 83q0 51 33.5 85t83.5 34t84.5 -34t34.5 -85q0 -49 -34.5 -83t-84.5 -34zM735 1550q-49 0 -83 34t-34 83q0 51 33.5 85t83.5 34t84.5 -34t34.5 -85q0 -49 -34.5 -83
t-84.5 -34z" />
    <glyph glyph-name="Igrave" unicode="&#xcc;" horiz-adv-x="540" 
d="M174 0v1372h191v-1372h-191zM252 1466l-252 297l131 99l221 -322z" />
    <glyph glyph-name="Iacute" unicode="&#xcd;" horiz-adv-x="540" 
d="M174 0v1372h191v-1372h-191zM281 1466l-103 74l221 322l131 -99z" />
    <glyph glyph-name="Icircumflex" unicode="&#xce;" horiz-adv-x="540" 
d="M174 0v1372h191v-1372h-191zM51 1497l-71 117l290 192l291 -192l-69 -117l-222 141z" />
    <glyph glyph-name="Idieresis" unicode="&#xcf;" horiz-adv-x="542" 
d="M174 0v1372h191v-1372h-191zM76 1550q-50 0 -83.5 34t-33.5 83q0 51 33.5 85t83.5 34t84.5 -34t34.5 -85q0 -49 -34.5 -83t-84.5 -34zM465 1550q-49 0 -83 34t-34 83q0 51 33.5 85t83.5 34t84.5 -34t34.5 -85q0 -49 -34.5 -83t-84.5 -34z" />
    <glyph glyph-name="Eth" unicode="&#xd0;" horiz-adv-x="1478" 
d="M184 0v608h-204v164h204v600h478q154 0 288.5 -52.5t230 -143t150.5 -218t55 -272.5t-55 -272.5t-150.5 -218t-230 -143t-288.5 -52.5h-478zM375 178h287q227 0 374.5 144t147.5 364q0 221 -147.5 364.5t-374.5 143.5h-287v-422h276v-164h-276v-430z" />
    <glyph glyph-name="Ntilde" unicode="&#xd1;" horiz-adv-x="1482" 
d="M1239 -37l-874 1018v-981h-191v1409h70l874 -1018v981h191v-1409h-70zM565 1556l-112 68q25 74 73.5 115t110.5 41q41 0 108 -35q64 -37 91 -37q26 0 44 17t35 57l113 -70q-23 -73 -72 -114.5t-112 -41.5q-49 0 -111 37q-57 35 -90 35q-25 0 -42 -16t-36 -56z" />
    <glyph glyph-name="Ograve" unicode="&#xd2;" horiz-adv-x="1572" 
d="M788 -23q-143 0 -272 55.5t-222 150.5t-147.5 226t-54.5 277q0 145 54.5 276t147 226t222 151t272.5 56q142 0 270.5 -55.5t221 -150.5t147 -226t54.5 -277q0 -144 -54.5 -275t-147 -226.5t-221 -151.5t-270.5 -56zM786 164q211 0 351.5 148.5t140.5 373.5
q0 224 -140.5 373t-351.5 149q-212 0 -351.5 -148.5t-139.5 -373.5t139.5 -373.5t351.5 -148.5zM764 1466l-252 297l131 99l221 -322z" />
    <glyph glyph-name="Oacute" unicode="&#xd3;" horiz-adv-x="1572" 
d="M788 -23q-143 0 -272 55.5t-222 150.5t-147.5 226t-54.5 277q0 145 54.5 276t147 226t222 151t272.5 56q142 0 270.5 -55.5t221 -150.5t147 -226t54.5 -277q0 -144 -54.5 -275t-147 -226.5t-221 -151.5t-270.5 -56zM786 164q211 0 351.5 148.5t140.5 373.5
q0 224 -140.5 373t-351.5 149q-212 0 -351.5 -148.5t-139.5 -373.5t139.5 -373.5t351.5 -148.5zM797 1466l-103 74l221 322l132 -99z" />
    <glyph glyph-name="Ocircumflex" unicode="&#xd4;" horiz-adv-x="1572" 
d="M788 -23q-143 0 -272 55.5t-222 150.5t-147.5 226t-54.5 277q0 145 54.5 276t147 226t222 151t272.5 56q142 0 270.5 -55.5t221 -150.5t147 -226t54.5 -277q0 -144 -54.5 -275t-147 -226.5t-221 -151.5t-270.5 -56zM786 164q211 0 351.5 148.5t140.5 373.5
q0 224 -140.5 373t-351.5 149q-212 0 -351.5 -148.5t-139.5 -373.5t139.5 -373.5t351.5 -148.5zM567 1497l-71 117l290 192l291 -192l-69 -117l-222 141z" />
    <glyph glyph-name="Otilde" unicode="&#xd5;" horiz-adv-x="1572" 
d="M788 -23q-143 0 -272 55.5t-222 150.5t-147.5 226t-54.5 277q0 145 54.5 276t147 226t222 151t272.5 56q142 0 270.5 -55.5t221 -150.5t147 -226t54.5 -277q0 -144 -54.5 -275t-147 -226.5t-221 -151.5t-270.5 -56zM786 164q211 0 351.5 148.5t140.5 373.5
q0 224 -140.5 373t-351.5 149q-212 0 -351.5 -148.5t-139.5 -373.5t139.5 -373.5t351.5 -148.5zM610 1556l-112 68q25 74 73.5 115t110.5 41q42 0 109 -35q64 -37 90 -37t44.5 17t35.5 57l112 -70q-23 -73 -72 -114.5t-112 -41.5q-49 0 -111 37q-57 35 -90 35q-25 0 -42 -16
t-36 -56z" />
    <glyph glyph-name="Odieresis" unicode="&#xd6;" horiz-adv-x="1572" 
d="M788 -23q-143 0 -272 55.5t-222 150.5t-147.5 226t-54.5 277q0 145 54.5 276t147 226t222 151t272.5 56q142 0 270.5 -55.5t221 -150.5t147 -226t54.5 -277q0 -144 -54.5 -275t-147 -226.5t-221 -151.5t-270.5 -56zM786 164q211 0 351.5 148.5t140.5 373.5
q0 224 -140.5 373t-351.5 149q-212 0 -351.5 -148.5t-139.5 -373.5t139.5 -373.5t351.5 -148.5zM592 1550q-50 0 -83.5 34t-33.5 83q0 51 33.5 85t83.5 34t84.5 -34t34.5 -85q0 -49 -34.5 -83t-84.5 -34zM981 1550q-49 0 -83 34t-34 83q0 51 33.5 85t83.5 34t84.5 -34
t34.5 -85q0 -49 -34.5 -83t-84.5 -34z" />
    <glyph glyph-name="multiply" unicode="&#xd7;" horiz-adv-x="890" 
d="M199 311l-107 107l248 248l-248 247l107 107l247 -248l248 248l105 -107l-246 -247l246 -248l-105 -107l-248 248z" />
    <glyph glyph-name="Oslash" unicode="&#xd8;" horiz-adv-x="1570" 
d="M344 -88l-135 94l108 156q-105 99 -165 235t-60 289q0 145 54.5 276t147.5 226t221.5 151t270.5 56q181 0 334 -86l105 149l135 -94l-107 -152q106 -99 166 -235t60 -291q0 -144 -54.5 -275t-147 -226.5t-221 -151.5t-270.5 -56q-176 0 -335 89zM430 319l582 834
q-101 55 -226 55q-212 0 -351.5 -148.5t-139.5 -373.5q0 -223 135 -367zM786 164q211 0 350.5 148.5t139.5 373.5q0 221 -133 367l-584 -834q107 -55 227 -55z" />
    <glyph glyph-name="Ugrave" unicode="&#xd9;" horiz-adv-x="1366" 
d="M688 -23q-238 0 -381 159.5t-143 420.5v815h190v-805q0 -184 91.5 -297.5t234.5 -113.5q148 0 240 113t92 298v805h190v-815q0 -258 -142.5 -419t-371.5 -161zM659 1466l-251 297l131 99l221 -322z" />
    <glyph glyph-name="Uacute" unicode="&#xda;" horiz-adv-x="1366" 
d="M688 -23q-238 0 -381 159.5t-143 420.5v815h190v-805q0 -184 91.5 -297.5t234.5 -113.5q148 0 240 113t92 298v805h190v-815q0 -258 -142.5 -419t-371.5 -161zM692 1466l-102 74l221 322l131 -99z" />
    <glyph glyph-name="Ucircumflex" unicode="&#xdb;" horiz-adv-x="1366" 
d="M688 -23q-238 0 -381 159.5t-143 420.5v815h190v-805q0 -184 91.5 -297.5t234.5 -113.5q148 0 240 113t92 298v805h190v-815q0 -258 -142.5 -419t-371.5 -161zM463 1497l-72 117l291 192l291 -192l-70 -117l-221 141z" />
    <glyph glyph-name="Udieresis" unicode="&#xdc;" horiz-adv-x="1366" 
d="M688 -23q-238 0 -381 159.5t-143 420.5v815h190v-805q0 -184 91.5 -297.5t234.5 -113.5q148 0 240 113t92 298v805h190v-815q0 -258 -142.5 -419t-371.5 -161zM487 1550q-49 0 -82.5 33.5t-33.5 83.5q0 51 33 85t83 34t84.5 -34t34.5 -85q0 -49 -34.5 -83t-84.5 -34z
M877 1550q-49 0 -83 34t-34 83q0 51 33.5 85t83.5 34t84 -34t34 -85q0 -49 -34 -83t-84 -34z" />
    <glyph glyph-name="Yacute" unicode="&#xdd;" horiz-adv-x="1083" 
d="M440 0v520l-420 852h211l314 -639l321 639h197l-432 -852v-520h-191zM557 1466l-102 74l221 322l131 -99z" />
    <glyph glyph-name="Thorn" unicode="&#xde;" horiz-adv-x="1318" 
d="M174 0v1372h191v-268h399q205 0 334 -115.5t129 -292.5t-129.5 -292t-337.5 -115h-395v-289h-191zM365 467h399q124 0 198 62t74 167q0 104 -74.5 167t-197.5 63h-399v-459z" />
    <glyph glyph-name="germandbls" unicode="&#xdf;" horiz-adv-x="1095" 
d="M684 -23q-66 0 -118.5 12.5t-69 21.5t-21.5 14l60 145q6 -5 21.5 -11.5t49 -14t68.5 -7.5q86 0 140 43.5t54 110.5q0 49 -32 91.5t-101 106.5q-93 85 -141.5 157t-48.5 163q0 180 225 354q-22 61 -81 96t-138 35q-115 0 -178.5 -79.5t-63.5 -215.5v-999h-176v999
q0 203 115 329t305 126q168 0 282.5 -96t114.5 -242q-118 -86 -173.5 -152.5t-55.5 -138.5q0 -61 37 -112t114 -123q42 -39 67.5 -67t52.5 -66t39.5 -79.5t12.5 -88.5q0 -135 -99.5 -223.5t-260.5 -88.5z" />
    <glyph glyph-name="agrave" unicode="&#xe0;" horiz-adv-x="1001" 
d="M401 -23q-145 0 -237 83t-92 212q0 134 104 222t262 88q140 0 264 -68v47q0 109 -64 176.5t-167 67.5q-135 0 -221 -117l-119 117q142 160 350 160q174 0 286 -112t112 -284v-569h-177v125q-118 -148 -301 -148zM438 127q109 0 182 64.5t80 168.5q-121 82 -251 82
q-92 0 -146.5 -43.5t-54.5 -115.5t51 -114t139 -42zM477 1036l-252 297l131 99l222 -322z" />
    <glyph glyph-name="aacute" unicode="&#xe1;" horiz-adv-x="1001" 
d="M401 -23q-145 0 -237 83t-92 212q0 134 104 222t262 88q140 0 264 -68v47q0 109 -64 176.5t-167 67.5q-135 0 -221 -117l-119 117q142 160 350 160q174 0 286 -112t112 -284v-569h-177v125q-118 -148 -301 -148zM438 127q109 0 182 64.5t80 168.5q-121 82 -251 82
q-92 0 -146.5 -43.5t-54.5 -115.5t51 -114t139 -42zM510 1036l-102 74l221 322l131 -99z" />
    <glyph glyph-name="acircumflex" unicode="&#xe2;" horiz-adv-x="1001" 
d="M401 -23q-145 0 -237 83t-92 212q0 134 104 222t262 88q140 0 264 -68v47q0 109 -64 176.5t-167 67.5q-135 0 -221 -117l-119 117q142 160 350 160q174 0 286 -112t112 -284v-569h-177v125q-118 -148 -301 -148zM438 127q109 0 182 64.5t80 168.5q-121 82 -251 82
q-92 0 -146.5 -43.5t-54.5 -115.5t51 -114t139 -42zM279 1067l-72 117l291 192l290 -192l-69 -117l-221 141z" />
    <glyph glyph-name="atilde" unicode="&#xe3;" horiz-adv-x="1001" 
d="M401 -23q-145 0 -237 83t-92 212q0 134 104 222t262 88q140 0 264 -68v47q0 109 -64 176.5t-167 67.5q-135 0 -221 -117l-119 117q142 160 350 160q174 0 286 -112t112 -284v-569h-177v125q-118 -148 -301 -148zM438 127q109 0 182 64.5t80 168.5q-121 82 -251 82
q-92 0 -146.5 -43.5t-54.5 -115.5t51 -114t139 -42zM324 1126l-113 68q25 74 73.5 115t110.5 41q9 0 17.5 -1t15.5 -2.5t15.5 -4t13.5 -4.5t13.5 -6t11.5 -5.5t11.5 -6t10.5 -5.5q64 -37 90 -37t44.5 17t35.5 57l112 -70q-23 -73 -72 -114.5t-112 -41.5q-48 0 -110 37
q-57 35 -91 35q-24 0 -41 -16t-36 -56z" />
    <glyph glyph-name="adieresis" unicode="&#xe4;" horiz-adv-x="1001" 
d="M401 -23q-145 0 -237 83t-92 212q0 134 104 222t262 88q140 0 264 -68v47q0 109 -64 176.5t-167 67.5q-135 0 -221 -117l-119 117q142 160 350 160q174 0 286 -112t112 -284v-569h-177v125q-118 -148 -301 -148zM438 127q109 0 182 64.5t80 168.5q-121 82 -251 82
q-92 0 -146.5 -43.5t-54.5 -115.5t51 -114t139 -42zM305 1120q-49 0 -83 34t-34 83q0 51 33.5 85t83.5 34t84.5 -34t34.5 -85q0 -49 -34.5 -83t-84.5 -34zM694 1120q-49 0 -82.5 33.5t-33.5 83.5q0 51 33 85t83 34t84.5 -34t34.5 -85q0 -49 -34.5 -83t-84.5 -34z" />
    <glyph glyph-name="aring" unicode="&#xe5;" horiz-adv-x="1001" 
d="M401 -23q-145 0 -237 83t-92 212q0 134 104 222t262 88q140 0 264 -68v47q0 109 -64 176.5t-167 67.5q-135 0 -221 -117l-119 117q142 160 350 160q174 0 286 -112t112 -284v-569h-177v125q-118 -148 -301 -148zM438 127q109 0 182 64.5t80 168.5q-121 82 -251 82
q-92 0 -146.5 -43.5t-54.5 -115.5t51 -114t139 -42zM498 1014q-90 0 -152.5 60t-62.5 147q0 85 62.5 145.5t152.5 60.5q91 0 154 -60t63 -146q0 -87 -62.5 -147t-154.5 -60zM498 1126q41 0 68.5 27t27.5 68t-27.5 67.5t-68.5 26.5q-40 0 -67.5 -26.5t-27.5 -67.5t27.5 -68
t67.5 -27z" />
    <glyph glyph-name="ae" unicode="&#xe6;" horiz-adv-x="1714" 
d="M422 -23q-154 0 -252 82t-98 211q0 136 107.5 224t275.5 88q139 0 258 -68v47q0 109 -66 176.5t-172 67.5q-139 0 -225 -117l-119 117q142 160 352 160q108 0 195 -43.5t141 -124.5q62 84 153 129t199 45q127 0 232 -58t167 -164.5t62 -240.5q0 -38 -6 -82h-735
q15 -128 97 -202t212 -74q173 0 287 135l112 -105q-74 -96 -180 -146t-229 -50q-124 0 -223 50.5t-162 141.5q-61 -93 -161 -146t-222 -53zM440 127q113 0 183.5 64t76.5 169q-64 44 -121.5 63t-129.5 19q-93 0 -147 -43t-54 -116q0 -72 51.5 -114t140.5 -42zM895 571h553
q-18 114 -95 178t-186 64t-180 -65t-92 -177z" />
    <glyph glyph-name="ccedilla" unicode="&#xe7;" horiz-adv-x="1032" 
d="M539 -522q-47 0 -91.5 14.5t-62.5 25t-29 19.5l45 113q49 -49 121 -49q46 0 75.5 24.5t29.5 61.5t-32.5 62.5t-82.5 25.5h-82l59 211q-176 28 -291.5 163t-115.5 320q0 135 65 249t177.5 180.5t246.5 66.5q117 0 220.5 -51.5t173.5 -143.5l-125 -111q-106 140 -269 140
q-133 0 -220 -93t-87 -233q0 -143 89 -236.5t225 -93.5q165 0 274 140l119 -107q-63 -83 -154 -135t-196 -61l-27 -97q79 -15 126.5 -68t47.5 -130q0 -90 -64 -148.5t-165 -58.5z" />
    <glyph glyph-name="egrave" unicode="&#xe8;" horiz-adv-x="1089" 
d="M573 -23q-216 0 -353.5 139.5t-137.5 354.5q0 213 134 353.5t339 140.5q195 0 324 -129.5t129 -331.5q0 -30 -7 -84h-735q15 -128 100 -202.5t218 -74.5q176 0 290 138l111 -105q-73 -96 -180.5 -147.5t-231.5 -51.5zM270 565h553q-19 116 -91 179t-183 63
q-112 0 -185.5 -64.5t-93.5 -177.5zM532 1036l-251 297l131 99l221 -322z" />
    <glyph glyph-name="eacute" unicode="&#xe9;" horiz-adv-x="1089" 
d="M573 -23q-216 0 -353.5 139.5t-137.5 354.5q0 213 134 353.5t339 140.5q195 0 324 -129.5t129 -331.5q0 -30 -7 -84h-735q15 -128 100 -202.5t218 -74.5q176 0 290 138l111 -105q-73 -96 -180.5 -147.5t-231.5 -51.5zM270 565h553q-19 116 -91 179t-183 63
q-112 0 -185.5 -64.5t-93.5 -177.5zM565 1036l-102 74l221 322l131 -99z" />
    <glyph glyph-name="ecircumflex" unicode="&#xea;" horiz-adv-x="1089" 
d="M573 -23q-216 0 -353.5 139.5t-137.5 354.5q0 213 134 353.5t339 140.5q195 0 324 -129.5t129 -331.5q0 -30 -7 -84h-735q15 -128 100 -202.5t218 -74.5q176 0 290 138l111 -105q-73 -96 -180.5 -147.5t-231.5 -51.5zM270 565h553q-19 116 -91 179t-183 63
q-112 0 -185.5 -64.5t-93.5 -177.5zM334 1067l-72 117l291 192l291 -192l-70 -117l-221 141z" />
    <glyph glyph-name="edieresis" unicode="&#xeb;" horiz-adv-x="1089" 
d="M573 -23q-216 0 -353.5 139.5t-137.5 354.5q0 213 134 353.5t339 140.5q195 0 324 -129.5t129 -331.5q0 -30 -7 -84h-735q15 -128 100 -202.5t218 -74.5q176 0 290 138l111 -105q-73 -96 -180.5 -147.5t-231.5 -51.5zM270 565h553q-19 116 -91 179t-183 63
q-112 0 -185.5 -64.5t-93.5 -177.5zM358 1120q-49 0 -82.5 33.5t-33.5 83.5q0 51 33 85t83 34t84.5 -34t34.5 -85q0 -49 -34.5 -83t-84.5 -34zM748 1120q-50 0 -83.5 34t-33.5 83q0 51 33.5 85t83.5 34t84 -34t34 -85q0 -49 -34 -83t-84 -34z" />
    <glyph glyph-name="igrave" unicode="&#xec;" horiz-adv-x="440" 
d="M131 0v942h176v-942h-176zM201 1036l-252 297l131 99l221 -322z" />
    <glyph glyph-name="iacute" unicode="&#xed;" horiz-adv-x="444" 
d="M135 0v942h176v-942h-176zM236 1036l-103 74l221 322l131 -99z" />
    <glyph glyph-name="icircumflex" unicode="&#xee;" horiz-adv-x="438" 
d="M129 0v942h176v-942h-176zM0 1067l-72 117l291 192l291 -192l-70 -117l-221 141z" />
    <glyph glyph-name="idieresis" unicode="&#xef;" horiz-adv-x="452" 
d="M137 0v942h176v-942h-176zM61 1122q-47 0 -79.5 34.5t-32.5 82.5t32.5 81.5t79.5 33.5t80 -34t33 -81q0 -48 -33 -82.5t-80 -34.5zM389 1122q-45 0 -77.5 34.5t-32.5 82.5t32.5 81.5t81.5 33.5q46 0 78.5 -34t32.5 -81q0 -48 -33 -82.5t-82 -34.5z" />
    <glyph glyph-name="eth" unicode="&#xf0;" horiz-adv-x="1132" 
d="M547 -23q-197 0 -331 133.5t-134 335.5q0 197 128.5 331t315.5 134q95 0 175 -38t137 -107q-55 197 -244 352l-270 -149l-64 121l215 116q-94 64 -186 109l78 139q135 -66 266 -162l194 107l64 -119l-148 -80q297 -272 297 -668q0 -242 -138.5 -398.5t-354.5 -156.5z
M555 143q128 0 210.5 86.5t82.5 219.5q0 130 -84 213t-213 83q-126 0 -206.5 -83.5t-80.5 -215.5q0 -133 81.5 -218t209.5 -85z" />
    <glyph glyph-name="ntilde" unicode="&#xf1;" 
d="M133 0v942h172v-127q113 150 285 150q155 0 255.5 -109.5t100.5 -275.5v-580h-176v547q0 117 -62.5 187.5t-166.5 70.5q-103 0 -167.5 -72.5t-64.5 -187.5v-545h-176zM362 1126l-112 68q25 74 73.5 115t110.5 41q42 0 109 -35q64 -37 90 -37t44.5 17t35.5 57l112 -70
q-23 -73 -72 -114.5t-112 -41.5q-49 0 -111 37q-57 35 -90 35q-25 0 -42 -16t-36 -56z" />
    <glyph glyph-name="ograve" unicode="&#xf2;" horiz-adv-x="1140" 
d="M571 -23q-134 0 -246.5 66t-177.5 179.5t-65 248.5q0 134 65 247.5t177.5 180t246.5 66.5q133 0 245.5 -66t177.5 -179.5t65 -248.5q0 -204 -143 -349t-345 -145zM571 143q133 0 219.5 92.5t86.5 235.5t-86.5 235.5t-219.5 92.5t-220 -92.5t-87 -235.5t87 -235.5
t220 -92.5zM549 1036l-252 297l131 99l221 -322z" />
    <glyph glyph-name="oacute" unicode="&#xf3;" horiz-adv-x="1140" 
d="M571 -23q-134 0 -246.5 66t-177.5 179.5t-65 248.5q0 134 65 247.5t177.5 180t246.5 66.5q133 0 245.5 -66t177.5 -179.5t65 -248.5q0 -204 -143 -349t-345 -145zM571 143q133 0 219.5 92.5t86.5 235.5t-86.5 235.5t-219.5 92.5t-220 -92.5t-87 -235.5t87 -235.5
t220 -92.5zM582 1036l-103 74l221 322l131 -99z" />
    <glyph glyph-name="ocircumflex" unicode="&#xf4;" horiz-adv-x="1140" 
d="M571 -23q-134 0 -246.5 66t-177.5 179.5t-65 248.5q0 134 65 247.5t177.5 180t246.5 66.5q133 0 245.5 -66t177.5 -179.5t65 -248.5q0 -204 -143 -349t-345 -145zM571 143q133 0 219.5 92.5t86.5 235.5t-86.5 235.5t-219.5 92.5t-220 -92.5t-87 -235.5t87 -235.5
t220 -92.5zM350 1067l-71 117l290 192l291 -192l-69 -117l-222 141z" />
    <glyph glyph-name="otilde" unicode="&#xf5;" horiz-adv-x="1140" 
d="M571 -23q-134 0 -246.5 66t-177.5 179.5t-65 248.5q0 134 65 247.5t177.5 180t246.5 66.5q133 0 245.5 -66t177.5 -179.5t65 -248.5q0 -204 -143 -349t-345 -145zM571 143q133 0 219.5 92.5t86.5 235.5t-86.5 235.5t-219.5 92.5t-220 -92.5t-87 -235.5t87 -235.5
t220 -92.5zM395 1126l-112 68q25 74 73.5 115t110.5 41q41 0 108 -35q64 -37 91 -37q26 0 44 17t35 57l113 -70q-23 -73 -72 -114.5t-112 -41.5q-49 0 -111 37q-57 35 -90 35q-25 0 -42 -16t-36 -56z" />
    <glyph glyph-name="odieresis" unicode="&#xf6;" horiz-adv-x="1140" 
d="M571 -23q-134 0 -246.5 66t-177.5 179.5t-65 248.5q0 134 65 247.5t177.5 180t246.5 66.5q133 0 245.5 -66t177.5 -179.5t65 -248.5q0 -204 -143 -349t-345 -145zM571 143q133 0 219.5 92.5t86.5 235.5t-86.5 235.5t-219.5 92.5t-220 -92.5t-87 -235.5t87 -235.5
t220 -92.5zM375 1120q-49 0 -83 34t-34 83q0 51 33.5 85t83.5 34t84.5 -34t34.5 -85q0 -49 -34.5 -83t-84.5 -34zM764 1120q-50 0 -83.5 34t-33.5 83q0 51 33.5 85t83.5 34t84.5 -34t34.5 -85q0 -49 -34.5 -83t-84.5 -34z" />
    <glyph glyph-name="divide" unicode="&#xf7;" horiz-adv-x="911" 
d="M455 223q-46 0 -79.5 33t-33.5 82q0 47 34 81t81 34t80.5 -34t33.5 -81q0 -49 -33 -82t-83 -33zM61 586v159h789v-159h-789zM455 879q-46 0 -79.5 33.5t-33.5 80.5q0 49 33.5 82t81.5 33t81 -33t33 -82q0 -48 -33.5 -81t-82.5 -33z" />
    <glyph glyph-name="oslash" unicode="&#xf8;" horiz-adv-x="1140" 
d="M274 -72l-112 78l74 105q-72 69 -113 162t-41 198q0 134 65 247.5t177.5 180t246.5 66.5q115 0 224 -56l73 107l113 -78l-74 -107q71 -70 111.5 -162.5t40.5 -197.5q0 -204 -143 -349t-345 -145q-116 0 -225 56zM336 256l362 516q-58 27 -127 27q-133 0 -220 -92.5
t-87 -235.5q0 -127 72 -215zM569 143q135 0 221.5 92.5t86.5 235.5q0 126 -72 217l-361 -518q56 -27 125 -27z" />
    <glyph glyph-name="ugrave" unicode="&#xf9;" 
d="M479 -23q-155 0 -255.5 109.5t-100.5 275.5v580h176v-547q0 -117 62.5 -187.5t166.5 -70.5q103 0 167.5 72.5t64.5 187.5v545h176v-942h-172v127q-113 -150 -285 -150zM510 1036l-252 297l131 99l221 -322z" />
    <glyph glyph-name="uacute" unicode="&#xfa;" 
d="M479 -23q-155 0 -255.5 109.5t-100.5 275.5v580h176v-547q0 -117 62.5 -187.5t166.5 -70.5q103 0 167.5 72.5t64.5 187.5v545h176v-942h-172v127q-113 -150 -285 -150zM543 1036l-103 74l222 322l131 -99z" />
    <glyph glyph-name="ucircumflex" unicode="&#xfb;" 
d="M479 -23q-155 0 -255.5 109.5t-100.5 275.5v580h176v-547q0 -117 62.5 -187.5t166.5 -70.5q103 0 167.5 72.5t64.5 187.5v545h176v-942h-172v127q-113 -150 -285 -150zM313 1067l-71 117l290 192l291 -192l-69 -117l-222 141z" />
    <glyph glyph-name="udieresis" unicode="&#xfc;" 
d="M479 -23q-155 0 -255.5 109.5t-100.5 275.5v580h176v-547q0 -117 62.5 -187.5t166.5 -70.5q103 0 167.5 72.5t64.5 187.5v545h176v-942h-172v127q-113 -150 -285 -150zM338 1120q-50 0 -83.5 34t-33.5 83q0 51 33.5 85t83.5 34t84.5 -34t34.5 -85q0 -49 -34.5 -83
t-84.5 -34zM727 1120q-49 0 -83 34t-34 83q0 51 33.5 85t83.5 34t84.5 -34t34.5 -85q0 -49 -34.5 -83t-84.5 -34z" />
    <glyph glyph-name="yacute" unicode="&#xfd;" horiz-adv-x="950" 
d="M197 -512l180 483l-346 971h190l252 -717l266 717h181l-543 -1454h-180zM487 1036l-102 74l221 322l131 -99z" />
    <glyph glyph-name="thorn" unicode="&#xfe;" horiz-adv-x="1169" 
d="M602 143q131 0 217 93t86 235t-86 235t-217 93q-132 0 -218.5 -93.5t-86.5 -234.5q0 -142 86.5 -235t218.5 -93zM133 -512v1966h180v-639q121 150 322 150q189 0 320.5 -143.5t131.5 -350.5q0 -206 -132.5 -350t-323.5 -144q-95 0 -177.5 39t-140.5 109v-637h-180z" />
    <glyph glyph-name="ydieresis" unicode="&#xff;" horiz-adv-x="950" 
d="M197 -512l180 483l-346 971h190l252 -717l266 717h181l-543 -1454h-180zM283 1120q-49 0 -83 34t-34 83q0 51 33.5 85t83.5 34t84 -34t34 -85q0 -49 -34 -83t-84 -34zM672 1120q-50 0 -83.5 34t-33.5 83q0 51 33.5 85t83.5 34t84.5 -34t34.5 -85q0 -49 -34.5 -83
t-84.5 -34z" />
    <glyph glyph-name="Amacron" unicode="&#x100;" horiz-adv-x="1245" 
d="M51 0l535 1409h71l537 -1409h-203l-114 313h-508l-115 -313h-203zM434 492h377l-188 516zM391 1593v144h455v-144h-455z" />
    <glyph glyph-name="amacron" unicode="&#x101;" horiz-adv-x="1001" 
d="M401 -23q-145 0 -237 83t-92 212q0 134 104 222t262 88q140 0 264 -68v47q0 109 -64 176.5t-167 67.5q-135 0 -221 -117l-119 117q142 160 350 160q174 0 286 -112t112 -284v-569h-177v125q-118 -148 -301 -148zM438 127q109 0 182 64.5t80 168.5q-121 82 -251 82
q-92 0 -146.5 -43.5t-54.5 -115.5t51 -114t139 -42zM272 1163v144h455v-144h-455z" />
    <glyph glyph-name="Abreve" unicode="&#x102;" horiz-adv-x="1245" 
d="M51 0l535 1409h71l537 -1409h-203l-114 313h-508l-115 -313h-203zM434 492h377l-188 516zM618 1495q-119 0 -190.5 75t-71.5 199h140q0 -62 33.5 -99.5t88.5 -37.5q56 0 90.5 37.5t34.5 99.5h140q0 -125 -73 -199.5t-192 -74.5z" />
    <glyph glyph-name="abreve" unicode="&#x103;" horiz-adv-x="1001" 
d="M401 -23q-145 0 -237 83t-92 212q0 134 104 222t262 88q140 0 264 -68v47q0 109 -64 176.5t-167 67.5q-135 0 -221 -117l-119 117q142 160 350 160q174 0 286 -112t112 -284v-569h-177v125q-118 -148 -301 -148zM438 127q109 0 182 64.5t80 168.5q-121 82 -251 82
q-92 0 -146.5 -43.5t-54.5 -115.5t51 -114t139 -42zM498 1065q-119 0 -190.5 75t-71.5 199h139q0 -62 34 -99.5t89 -37.5q56 0 90.5 37.5t34.5 99.5h139q0 -125 -72.5 -199.5t-191.5 -74.5z" />
    <glyph glyph-name="Aogonek" unicode="&#x104;" horiz-adv-x="1245" 
d="M1071 -522q-120 0 -190 61t-70 164q0 166 219 297h-39l-114 313h-508l-115 -313h-203l535 1409h71l537 -1409q-131 -90 -178 -146t-47 -116q0 -59 35 -90t100 -31q36 0 86 12v-135q-57 -16 -119 -16zM432 492h377l-186 516z" />
    <glyph glyph-name="aogonek" unicode="&#x105;" horiz-adv-x="1001" 
d="M438 127q109 0 182 64.5t80 168.5q-121 82 -251 82q-92 0 -146.5 -43.5t-54.5 -115.5t51 -114t139 -42zM756 -522q-120 0 -190 61t-70 164q0 167 219 297h-13v125q-118 -148 -301 -148q-145 0 -237 83t-92 212q0 134 106 222t271 88q134 0 253 -68v47q0 109 -64 176.5
t-167 67.5q-135 0 -221 -117l-119 117q142 160 350 160q174 0 286 -112t112 -284v-569q-131 -91 -178.5 -146.5t-47.5 -115.5q0 -59 35 -90t100 -31q38 0 84 12v-135q-55 -16 -116 -16z" />
    <glyph glyph-name="Cacute" unicode="&#x106;" horiz-adv-x="1394" 
d="M784 -23q-195 0 -353.5 91.5t-248.5 252t-90 357.5q0 199 93 364t252.5 259t350.5 94q151 0 285 -61.5t232 -172.5l-138 -129q-72 85 -171.5 130.5t-211.5 45.5q-213 0 -351 -147t-138 -373q0 -228 141 -376t359 -148q117 0 217 47t168 131l133 -125
q-98 -115 -233.5 -177.5t-295.5 -62.5zM791 1466l-103 74l221 322l131 -99z" />
    <glyph glyph-name="cacute" unicode="&#x107;" horiz-adv-x="1032" 
d="M571 -23q-135 0 -247.5 65t-177 178t-64.5 249q0 135 65 249t177.5 180.5t246.5 66.5q117 0 220.5 -51.5t173.5 -143.5l-125 -111q-106 140 -269 140q-133 0 -220 -93t-87 -233q0 -143 89 -236.5t225 -93.5q165 0 274 140l119 -107q-69 -92 -174 -145.5t-226 -53.5z
M580 1036l-103 74l221 322l131 -99z" />
    <glyph glyph-name="Ccircumflex" unicode="&#x108;" horiz-adv-x="1394" 
d="M784 -23q-195 0 -353.5 91.5t-248.5 252t-90 357.5q0 199 93 364t252.5 259t350.5 94q151 0 285 -61.5t232 -172.5l-138 -129q-72 85 -171.5 130.5t-211.5 45.5q-213 0 -351 -147t-138 -373q0 -228 141 -376t359 -148q117 0 217 47t168 131l133 -125
q-98 -115 -233.5 -177.5t-295.5 -62.5zM559 1497l-72 117l291 192l291 -192l-70 -117l-221 141z" />
    <glyph glyph-name="ccircumflex" unicode="&#x109;" horiz-adv-x="1032" 
d="M571 -23q-135 0 -247.5 65t-177 178t-64.5 249q0 135 65 249t177.5 180.5t246.5 66.5q117 0 220.5 -51.5t173.5 -143.5l-125 -111q-106 140 -269 140q-133 0 -220 -93t-87 -233q0 -143 89 -236.5t225 -93.5q165 0 274 140l119 -107q-69 -92 -174 -145.5t-226 -53.5z
M348 1067l-72 117l291 192l291 -192l-70 -117l-221 141z" />
    <glyph glyph-name="Cdotaccent" unicode="&#x10a;" horiz-adv-x="1394" 
d="M784 -23q-195 0 -353.5 91.5t-248.5 252t-90 357.5q0 199 93 364t252.5 259t350.5 94q151 0 285 -61.5t232 -172.5l-138 -129q-72 85 -171.5 130.5t-211.5 45.5q-213 0 -351 -147t-138 -373q0 -228 141 -376t359 -148q117 0 217 47t168 131l133 -125
q-98 -115 -233.5 -177.5t-295.5 -62.5zM778 1550q-49 0 -82.5 33.5t-33.5 83.5q0 51 33 85t83 34t84.5 -34t34.5 -85q0 -49 -34.5 -83t-84.5 -34z" />
    <glyph glyph-name="cdotaccent" unicode="&#x10b;" horiz-adv-x="1032" 
d="M571 -23q-135 0 -247.5 65t-177 178t-64.5 249q0 135 65 249t177.5 180.5t246.5 66.5q117 0 220.5 -51.5t173.5 -143.5l-125 -111q-106 140 -269 140q-133 0 -220 -93t-87 -233q0 -143 89 -236.5t225 -93.5q165 0 274 140l119 -107q-69 -92 -174 -145.5t-226 -53.5z
M567 1120q-49 0 -82.5 33.5t-33.5 83.5q0 51 33 85t83 34t84.5 -34t34.5 -85q0 -49 -34.5 -83t-84.5 -34z" />
    <glyph glyph-name="Ccaron" unicode="&#x10c;" horiz-adv-x="1394" 
d="M784 -23q-195 0 -353.5 91.5t-248.5 252t-90 357.5q0 199 93 364t252.5 259t350.5 94q151 0 285 -61.5t232 -172.5l-138 -129q-72 85 -171.5 130.5t-211.5 45.5q-213 0 -351 -147t-138 -373q0 -228 141 -376t359 -148q117 0 217 47t168 131l133 -125
q-98 -115 -233.5 -177.5t-295.5 -62.5zM778 1479l-291 192l72 117l219 -141l221 141l70 -117z" />
    <glyph glyph-name="ccaron" unicode="&#x10d;" horiz-adv-x="1032" 
d="M571 -23q-135 0 -247.5 65t-177 178t-64.5 249q0 135 65 249t177.5 180.5t246.5 66.5q117 0 220.5 -51.5t173.5 -143.5l-125 -111q-106 140 -269 140q-133 0 -220 -93t-87 -233q0 -143 89 -236.5t225 -93.5q165 0 274 140l119 -107q-69 -92 -174 -145.5t-226 -53.5z
M567 1049l-291 192l72 117l219 -141l221 141l70 -117z" />
    <glyph glyph-name="Dcaron" unicode="&#x10e;" horiz-adv-x="1468" 
d="M174 0v1372h477q205 0 371 -89t260 -246t94 -351t-93.5 -351t-259.5 -246t-372 -89h-477zM365 178h286q227 0 375 144t148 364q0 221 -148 364.5t-375 143.5h-286v-1016zM739 1479l-290 192l71 117l219 -141l222 141l69 -117z" />
    <glyph glyph-name="dcaron" unicode="&#x10f;" horiz-adv-x="1353" 
d="M535 -23q-189 0 -321 143.5t-132 350.5q0 135 60.5 248.5t166 179.5t232.5 66q95 0 177 -39t138 -109v637h176v-1454h-170v141q-57 -77 -141.5 -120.5t-185.5 -43.5zM567 143q133 0 220 93.5t87 234.5q0 143 -87 235.5t-220 92.5q-131 0 -217 -93t-86 -235t86.5 -235
t216.5 -93zM1253 1071l-118 29l73 379l166 -41z" />
    <glyph glyph-name="Dcroat" unicode="&#x110;" horiz-adv-x="1478" 
d="M184 0v608h-204v164h204v600h478q154 0 288.5 -52.5t230 -143t150.5 -218t55 -272.5t-55 -272.5t-150.5 -218t-230 -143t-288.5 -52.5h-478zM375 178h287q227 0 374.5 144t147.5 364q0 221 -147.5 364.5t-374.5 143.5h-287v-422h276v-164h-276v-430z" />
    <glyph glyph-name="dcroat" unicode="&#x111;" horiz-adv-x="1191" 
d="M535 -23q-189 0 -321 143.5t-132 350.5q0 135 60.5 248.5t166 179.5t232.5 66q95 0 177 -39t138 -109v297h-342v160h342v180h176v-180h129v-160h-129v-1114h-170v141q-57 -77 -141.5 -120.5t-185.5 -43.5zM567 143q133 0 220 93.5t87 234.5q0 143 -87 235.5t-220 92.5
q-131 0 -217 -93t-86 -235t86.5 -235t216.5 -93z" />
    <glyph glyph-name="Emacron" unicode="&#x112;" horiz-adv-x="1038" 
d="M174 0v1372h731v-178h-540v-397h409v-179h-409v-440h550v-178h-741zM313 1593v144h455v-144h-455z" />
    <glyph glyph-name="emacron" unicode="&#x113;" horiz-adv-x="1089" 
d="M573 -23q-216 0 -353.5 139.5t-137.5 354.5q0 213 134 353.5t339 140.5q195 0 324 -129.5t129 -331.5q0 -30 -7 -84h-735q15 -128 100 -202.5t218 -74.5q176 0 290 138l111 -105q-73 -96 -180.5 -147.5t-231.5 -51.5zM270 565h553q-19 116 -91 179t-183 63
q-112 0 -185.5 -64.5t-93.5 -177.5zM326 1163v144h454v-144h-454z" />
    <glyph glyph-name="Ebreve" unicode="&#x114;" horiz-adv-x="1038" 
d="M174 0v1372h731v-178h-540v-397h409v-179h-409v-440h550v-178h-741zM539 1495q-119 0 -191 75t-72 199h140q0 -62 34 -99.5t89 -37.5q56 0 90.5 37.5t34.5 99.5h139q0 -125 -72.5 -199.5t-191.5 -74.5z" />
    <glyph glyph-name="ebreve" unicode="&#x115;" horiz-adv-x="1089" 
d="M573 -23q-216 0 -353.5 139.5t-137.5 354.5q0 213 134 353.5t339 140.5q195 0 324 -129.5t129 -331.5q0 -30 -7 -84h-735q15 -128 100 -202.5t218 -74.5q176 0 290 138l111 -105q-73 -96 -180.5 -147.5t-231.5 -51.5zM270 565h553q-19 116 -91 179t-183 63
q-112 0 -185.5 -64.5t-93.5 -177.5zM553 1065q-119 0 -190.5 75t-71.5 199h139q0 -62 34 -99.5t89 -37.5q56 0 90.5 37.5t34.5 99.5h139q0 -125 -72.5 -199.5t-191.5 -74.5z" />
    <glyph glyph-name="Edotaccent" unicode="&#x116;" horiz-adv-x="1038" 
d="M174 0v1372h731v-178h-540v-397h409v-179h-409v-440h550v-178h-741zM539 1550q-49 0 -83 34t-34 83q0 51 33.5 85t83.5 34t84 -34t34 -85q0 -49 -34 -83t-84 -34z" />
    <glyph glyph-name="edotaccent" unicode="&#x117;" horiz-adv-x="1089" 
d="M573 -23q-216 0 -353.5 139.5t-137.5 354.5q0 213 134 353.5t339 140.5q195 0 324 -129.5t129 -331.5q0 -30 -7 -84h-735q15 -128 100 -202.5t218 -74.5q176 0 290 138l111 -105q-73 -96 -180.5 -147.5t-231.5 -51.5zM270 565h553q-19 116 -91 179t-183 63
q-112 0 -185.5 -64.5t-93.5 -177.5zM553 1120q-49 0 -83 34t-34 83q0 51 33.5 85t83.5 34t84.5 -34t34.5 -85q0 -49 -34.5 -83t-84.5 -34z" />
    <glyph glyph-name="Eogonek" unicode="&#x118;" horiz-adv-x="1038" 
d="M793 -522q-120 0 -190.5 61t-70.5 164q0 167 220 297h-578v1372h731v-178h-540v-397h409v-179h-409v-440h550v-178q-131 -90 -178 -146t-47 -116q0 -59 35 -90t100 -31q37 0 86 12v-135q-57 -16 -118 -16z" />
    <glyph glyph-name="eogonek" unicode="&#x119;" horiz-adv-x="1089" 
d="M793 -520q-130 0 -208.5 67t-78.5 177q0 130 119 258q-40 -5 -50 -5q-218 0 -355.5 136.5t-137.5 355.5q0 214 133.5 355t337.5 141q197 0 326 -129.5t129 -333.5q0 -46 -7 -82h-735q15 -129 99 -203t217 -74q174 0 292 136l111 -105q-41 -50 -96 -96l-8 -6
q-118 -96 -166.5 -167t-48.5 -141q0 -69 43 -107t118 -38q51 0 97 14v-135q-64 -18 -131 -18zM270 565h553q-19 115 -91.5 178.5t-182.5 63.5q-112 0 -185 -65t-94 -177z" />
    <glyph glyph-name="Ecaron" unicode="&#x11a;" horiz-adv-x="1038" 
d="M174 0v1372h731v-178h-540v-397h409v-179h-409v-440h550v-178h-741zM539 1479l-291 192l71 117l220 -141l221 141l69 -117z" />
    <glyph glyph-name="ecaron" unicode="&#x11b;" horiz-adv-x="1089" 
d="M573 -23q-216 0 -353.5 139.5t-137.5 354.5q0 213 134 353.5t339 140.5q195 0 324 -129.5t129 -331.5q0 -30 -7 -84h-735q15 -128 100 -202.5t218 -74.5q176 0 290 138l111 -105q-73 -96 -180.5 -147.5t-231.5 -51.5zM270 565h553q-19 116 -91 179t-183 63
q-112 0 -185.5 -64.5t-93.5 -177.5zM553 1049l-291 192l72 117l219 -141l221 141l70 -117z" />
    <glyph glyph-name="Gcircumflex" unicode="&#x11c;" horiz-adv-x="1476" 
d="M780 -20q-192 0 -349.5 91.5t-248 251.5t-90.5 355q0 148 55 281t148 228.5t222 151.5t271 56q151 0 286.5 -61.5t234.5 -172.5l-138 -129q-74 85 -173.5 130.5t-211.5 45.5q-212 0 -351.5 -148t-139.5 -374t141.5 -373t358.5 -147q223 0 368 158v249h-368v179h559v-484
q-102 -138 -252.5 -213t-321.5 -75zM559 1497l-72 117l291 192l291 -192l-70 -117l-221 141z" />
    <glyph glyph-name="gcircumflex" unicode="&#x11d;" horiz-adv-x="1075" 
d="M555 -362q132 0 207.5 45t75.5 124q0 80 -74 125t-207 45q-131 0 -204.5 -44.5t-73.5 -125.5q0 -80 73 -124.5t203 -44.5zM530 410q102 0 164 55.5t62 146.5q0 92 -61.5 147.5t-164.5 55.5q-101 0 -162 -55.5t-61 -147.5q0 -91 61 -146.5t162 -55.5zM555 -512
q-205 0 -329 86t-124 227q0 160 156 238q-131 50 -131 164q0 110 111 162q-107 96 -107 247q0 156 113 254.5t293 98.5q75 0 149 -23h328v-139h-140q58 -76 58 -189q0 -156 -112.5 -255t-287.5 -99q-92 0 -176 33q-31 -6 -48 -26.5t-17 -49.5q0 -90 170 -90h131
q194 0 308 -85t114 -228q0 -149 -125 -237.5t-334 -88.5zM336 1067l-72 117l291 192l291 -192l-70 -117l-221 141z" />
    <glyph glyph-name="Gbreve" unicode="&#x11e;" horiz-adv-x="1476" 
d="M780 -20q-192 0 -349.5 91.5t-248 251.5t-90.5 355q0 148 55 281t148 228.5t222 151.5t271 56q151 0 286.5 -61.5t234.5 -172.5l-138 -129q-74 85 -173.5 130.5t-211.5 45.5q-212 0 -351.5 -148t-139.5 -374t141.5 -373t358.5 -147q223 0 368 158v249h-368v179h559v-484
q-102 -138 -252.5 -213t-321.5 -75zM778 1495q-119 0 -190.5 75t-71.5 199h139q0 -62 34 -99.5t89 -37.5q56 0 90.5 37.5t34.5 99.5h139q0 -125 -72.5 -199.5t-191.5 -74.5z" />
    <glyph glyph-name="gbreve" unicode="&#x11f;" horiz-adv-x="1075" 
d="M555 -362q132 0 207.5 45t75.5 124q0 80 -74 125t-207 45q-131 0 -204.5 -44.5t-73.5 -125.5q0 -80 73 -124.5t203 -44.5zM530 410q102 0 164 55.5t62 146.5q0 92 -61.5 147.5t-164.5 55.5q-101 0 -162 -55.5t-61 -147.5q0 -91 61 -146.5t162 -55.5zM555 -512
q-205 0 -329 86t-124 227q0 160 156 238q-131 50 -131 164q0 110 111 162q-107 96 -107 247q0 156 113 254.5t293 98.5q75 0 149 -23h328v-139h-140q58 -76 58 -189q0 -156 -112.5 -255t-287.5 -99q-92 0 -176 33q-31 -6 -48 -26.5t-17 -49.5q0 -90 170 -90h131
q194 0 308 -85t114 -228q0 -149 -125 -237.5t-334 -88.5zM553 1065q-119 0 -190.5 75t-71.5 199h139q0 -62 34 -99.5t89 -37.5q56 0 90.5 37.5t34.5 99.5h139q0 -125 -72.5 -199.5t-191.5 -74.5z" />
    <glyph glyph-name="Gdotaccent" unicode="&#x120;" horiz-adv-x="1476" 
d="M780 -20q-192 0 -349.5 91.5t-248 251.5t-90.5 355q0 148 55 281t148 228.5t222 151.5t271 56q151 0 286.5 -61.5t234.5 -172.5l-138 -129q-74 85 -173.5 130.5t-211.5 45.5q-212 0 -351.5 -148t-139.5 -374t141.5 -373t358.5 -147q223 0 368 158v249h-368v179h559v-484
q-102 -138 -252.5 -213t-321.5 -75zM778 1550q-49 0 -82.5 33.5t-33.5 83.5q0 51 33 85t83 34t84.5 -34t34.5 -85q0 -49 -34.5 -83t-84.5 -34z" />
    <glyph glyph-name="gdotaccent" unicode="&#x121;" horiz-adv-x="1075" 
d="M555 -362q132 0 207.5 45t75.5 124q0 80 -74 125t-207 45q-131 0 -204.5 -44.5t-73.5 -125.5q0 -80 73 -124.5t203 -44.5zM530 410q102 0 164 55.5t62 146.5q0 92 -61.5 147.5t-164.5 55.5q-101 0 -162 -55.5t-61 -147.5q0 -91 61 -146.5t162 -55.5zM555 -512
q-205 0 -329 86t-124 227q0 160 156 238q-131 50 -131 164q0 110 111 162q-107 96 -107 247q0 156 113 254.5t293 98.5q75 0 149 -23h328v-139h-140q58 -76 58 -189q0 -156 -112.5 -255t-287.5 -99q-92 0 -176 33q-31 -6 -48 -26.5t-17 -49.5q0 -90 170 -90h131
q194 0 308 -85t114 -228q0 -149 -125 -237.5t-334 -88.5zM553 1120q-49 0 -83 34t-34 83q0 51 33.5 85t83.5 34t84.5 -34t34.5 -85q0 -49 -34.5 -83t-84.5 -34z" />
    <glyph glyph-name="Gcommaaccent" unicode="&#x122;" horiz-adv-x="1476" 
d="M780 -20q-192 0 -349.5 91.5t-248 251.5t-90.5 355q0 148 55 281t148 228.5t222 151.5t271 56q151 0 286.5 -61.5t234.5 -172.5l-138 -129q-74 85 -173.5 130.5t-211.5 45.5q-212 0 -351.5 -148t-139.5 -374t141.5 -373t358.5 -147q223 0 368 158v249h-368v179h559v-484
q-102 -138 -252.5 -213t-321.5 -75zM723 -543l-119 33l84 408l166 -43z" />
    <glyph glyph-name="gcommaaccent" unicode="&#x123;" horiz-adv-x="1075" 
d="M555 -362q132 0 207.5 45t75.5 124q0 80 -74 125t-207 45q-131 0 -204.5 -44.5t-73.5 -125.5q0 -80 73 -124.5t203 -44.5zM530 410q102 0 164 55.5t62 146.5q0 92 -61.5 147.5t-164.5 55.5q-101 0 -162 -55.5t-61 -147.5q0 -91 61 -146.5t162 -55.5zM555 -512
q-205 0 -329 86t-124 227q0 160 156 238q-131 52 -131 166q0 111 111 160q-107 96 -107 247q0 156 113 254.5t293 98.5q75 0 149 -23h328v-139h-140q58 -76 58 -189q0 -156 -112.5 -255t-287.5 -99q-92 0 -176 33q-65 -13 -65 -76q0 -90 170 -90h131q194 0 308 -85t114 -228
q0 -149 -125 -237.5t-334 -88.5zM639 1057l-166 47l135 393l115 -31z" />
    <glyph glyph-name="Hcircumflex" unicode="&#x124;" horiz-adv-x="1406" 
d="M174 0v1372h191v-590h677v590h191v-1372h-191v604h-677v-604h-191zM483 1497l-71 117l290 192l291 -192l-69 -117l-222 141z" />
    <glyph glyph-name="hcircumflex" unicode="&#x125;" horiz-adv-x="1064" 
d="M133 0v1454h176v-633q113 144 281 144q155 0 255.5 -109.5t100.5 -275.5v-580h-176v547q0 117 -62.5 187.5t-166.5 70.5q-103 0 -167.5 -72.5t-64.5 -187.5v-545h-176zM328 1538l-72 117l291 192l291 -192l-70 -117l-221 141z" />
    <glyph glyph-name="Hbar" unicode="&#x126;" horiz-adv-x="1425" 
d="M184 0v993h-143v164h143v215h191v-215h676v215h190v-215h143v-164h-143v-993h-190v604h-676v-604h-191zM375 782h676v211h-676v-211z" />
    <glyph glyph-name="hbar" unicode="&#x127;" horiz-adv-x="1081" 
d="M147 0v1114h-127v160h127v180h177v-180h344v-160h-344v-293q113 144 280 144q155 0 254.5 -109.5t99.5 -275.5v-580h-176v547q0 117 -62 187.5t-165 70.5t-167 -72t-64 -188v-545h-177z" />
    <glyph glyph-name="Imacron" unicode="&#x12a;" horiz-adv-x="536" 
d="M174 0v1372h191v-1372h-191zM41 1593v144h455v-144h-455z" />
    <glyph glyph-name="imacron" unicode="&#x12b;" horiz-adv-x="444" 
d="M137 0v942h176v-942h-176zM0 1163v144h455v-144h-455z" />
    <glyph glyph-name="Ibreve" unicode="&#x12c;" horiz-adv-x="546" 
d="M174 0v1372h191v-1372h-191zM272 1495q-119 0 -190.5 75t-71.5 199h140q0 -62 33.5 -99.5t88.5 -37.5q56 0 90.5 37.5t34.5 99.5h140q0 -125 -73 -199.5t-192 -74.5z" />
    <glyph glyph-name="ibreve" unicode="&#x12d;" horiz-adv-x="444" 
d="M131 0v942h176v-942h-176zM221 1065q-119 0 -190.5 75t-71.5 199h139q0 -62 34 -99.5t89 -37.5q56 0 90.5 37.5t34.5 99.5h139q0 -125 -72.5 -199.5t-191.5 -74.5z" />
    <glyph glyph-name="Iogonek" unicode="&#x12e;" horiz-adv-x="544" 
d="M295 -522q-121 0 -192.5 62t-71.5 167q0 162 192 293h-45v1372h191v-1372q-103 -92 -141 -146t-38 -108q0 -61 36.5 -95t101.5 -34q34 0 84 12v-135q-55 -16 -117 -16z" />
    <glyph glyph-name="iogonek" unicode="&#x12f;" horiz-adv-x="442" 
d="M233 -522q-120 0 -192 62.5t-72 166.5q0 161 193 293h-31v942h176v-942q-102 -90 -139 -144.5t-37 -109.5q0 -62 35.5 -95.5t99.5 -33.5q38 0 84 12v-135q-55 -16 -117 -16zM219 1120q-49 0 -83 34t-34 83q0 51 34 85t85 34q48 0 82.5 -34.5t34.5 -84.5q0 -49 -34.5 -83
t-84.5 -34z" />
    <glyph glyph-name="Idotaccent" unicode="&#x130;" horiz-adv-x="542" 
d="M174 0v1372h191v-1372h-191zM270 1550q-49 0 -82.5 33.5t-33.5 83.5q0 51 33 85t83 34t84.5 -34t34.5 -85q0 -49 -34.5 -83t-84.5 -34z" />
    <glyph glyph-name="dotlessi" unicode="&#x131;" horiz-adv-x="442" 
d="M133 0v942h176v-942h-176z" />
    <glyph glyph-name="uni0132" unicode="&#x132;" horiz-adv-x="1462" 
d="M174 0v1372h191v-1372h-191zM899 -23q-110 0 -197 50t-141 145l144 119q77 -135 196 -135q95 0 151 69.5t56 188.5v780h-385v178h575v-956q0 -196 -110 -317.5t-289 -121.5z" />
    <glyph glyph-name="uni0133" unicode="&#x133;" horiz-adv-x="888" 
d="M131 0v942h176v-942h-176zM485 -512q-111 0 -192 78l86 143q50 -55 100 -55q49 0 75 37t26 100v1151h176v-1157q0 -133 -73.5 -215t-197.5 -82zM219 1120q-49 0 -83 34t-34 83q0 51 34 85t85 34q48 0 82.5 -34.5t34.5 -84.5q0 -49 -34.5 -83t-84.5 -34zM668 1120
q-48 0 -82.5 34t-34.5 83q0 51 34.5 85t84.5 34q48 0 82 -34.5t34 -84.5q0 -49 -34 -83t-84 -34z" />
    <glyph glyph-name="Jcircumflex" unicode="&#x134;" horiz-adv-x="923" 
d="M360 -23q-229 0 -340 195l144 119q76 -135 198 -135q94 0 150.5 70t56.5 188v780h-385v178h576v-956q0 -196 -110.5 -317.5t-289.5 -121.5zM250 1497l-72 117l291 192l291 -192l-70 -117l-221 141z" />
    <glyph glyph-name="jcircumflex" unicode="&#x135;" horiz-adv-x="440" 
d="M39 -512q-112 0 -193 78l86 143q50 -55 99 -55q50 0 76 37t26 100v1151h176v-1157q0 -133 -73.5 -215t-196.5 -82zM2 1069l-72 117l291 190l291 -190l-70 -117l-221 141z" />
    <glyph glyph-name="Kcommaaccent" unicode="&#x136;" horiz-adv-x="1153" 
d="M174 0v1372h191v-627l520 627h229l-547 -657l576 -715h-242l-536 666v-666h-191zM569 -543l-118 33l84 408l165 -43z" />
    <glyph glyph-name="kcommaaccent" unicode="&#x137;" horiz-adv-x="935" 
d="M133 0v1454h176v-950l385 438h207l-399 -446l424 -496h-228l-389 457v-457h-176zM449 -543l-119 33l84 408l166 -43z" />
    <glyph glyph-name="Lacute" unicode="&#x139;" horiz-adv-x="976" 
d="M174 0v1372h191v-1194h530v-178h-721zM281 1466l-103 74l221 322l131 -99z" />
    <glyph glyph-name="lacute" unicode="&#x13a;" horiz-adv-x="444" 
d="M133 0v1454h176v-1454h-176zM236 1507l-103 74l221 322l131 -99z" />
    <glyph glyph-name="Lcommaaccent" unicode="&#x13b;" horiz-adv-x="976" 
d="M174 0v1372h191v-1194h530v-178h-721zM477 -543l-119 33l84 408l166 -43z" />
    <glyph glyph-name="lcommaaccent" unicode="&#x13c;" horiz-adv-x="442" 
d="M133 0v1454h176v-1454h-176zM170 -543l-119 33l84 408l166 -43z" />
    <glyph glyph-name="Lcaron" unicode="&#x13d;" horiz-adv-x="976" 
d="M174 0v1372h191v-1194h530v-178h-721zM586 989l-119 29l74 379l166 -41z" />
    <glyph glyph-name="lcaron" unicode="&#x13e;" horiz-adv-x="632" 
d="M133 0v1454h176v-1454h-176zM532 1071l-118 29l73 379l166 -41z" />
    <glyph glyph-name="Ldot" unicode="&#x13f;" horiz-adv-x="976" 
d="M754 610q-51 0 -86 35.5t-35 87.5q0 53 35.5 88t87.5 35t87.5 -35t35.5 -88t-35.5 -88t-89.5 -35zM174 0v1372h191v-1194h530v-178h-721z" />
    <glyph glyph-name="ldot" unicode="&#x140;" horiz-adv-x="686" 
d="M561 604q-51 0 -86 35.5t-35 87.5q0 53 35 88t88 35t88 -35t35 -88t-35.5 -88t-89.5 -35zM133 0v1454h176v-1454h-176z" />
    <glyph glyph-name="Lslash" unicode="&#x141;" horiz-adv-x="985" 
d="M184 0v526l-143 -82v174l143 84v670h191v-561l252 145v-176l-252 -143v-459h528v-178h-719z" />
    <glyph glyph-name="lslash" unicode="&#x142;" horiz-adv-x="493" 
d="M154 0v629l-144 -82v168l144 82v657h176v-555l143 82v-168l-143 -82v-731h-176z" />
    <glyph glyph-name="Nacute" unicode="&#x143;" horiz-adv-x="1482" 
d="M1239 -37l-874 1018v-981h-191v1409h70l874 -1018v981h191v-1409h-70zM752 1466l-103 74l221 322l131 -99z" />
    <glyph glyph-name="nacute" unicode="&#x144;" 
d="M133 0v942h172v-127q113 150 285 150q155 0 255.5 -109.5t100.5 -275.5v-580h-176v547q0 117 -62.5 187.5t-166.5 70.5q-103 0 -167.5 -72.5t-64.5 -187.5v-545h-176zM549 1036l-103 74l222 322l131 -99z" />
    <glyph glyph-name="Ncommaaccent" unicode="&#x145;" horiz-adv-x="1482" 
d="M1239 -37l-874 1018v-981h-191v1409h70l874 -1018v981h191v-1409h-70zM688 -543l-119 33l84 408l166 -43z" />
    <glyph glyph-name="ncommaaccent" unicode="&#x146;" 
d="M133 0v942h172v-127q113 150 285 150q155 0 255.5 -109.5t100.5 -275.5v-580h-176v547q0 117 -62.5 187.5t-166.5 70.5q-103 0 -167.5 -72.5t-64.5 -187.5v-545h-176zM485 -543l-118 33l84 408l165 -43z" />
    <glyph glyph-name="Ncaron" unicode="&#x147;" horiz-adv-x="1482" 
d="M1239 -37l-874 1018v-981h-191v1409h70l874 -1018v981h191v-1409h-70zM741 1479l-290 192l71 117l219 -141l222 141l69 -117z" />
    <glyph glyph-name="ncaron" unicode="&#x148;" 
d="M133 0v942h172v-127q113 150 285 150q155 0 255.5 -109.5t100.5 -275.5v-580h-176v547q0 117 -62.5 187.5t-166.5 70.5q-103 0 -167.5 -72.5t-64.5 -187.5v-545h-176zM539 1049l-291 192l71 117l220 -141l221 141l69 -117z" />
    <glyph glyph-name="napostrophe" unicode="&#x149;" horiz-adv-x="1128" 
d="M193 0v942h172v-127q113 150 284 150q155 0 256 -109.5t101 -275.5v-580h-177v547q0 117 -62.5 187.5t-166.5 70.5q-103 0 -167 -72t-64 -188v-545h-176zM150 1040l-119 29l73 379l166 -41z" />
    <glyph glyph-name="Eng" unicode="&#x14a;" horiz-adv-x="1482" 
d="M909 -512q-110 0 -197 50t-141 145l144 118q77 -135 203 -135q95 0 151.5 70t56.5 188v76l-761 965v-965h-191v1409h70l874 -1106v1069h191v-1446q0 -196 -110.5 -317t-289.5 -121z" />
    <glyph glyph-name="eng" unicode="&#x14b;" 
d="M674 -512q-112 0 -193 78l86 143q50 -55 101 -55q49 0 75.5 37t26.5 100v756q0 117 -62.5 187.5t-166.5 70.5q-103 0 -167.5 -72.5t-64.5 -187.5v-545h-176v942h172v-127q113 150 285 150q155 0 255.5 -109.5t100.5 -275.5v-795q0 -133 -74 -215t-198 -82z" />
    <glyph glyph-name="Omacron" unicode="&#x14c;" horiz-adv-x="1572" 
d="M788 -23q-143 0 -272 55.5t-222 150.5t-147.5 226t-54.5 277q0 145 54.5 276t147 226t222 151t272.5 56q142 0 270.5 -55.5t221 -150.5t147 -226t54.5 -277q0 -144 -54.5 -275t-147 -226.5t-221 -151.5t-270.5 -56zM786 164q211 0 351.5 148.5t140.5 373.5
q0 224 -140.5 373t-351.5 149q-212 0 -351.5 -148.5t-139.5 -373.5t139.5 -373.5t351.5 -148.5zM559 1593v144h455v-144h-455z" />
    <glyph glyph-name="omacron" unicode="&#x14d;" horiz-adv-x="1140" 
d="M571 -23q-134 0 -246.5 66t-177.5 179.5t-65 248.5q0 134 65 247.5t177.5 180t246.5 66.5q133 0 245.5 -66t177.5 -179.5t65 -248.5q0 -204 -143 -349t-345 -145zM571 143q133 0 219.5 92.5t86.5 235.5t-86.5 235.5t-219.5 92.5t-220 -92.5t-87 -235.5t87 -235.5
t220 -92.5zM342 1163v144h455v-144h-455z" />
    <glyph glyph-name="Obreve" unicode="&#x14e;" horiz-adv-x="1572" 
d="M788 -23q-143 0 -272 55.5t-222 150.5t-147.5 226t-54.5 277q0 145 54.5 276t147 226t222 151t272.5 56q142 0 270.5 -55.5t221 -150.5t147 -226t54.5 -277q0 -144 -54.5 -275t-147 -226.5t-221 -151.5t-270.5 -56zM786 164q211 0 351.5 148.5t140.5 373.5
q0 224 -140.5 373t-351.5 149q-212 0 -351.5 -148.5t-139.5 -373.5t139.5 -373.5t351.5 -148.5zM784 1495q-119 0 -190.5 75t-71.5 199h140q0 -62 33.5 -99.5t88.5 -37.5q56 0 90.5 37.5t34.5 99.5h140q0 -125 -73 -199.5t-192 -74.5z" />
    <glyph glyph-name="obreve" unicode="&#x14f;" horiz-adv-x="1140" 
d="M571 -23q-134 0 -246.5 66t-177.5 179.5t-65 248.5q0 134 65 247.5t177.5 180t246.5 66.5q133 0 245.5 -66t177.5 -179.5t65 -248.5q0 -204 -143 -349t-345 -145zM571 143q133 0 219.5 92.5t86.5 235.5t-86.5 235.5t-219.5 92.5t-220 -92.5t-87 -235.5t87 -235.5
t220 -92.5zM569 1065q-119 0 -190.5 75t-71.5 199h139q0 -62 34 -99.5t89 -37.5q56 0 90.5 37.5t34.5 99.5h140q0 -125 -73 -199.5t-192 -74.5z" />
    <glyph glyph-name="Ohungarumlaut" unicode="&#x150;" horiz-adv-x="1572" 
d="M788 -23q-143 0 -272 55.5t-222 150.5t-147.5 226t-54.5 277q0 145 54.5 276t147 226t222 151t272.5 56q142 0 270.5 -55.5t221 -150.5t147 -226t54.5 -277q0 -144 -54.5 -275t-147 -226.5t-221 -151.5t-270.5 -56zM786 164q211 0 351.5 148.5t140.5 373.5
q0 224 -140.5 373t-351.5 149q-212 0 -351.5 -148.5t-139.5 -373.5t139.5 -373.5t351.5 -148.5zM666 1462l-111 66l180 315l137 -84zM944 1462l-110 66l180 315l137 -84z" />
    <glyph glyph-name="ohungarumlaut" unicode="&#x151;" horiz-adv-x="1140" 
d="M571 -23q-134 0 -246.5 66t-177.5 179.5t-65 248.5q0 134 65 247.5t177.5 180t246.5 66.5q133 0 245.5 -66t177.5 -179.5t65 -248.5q0 -204 -143 -349t-345 -145zM571 143q133 0 219.5 92.5t86.5 235.5t-86.5 235.5t-219.5 92.5t-220 -92.5t-87 -235.5t87 -235.5
t220 -92.5zM451 1032l-111 66l180 315l137 -84zM729 1032l-111 66l181 315l137 -84z" />
    <glyph glyph-name="OE" unicode="&#x152;" horiz-adv-x="1675" 
d="M811 0q-204 0 -368.5 88.5t-257.5 245.5t-93 352t93.5 352t258 245.5t367.5 88.5h731v-178h-541v-397h408v-179h-408v-440h551v-178h-741zM811 178v1016q-229 0 -372.5 -142t-143.5 -366t143.5 -366t372.5 -142z" />
    <glyph glyph-name="oe" unicode="&#x153;" horiz-adv-x="1886" 
d="M571 -23q-134 0 -246.5 66t-177.5 179.5t-65 248.5q0 134 65 247.5t177.5 180t246.5 66.5q119 0 223 -54t171 -147q63 94 163 147.5t222 53.5q195 0 324.5 -129.5t129.5 -331.5q0 -43 -8 -84h-733q15 -128 98.5 -202.5t216.5 -74.5q176 0 293 138l111 -105
q-75 -96 -182.5 -147.5t-231.5 -51.5q-130 0 -234.5 54t-168.5 149q-67 -94 -171 -148.5t-223 -54.5zM571 143q134 0 221 93t87 235t-87 235t-221 93q-133 0 -220 -92.5t-87 -235.5t87 -235.5t220 -92.5zM1067 565h553q-19 116 -92.5 179t-184.5 63t-183.5 -64t-92.5 -178z
" />
    <glyph glyph-name="Racute" unicode="&#x154;" horiz-adv-x="1169" 
d="M174 0v1372h361q209 0 343 -117t134 -299q0 -133 -77.5 -237.5t-205.5 -147.5l369 -571h-226l-348 541h-159v-541h-191zM365 719h163q134 0 213.5 64t79.5 173q0 107 -80.5 172.5t-212.5 65.5h-163v-475zM571 1466l-102 74l221 322l131 -99z" />
    <glyph glyph-name="racute" unicode="&#x155;" horiz-adv-x="667" 
d="M133 0v942h172v-137q100 160 266 160q22 0 64 -7l-29 -192q-37 12 -71 12q-102 0 -164 -64.5t-62 -172.5v-541h-176zM397 1036l-102 74l221 322l131 -99z" />
    <glyph glyph-name="Rcommaaccent" unicode="&#x156;" horiz-adv-x="1169" 
d="M174 0v1372h361q209 0 343 -117t134 -299q0 -133 -77.5 -237.5t-205.5 -147.5l369 -571h-226l-348 541h-159v-541h-191zM365 719h163q134 0 213.5 64t79.5 173q0 107 -80.5 172.5t-212.5 65.5h-163v-475zM553 -543l-119 33l84 408l166 -43z" />
    <glyph glyph-name="rcommaaccent" unicode="&#x157;" horiz-adv-x="655" 
d="M133 0v942h172v-137q100 160 266 160q22 0 64 -7l-29 -192q-37 12 -71 12q-102 0 -164 -64.5t-62 -172.5v-541h-176zM170 -543l-119 33l84 408l166 -43z" />
    <glyph glyph-name="Rcaron" unicode="&#x158;" horiz-adv-x="1169" 
d="M174 0v1372h361q209 0 343 -117t134 -299q0 -133 -77.5 -237.5t-205.5 -147.5l369 -571h-226l-348 541h-159v-541h-191zM365 719h163q134 0 213.5 64t79.5 173q0 107 -80.5 172.5t-212.5 65.5h-163v-475zM582 1479l-291 192l71 117l220 -141l221 141l69 -117z" />
    <glyph glyph-name="rcaron" unicode="&#x159;" horiz-adv-x="663" 
d="M133 0v942h172v-137q100 160 266 160q22 0 64 -7l-29 -192q-37 12 -71 12q-102 0 -164 -64.5t-62 -172.5v-541h-176zM383 1049l-291 192l72 117l219 -141l221 141l70 -117z" />
    <glyph glyph-name="Sacute" unicode="&#x15a;" horiz-adv-x="1040" 
d="M516 -25q-146 0 -267.5 68t-197.5 193l144 118q127 -200 323 -200q109 0 174.5 53.5t65.5 146.5q0 82 -60 142.5t-198 115.5q-188 76 -274.5 175t-86.5 235q0 164 110 268.5t283 104.5q247 0 408 -211l-139 -121q-113 154 -271 154q-92 0 -146 -49t-54 -132
q0 -80 57 -137t191 -111q192 -78 281 -179.5t89 -239.5q0 -173 -121.5 -283.5t-310.5 -110.5zM553 1466l-102 74l221 322l131 -99z" />
    <glyph glyph-name="sacute" unicode="&#x15b;" horiz-adv-x="915" 
d="M463 -23q-126 0 -232.5 49.5t-179.5 143.5l117 121q122 -154 303 -154q83 0 134.5 32.5t51.5 84.5q0 49 -45.5 79.5t-152.5 57.5q-181 44 -263.5 115t-82.5 182q0 126 93.5 201.5t248.5 75.5q228 0 372 -162l-112 -119q-107 121 -266 121q-74 0 -117 -28.5t-43 -74.5
q0 -49 44 -78.5t150 -56.5q183 -42 267 -115t84 -184q0 -130 -102.5 -210.5t-268.5 -80.5zM479 1036l-102 74l221 322l131 -99z" />
    <glyph glyph-name="Scircumflex" unicode="&#x15c;" horiz-adv-x="1040" 
d="M516 -25q-146 0 -267.5 68t-197.5 193l144 118q127 -200 323 -200q109 0 174.5 53.5t65.5 146.5q0 82 -60 142.5t-198 115.5q-188 76 -274.5 175t-86.5 235q0 164 110 268.5t283 104.5q247 0 408 -211l-139 -121q-113 154 -271 154q-92 0 -146 -49t-54 -132
q0 -80 57 -137t191 -111q192 -78 281 -179.5t89 -239.5q0 -173 -121.5 -283.5t-310.5 -110.5zM322 1497l-72 117l291 192l290 -192l-69 -117l-221 141z" />
    <glyph glyph-name="scircumflex" unicode="&#x15d;" horiz-adv-x="915" 
d="M463 -23q-126 0 -232.5 49.5t-179.5 143.5l117 121q122 -154 303 -154q83 0 134.5 32.5t51.5 84.5q0 49 -45.5 79.5t-152.5 57.5q-181 44 -263.5 115t-82.5 182q0 126 93.5 201.5t248.5 75.5q228 0 372 -162l-112 -119q-107 121 -266 121q-74 0 -117 -28.5t-43 -74.5
q0 -49 44 -78.5t150 -56.5q183 -42 267 -115t84 -184q0 -130 -102.5 -210.5t-268.5 -80.5zM248 1067l-72 117l291 192l291 -192l-70 -117l-221 141z" />
    <glyph glyph-name="Scedilla" unicode="&#x15e;" horiz-adv-x="1040" 
d="M498 -522q-46 0 -90 14t-64 26t-27 19l43 113q7 -7 19 -16t42 -21t60 -12q47 0 77 24.5t30 61.5t-33 62.5t-84 25.5h-80l55 205q-122 14 -224 80t-171 176l144 118q128 -202 323 -202q108 0 174 54.5t66 147.5q0 82 -60 142.5t-198 115.5q-188 76 -274.5 175t-86.5 235
q0 164 110 268.5t283 104.5q247 0 408 -211l-139 -121q-113 154 -271 154q-92 0 -146 -49t-54 -132q0 -80 57 -137t191 -111q192 -78 281 -179.5t89 -239.5q0 -158 -101.5 -265t-266.5 -124l-27 -97q80 -15 128 -68t48 -130q0 -90 -65 -148.5t-166 -58.5z" />
    <glyph glyph-name="scedilla" unicode="&#x15f;" horiz-adv-x="915" 
d="M438 -522q-47 0 -91.5 14.5t-62 25t-28.5 19.5l45 113q7 -7 19 -16t42 -21t60 -12q45 0 74.5 24.5t29.5 61.5t-32 62.5t-82 25.5h-82l59 209q-211 22 -338 186l117 121q122 -154 303 -154q84 0 135 31.5t51 85.5q0 49 -45.5 79.5t-152.5 57.5q-181 44 -263.5 115
t-82.5 182q0 126 93.5 201.5t248.5 75.5q228 0 372 -162l-112 -119q-107 121 -266 121q-75 0 -117.5 -27.5t-42.5 -75.5q0 -49 44 -78.5t150 -56.5q183 -42 267 -115t84 -184q0 -119 -86 -196.5t-228 -89.5l-26 -99q79 -15 126.5 -68t47.5 -130q0 -90 -64.5 -148.5
t-165.5 -58.5z" />
    <glyph glyph-name="Scaron" unicode="&#x160;" horiz-adv-x="1040" 
d="M516 -25q-146 0 -267.5 68t-197.5 193l144 118q127 -200 323 -200q109 0 174.5 53.5t65.5 146.5q0 82 -60 142.5t-198 115.5q-188 76 -274.5 175t-86.5 235q0 164 110 268.5t283 104.5q247 0 408 -211l-139 -121q-113 154 -271 154q-92 0 -146 -49t-54 -132
q0 -80 57 -137t191 -111q192 -78 281 -179.5t89 -239.5q0 -173 -121.5 -283.5t-310.5 -110.5zM541 1479l-291 192l72 117l219 -141l221 141l69 -117z" />
    <glyph glyph-name="scaron" unicode="&#x161;" horiz-adv-x="915" 
d="M463 -23q-126 0 -232.5 49.5t-179.5 143.5l117 121q122 -154 303 -154q83 0 134.5 32.5t51.5 84.5q0 49 -45.5 79.5t-152.5 57.5q-181 44 -263.5 115t-82.5 182q0 126 93.5 201.5t248.5 75.5q228 0 372 -162l-112 -119q-107 121 -266 121q-74 0 -117 -28.5t-43 -74.5
q0 -49 44 -78.5t150 -56.5q183 -42 267 -115t84 -184q0 -130 -102.5 -210.5t-268.5 -80.5zM467 1049l-291 192l72 117l219 -141l221 141l70 -117z" />
    <glyph glyph-name="uni0162" unicode="&#x162;" horiz-adv-x="1167" 
d="M565 -522q-47 0 -91.5 14.5t-62 25t-28.5 19.5l45 113q7 -7 19 -16t42 -21t60 -12q45 0 74.5 24.5t29.5 61.5t-32 62.5t-82 25.5h-82l63 225h-31v1194h-438v178h1065v-178h-436v-1194h-29l-30 -117q79 -15 126.5 -68t47.5 -130q0 -90 -64.5 -148.5t-165.5 -58.5z" />
    <glyph glyph-name="uni0163" unicode="&#x163;" horiz-adv-x="759" 
d="M428 -522q-47 0 -91.5 14.5t-62 25t-28.5 19.5l45 113q7 -7 19 -16t42 -21t60 -12q45 0 74.5 24.5t29.5 61.5t-32.5 62.5t-82.5 25.5h-82l62 219q-84 26 -130 99t-46 181v508h-144v160h144v254h176v-254h268v-160h-268v-497q0 -71 33 -109.5t94 -38.5q77 0 139 62
l82 -117q-87 -96 -219 -102l-27 -97q79 -15 126.5 -68t47.5 -130q0 -90 -64 -148.5t-165 -58.5z" />
    <glyph glyph-name="Tcaron" unicode="&#x164;" horiz-adv-x="1167" 
d="M489 0v1194h-438v178h1065v-178h-436v-1194h-191zM582 1479l-291 192l71 117l220 -141l221 141l69 -117z" />
    <glyph glyph-name="tcaron" unicode="&#x165;" horiz-adv-x="759" 
d="M485 -23q-131 0 -205.5 80t-74.5 217v508h-144v160h144v254h176v-254h268v-160h-268v-497q0 -71 33 -109.5t94 -38.5q77 0 139 62l82 -117q-94 -105 -244 -105zM598 1071l-119 29l74 379l166 -41z" />
    <glyph glyph-name="Tbar" unicode="&#x166;" horiz-adv-x="1167" 
d="M489 0v590h-245v160h245v444h-438v178h1065v-178h-436v-444h246v-160h-246v-590h-191z" />
    <glyph glyph-name="tbar" unicode="&#x167;" horiz-adv-x="770" 
d="M485 -23q-131 0 -205.5 80t-74.5 217v166h-103v160h103v182h-144v160h144v254h176v-254h268v-160h-268v-182h223v-160h-223v-155q0 -71 33 -109.5t94 -38.5q77 0 139 62l82 -117q-94 -105 -244 -105z" />
    <glyph glyph-name="Umacron" unicode="&#x16a;" horiz-adv-x="1366" 
d="M688 -23q-238 0 -381 159.5t-143 420.5v815h190v-805q0 -184 91.5 -297.5t234.5 -113.5q148 0 240 113t92 298v805h190v-815q0 -258 -142.5 -419t-371.5 -161zM455 1593v144h454v-144h-454z" />
    <glyph glyph-name="umacron" unicode="&#x16b;" 
d="M479 -23q-155 0 -255.5 109.5t-100.5 275.5v580h176v-547q0 -117 62.5 -187.5t166.5 -70.5q103 0 167.5 72.5t64.5 187.5v545h176v-942h-172v127q-113 -150 -285 -150zM305 1163v144h455v-144h-455z" />
    <glyph glyph-name="Ubreve" unicode="&#x16c;" horiz-adv-x="1366" 
d="M688 -23q-238 0 -381 159.5t-143 420.5v815h190v-805q0 -184 91.5 -297.5t234.5 -113.5q148 0 240 113t92 298v805h190v-815q0 -258 -142.5 -419t-371.5 -161zM680 1495q-119 0 -190.5 75t-71.5 199h139q0 -62 34 -99.5t89 -37.5q56 0 90.5 37.5t34.5 99.5h139
q0 -125 -72.5 -199.5t-191.5 -74.5z" />
    <glyph glyph-name="ubreve" unicode="&#x16d;" 
d="M479 -23q-155 0 -255.5 109.5t-100.5 275.5v580h176v-547q0 -117 62.5 -187.5t166.5 -70.5q103 0 167.5 72.5t64.5 187.5v545h176v-942h-172v127q-113 -150 -285 -150zM532 1065q-119 0 -190.5 75t-71.5 199h140q0 -62 33.5 -99.5t88.5 -37.5q56 0 90.5 37.5t34.5 99.5
h140q0 -125 -73 -199.5t-192 -74.5z" />
    <glyph glyph-name="Uring" unicode="&#x16e;" horiz-adv-x="1366" 
d="M688 -23q-238 0 -381 159.5t-143 420.5v815h190v-805q0 -184 91.5 -297.5t234.5 -113.5q148 0 240 113t92 298v805h190v-815q0 -258 -142.5 -419t-371.5 -161zM680 1444q-90 0 -152.5 60t-62.5 147q0 85 62.5 146t152.5 61q91 0 154 -60.5t63 -146.5q0 -87 -62.5 -147
t-154.5 -60zM680 1556q41 0 68.5 27t27.5 68t-27.5 67.5t-68.5 26.5q-40 0 -67 -26.5t-27 -67.5t27 -68t67 -27z" />
    <glyph glyph-name="uring" unicode="&#x16f;" 
d="M479 -23q-155 0 -255.5 109.5t-100.5 275.5v580h176v-547q0 -117 62.5 -187.5t166.5 -70.5q103 0 167.5 72.5t64.5 187.5v545h176v-942h-172v127q-113 -150 -285 -150zM530 1014q-90 0 -152.5 60t-62.5 147q0 85 62.5 145.5t152.5 60.5q91 0 154.5 -60t63.5 -146
q0 -87 -63 -147t-155 -60zM530 1126q41 0 69 27t28 68t-27.5 67.5t-69.5 26.5q-40 0 -67 -26.5t-27 -67.5t27 -68t67 -27z" />
    <glyph glyph-name="Uhungarumlaut" unicode="&#x170;" horiz-adv-x="1366" 
d="M688 -23q-238 0 -381 159.5t-143 420.5v815h190v-805q0 -184 91.5 -297.5t234.5 -113.5q148 0 240 113t92 298v805h190v-815q0 -258 -142.5 -419t-371.5 -161zM561 1462l-110 66l180 315l137 -84zM840 1462l-111 66l180 315l138 -84z" />
    <glyph glyph-name="uhungarumlaut" unicode="&#x171;" 
d="M479 -23q-155 0 -255.5 109.5t-100.5 275.5v580h176v-547q0 -117 62.5 -187.5t166.5 -70.5q103 0 167.5 72.5t64.5 187.5v545h176v-942h-172v127q-113 -150 -285 -150zM412 1032l-111 66l180 315l137 -84zM690 1032l-110 66l180 315l137 -84z" />
    <glyph glyph-name="Uogonek" unicode="&#x172;" horiz-adv-x="1366" 
d="M784 -522q-117 0 -188.5 64.5t-71.5 164.5q0 141 158 273q-9 -3 -25 -3q-208 6 -350.5 168t-142.5 412v815h190v-805q0 -187 88.5 -299t237.5 -112q148 0 240 113t92 298v805h190v-815q0 -176 -76.5 -311.5t-216.5 -218.5q-223 -133 -223 -281q0 -60 35.5 -94.5
t99.5 -34.5q37 0 84 12v-135q-57 -16 -121 -16z" />
    <glyph glyph-name="uogonek" unicode="&#x173;" 
d="M813 -522q-120 0 -190 61t-70 164q0 167 219 297h-8v127q-113 -150 -285 -150q-155 0 -255.5 109.5t-100.5 275.5v580h176v-547q0 -117 62.5 -187.5t166.5 -70.5q103 0 167.5 72.5t64.5 187.5v545h176v-942q-131 -90 -178 -146t-47 -116q0 -59 35 -90t100 -31q38 0 84 12
v-135q-55 -16 -117 -16z" />
    <glyph glyph-name="Wcircumflex" unicode="&#x174;" horiz-adv-x="1961" 
d="M530 -37l-479 1409h201l326 -971l368 971h70l368 -971l326 971h201l-481 -1409h-70l-379 1012l-381 -1012h-70zM754 1497l-72 117l291 192l291 -192l-70 -117l-221 141z" />
    <glyph glyph-name="wcircumflex" unicode="&#x175;" horiz-adv-x="1404" 
d="M367 -37l-336 979h176l209 -606l250 627h71l252 -627l209 606h176l-336 -979h-69l-267 676l-266 -676h-69zM481 1067l-71 117l290 192l291 -192l-69 -117l-222 141z" />
    <glyph glyph-name="Ycircumflex" unicode="&#x176;" horiz-adv-x="1083" 
d="M440 0v520l-420 852h211l314 -639l321 639h197l-432 -852v-520h-191zM328 1497l-72 117l291 192l291 -192l-70 -117l-221 141z" />
    <glyph glyph-name="ycircumflex" unicode="&#x177;" horiz-adv-x="950" 
d="M197 -512l180 483l-346 971h190l252 -717l266 717h181l-543 -1454h-180zM258 1067l-72 117l291 192l291 -192l-70 -117l-221 141z" />
    <glyph glyph-name="Ydieresis" unicode="&#x178;" horiz-adv-x="1083" 
d="M440 0v520l-420 852h211l314 -639l321 639h197l-432 -852v-520h-191zM352 1550q-49 0 -82.5 33.5t-33.5 83.5q0 51 33 85t83 34t84.5 -34t34.5 -85q0 -49 -34.5 -83t-84.5 -34zM741 1550q-49 0 -82.5 33.5t-33.5 83.5q0 51 33 85t83 34t84.5 -34t34.5 -85
q0 -49 -34.5 -83t-84.5 -34z" />
    <glyph glyph-name="Zacute" unicode="&#x179;" horiz-adv-x="1236" 
d="M92 0v70l752 1124h-723v178h1024v-69l-750 -1125h746v-178h-1049zM643 1466l-102 74l221 322l131 -99z" />
    <glyph glyph-name="zacute" unicode="&#x17a;" horiz-adv-x="940" 
d="M72 0v70l518 712h-481v160h759v-70l-516 -712h508v-160h-788zM496 1036l-103 74l221 322l131 -99z" />
    <glyph glyph-name="Zdotaccent" unicode="&#x17b;" horiz-adv-x="1236" 
d="M92 0v70l752 1124h-723v178h1024v-69l-750 -1125h746v-178h-1049zM631 1550q-49 0 -83 34t-34 83q0 51 33.5 85t83.5 34t84.5 -34t34.5 -85q0 -49 -34.5 -83t-84.5 -34z" />
    <glyph glyph-name="zdotaccent" unicode="&#x17c;" horiz-adv-x="940" 
d="M72 0v70l518 712h-481v160h759v-70l-516 -712h508v-160h-788zM483 1120q-49 0 -82.5 33.5t-33.5 83.5q0 51 33 85t83 34t84.5 -34t34.5 -85q0 -49 -34.5 -83t-84.5 -34z" />
    <glyph glyph-name="Zcaron" unicode="&#x17d;" horiz-adv-x="1236" 
d="M92 0v70l752 1124h-723v178h1024v-69l-750 -1125h746v-178h-1049zM631 1479l-291 192l72 117l219 -141l221 141l70 -117z" />
    <glyph glyph-name="zcaron" unicode="&#x17e;" horiz-adv-x="940" 
d="M72 0v70l518 712h-481v160h759v-70l-516 -712h508v-160h-788zM485 1049l-290 192l71 117l219 -141l222 141l69 -117z" />
    <glyph glyph-name="uni018F" unicode="&#x18f;" horiz-adv-x="1499" 
d="M731 -23q-135 0 -255.5 53t-207 144t-136.5 218.5t-50 271.5q0 28 4 90h1114q-19 202 -150 328t-321 126q-110 0 -212 -46.5t-179 -131.5l-139 123q101 114 242.5 178t293.5 64q186 0 340.5 -93.5t243 -255t88.5 -356.5q0 -196 -89 -359.5t-244.5 -258.5t-342.5 -95z
M739 164q178 0 303.5 117.5t151.5 306.5h-905q22 -186 147.5 -305t302.5 -119z" />
    <glyph glyph-name="florin" unicode="&#x192;" horiz-adv-x="786" 
d="M100 -512q-107 0 -192 61l78 146q52 -43 106 -43t88.5 40.5t40.5 112.5l88 990h-164v147h177l18 195q14 145 93 231t202 86q107 0 192 -61l-77 -146q-13 13 -43 28t-64 15q-55 0 -89 -40.5t-40 -112.5l-16 -195h225v-147h-240l-86 -990q-14 -145 -94 -231t-203 -86z" />
    <glyph glyph-name="Aringacute" unicode="&#x1fa;" horiz-adv-x="1245" 
d="M51 0l498 1311q-63 20 -102 72t-39 118q0 84 62.5 143.5t154.5 59.5q89 0 152 -59t63 -144q0 -66 -41 -117.5t-105 -72.5l500 -1311h-203l-114 313h-508l-115 -313h-203zM434 492h377l-188 516zM625 1411q40 0 67 25.5t27 64.5t-27 64.5t-67 25.5q-42 0 -69.5 -25.5
t-27.5 -64.5t27.5 -64.5t69.5 -25.5zM578 1733l-66 108l328 213l84 -141z" />
    <glyph glyph-name="aringacute" unicode="&#x1fb;" horiz-adv-x="1001" 
d="M401 -23q-145 0 -237 83t-92 212q0 134 104 222t262 88q140 0 264 -68v47q0 109 -64 176.5t-167 67.5q-135 0 -221 -117l-119 117q142 160 350 160q174 0 286 -112t112 -284v-569h-177v125q-118 -148 -301 -148zM438 127q109 0 182 64.5t80 168.5q-121 82 -251 82
q-92 0 -146.5 -43.5t-54.5 -115.5t51 -114t139 -42zM502 1016q-91 0 -153 59.5t-62 145.5q0 84 62.5 143t152.5 59t153.5 -59t63.5 -143q0 -86 -63 -145.5t-154 -59.5zM502 1128q42 0 69 26t27 67q0 38 -27.5 64t-68.5 26q-40 0 -67 -26t-27 -64q0 -41 27 -67t67 -26z
M457 1452l-66 107l328 213l84 -140z" />
    <glyph glyph-name="AEacute" unicode="&#x1fc;" horiz-adv-x="1615" 
d="M-20 0l661 1372h836v-178h-605l56 -397h432v-179h-408l62 -440h479v-178h-641l-43 313h-477l-142 -313h-210zM412 492h370l-86 620zM850 1466l-102 74l221 322l131 -99z" />
    <glyph glyph-name="aeacute" unicode="&#x1fd;" horiz-adv-x="1714" 
d="M422 -23q-154 0 -252 82t-98 211q0 136 107.5 224t275.5 88q139 0 258 -68v47q0 109 -66 176.5t-172 67.5q-139 0 -225 -117l-119 117q142 160 352 160q108 0 195 -43.5t141 -124.5q62 84 153 129t199 45q127 0 232 -58t167 -164.5t62 -240.5q0 -38 -6 -82h-735
q15 -128 97 -202t212 -74q173 0 287 135l112 -105q-74 -96 -180 -146t-229 -50q-124 0 -223 50.5t-162 141.5q-61 -93 -161 -146t-222 -53zM440 127q113 0 183.5 64t76.5 169q-64 44 -121.5 63t-129.5 19q-93 0 -147 -43t-54 -116q0 -72 51.5 -114t140.5 -42zM895 571h553
q-18 114 -95 178t-186 64t-180 -65t-92 -177zM842 1036l-103 74l222 322l131 -99z" />
    <glyph glyph-name="Oslashacute" unicode="&#x1fe;" horiz-adv-x="1570" 
d="M344 -88l-135 94l108 156q-105 99 -165 235t-60 289q0 145 54.5 276t147.5 226t221.5 151t270.5 56q181 0 334 -86l105 149l135 -94l-107 -152q106 -99 166 -235t60 -291q0 -144 -54.5 -275t-147 -226.5t-221 -151.5t-270.5 -56q-176 0 -335 89zM430 319l582 834
q-101 55 -226 55q-212 0 -351.5 -148.5t-139.5 -373.5q0 -223 135 -367zM786 164q211 0 350.5 148.5t139.5 373.5q0 221 -133 367l-584 -834q107 -55 227 -55zM797 1466l-103 74l221 322l132 -99z" />
    <glyph glyph-name="oslashacute" unicode="&#x1ff;" horiz-adv-x="1140" 
d="M274 -72l-112 78l74 105q-72 69 -113 162t-41 198q0 134 65 247.5t177.5 180t246.5 66.5q115 0 224 -56l73 107l113 -78l-74 -107q71 -70 111.5 -162.5t40.5 -197.5q0 -204 -143 -349t-345 -145q-116 0 -225 56zM336 256l362 516q-58 27 -127 27q-133 0 -220 -92.5
t-87 -235.5q0 -127 72 -215zM569 143q135 0 221.5 92.5t86.5 235.5q0 126 -72 217l-361 -518q56 -27 125 -27zM582 1036l-103 74l221 322l131 -99z" />
    <glyph glyph-name="Scommaaccent" unicode="&#x218;" horiz-adv-x="1040" 
d="M516 -25q-146 0 -267.5 68t-197.5 193l144 118q127 -200 323 -200q109 0 174.5 53.5t65.5 146.5q0 82 -60 142.5t-198 115.5q-188 76 -274.5 175t-86.5 235q0 164 110 268.5t283 104.5q247 0 408 -211l-139 -121q-113 154 -271 154q-92 0 -146 -49t-54 -132
q0 -80 57 -137t191 -111q192 -78 281 -179.5t89 -239.5q0 -173 -121.5 -283.5t-310.5 -110.5zM455 -543l-119 33l84 408l166 -43z" />
    <glyph glyph-name="scommaaccent" unicode="&#x219;" horiz-adv-x="915" 
d="M463 -23q-126 0 -232.5 49.5t-179.5 143.5l117 121q122 -154 303 -154q83 0 134.5 32.5t51.5 84.5q0 49 -45.5 79.5t-152.5 57.5q-181 44 -263.5 115t-82.5 182q0 126 93.5 201.5t248.5 75.5q228 0 372 -162l-112 -119q-107 121 -266 121q-74 0 -117 -28.5t-43 -74.5
q0 -49 44 -78.5t150 -56.5q183 -42 267 -115t84 -184q0 -130 -102.5 -210.5t-268.5 -80.5zM410 -543l-119 33l84 408l166 -43z" />
    <glyph glyph-name="uni021A" unicode="&#x21a;" horiz-adv-x="1167" 
d="M489 0v1194h-438v178h1065v-178h-436v-1194h-191zM530 -543l-118 33l84 408l166 -43z" />
    <glyph glyph-name="uni021B" unicode="&#x21b;" horiz-adv-x="759" 
d="M485 -23q-131 0 -205.5 80t-74.5 217v508h-144v160h144v254h176v-254h268v-160h-268v-497q0 -71 33 -109.5t94 -38.5q77 0 139 62l82 -117q-94 -105 -244 -105zM403 -543l-118 33l84 408l166 -43z" />
    <glyph glyph-name="uni0232" unicode="&#x232;" horiz-adv-x="1083" 
d="M440 0v520l-420 852h211l314 -639l321 639h197l-432 -852v-520h-191zM319 1593v144h455v-144h-455z" />
    <glyph glyph-name="uni0233" unicode="&#x233;" horiz-adv-x="950" 
d="M197 -512l180 483l-346 971h190l252 -717l266 717h181l-543 -1454h-180zM250 1163v144h455v-144h-455z" />
    <glyph glyph-name="uni0244" unicode="&#x244;" horiz-adv-x="1386" 
d="M698 -23q-229 0 -376.5 161t-147.5 419v168h-143v160h143v487h191v-487h657v487h190v-487h144v-160h-144v-168q0 -258 -142.5 -419t-371.5 -161zM690 156q148 0 240 113t92 298v158h-657v-158q0 -187 88 -299t237 -112z" />
    <glyph glyph-name="uni0259" unicode="&#x259;" horiz-adv-x="1089" 
d="M535 -23q-195 0 -324 129.5t-129 331.5q0 38 6 84h733q-14 127 -93.5 202t-201.5 75q-186 0 -297 -137l-110 110q73 93 179 143t230 50q214 0 347 -138t133 -352q0 -216 -134 -357t-339 -141zM539 131q113 0 186 66t94 180h-553q19 -116 91.5 -181t181.5 -65z" />
    <glyph glyph-name="uni0289" unicode="&#x289;" horiz-adv-x="1097" 
d="M500 -23q-156 0 -256.5 109t-100.5 276v144h-102v147h102v289h176v-289h459v289h176v-289h103v-147h-103v-506h-172v127q-110 -150 -282 -150zM547 137q104 0 167.5 72t63.5 188v109h-459v-111q0 -117 62.5 -187.5t165.5 -70.5z" />
    <glyph glyph-name="uni02BC" unicode="&#x2bc;" horiz-adv-x="280" 
d="M139 989l-119 29l74 379l166 -41z" />
    <glyph glyph-name="circumflex" unicode="&#x2c6;" horiz-adv-x="622" 
d="M92 1067l-72 117l291 192l291 -192l-70 -117l-221 141z" />
    <glyph glyph-name="caron" unicode="&#x2c7;" horiz-adv-x="622" 
d="M311 1049l-291 192l72 117l219 -141l221 141l70 -117z" />
    <glyph glyph-name="breve" unicode="&#x2d8;" horiz-adv-x="567" 
d="M283 1065q-119 0 -191 75t-72 199h140q0 -62 34 -99.5t89 -37.5q56 0 90.5 37.5t34.5 99.5h139q0 -125 -72.5 -199.5t-191.5 -74.5z" />
    <glyph glyph-name="dotaccent" unicode="&#x2d9;" horiz-adv-x="276" 
d="M137 1120q-49 0 -83 34t-34 83q0 51 33.5 85t83.5 34t84.5 -34t34.5 -85q0 -49 -34.5 -83t-84.5 -34z" />
    <glyph glyph-name="ring" unicode="&#x2da;" horiz-adv-x="473" 
d="M236 1014q-91 0 -153.5 60.5t-62.5 146.5q0 85 63 145.5t153 60.5q91 0 154 -60t63 -146q0 -87 -62.5 -147t-154.5 -60zM236 1126q41 0 68.5 27t27.5 68t-27.5 67.5t-68.5 26.5q-40 0 -67.5 -26.5t-27.5 -67.5t27.5 -68t67.5 -27z" />
    <glyph glyph-name="ogonek" unicode="&#x2db;" horiz-adv-x="423" 
d="M281 -522q-120 0 -190.5 61t-70.5 164q0 165 220 297h163q-131 -90 -178 -146t-47 -116q0 -59 35 -90t100 -31q37 0 86 12v-135q-57 -16 -118 -16z" />
    <glyph glyph-name="tilde" unicode="&#x2dc;" horiz-adv-x="616" 
d="M133 1126l-113 68q25 74 74 115t111 41q10 0 19 -1t18.5 -3.5t16 -4.5t16 -6.5t13 -6.5t13.5 -7l12 -6q64 -37 90 -37t44.5 17t35.5 57l113 -70q-23 -73 -72 -114.5t-112 -41.5q-49 0 -111 37q-57 35 -90 35q-25 0 -42 -16t-36 -56z" />
    <glyph glyph-name="hungarumlaut" unicode="&#x2dd;" horiz-adv-x="636" 
d="M131 1032l-111 66l181 315l137 -84zM410 1032l-111 66l180 315l137 -84z" />
    <glyph glyph-name="uni0301" unicode="&#x301;" horiz-adv-x="0" 
d="M-680 1466l-102 74l221 322l131 -99z" />
    <glyph glyph-name="uni030A" unicode="&#x30a;" horiz-adv-x="0" 
d="M-688 1444q-90 0 -152.5 60t-62.5 147q0 85 62.5 146t152.5 61q91 0 154 -60.5t63 -146.5q0 -87 -62.5 -147t-154.5 -60zM-688 1556q41 0 68.5 27t27.5 68t-27.5 67.5t-68.5 26.5q-40 0 -67 -26.5t-27 -67.5t27 -68t67 -27z" />
    <glyph glyph-name="uni0326" unicode="&#x326;" horiz-adv-x="290" 
d="M139 -543l-119 33l84 408l166 -43z" />
    <glyph glyph-name="uni0401" unicode="&#x401;" horiz-adv-x="1038" 
d="M174 0v1372h731v-178h-540v-397h409v-179h-409v-440h550v-178h-741zM346 1550q-50 0 -83.5 34t-33.5 83q0 51 33.5 85t83.5 34t84.5 -34t34.5 -85q0 -49 -34.5 -83t-84.5 -34zM735 1550q-49 0 -83 34t-34 83q0 51 33.5 85t83.5 34t84.5 -34t34.5 -85q0 -49 -34.5 -83
t-84.5 -34z" />
    <glyph glyph-name="uni0402" unicode="&#x402;" horiz-adv-x="1394" 
d="M915 -23q-94 0 -170 41l62 166q45 -28 104 -28q87 0 139 68.5t52 181.5q0 124 -65.5 199t-178.5 75q-120 0 -258 -62v-618h-190v1194h-379v178h1003v-178h-434v-397q136 61 279 61q185 0 299 -125t114 -325q0 -192 -105 -311.5t-272 -119.5z" />
    <glyph glyph-name="uni0403" unicode="&#x403;" horiz-adv-x="983" 
d="M174 0v1372h737v-178h-546v-1194h-191zM553 1466l-102 74l221 322l131 -99z" />
    <glyph glyph-name="uni0404" unicode="&#x404;" horiz-adv-x="1394" 
d="M784 -23q-147 0 -275.5 54t-220 147.5t-144 225t-52.5 282.5q0 199 89.5 361.5t246 255t348.5 92.5q156 0 290.5 -63.5t231.5 -178.5l-141 -123q-151 178 -379 178q-190 0 -319 -117.5t-154 -310.5h641v-178h-643q25 -197 158 -317.5t327 -120.5q120 0 220 48t168 132
l137 -123q-97 -116 -233 -180t-296 -64z" />
    <glyph glyph-name="uni0405" unicode="&#x405;" horiz-adv-x="1040" 
d="M516 -25q-146 0 -267.5 68t-197.5 193l144 118q127 -200 323 -200q109 0 174.5 53.5t65.5 146.5q0 82 -60 142.5t-198 115.5q-188 76 -274.5 175t-86.5 235q0 164 110 268.5t283 104.5q247 0 408 -211l-139 -121q-113 154 -271 154q-92 0 -146 -49t-54 -132
q0 -80 57 -137t191 -111q192 -78 281 -179.5t89 -239.5q0 -173 -121.5 -283.5t-310.5 -110.5z" />
    <glyph glyph-name="uni0406" unicode="&#x406;" horiz-adv-x="538" 
d="M174 0v1372h191v-1372h-191z" />
    <glyph glyph-name="uni0407" unicode="&#x407;" horiz-adv-x="542" 
d="M174 0v1372h191v-1372h-191zM76 1550q-50 0 -83.5 34t-33.5 83q0 51 33.5 85t83.5 34t84.5 -34t34.5 -85q0 -49 -34.5 -83t-84.5 -34zM465 1550q-49 0 -83 34t-34 83q0 51 33.5 85t83.5 34t84.5 -34t34.5 -85q0 -49 -34.5 -83t-84.5 -34z" />
    <glyph glyph-name="uni0408" unicode="&#x408;" horiz-adv-x="923" 
d="M360 -23q-229 0 -340 195l144 119q76 -135 198 -135q94 0 150.5 70t56.5 188v780h-385v178h576v-956q0 -196 -110.5 -317.5t-289.5 -121.5z" />
    <glyph glyph-name="uni0409" unicode="&#x409;" horiz-adv-x="1902" 
d="M139 -12q-56 0 -98 10v190q46 -12 78 -12q83 0 126.5 62.5t43.5 183.5v950h885v-504h163q211 0 347.5 -121.5t136.5 -310.5t-136.5 -312.5t-345.5 -123.5h-356v1194h-504v-770q0 -217 -86 -326.5t-254 -109.5zM1174 166h163q131 0 212 75t81 193q0 117 -80.5 186.5
t-212.5 69.5h-163v-524z" />
    <glyph glyph-name="uni040A" unicode="&#x40a;" horiz-adv-x="1961" 
d="M174 0v1372h191v-543h677v543h191v-545h172q207 0 341 -115.5t134 -295.5t-134 -298t-339 -118h-365v649h-677v-649h-191zM1233 178h172q128 0 206.5 64.5t78.5 171.5t-78.5 171t-206.5 64h-172v-471z" />
    <glyph glyph-name="uni040B" unicode="&#x40b;" horiz-adv-x="1415" 
d="M410 0v1194h-379v178h1003v-178h-434v-397q136 61 279 61q185 0 299 -121.5t114 -314.5v-422h-190v420q0 120 -65 190t-179 70q-120 0 -258 -62v-618h-190z" />
    <glyph glyph-name="uni040C" unicode="&#x40c;" horiz-adv-x="1153" 
d="M174 0v1372h191v-627l520 627h229l-547 -657l576 -715h-242l-536 666v-666h-191zM629 1466l-103 74l222 322l131 -99z" />
    <glyph glyph-name="uni040E" unicode="&#x40e;" horiz-adv-x="1130" 
d="M311 0l152 354l-422 1018h207l321 -774l332 774h199l-592 -1372h-197zM575 1491q-124 0 -200 77.5t-76 205.5h152q0 -69 34 -109.5t90 -40.5q55 0 89 41t34 109h152q0 -128 -75.5 -205.5t-199.5 -77.5z" />
    <glyph glyph-name="uni040F" unicode="&#x40f;" horiz-adv-x="1349" 
d="M580 -311v311h-406v1372h191v-1194h620v1194h191v-1372h-406v-311h-190z" />
    <glyph glyph-name="uni0410" unicode="&#x410;" horiz-adv-x="1245" 
d="M51 0l535 1409h71l537 -1409h-203l-114 313h-508l-115 -313h-203zM434 492h377l-188 516z" />
    <glyph glyph-name="uni0411" unicode="&#x411;" horiz-adv-x="1114" 
d="M174 0v1372h729v-178h-538v-363h163q212 0 348 -116.5t136 -296.5q0 -182 -135.5 -300t-344.5 -118h-358zM365 178h163q133 0 213 65t80 175q0 107 -80.5 171t-212.5 64h-163v-475z" />
    <glyph glyph-name="uni0412" unicode="&#x412;" horiz-adv-x="1140" 
d="M174 0v1372h340q193 0 317.5 -104.5t124.5 -263.5q0 -89 -44 -162t-126 -119q113 -44 177.5 -132t64.5 -200q0 -169 -135 -280t-344 -111h-375zM365 178h184q131 0 210 59.5t79 161.5q0 101 -79 160t-210 59h-184v-440zM365 797h149q116 0 184 53t68 145t-68.5 145.5
t-183.5 53.5h-149v-397z" />
    <glyph glyph-name="uni0413" unicode="&#x413;" horiz-adv-x="983" 
d="M174 0v1372h737v-178h-546v-1194h-191z" />
    <glyph glyph-name="uni0414" unicode="&#x414;" horiz-adv-x="1372" 
d="M41 -311v489q105 0 166 158t61 432v604h875v-1194h168v-489h-191v311h-889v-311h-190zM334 178h618v1016h-493v-422q0 -222 -29.5 -362t-95.5 -232z" />
    <glyph glyph-name="uni0415" unicode="&#x415;" horiz-adv-x="1038" 
d="M174 0v1372h731v-178h-540v-397h409v-179h-409v-440h550v-178h-741z" />
    <glyph glyph-name="uni0416" unicode="&#x416;" horiz-adv-x="1714" 
d="M10 0l555 715l-528 657h221l504 -629v629h190v-629l502 629h223l-528 -657l555 -715h-236l-516 664v-664h-190v664l-516 -664h-236z" />
    <glyph glyph-name="uni0417" unicode="&#x417;" horiz-adv-x="1085" 
d="M524 -23q-153 0 -273.5 73t-189.5 208l154 104q98 -206 307 -206q118 0 189 61.5t71 165.5q0 114 -86 177t-239 63h-117v178h111q128 0 203 58.5t75 158.5q0 90 -61 144.5t-160 54.5q-156 0 -248 -154l-137 108q68 107 172.5 165.5t230.5 58.5q172 0 283 -101t111 -256
q0 -101 -50 -182t-139 -133q112 -47 177 -138t65 -212q0 -172 -127 -284t-322 -112z" />
    <glyph glyph-name="uni0418" unicode="&#x418;" horiz-adv-x="1482" 
d="M174 -37v1409h191v-1003l874 1040h70v-1409h-191v1004l-874 -1041h-70z" />
    <glyph glyph-name="uni0419" unicode="&#x419;" horiz-adv-x="1482" 
d="M174 -37v1409h191v-1003l874 1040h70v-1409h-191v1004l-874 -1041h-70zM752 1491q-124 0 -200.5 77.5t-76.5 205.5h152q0 -68 34.5 -109t90.5 -41q55 0 88.5 41t33.5 109h152q0 -129 -75.5 -206t-198.5 -77z" />
    <glyph glyph-name="uni041A" unicode="&#x41a;" horiz-adv-x="1153" 
d="M174 0v1372h191v-627l520 627h229l-547 -657l576 -715h-242l-536 666v-666h-191z" />
    <glyph glyph-name="uni041B" unicode="&#x41b;" horiz-adv-x="1347" 
d="M139 -12q-56 0 -98 10v190q54 -14 78 -14q83 0 126.5 63.5t43.5 184.5v950h885v-1372h-191v1194h-504v-770q0 -217 -86 -326.5t-254 -109.5z" />
    <glyph glyph-name="uni041C" unicode="&#x41c;" horiz-adv-x="1681" 
d="M174 0v1409h70l596 -823l598 823h69v-1409h-190v930l-445 -606h-65l-442 606v-930h-191z" />
    <glyph glyph-name="uni041D" unicode="&#x41d;" horiz-adv-x="1406" 
d="M174 0v1372h191v-590h677v590h191v-1372h-191v604h-677v-604h-191z" />
    <glyph glyph-name="uni041E" unicode="&#x41e;" horiz-adv-x="1572" 
d="M788 -23q-143 0 -272 55.5t-222 150.5t-147.5 226t-54.5 277q0 145 54.5 276t147 226t222 151t272.5 56q142 0 270.5 -55.5t221 -150.5t147 -226t54.5 -277q0 -144 -54.5 -275t-147 -226.5t-221 -151.5t-270.5 -56zM786 164q211 0 351.5 148.5t140.5 373.5
q0 224 -140.5 373t-351.5 149q-212 0 -351.5 -148.5t-139.5 -373.5t139.5 -373.5t351.5 -148.5z" />
    <glyph glyph-name="uni041F" unicode="&#x41f;" horiz-adv-x="1370" 
d="M174 0v1372h1022v-1372h-190v1194h-641v-1194h-191z" />
    <glyph glyph-name="uni0420" unicode="&#x420;" horiz-adv-x="1103" 
d="M174 0v1372h354q212 0 348 -120t136 -308q0 -187 -135.5 -308.5t-344.5 -121.5h-167v-514h-191zM365 692h163q133 0 213 68t80 184q0 114 -80.5 182t-212.5 68h-163v-502z" />
    <glyph glyph-name="uni0421" unicode="&#x421;" horiz-adv-x="1394" 
d="M784 -23q-195 0 -353.5 91.5t-248.5 252t-90 357.5q0 199 93 364t252.5 259t350.5 94q151 0 285 -61.5t232 -172.5l-138 -129q-72 85 -171.5 130.5t-211.5 45.5q-213 0 -351 -147t-138 -373q0 -228 141 -376t359 -148q117 0 217 47t168 131l133 -125
q-98 -115 -233.5 -177.5t-295.5 -62.5z" />
    <glyph glyph-name="uni0422" unicode="&#x422;" horiz-adv-x="1167" 
d="M489 0v1194h-438v178h1065v-178h-436v-1194h-191z" />
    <glyph glyph-name="uni0423" unicode="&#x423;" horiz-adv-x="1130" 
d="M311 0l152 354l-422 1018h207l321 -774l332 774h199l-592 -1372h-197z" />
    <glyph glyph-name="uni0424" unicode="&#x424;" horiz-adv-x="1624" 
d="M717 -106v184q-180 0 -325.5 79.5t-227.5 218.5t-82 310q0 172 82 311t227.5 218t325.5 79v185h190v-185q180 0 325.5 -79t227.5 -218t82 -311q0 -171 -82 -310t-227.5 -218.5t-325.5 -79.5v-184h-190zM717 256v860q-190 0 -311 -121.5t-121 -308.5t121 -308.5
t311 -121.5zM907 256q190 0 311 121.5t121 308.5t-121 308.5t-311 121.5v-860z" />
    <glyph glyph-name="uni0425" unicode="&#x425;" horiz-adv-x="1204" 
d="M61 0l428 690l-397 682h223l301 -526l312 526h209l-412 -674l418 -698h-223l-320 543l-328 -543h-211z" />
    <glyph glyph-name="uni0426" unicode="&#x426;" horiz-adv-x="1380" 
d="M1139 -311v311h-965v1372h191v-1194h620v1194h191v-1194h153v-489h-190z" />
    <glyph glyph-name="uni0427" unicode="&#x427;" horiz-adv-x="1200" 
d="M836 0v502q-133 -62 -273 -62q-186 0 -303 120.5t-117 311.5v500h191v-498q0 -116 67.5 -186t182.5 -70q119 0 252 62v692h190v-1372h-190z" />
    <glyph glyph-name="uni0428" unicode="&#x428;" horiz-adv-x="2082" 
d="M174 0v1372h191v-1194h581v1194h191v-1194h581v1194h191v-1372h-1735z" />
    <glyph glyph-name="uni0429" unicode="&#x429;" horiz-adv-x="2111" 
d="M1870 -311v311h-1696v1372h191v-1194h581v1194h191v-1194h581v1194h191v-1194h151v-489h-190z" />
    <glyph glyph-name="uni042A" unicode="&#x42a;" horiz-adv-x="1148" 
d="M229 0v1194h-219v178h410v-504h166q211 0 346 -121.5t135 -310.5t-135.5 -312.5t-345.5 -123.5h-357zM420 178h166q131 0 211 70t80 186t-80 186t-211 70h-166v-512z" />
    <glyph glyph-name="uni042B" unicode="&#x42b;" horiz-adv-x="1538" 
d="M174 0v1372h191v-504h147q211 0 347 -121.5t136 -310.5t-136 -312.5t-345 -123.5h-340zM365 178h147q132 0 212.5 69.5t80.5 186.5t-80.5 186.5t-212.5 69.5h-147v-512zM1174 0v1372h190v-1372h-190z" />
    <glyph glyph-name="uni042C" unicode="&#x42c;" horiz-adv-x="1093" 
d="M174 0v1372h191v-504h163q212 0 348 -121.5t136 -310.5t-136 -312.5t-346 -123.5h-356zM365 178h163q132 0 212.5 69.5t80.5 186.5t-80.5 186.5t-212.5 69.5h-163v-512z" />
    <glyph glyph-name="uni042D" unicode="&#x42d;" horiz-adv-x="1390" 
d="M612 -23q-160 0 -296.5 64t-233.5 180l135 127q153 -184 393 -184q191 0 322.5 120.5t157.5 317.5h-601v178h598q-26 193 -152.5 310.5t-311.5 117.5q-113 0 -211.5 -46.5t-171.5 -131.5l-140 123q97 114 234 178t293 64q190 0 343.5 -92t240.5 -254.5t87 -362.5
q0 -151 -52.5 -283t-143 -225.5t-218 -147t-272.5 -53.5z" />
    <glyph glyph-name="uni042E" unicode="&#x42e;" horiz-adv-x="1976" 
d="M1208 -23q-128 0 -245.5 48t-205.5 131.5t-146 199.5t-72 248h-174v-604h-191v1372h191v-590h176q20 172 113.5 312.5t239.5 220.5t314 80q138 0 263.5 -55.5t215.5 -150.5t143.5 -226t53.5 -277q0 -144 -53.5 -275.5t-143.5 -226.5t-215.5 -151t-263.5 -56zM1208 164
q203 0 338 148.5t135 373.5q0 224 -135 373t-338 149t-338 -149t-135 -373t135 -373t338 -149z" />
    <glyph glyph-name="uni042F" unicode="&#x42f;" horiz-adv-x="1157" 
d="M82 0l338 573q-123 46 -195.5 148t-72.5 233q0 183 134 300.5t343 117.5h354v-1372h-190v541h-172l-318 -541h-221zM633 719h160v475h-160q-131 0 -211 -65.5t-80 -172.5q0 -108 80 -172.5t211 -64.5z" />
    <glyph glyph-name="uni0430" unicode="&#x430;" horiz-adv-x="1001" 
d="M401 -23q-145 0 -237 83t-92 212q0 134 104 222t262 88q140 0 264 -68v47q0 109 -64 176.5t-167 67.5q-135 0 -221 -117l-119 117q142 160 350 160q174 0 286 -112t112 -284v-569h-177v125q-118 -148 -301 -148zM438 127q109 0 182 64.5t80 168.5q-121 82 -251 82
q-92 0 -146.5 -43.5t-54.5 -115.5t51 -114t139 -42z" />
    <glyph glyph-name="uni0431" unicode="&#x431;" horiz-adv-x="1140" 
d="M575 -23q-214 0 -343.5 156t-129.5 414v121q0 332 114 499.5t359 192.5q137 14 204 38.5t112 69.5l88 -133q-49 -64 -123.5 -95.5t-234.5 -45.5q-179 -19 -257.5 -124.5t-82.5 -334.5q55 86 143 134.5t194 48.5q186 0 313.5 -134t127.5 -329q0 -203 -139.5 -340.5
t-344.5 -137.5zM586 143q126 0 208.5 87t82.5 219t-82.5 217.5t-208.5 85.5q-128 0 -214.5 -86t-86.5 -217q0 -133 86.5 -219.5t214.5 -86.5z" />
    <glyph glyph-name="uni0432" unicode="&#x432;" horiz-adv-x="958" 
d="M133 0v942h361q146 0 238.5 -72t92.5 -186q0 -123 -108 -192q71 -32 110 -90.5t39 -133.5q0 -117 -94 -192.5t-240 -75.5h-399zM309 150h219q74 0 118 35.5t44 95.5q0 57 -44 91t-118 34h-219v-256zM309 555h183q71 0 114 33t43 88q0 54 -43 85.5t-114 31.5h-183v-238z
" />
    <glyph glyph-name="uni0433" unicode="&#x433;" horiz-adv-x="753" 
d="M133 0v942h580v-160h-404v-782h-176z" />
    <glyph glyph-name="uni0434" unicode="&#x434;" horiz-adv-x="1073" 
d="M41 -266v426q80 0 121 94t41 317v371h692v-782h127v-426h-176v266h-629v-266h-176zM297 160h422v622h-340v-215q0 -155 -19.5 -250t-62.5 -157z" />
    <glyph glyph-name="uni0435" unicode="&#x435;" horiz-adv-x="1089" 
d="M573 -23q-216 0 -353.5 139.5t-137.5 354.5q0 213 134 353.5t339 140.5q195 0 324 -129.5t129 -331.5q0 -30 -7 -84h-735q15 -128 100 -202.5t218 -74.5q176 0 290 138l111 -105q-73 -96 -180.5 -147.5t-231.5 -51.5zM270 565h553q-19 116 -91 179t-183 63
q-112 0 -185.5 -64.5t-93.5 -177.5z" />
    <glyph glyph-name="uni0436" unicode="&#x436;" horiz-adv-x="1351" 
d="M10 0l393 481l-366 461h201l350 -444v444h176v-444l350 444h201l-367 -461l393 -481h-221l-356 444v-444h-176v444l-357 -444h-221z" />
    <glyph glyph-name="uni0437" unicode="&#x437;" horiz-adv-x="919" 
d="M451 -23q-122 0 -226.5 49t-173.5 138l119 115q111 -142 276 -142q93 0 149 36t56 101q0 60 -58.5 92.5t-164.5 32.5h-111v160h103q89 0 140.5 35t51.5 92q0 55 -46.5 87t-123.5 32q-136 0 -231 -109l-111 113q69 73 162.5 114.5t196.5 41.5q142 0 235.5 -76t93.5 -195
q0 -123 -110 -200q69 -29 109 -90.5t40 -137.5q0 -126 -105.5 -207.5t-270.5 -81.5z" />
    <glyph glyph-name="uni0438" unicode="&#x438;" horiz-adv-x="1073" 
d="M133 -20v962h176v-608l568 629h63v-963h-176v608l-565 -628h-66z" />
    <glyph glyph-name="uni0439" unicode="&#x439;" horiz-adv-x="1073" 
d="M133 -20v962h176v-608l568 629h63v-963h-176v608l-565 -628h-66zM543 1061q-119 0 -191.5 77t-72.5 205h151q0 -68 31.5 -108.5t81.5 -40.5q52 0 83 40.5t31 108.5h152q0 -129 -73 -205.5t-193 -76.5z" />
    <glyph glyph-name="uni043A" unicode="&#x43a;" horiz-adv-x="931" 
d="M133 0v942h176v-446l379 446h207l-393 -457l420 -485h-228l-385 446v-446h-176z" />
    <glyph glyph-name="uni043B" unicode="&#x43b;" horiz-adv-x="1036" 
d="M106 -12q-41 0 -65 6v178q28 -8 53 -8q56 0 82.5 41.5t26.5 130.5v606h700v-942h-176v782h-348v-444q0 -350 -273 -350z" />
    <glyph glyph-name="uni043C" unicode="&#x43c;" horiz-adv-x="1259" 
d="M133 0v963h64l434 -533l432 533h63v-963h-176v565l-293 -358h-55l-293 358v-565h-176z" />
    <glyph glyph-name="uni043D" unicode="&#x43d;" horiz-adv-x="1062" 
d="M133 0v942h176v-387h445v387h176v-942h-176v395h-445v-395h-176z" />
    <glyph glyph-name="uni043E" unicode="&#x43e;" horiz-adv-x="1140" 
d="M571 -23q-134 0 -246.5 66t-177.5 179.5t-65 248.5q0 134 65 247.5t177.5 180t246.5 66.5q133 0 245.5 -66t177.5 -179.5t65 -248.5q0 -204 -143 -349t-345 -145zM571 143q133 0 219.5 92.5t86.5 235.5t-86.5 235.5t-219.5 92.5t-220 -92.5t-87 -235.5t87 -235.5
t220 -92.5z" />
    <glyph glyph-name="uni043F" unicode="&#x43f;" horiz-adv-x="1042" 
d="M133 0v942h776v-942h-176v782h-424v-782h-176z" />
    <glyph glyph-name="uni0440" unicode="&#x440;" horiz-adv-x="1165" 
d="M598 143q131 0 220 93t89 235t-89 235t-220 93q-132 0 -218.5 -93.5t-86.5 -234.5q0 -142 86.5 -235t218.5 -93zM133 -512v1454h172v-141q57 77 141 120.5t185 43.5q189 0 320.5 -143.5t131.5 -350.5q0 -206 -132.5 -350t-323.5 -144q-95 0 -177.5 39t-140.5 109v-637
h-176z" />
    <glyph glyph-name="uni0441" unicode="&#x441;" horiz-adv-x="1032" 
d="M571 -23q-135 0 -247.5 65t-177 178t-64.5 249q0 135 65 249t177.5 180.5t246.5 66.5q117 0 220.5 -51.5t173.5 -143.5l-125 -111q-106 140 -269 140q-133 0 -220 -93t-87 -233q0 -143 89 -236.5t225 -93.5q165 0 274 140l119 -107q-69 -92 -174 -145.5t-226 -53.5z" />
    <glyph glyph-name="uni0442" unicode="&#x442;" horiz-adv-x="833" 
d="M328 0v782h-287v160h752v-160h-289v-782h-176z" />
    <glyph glyph-name="uni0443" unicode="&#x443;" horiz-adv-x="950" 
d="M197 -512l180 483l-346 971h190l252 -717l266 717h181l-543 -1454h-180z" />
    <glyph glyph-name="uni0444" unicode="&#x444;" horiz-adv-x="1294" 
d="M559 137v668q-129 0 -212 -94.5t-83 -239.5t83 -239.5t212 -94.5zM559 -512v489q-130 0 -240 66.5t-173.5 180t-63.5 247.5q0 205 139.5 349.5t337.5 144.5v489h176v-489q199 0 338 -144t139 -350q0 -134 -63 -247.5t-173 -180t-241 -66.5v-489h-176zM735 137
q129 0 212 94.5t83 239.5t-83 239.5t-212 94.5v-668z" />
    <glyph glyph-name="uni0445" unicode="&#x445;" horiz-adv-x="915" 
d="M41 0l307 477l-299 465h209l205 -330l205 330h196l-299 -457l309 -485h-206l-215 346l-215 -346h-197z" />
    <glyph glyph-name="uni0446" unicode="&#x446;" horiz-adv-x="1052" 
d="M836 -266v266h-703v942h176v-782h404v782h176v-782h123v-426h-176z" />
    <glyph glyph-name="uni0447" unicode="&#x447;" horiz-adv-x="968" 
d="M659 0v293q-108 -29 -210 -29q-158 0 -252.5 90t-94.5 240v348h177v-346q0 -79 51.5 -125.5t144.5 -46.5q63 0 184 27v491h177v-942h-177z" />
    <glyph glyph-name="uni0448" unicode="&#x448;" horiz-adv-x="1538" 
d="M133 0v942h176v-782h373v782h176v-782h371v782h176v-942h-1272z" />
    <glyph glyph-name="uni0449" unicode="&#x449;" horiz-adv-x="1568" 
d="M1352 -266v266h-1219v942h176v-782h373v782h176v-782h371v782h176v-782h123v-426h-176z" />
    <glyph glyph-name="uni044A" unicode="&#x44a;" horiz-adv-x="980" 
d="M201 0v782h-191v160h367v-319h184q160 0 259.5 -87t99.5 -223q0 -138 -97.5 -225.5t-257.5 -87.5h-364zM377 160h184q82 0 132 41t50 110q0 70 -50 111t-132 41h-184v-303z" />
    <glyph glyph-name="uni044B" unicode="&#x44b;" horiz-adv-x="1259" 
d="M133 0v942h176v-319h156q157 0 254.5 -87.5t97.5 -224.5t-95.5 -224t-252.5 -87h-336zM309 160h156q79 0 127.5 40.5t48.5 110.5t-48.5 111t-127.5 41h-156v-303zM950 0v942h176v-942h-176z" />
    <glyph glyph-name="uni044C" unicode="&#x44c;" horiz-adv-x="913" 
d="M133 0v942h176v-319h185q161 0 259.5 -87t98.5 -223q0 -138 -96.5 -225.5t-255.5 -87.5h-367zM309 160h187q82 0 131 40t49 109q0 70 -49 112t-131 42h-187v-303z" />
    <glyph glyph-name="uni044D" unicode="&#x44d;" horiz-adv-x="1032" 
d="M467 -23q-121 0 -228 52t-178 143l123 115q114 -144 279 -144q116 0 194.5 67.5t100.5 182.5h-412v160h412q-22 115 -100 180.5t-189 65.5q-76 0 -146 -35t-122 -100l-123 110q72 91 176.5 141t220.5 50q201 0 338 -142.5t137 -351.5q0 -138 -63 -251.5t-174 -178
t-246 -64.5z" />
    <glyph glyph-name="uni044E" unicode="&#x44e;" horiz-adv-x="1472" 
d="M913 -23q-179 0 -312 119t-159 299h-133v-395h-176v942h176v-387h133q28 175 161.5 292.5t309.5 117.5q198 0 338 -144.5t140 -349.5q0 -134 -64 -247.5t-174 -180t-240 -66.5zM913 143q128 0 209.5 92.5t81.5 237.5q0 141 -82 233.5t-209 92.5q-129 0 -213 -92.5
t-84 -233.5q0 -144 84 -237t213 -93z" />
    <glyph glyph-name="uni044F" unicode="&#x44f;" horiz-adv-x="974" 
d="M92 0l230 356q-94 34 -147.5 108.5t-53.5 172.5q0 135 97 220t255 85h369v-942h-176v330h-158l-209 -330h-207zM479 489h187v293h-187q-84 0 -133 -39t-49 -108q0 -67 50 -106.5t132 -39.5z" />
    <glyph glyph-name="uni0451" unicode="&#x451;" horiz-adv-x="1089" 
d="M573 -23q-216 0 -353.5 139.5t-137.5 354.5q0 213 134 353.5t339 140.5q195 0 324 -129.5t129 -331.5q0 -30 -7 -84h-735q15 -128 100 -202.5t218 -74.5q176 0 290 138l111 -105q-73 -96 -180.5 -147.5t-231.5 -51.5zM270 565h553q-19 116 -91 179t-183 63
q-112 0 -185.5 -64.5t-93.5 -177.5zM358 1120q-49 0 -82.5 33.5t-33.5 83.5q0 51 33 85t83 34t84.5 -34t34.5 -85q0 -49 -34.5 -83t-84.5 -34zM748 1120q-50 0 -83.5 34t-33.5 83q0 51 33.5 85t83.5 34t84 -34t34 -85q0 -49 -34 -83t-84 -34z" />
    <glyph glyph-name="uni0452" unicode="&#x452;" horiz-adv-x="1073" 
d="M664 -512q-128 0 -209 90l90 137q52 -61 110 -61q55 0 87 40.5t32 108.5v641q0 117 -61 187.5t-162 70.5t-163 -72t-62 -188v-442h-176v1049h-130v159h130v246h176v-246h342v-159h-342v-330q107 143 274 143q152 0 251 -109.5t99 -275.5v-680q0 -137 -79.5 -223
t-206.5 -86z" />
    <glyph glyph-name="uni0453" unicode="&#x453;" horiz-adv-x="753" 
d="M133 0v942h580v-160h-404v-782h-176zM434 1036l-102 74l221 322l131 -99z" />
    <glyph glyph-name="uni0454" unicode="&#x454;" horiz-adv-x="1032" 
d="M573 -23q-207 0 -349 142.5t-142 351.5q0 135 64 248.5t176 179.5t247 66q116 0 219 -52t173 -143l-125 -111q-106 140 -267 140q-114 0 -193.5 -68t-101.5 -178h431v-160h-433q22 -113 104.5 -181.5t201.5 -68.5q165 0 274 140l119 -107q-70 -93 -174.5 -146t-223.5 -53
z" />
    <glyph glyph-name="uni0455" unicode="&#x455;" horiz-adv-x="915" 
d="M463 -23q-126 0 -232.5 49.5t-179.5 143.5l117 121q122 -154 303 -154q83 0 134.5 32.5t51.5 84.5q0 49 -45.5 79.5t-152.5 57.5q-181 44 -263.5 115t-82.5 182q0 126 93.5 201.5t248.5 75.5q228 0 372 -162l-112 -119q-107 121 -266 121q-74 0 -117 -28.5t-43 -74.5
q0 -49 44 -78.5t150 -56.5q183 -42 267 -115t84 -184q0 -130 -102.5 -210.5t-268.5 -80.5z" />
    <glyph glyph-name="uni0456" unicode="&#x456;" horiz-adv-x="440" 
d="M131 0v942h176v-942h-176zM219 1120q-49 0 -83 34t-34 83q0 51 34 85t85 34q48 0 82.5 -34.5t34.5 -84.5q0 -49 -34.5 -83t-84.5 -34z" />
    <glyph glyph-name="uni0457" unicode="&#x457;" horiz-adv-x="452" 
d="M137 0v942h176v-942h-176zM61 1122q-47 0 -79.5 34.5t-32.5 82.5t32.5 81.5t79.5 33.5t80 -34t33 -81q0 -48 -33 -82.5t-80 -34.5zM389 1122q-45 0 -77.5 34.5t-32.5 82.5t32.5 81.5t81.5 33.5q46 0 78.5 -34t32.5 -81q0 -48 -33 -82.5t-82 -34.5z" />
    <glyph glyph-name="uni0458" unicode="&#x458;" horiz-adv-x="442" 
d="M39 -512q-112 0 -193 78l86 143q50 -55 99 -55q50 0 76 37t26 100v1151h176v-1157q0 -133 -73.5 -215t-196.5 -82zM221 1120q-49 0 -83 34t-34 83q0 51 34 85t85 34q48 0 82.5 -34.5t34.5 -84.5q0 -49 -34.5 -83t-84.5 -34z" />
    <glyph glyph-name="uni0459" unicode="&#x459;" horiz-adv-x="1505" 
d="M106 -12q-41 0 -65 6v178q28 -8 53 -8q56 0 82.5 41.5t26.5 130.5v606h698v-319h184q160 0 259.5 -87t99.5 -223q0 -138 -97 -225.5t-257 -87.5h-365v782h-346v-444q0 -350 -273 -350zM901 147h184q81 0 132 47t51 117t-50 111t-133 41h-184v-316z" />
    <glyph glyph-name="uni045A" unicode="&#x45a;" horiz-adv-x="1533" 
d="M133 0v942h176v-356h445v356h176v-356h188q160 0 257.5 -82t97.5 -211t-97.5 -211t-255.5 -82h-366v426h-445v-426h-176zM930 160h190q79 0 127.5 36t48.5 97q0 62 -48.5 99.5t-127.5 37.5h-190v-270z" />
    <glyph glyph-name="uni045B" unicode="&#x45b;" horiz-adv-x="1073" 
d="M150 0v1049h-130v159h130v246h176v-246h342v-159h-342v-330q107 143 274 143q152 0 251 -109.5t99 -275.5v-477h-176v444q0 117 -61 187.5t-162 70.5t-163 -72t-62 -188v-442h-176z" />
    <glyph glyph-name="uni045C" unicode="&#x45c;" horiz-adv-x="931" 
d="M133 0v942h176v-446l379 446h207l-393 -457l420 -485h-228l-385 446v-446h-176zM485 1036l-102 74l221 322l131 -99z" />
    <glyph glyph-name="uni045E" unicode="&#x45e;" horiz-adv-x="950" 
d="M197 -512l180 483l-346 971h190l252 -717l266 717h181l-543 -1454h-180zM475 1061q-119 0 -191.5 77t-72.5 205h151q0 -68 31.5 -108.5t81.5 -40.5q52 0 83.5 40.5t31.5 108.5h151q0 -129 -73 -205.5t-193 -76.5z" />
    <glyph glyph-name="uni045F" unicode="&#x45f;" horiz-adv-x="1026" 
d="M424 -266v266h-291v942h176v-782h408v782h176v-942h-293v-266h-176z" />
    <glyph glyph-name="uni0490" unicode="&#x490;" horiz-adv-x="983" 
d="M174 0v1372h547v215h190v-393h-546v-1194h-191z" />
    <glyph glyph-name="uni0491" unicode="&#x491;" horiz-adv-x="751" 
d="M133 0v942h402v172h176v-332h-402v-782h-176z" />
    <glyph glyph-name="Wgrave" unicode="&#x1e80;" horiz-adv-x="1961" 
d="M530 -37l-479 1409h201l326 -971l368 971h70l368 -971l326 971h201l-481 -1409h-70l-379 1012l-381 -1012h-70zM952 1466l-252 297l131 99l222 -322z" />
    <glyph glyph-name="wgrave" unicode="&#x1e81;" horiz-adv-x="1404" 
d="M367 -37l-336 979h176l209 -606l250 627h71l252 -627l209 606h176l-336 -979h-69l-267 676l-266 -676h-69zM680 1036l-252 297l131 99l221 -322z" />
    <glyph glyph-name="Wacute" unicode="&#x1e82;" horiz-adv-x="1961" 
d="M530 -37l-479 1409h201l326 -971l368 971h70l368 -971l326 971h201l-481 -1409h-70l-379 1012l-381 -1012h-70zM985 1466l-102 74l221 322l131 -99z" />
    <glyph glyph-name="wacute" unicode="&#x1e83;" horiz-adv-x="1404" 
d="M367 -37l-336 979h176l209 -606l250 627h71l252 -627l209 606h176l-336 -979h-69l-267 676l-266 -676h-69zM713 1036l-103 74l221 322l132 -99z" />
    <glyph glyph-name="Wdieresis" unicode="&#x1e84;" horiz-adv-x="1961" 
d="M530 -37l-479 1409h201l326 -971l368 971h70l368 -971l326 971h201l-481 -1409h-70l-379 1012l-381 -1012h-70zM778 1550q-49 0 -82.5 33.5t-33.5 83.5q0 51 33 85t83 34t84.5 -34t34.5 -85q0 -49 -34.5 -83t-84.5 -34zM1167 1550q-49 0 -82.5 33.5t-33.5 83.5
q0 51 33 85t83 34t84.5 -34t34.5 -85q0 -49 -34.5 -83t-84.5 -34z" />
    <glyph glyph-name="wdieresis" unicode="&#x1e85;" horiz-adv-x="1404" 
d="M367 -37l-336 979h176l209 -606l250 627h71l252 -627l209 606h176l-336 -979h-69l-267 676l-266 -676h-69zM508 1120q-50 0 -83.5 34t-33.5 83q0 51 33.5 85t83.5 34t84.5 -34t34.5 -85q0 -49 -34.5 -83t-84.5 -34zM897 1120q-49 0 -83 34t-34 83q0 51 33.5 85t83.5 34
t84.5 -34t34.5 -85q0 -49 -34.5 -83t-84.5 -34z" />
    <glyph glyph-name="uni1E9E" unicode="&#x1e9e;" horiz-adv-x="1359" 
d="M815 -23q-135 0 -209 48l72 165q53 -34 143 -34q122 0 194 69t72 181q0 118 -78.5 187t-209.5 69h-121v133l240 399h-295q-121 0 -195 -77t-74 -202v-915h-190v911q0 201 129 331t330 130h544v-69l-286 -478q178 -22 287.5 -136t109.5 -281q0 -185 -131 -308t-332 -123z
" />
    <glyph glyph-name="Ygrave" unicode="&#x1ef2;" horiz-adv-x="1083" 
d="M440 0v520l-420 852h211l314 -639l321 639h197l-432 -852v-520h-191zM524 1466l-252 297l131 99l222 -322z" />
    <glyph glyph-name="ygrave" unicode="&#x1ef3;" horiz-adv-x="950" 
d="M197 -512l180 483l-346 971h190l252 -717l266 717h181l-543 -1454h-180zM455 1036l-252 297l131 99l221 -322z" />
    <glyph glyph-name="endash" unicode="&#x2013;" horiz-adv-x="993" 
d="M41 455v155h911v-155h-911z" />
    <glyph glyph-name="emdash" unicode="&#x2014;" horiz-adv-x="1443" 
d="M41 455v155h1362v-155h-1362z" />
    <glyph glyph-name="quoteleft" unicode="&#x2018;" horiz-adv-x="385" 
d="M240 975l-168 39l123 399l118 -29z" />
    <glyph glyph-name="quoteright" unicode="&#x2019;" horiz-adv-x="385" 
d="M188 975l-116 26l73 412l168 -39z" />
    <glyph glyph-name="quotesinglbase" unicode="&#x201a;" horiz-adv-x="385" 
d="M188 -272l-116 26l73 412l168 -39z" />
    <glyph glyph-name="quotedblleft" unicode="&#x201c;" horiz-adv-x="659" 
d="M238 973l-166 41l123 397l116 -27zM512 971l-166 39l123 399l119 -29z" />
    <glyph glyph-name="quotedblright" unicode="&#x201d;" horiz-adv-x="659" 
d="M188 975l-116 26l73 412l168 -39zM465 973l-119 26l76 412l166 -41z" />
    <glyph glyph-name="quotedblbase" unicode="&#x201e;" horiz-adv-x="659" 
d="M188 -272l-116 26l73 412l168 -39zM465 -274l-119 26l76 412l166 -41z" />
    <glyph glyph-name="dagger" unicode="&#x2020;" horiz-adv-x="1009" 
d="M430 -512l-20 1276h-328v178h328v430h190v-430h328v-178h-328l-20 -1276h-150z" />
    <glyph glyph-name="daggerdbl" unicode="&#x2021;" horiz-adv-x="1009" 
d="M430 -512l-8 512h-340v178h338l-10 586h-328v178h328v430h190v-430h328v-178h-328l-8 -586h336v-178h-338l-10 -512h-150z" />
    <glyph glyph-name="bullet" unicode="&#x2022;" horiz-adv-x="714" 
d="M358 373q-64 0 -108.5 44t-44.5 107q0 65 44.5 109.5t108.5 44.5q63 0 107.5 -45t44.5 -109q0 -63 -44.5 -107t-107.5 -44z" />
    <glyph glyph-name="ellipsis" unicode="&#x2026;" horiz-adv-x="1568" 
d="M256 -12q-52 0 -87.5 35t-35.5 88q0 52 35 87t88 35t88 -35t35 -87q0 -53 -35.5 -88t-87.5 -35zM782 -12q-51 0 -85.5 35.5t-34.5 87.5q0 53 35 87.5t87 34.5q51 0 87 -35t36 -87t-36 -87.5t-89 -35.5zM1311 -12q-52 0 -86.5 35t-34.5 88t34.5 87.5t88.5 34.5
q51 0 87 -35t36 -87t-36 -87.5t-89 -35.5z" />
    <glyph glyph-name="perthousand" unicode="&#x2030;" horiz-adv-x="2359" 
d="M397 0l643 1372h179l-641 -1372h-181zM377 748q-137 0 -231.5 94.5t-94.5 230.5q0 135 94.5 228.5t231.5 93.5t231 -94t94 -230q0 -135 -94.5 -229t-230.5 -94zM377 895q72 0 119 50.5t47 125.5t-47 125.5t-119 50.5t-119 -50.5t-47 -125.5t47 -125.5t119 -50.5z
M1241 -23q-138 0 -232 94.5t-94 231.5q0 135 94.5 228.5t231.5 93.5q135 0 229.5 -93.5t94.5 -228.5q0 -137 -94 -231.5t-230 -94.5zM1241 125q70 0 117 50.5t47 125.5t-47 125.5t-117 50.5q-72 0 -119 -50.5t-47 -125.5t47 -125.5t119 -50.5zM1982 -23q-136 0 -230.5 94.5
t-94.5 231.5q0 135 95 228.5t230 93.5q137 0 231.5 -93.5t94.5 -228.5q0 -137 -95 -231.5t-231 -94.5zM1982 125q72 0 119 50.5t47 125.5t-47 125.5t-119 50.5q-70 0 -117.5 -50.5t-47.5 -125.5t47.5 -125.5t117.5 -50.5z" />
    <glyph glyph-name="guilsinglleft" unicode="&#x2039;" horiz-adv-x="653" 
d="M442 119l-381 393l381 393l109 -106l-279 -287l279 -287z" />
    <glyph glyph-name="guilsinglright" unicode="&#x203a;" horiz-adv-x="653" 
d="M211 119l-109 106l279 287l-279 287l109 106l381 -393z" />
    <glyph glyph-name="fraction" unicode="&#x2044;" horiz-adv-x="229" 
d="M-297 0l643 1372h180l-643 -1372h-180z" />
    <glyph glyph-name="uni2070" unicode="&#x2070;" horiz-adv-x="765" 
d="M383 850q-140 0 -231 114.5t-91 292.5q0 175 91.5 289.5t230.5 114.5q141 0 231.5 -114.5t90.5 -289.5q0 -178 -90.5 -292.5t-231.5 -114.5zM383 995q71 0 114.5 72.5t43.5 189.5q0 116 -44 187.5t-114 71.5t-114 -71.5t-44 -187.5q0 -118 43.5 -190t114.5 -72z" />
    <glyph glyph-name="uni2074" unicode="&#x2074;" horiz-adv-x="688" 
d="M375 872v113h-385v78l454 596h74v-543h98v-131h-98v-113h-143zM178 1116h197v264z" />
    <glyph glyph-name="uni2075" unicode="&#x2075;" horiz-adv-x="718" 
d="M336 850q-101 0 -177.5 46.5t-107.5 127.5l123 82q46 -113 160 -113q63 0 101 37t38 98t-40.5 97.5t-110.5 36.5q-80 0 -140 -54l-61 33l47 397h430v-131h-305l-14 -129q51 15 90 15q117 0 192.5 -75t75.5 -192q0 -121 -85 -198.5t-216 -77.5z" />
    <glyph glyph-name="uni2076" unicode="&#x2076;" horiz-adv-x="684" 
d="M330 850q-128 0 -208.5 79.5t-80.5 209.5q0 147 102 287.5t273 226.5l82 -111q-159 -83 -240 -201q48 25 109 25q108 0 182 -72.5t74 -179.5q0 -115 -84 -189.5t-209 -74.5zM332 981q58 0 95.5 37t37.5 94t-36.5 90t-96.5 33t-96.5 -32.5t-36.5 -88.5q0 -58 37.5 -95.5
t95.5 -37.5z" />
    <glyph glyph-name="uni2077" unicode="&#x2077;" horiz-adv-x="595" 
d="M129 872l279 623h-357v143h555v-69l-309 -697h-168z" />
    <glyph glyph-name="uni2078" unicode="&#x2078;" horiz-adv-x="747" 
d="M373 850q-126 0 -208.5 68.5t-82.5 171.5q0 123 113 192q-82 63 -82 158q0 94 75 157.5t185 63.5t186 -63.5t76 -157.5q0 -45 -23 -86.5t-63 -71.5q117 -72 117 -192q0 -104 -84 -172t-209 -68zM373 981q61 0 98 32.5t37 84.5q0 53 -37 84.5t-98 31.5q-62 0 -97.5 -31
t-35.5 -85q0 -52 36 -84.5t97 -32.5zM373 1339q47 0 75.5 26.5t28.5 68.5t-28.5 69t-75.5 27q-45 0 -74 -27t-29 -69q0 -41 28.5 -68t74.5 -27z" />
    <glyph glyph-name="uni2079" unicode="&#x2079;" horiz-adv-x="681" 
d="M268 858l-82 111q160 83 240 200q-46 -24 -111 -24q-107 0 -180.5 72.5t-73.5 179.5q0 115 83 189.5t210 74.5q128 0 207.5 -79.5t79.5 -209.5q0 -147 -101 -287.5t-272 -226.5zM352 1276q59 0 95 32.5t36 88.5q0 59 -36.5 96t-94.5 37q-60 0 -96.5 -37t-36.5 -94
t36.5 -90t96.5 -33z" />
    <glyph glyph-name="uni2080" unicode="&#x2080;" horiz-adv-x="765" 
d="M383 -268q-140 0 -231 114.5t-91 292.5q0 175 91.5 289.5t230.5 114.5q141 0 231.5 -114.5t90.5 -289.5q0 -178 -90.5 -292.5t-231.5 -114.5zM383 -123q71 0 114.5 72.5t43.5 189.5q0 115 -43.5 186.5t-114.5 71.5t-114.5 -71.5t-43.5 -186.5q0 -118 43.5 -190t114.5 -72
z" />
    <glyph glyph-name="uni2081" unicode="&#x2081;" horiz-adv-x="600" 
d="M287 -246v559l-170 -118l-76 114l334 232h71v-787h-159z" />
    <glyph glyph-name="uni2082" unicode="&#x2082;" horiz-adv-x="739" 
d="M63 -246v64l248 225q98 91 129 135t31 90q0 60 -32.5 95.5t-86.5 35.5q-56 0 -91 -40t-46 -113l-154 39q22 121 100.5 189.5t196.5 68.5q123 0 200 -73t77 -187q0 -75 -42 -140t-155 -163l-94 -82h313v-144h-594z" />
    <glyph glyph-name="uni2083" unicode="&#x2083;" horiz-adv-x="729" 
d="M352 -268q-102 0 -181 46.5t-110 125.5l127 80q48 -109 162 -109q61 0 97 31.5t36 85.5q0 57 -42 88t-119 31h-105v71l193 207h-297v131h514v-69l-203 -226q102 -17 162.5 -81.5t60.5 -157.5q0 -110 -83.5 -182t-211.5 -72z" />
    <glyph glyph-name="uni2084" unicode="&#x2084;" horiz-adv-x="688" 
d="M375 -246v113h-385v78l454 596h74v-543h98v-131h-98v-113h-143zM178 -2h197v264z" />
    <glyph glyph-name="uni2085" unicode="&#x2085;" horiz-adv-x="718" 
d="M336 -268q-101 0 -177.5 46.5t-107.5 127.5l123 82q46 -113 160 -113q63 0 101 37t38 98t-40.5 97t-110.5 36q-81 0 -140 -53l-61 33l47 397h430v-131h-305l-14 -129q47 14 90 14q117 0 192.5 -74.5t75.5 -191.5q0 -121 -85 -198.5t-216 -77.5z" />
    <glyph glyph-name="uni2086" unicode="&#x2086;" horiz-adv-x="684" 
d="M330 -268q-128 0 -208.5 79t-80.5 209q0 147 102 288t273 227l82 -111q-159 -83 -240 -201q48 25 109 25q108 0 182 -72.5t74 -179.5q0 -115 -84 -189.5t-209 -74.5zM332 -137q58 0 95.5 37t37.5 94t-36.5 90t-96.5 33t-96.5 -32.5t-36.5 -88.5q0 -58 37.5 -95.5
t95.5 -37.5z" />
    <glyph glyph-name="uni2087" unicode="&#x2087;" horiz-adv-x="595" 
d="M129 -246l279 623h-357v143h555v-69l-309 -697h-168z" />
    <glyph glyph-name="uni2088" unicode="&#x2088;" horiz-adv-x="747" 
d="M373 -268q-126 0 -208.5 68t-82.5 171q0 61 30 110.5t83 82.5q-82 63 -82 158q0 94 75 157.5t185 63.5t186 -63.5t76 -157.5q0 -45 -23 -86.5t-63 -71.5q54 -33 85.5 -83t31.5 -110q0 -104 -84 -171.5t-209 -67.5zM373 -137q61 0 98 32.5t37 84.5q0 53 -37 84.5t-98 31.5
q-62 0 -97.5 -31t-35.5 -85q0 -52 36 -84.5t97 -32.5zM373 221q47 0 75.5 26t28.5 68t-28.5 69.5t-75.5 27.5q-45 0 -74 -27.5t-29 -69.5q0 -41 28.5 -67.5t74.5 -26.5z" />
    <glyph glyph-name="uni2089" unicode="&#x2089;" horiz-adv-x="681" 
d="M268 -260l-82 110q159 83 240 201q-46 -24 -111 -24q-107 0 -180.5 72.5t-73.5 179.5q0 115 83 189.5t210 74.5q128 0 207.5 -79.5t79.5 -209.5q0 -147 -101 -287.5t-272 -226.5zM352 158q59 0 95 32.5t36 88.5q0 59 -36.5 96t-94.5 37q-60 0 -96.5 -37t-36.5 -94
t36.5 -90t96.5 -33z" />
    <glyph glyph-name="Euro" unicode="&#x20ac;" horiz-adv-x="1253" 
d="M752 -23q-205 0 -354 138t-199 368h-158v146h139v53v53h-139v146h158q50 232 199 373t354 141q258 0 450 -242l-141 -123q-74 94 -145.5 136t-159.5 42q-131 0 -221 -85.5t-127 -241.5h440l-33 -146h-430q-2 -14 -2 -49q0 -39 2 -57h408l-31 -146h-352
q38 -153 129.5 -236t222.5 -83q89 0 161 42t144 136l135 -121q-189 -244 -450 -244z" />
    <glyph glyph-name="uni20B4" unicode="&#x20b4;" horiz-adv-x="1105" 
d="M547 -23q-174 0 -285.5 93.5t-111.5 238.5q0 97 47 172h-95v144h902v-144h-607q-57 -63 -57 -139q0 -87 60.5 -138.5t162.5 -51.5q168 0 258 149l131 -108q-66 -103 -171.5 -159.5t-233.5 -56.5zM102 731v143h586q72 69 72 156q0 86 -58 138.5t-155 52.5
q-163 0 -252 -150l-137 115q63 99 167.5 154t229.5 55q175 0 285 -94t110 -242q0 -105 -55 -185h109v-143h-902z" />
    <glyph glyph-name="uni20BD" unicode="&#x20bd;" horiz-adv-x="1099" 
d="M180 0v266h-139v142h139v108h-139v174h139v682h355q211 0 347 -120.5t136 -307.5q0 -188 -135 -309t-344 -121h-168v-106h377v-142h-377v-266h-191zM371 692h164q133 0 212.5 68t79.5 184q0 114 -80 182t-212 68h-164v-502z" />
    <glyph glyph-name="uni2116" unicode="&#x2116;" horiz-adv-x="2269" 
d="M1249 -37l-874 1018v-981h-191v1409h70l874 -1018v981h191v-1409h-70zM1528 489v160h629v-160h-629zM1843 748q-138 0 -231.5 94t-93.5 231q0 135 94.5 228.5t230.5 93.5q135 0 229.5 -94t94.5 -230q0 -135 -94 -229t-230 -94zM1843 895q70 0 117 50.5t47 125.5
t-47 125.5t-117 50.5q-72 0 -119 -50.5t-47 -125.5t47 -125.5t119 -50.5z" />
    <glyph glyph-name="trademark" unicode="&#x2122;" horiz-adv-x="1271" 
d="M195 774v494h-175v127h486v-127h-174v-494h-137zM561 774v631h70l239 -318l240 318h70v-631h-138v332l-141 -191h-61l-142 191v-332h-137z" />
    <glyph glyph-name="arrowleft" unicode="&#x2190;" horiz-adv-x="2048" 
d="M819 143q-24 87 -52.5 156.5t-71.5 135.5t-95.5 110.5t-125.5 71t-161 26.5h-6v127h6q88 0 161 26.5t125.5 71t95.5 110.5t71.5 135.5t52.5 156.5h225q-31 -154 -107 -275.5t-192 -197.5h996v-181h-996q116 -76 192 -197.5t107 -275.5h-225z" />
    <glyph glyph-name="arrowup" unicode="&#x2191;" horiz-adv-x="2048" 
d="M934 0v995q-76 -116 -197.5 -192t-275.5 -107v226q87 25 156.5 53t135.5 71t110.5 95t71 125t26.5 161v7h126v-7q0 -88 26.5 -161t71 -125t110.5 -95t135.5 -71t156.5 -53v-226q-154 31 -275.5 107t-197.5 192v-995h-180z" />
    <glyph glyph-name="arrowright" unicode="&#x2192;" horiz-adv-x="2048" 
d="M1004 143q31 154 107 275.5t192 197.5h-996v181h996q-116 76 -192 197.5t-107 275.5h225q24 -87 52.5 -156.5t71.5 -135.5t95.5 -110.5t125.5 -71t161 -26.5h6v-127h-6q-88 0 -161 -26.5t-125.5 -71t-95.5 -110.5t-71.5 -135.5t-52.5 -156.5h-225z" />
    <glyph glyph-name="arrowdown" unicode="&#x2193;" horiz-adv-x="2048" 
d="M961 0v6q0 88 -26.5 161t-71 125.5t-110.5 95.5t-135.5 71.5t-156.5 52.5v225q154 -31 275.5 -107t197.5 -192v996h180v-996q76 116 197.5 192t275.5 107v-225q-87 -24 -156.5 -52.5t-135.5 -71.5t-110.5 -95.5t-71 -125.5t-26.5 -161v-6h-126z" />
    <glyph glyph-name="uni2196" unicode="&#x2196;" horiz-adv-x="2048" 
d="M1458 123l-704 702q58 -273 -123 -544l-158 157q44 79 73 148.5t45 147t10 146t-39 139t-95 132.5l-4 4l90 90l4 -4q62 -62 132.5 -95t139 -39t145.5 10t146.5 45t147.5 73l159 -158q-271 -181 -544 -123l702 -704z" />
    <glyph glyph-name="uni2197" unicode="&#x2197;" horiz-adv-x="2048" 
d="M590 123l-127 127l702 704q-273 -58 -544 123l159 158q78 -44 147.5 -73t146.5 -45t145.5 -10t139 39t132.5 95l4 4l90 -90l-4 -4q-62 -62 -95 -132.5t-39 -139t10 -146t45 -147t73 -148.5l-158 -157q-181 271 -123 544z" />
    <glyph glyph-name="uni2198" unicode="&#x2198;" horiz-adv-x="2048" 
d="M1495 143l-4 4q-77 77 -165 110.5t-181 24t-179.5 -40.5t-185.5 -87l-159 157q271 181 544 123l-702 705l127 127l704 -703q-29 135 3.5 274.5t119.5 270.5l158 -158q-44 -79 -73 -148.5t-45 -146.5t-10 -145.5t39 -139t95 -132.5l4 -5z" />
    <glyph glyph-name="uni2199" unicode="&#x2199;" horiz-adv-x="2048" 
d="M553 143l-90 90l4 5q62 62 95 132.5t39 139t-10 145.5t-45 146.5t-73 148.5l158 158q87 -131 119.5 -270.5t3.5 -274.5l704 703l127 -127l-702 -705q273 58 544 -123l-159 -157q-99 56 -185.5 87t-179.5 40.5t-181 -24t-165 -110.5z" />
    <glyph glyph-name="minus" unicode="&#x2212;" horiz-adv-x="911" 
d="M61 586v159h789v-159h-789z" />
    <glyph glyph-name="approxequal" unicode="&#x2248;" horiz-adv-x="911" 
d="M602 371q-76 0 -186 59q-56 28 -78 36.5t-43 8.5q-72 0 -121 -100l-113 69q30 90 96 139.5t150 49.5q71 0 189 -62q77 -43 116 -43q41 0 69.5 23.5t53.5 75.5l115 -70q-30 -89 -96.5 -137.5t-151.5 -48.5zM602 694q-74 0 -186 60q-52 28 -75.5 36.5t-45.5 8.5
q-73 0 -121 -99l-113 70q30 88 96 137t150 49q77 0 189 -61q50 -26 72 -34.5t44 -8.5q40 0 69 23.5t54 74.5l115 -69q-30 -89 -96.5 -138t-151.5 -49z" />
    <glyph glyph-name="notequal" unicode="&#x2260;" horiz-adv-x="911" 
d="M102 260l103 156h-144v155h248l127 189h-375v160h482l102 151h164l-102 -151h143v-160h-250l-127 -189h377v-155h-481l-103 -156h-164z" />
    <glyph glyph-name="lessequal" unicode="&#x2264;" horiz-adv-x="911" 
d="M61 184v160h789v-160h-789zM778 371l-717 334v147l715 336l68 -141l-576 -267l576 -268z" />
    <glyph glyph-name="greaterequal" unicode="&#x2265;" horiz-adv-x="911" 
d="M61 184v160h789v-160h-789zM133 371l-65 141l573 268l-573 267l67 141l715 -336v-147z" />
    <glyph glyph-name="uniF6D1" unicode="&#xf6d1;" horiz-adv-x="591" 
d="M297 1061q-124 0 -200.5 77t-76.5 205h152q0 -68 34.5 -108.5t90.5 -40.5t89.5 41t33.5 108h151q0 -128 -75 -205t-199 -77z" />
    <glyph glyph-name="uniF6D4" unicode="&#xf6d4;" horiz-adv-x="571" 
d="M285 1061q-119 0 -192 77t-73 205h152q0 -68 31.5 -108.5t81.5 -40.5q52 0 83 40.5t31 108.5h152q0 -129 -73 -205.5t-193 -76.5z" />
    <glyph glyph-name="s_t" unicode="&#xfb06;" horiz-adv-x="1660" 
d="M463 -23q-126 0 -232.5 49.5t-179.5 143.5l117 121q122 -154 303 -154q85 0 134.5 30.5t49.5 86.5q0 49 -44.5 79.5t-151.5 57.5q-181 44 -262.5 115t-81.5 182q0 126 92.5 201.5t247.5 75.5q41 0 94 -11q-37 94 -37 166q0 156 111.5 258.5t277.5 102.5q165 0 273 -98
t108 -246q0 -111 -68 -195h338v-160h-270v-497q0 -71 33 -109.5t94 -38.5q77 0 139 62l82 -117q-94 -105 -244 -105q-131 0 -205.5 80t-74.5 217v508h-143v160q68 6 109.5 57t41.5 127q0 90 -58.5 146.5t-154.5 56.5q-97 0 -155 -59t-58 -160q0 -146 139 -307l-112 -119
q-107 121 -266 121q-76 0 -117 -26.5t-41 -76.5q0 -49 43 -78.5t149 -56.5q182 -42 265 -114.5t83 -184.5q0 -131 -101 -211t-267 -80z" />
    <glyph glyph-name="c_h" horiz-adv-x="2101" 
d="M573 -23q-204 0 -347.5 144.5t-143.5 349.5q0 134 65 247.5t177.5 180t246.5 66.5q45 0 111 -15q-41 109 -41 176q0 153 103.5 254t259.5 101q150 0 244.5 -93t94.5 -243v-324q113 144 279 144q156 0 256 -109t100 -276v-580h-176v547q0 117 -62 187.5t-165 70.5
q-104 0 -168 -72t-64 -188v-545h-176v1143q0 86 -45.5 136t-122.5 50q-83 0 -132.5 -59t-49.5 -156q0 -87 38.5 -169.5t109.5 -174.5l-125 -111q-106 140 -269 140q-133 0 -220 -93t-87 -233q0 -143 89 -236.5t225 -93.5q165 0 274 140l119 -107q-69 -92 -173.5 -145.5
t-224.5 -53.5z" />
    <glyph glyph-name="c_k" horiz-adv-x="1970" 
d="M571 -23q-135 0 -247.5 65t-177 178t-64.5 249q0 135 65 249t177.5 180.5t246.5 66.5q45 0 111 -15q-41 109 -41 176q0 153 103.5 254t259.5 101q150 0 244.5 -93.5t94.5 -244.5v-639l386 438h206l-399 -446l424 -496h-227l-390 457v-457h-176v1143q0 86 -45.5 136
t-122.5 50q-83 0 -132.5 -59t-49.5 -156q0 -87 38.5 -169.5t109.5 -174.5l-125 -111q-106 140 -269 140q-133 0 -220 -93t-87 -233q0 -143 89 -236.5t225 -93.5q165 0 274 140l119 -107q-69 -92 -174 -145.5t-226 -53.5z" />
    <glyph glyph-name="c_t" horiz-adv-x="1787" 
d="M571 -23q-135 0 -247.5 65t-177 178t-64.5 249q0 135 65 249t177.5 180.5t246.5 66.5q53 0 103 -13q-2 7 -10.5 27.5t-11.5 30.5t-8 29.5t-7 41.5t-2 49q0 157 113.5 254t285.5 97q162 0 268.5 -97.5t106.5 -244.5q0 -113 -68 -197h338v-160h-268v-497q0 -71 32 -109.5
t93 -38.5q77 0 139 62l82 -117q-91 -105 -244 -105q-130 0 -204 80t-74 217v508h-145v160q69 6 110 56.5t41 127.5q0 90 -57.5 146.5t-151.5 56.5q-99 0 -160 -63.5t-61 -173.5q0 -68 32.5 -137t121.5 -185l-125 -111q-106 140 -269 140q-133 0 -220 -93t-87 -233
q0 -143 89 -236.5t225 -93.5q165 0 274 140l119 -107q-69 -92 -174 -145.5t-226 -53.5z" />
    <glyph glyph-name="s_p" horiz-adv-x="2072" 
d="M1040 -469v1411q82 52 82 172q0 98 -58 156.5t-155 58.5q-99 0 -160 -62t-61 -161q0 -138 139 -303l-112 -119q-107 121 -266 121q-76 0 -117 -26.5t-41 -76.5q0 -49 43 -78.5t149 -56.5q182 -42 265 -114.5t83 -184.5q0 -131 -101 -211t-267 -80q-126 0 -232.5 49.5
t-179.5 143.5l117 121q122 -154 303 -154q85 0 134.5 30.5t49.5 86.5q0 49 -44.5 79.5t-151.5 57.5q-181 44 -262.5 115t-81.5 182q0 126 92.5 201.5t247.5 75.5q37 0 94 -11q-1 3 -6 17.5t-6 19t-5.5 17.5t-5.5 19t-4 18.5t-4.5 20.5t-3 19.5t-2 22.5t-0.5 22
q0 156 112 253.5t283 97.5q164 0 272.5 -98.5t108.5 -249.5q0 -123 -78 -213v-119q57 77 142 120.5t186 43.5q189 0 321 -143.5t132 -350.5q0 -135 -60.5 -248.5t-166 -179.5t-232.5 -66q-95 0 -177 39t-138 109v-594h-177zM1505 143q131 0 217 93t86 235t-86.5 235
t-216.5 93q-133 0 -220 -93.5t-87 -234.5q0 -143 87 -235.5t220 -92.5z" />
    <glyph glyph-name="I.alt" horiz-adv-x="710" 
d="M72 0v160h188v1052h-188v160h567v-160h-188v-1052h188v-160h-567z" />
    <glyph glyph-name="a.alt" horiz-adv-x="1165" 
d="M535 -23q-189 0 -321 143.5t-132 350.5q0 135 60.5 248.5t166 179.5t232.5 66q97 0 180 -40.5t141 -113.5v131h170v-942h-170v141q-57 -77 -141.5 -120.5t-185.5 -43.5zM567 143q133 0 220 93.5t87 234.5q0 143 -87 235.5t-220 92.5q-131 0 -217 -93t-86 -235t86.5 -235
t216.5 -93z" />
    <glyph glyph-name="g.alt" horiz-adv-x="1165" 
d="M567 143q133 0 221.5 93.5t88.5 234.5q0 142 -88 235t-222 93q-131 0 -217 -93t-86 -235t86.5 -235t216.5 -93zM561 -512q-118 0 -218.5 47t-168.5 133l127 117q89 -131 258 -131q132 0 214.5 84t82.5 219v178q-57 -74 -139.5 -116t-181.5 -42q-189 0 -321 143.5
t-132 350.5q0 135 60.5 248.5t166 179.5t232.5 66q97 0 180 -40.5t141 -113.5v131h170v-985q0 -206 -132 -337.5t-339 -131.5z" />
    <glyph glyph-name="l.alt" horiz-adv-x="593" 
d="M399 -23q-123 0 -194.5 80.5t-71.5 218.5v1178h176v-1175q0 -69 29 -105.5t82 -36.5q61 0 112 51l82 -116q-89 -95 -215 -95z" />
    <glyph glyph-name="y.alt" 
d="M489 -512q-109 0 -204 46.5t-162 133.5l127 117q87 -131 237 -131q122 0 197.5 83t75.5 220v164q-113 -144 -281 -144q-155 0 -255.5 109.5t-100.5 275.5v580h176v-547q0 -116 62 -184t167 -68q103 0 167.5 69.5t64.5 184.5v545h176v-989q0 -202 -126.5 -333.5
t-320.5 -131.5z" />
    <glyph glyph-name="Igrave.alt" horiz-adv-x="710" 
d="M72 0v160h188v1052h-188v160h567v-160h-188v-1052h188v-160h-567zM332 1466l-252 297l131 99l221 -322z" />
    <glyph glyph-name="Iacute.alt" horiz-adv-x="710" 
d="M72 0v160h188v1052h-188v160h567v-160h-188v-1052h188v-160h-567zM365 1466l-103 74l221 322l131 -99z" />
    <glyph glyph-name="Icircumflex.alt" horiz-adv-x="710" 
d="M72 0v160h188v1052h-188v160h567v-160h-188v-1052h188v-160h-567zM135 1497l-72 117l291 192l291 -192l-70 -117l-221 141z" />
    <glyph glyph-name="Idieresis.alt" horiz-adv-x="710" 
d="M72 0v160h188v1052h-188v160h567v-160h-188v-1052h188v-160h-567zM160 1550q-50 0 -83.5 34t-33.5 83q0 51 33.5 85t83.5 34t84.5 -34t34.5 -85q0 -49 -34.5 -83t-84.5 -34zM549 1550q-49 0 -83 34t-34 83q0 51 33.5 85t83.5 34t84.5 -34t34.5 -85q0 -49 -34.5 -83
t-84.5 -34z" />
    <glyph glyph-name="agrave.alt" horiz-adv-x="1165" 
d="M535 -23q-189 0 -321 143.5t-132 350.5q0 135 60.5 248.5t166 179.5t232.5 66q97 0 180 -40.5t141 -113.5v131h170v-942h-170v141q-57 -77 -141.5 -120.5t-185.5 -43.5zM567 143q133 0 220 93.5t87 234.5q0 143 -87 235.5t-220 92.5q-131 0 -217 -93t-86 -235t86.5 -235
t216.5 -93zM555 1036l-252 297l131 99l221 -322z" />
    <glyph glyph-name="aacute.alt" horiz-adv-x="1165" 
d="M535 -23q-189 0 -321 143.5t-132 350.5q0 135 60.5 248.5t166 179.5t232.5 66q97 0 180 -40.5t141 -113.5v131h170v-942h-170v141q-57 -77 -141.5 -120.5t-185.5 -43.5zM567 143q133 0 220 93.5t87 234.5q0 143 -87 235.5t-220 92.5q-131 0 -217 -93t-86 -235t86.5 -235
t216.5 -93zM588 1036l-103 74l222 322l131 -99z" />
    <glyph glyph-name="acircumflex.alt" horiz-adv-x="1165" 
d="M535 -23q-189 0 -321 143.5t-132 350.5q0 135 60.5 248.5t166 179.5t232.5 66q97 0 180 -40.5t141 -113.5v131h170v-942h-170v141q-57 -77 -141.5 -120.5t-185.5 -43.5zM567 143q133 0 220 93.5t87 234.5q0 143 -87 235.5t-220 92.5q-131 0 -217 -93t-86 -235t86.5 -235
t216.5 -93zM356 1067l-71 117l290 192l291 -192l-69 -117l-222 141z" />
    <glyph glyph-name="atilde.alt" horiz-adv-x="1165" 
d="M535 -23q-189 0 -321 143.5t-132 350.5q0 135 60.5 248.5t166 179.5t232.5 66q97 0 180 -40.5t141 -113.5v131h170v-942h-170v141q-57 -77 -141.5 -120.5t-185.5 -43.5zM567 143q133 0 220 93.5t87 234.5q0 143 -87 235.5t-220 92.5q-131 0 -217 -93t-86 -235t86.5 -235
t216.5 -93zM401 1126l-112 68q25 74 73.5 115t110.5 41q9 0 17.5 -1t15.5 -2.5t15.5 -4t13.5 -4.5t13.5 -6t11.5 -5.5t11.5 -6t10.5 -5.5q64 -37 90 -37t44.5 17t35.5 57l112 -70q-23 -73 -72 -114.5t-112 -41.5q-49 0 -111 37q-57 35 -90 35q-25 0 -42 -16t-36 -56z" />
    <glyph glyph-name="adieresis.alt" horiz-adv-x="1165" 
d="M535 -23q-189 0 -321 143.5t-132 350.5q0 135 60.5 248.5t166 179.5t232.5 66q97 0 180 -40.5t141 -113.5v131h170v-942h-170v141q-57 -77 -141.5 -120.5t-185.5 -43.5zM567 143q133 0 220 93.5t87 234.5q0 143 -87 235.5t-220 92.5q-131 0 -217 -93t-86 -235t86.5 -235
t216.5 -93zM381 1120q-49 0 -83 34t-34 83q0 51 33.5 85t83.5 34t84.5 -34t34.5 -85q0 -49 -34.5 -83t-84.5 -34zM770 1120q-50 0 -83.5 34t-33.5 83q0 51 33.5 85t83.5 34t84.5 -34t34.5 -85q0 -49 -34.5 -83t-84.5 -34z" />
    <glyph glyph-name="aring.alt" horiz-adv-x="1165" 
d="M535 -23q-189 0 -321 143.5t-132 350.5q0 135 60.5 248.5t166 179.5t232.5 66q97 0 180 -40.5t141 -113.5v131h170v-942h-170v141q-57 -77 -141.5 -120.5t-185.5 -43.5zM567 143q133 0 220 93.5t87 234.5q0 143 -87 235.5t-220 92.5q-131 0 -217 -93t-86 -235t86.5 -235
t216.5 -93zM575 1014q-90 0 -152.5 60t-62.5 147q0 85 62.5 145.5t152.5 60.5q91 0 154.5 -60t63.5 -146q0 -87 -63 -147t-155 -60zM575 1126q41 0 69 27t28 68t-27.5 67.5t-69.5 26.5q-40 0 -67 -26.5t-27 -67.5t27 -68t67 -27z" />
    <glyph glyph-name="yacute.alt" 
d="M489 -512q-109 0 -204 46.5t-162 133.5l127 117q87 -131 237 -131q122 0 197.5 83t75.5 220v164q-113 -144 -281 -144q-155 0 -255.5 109.5t-100.5 275.5v580h176v-547q0 -116 62 -184t167 -68q103 0 167.5 69.5t64.5 184.5v545h176v-989q0 -202 -126.5 -333.5
t-320.5 -131.5zM543 1036l-103 74l222 322l131 -99z" />
    <glyph glyph-name="ydieresis.alt" 
d="M489 -512q-109 0 -204 46.5t-162 133.5l127 117q87 -131 237 -131q122 0 197.5 83t75.5 220v164q-113 -144 -281 -144q-155 0 -255.5 109.5t-100.5 275.5v580h176v-547q0 -116 62 -184t167 -68q103 0 167.5 69.5t64.5 184.5v545h176v-989q0 -202 -126.5 -333.5
t-320.5 -131.5zM338 1120q-50 0 -83.5 34t-33.5 83q0 51 33.5 85t83.5 34t84.5 -34t34.5 -85q0 -49 -34.5 -83t-84.5 -34zM727 1120q-49 0 -83 34t-34 83q0 51 33.5 85t83.5 34t84.5 -34t34.5 -85q0 -49 -34.5 -83t-84.5 -34z" />
    <glyph glyph-name="amacron.alt" horiz-adv-x="1165" 
d="M535 -23q-189 0 -321 143.5t-132 350.5q0 135 60.5 248.5t166 179.5t232.5 66q97 0 180 -40.5t141 -113.5v131h170v-942h-170v141q-57 -77 -141.5 -120.5t-185.5 -43.5zM567 143q133 0 220 93.5t87 234.5q0 143 -87 235.5t-220 92.5q-131 0 -217 -93t-86 -235t86.5 -235
t216.5 -93zM348 1163v144h455v-144h-455z" />
    <glyph glyph-name="abreve.alt" horiz-adv-x="1165" 
d="M535 -23q-189 0 -321 143.5t-132 350.5q0 135 60.5 248.5t166 179.5t232.5 66q97 0 180 -40.5t141 -113.5v131h170v-942h-170v141q-57 -77 -141.5 -120.5t-185.5 -43.5zM567 143q133 0 220 93.5t87 234.5q0 143 -87 235.5t-220 92.5q-131 0 -217 -93t-86 -235t86.5 -235
t216.5 -93zM575 1065q-119 0 -190.5 75t-71.5 199h140q0 -62 33.5 -99.5t88.5 -37.5q56 0 90.5 37.5t34.5 99.5h140q0 -125 -73 -199.5t-192 -74.5z" />
    <glyph glyph-name="aogonek.alt" horiz-adv-x="1165" 
d="M567 143q133 0 220 93.5t87 234.5q0 143 -87 235.5t-220 92.5q-131 0 -217 -93t-86 -235t86.5 -235t216.5 -93zM909 -522q-119 0 -189.5 61t-70.5 164q0 166 221 297h-8v141q-57 -77 -141.5 -120.5t-185.5 -43.5q-189 0 -321 143.5t-132 350.5q0 135 60.5 248.5
t166 179.5t232.5 66q97 0 180 -40.5t141 -113.5v131h170v-942q-130 -91 -176.5 -146.5t-46.5 -115.5q0 -121 133 -121q40 0 86 12v-135q-55 -16 -119 -16z" />
    <glyph glyph-name="gcircumflex.alt" horiz-adv-x="1165" 
d="M567 143q133 0 221.5 93.5t88.5 234.5q0 142 -88 235t-222 93q-131 0 -217 -93t-86 -235t86.5 -235t216.5 -93zM561 -512q-118 0 -218.5 47t-168.5 133l127 117q89 -131 258 -131q132 0 214.5 84t82.5 219v178q-57 -74 -139.5 -116t-181.5 -42q-189 0 -321 143.5
t-132 350.5q0 135 60.5 248.5t166 179.5t232.5 66q97 0 180 -40.5t141 -113.5v131h170v-985q0 -206 -132 -337.5t-339 -131.5zM356 1067l-71 117l290 192l291 -192l-69 -117l-222 141z" />
    <glyph glyph-name="gbreve.alt" horiz-adv-x="1165" 
d="M567 143q133 0 221.5 93.5t88.5 234.5q0 142 -88 235t-222 93q-131 0 -217 -93t-86 -235t86.5 -235t216.5 -93zM561 -512q-118 0 -218.5 47t-168.5 133l127 117q89 -131 258 -131q132 0 214.5 84t82.5 219v178q-57 -74 -139.5 -116t-181.5 -42q-189 0 -321 143.5
t-132 350.5q0 135 60.5 248.5t166 179.5t232.5 66q97 0 180 -40.5t141 -113.5v131h170v-985q0 -206 -132 -337.5t-339 -131.5zM575 1065q-119 0 -190.5 75t-71.5 199h140q0 -62 33.5 -99.5t88.5 -37.5q56 0 90.5 37.5t34.5 99.5h140q0 -125 -73 -199.5t-192 -74.5z" />
    <glyph glyph-name="gdotaccent.alt" horiz-adv-x="1165" 
d="M567 143q133 0 221.5 93.5t88.5 234.5q0 142 -88 235t-222 93q-131 0 -217 -93t-86 -235t86.5 -235t216.5 -93zM561 -512q-118 0 -218.5 47t-168.5 133l127 117q89 -131 258 -131q132 0 214.5 84t82.5 219v178q-57 -74 -139.5 -116t-181.5 -42q-189 0 -321 143.5
t-132 350.5q0 135 60.5 248.5t166 179.5t232.5 66q97 0 180 -40.5t141 -113.5v131h170v-985q0 -206 -132 -337.5t-339 -131.5zM575 1120q-49 0 -82.5 33.5t-33.5 83.5q0 51 33 85t83 34t84.5 -34t34.5 -85q0 -49 -34.5 -83t-84.5 -34z" />
    <glyph glyph-name="gcommaaccent.alt" horiz-adv-x="1165" 
d="M567 143q133 0 221.5 93.5t88.5 234.5q0 142 -88 235t-222 93q-131 0 -217 -93t-86 -235t86.5 -235t216.5 -93zM561 -512q-118 0 -218.5 47t-168.5 133l127 117q89 -131 258 -131q132 0 214.5 84t82.5 219v178q-57 -74 -139.5 -116t-181.5 -42q-189 0 -321 143.5
t-132 350.5q0 135 60.5 248.5t166 179.5t232.5 66q97 0 180 -40.5t141 -113.5v131h170v-985q0 -206 -132 -337.5t-339 -131.5zM655 1057l-166 47l136 393l114 -31z" />
    <glyph glyph-name="Imacron.alt" horiz-adv-x="710" 
d="M72 0v160h188v1052h-188v160h567v-160h-188v-1052h188v-160h-567zM127 1593v144h455v-144h-455z" />
    <glyph glyph-name="Ibreve.alt" horiz-adv-x="710" 
d="M72 0v160h188v1052h-188v160h567v-160h-188v-1052h188v-160h-567zM352 1495q-119 0 -190.5 75t-71.5 199h139q0 -62 34 -99.5t89 -37.5q56 0 90.5 37.5t34.5 99.5h139q0 -125 -72.5 -199.5t-191.5 -74.5z" />
    <glyph glyph-name="Iogonek.alt" horiz-adv-x="710" 
d="M516 -522q-119 0 -189.5 61t-70.5 164q0 166 221 297h-405v160h188v1052h-188v160h567v-160h-188v-1052h188v-160q-130 -91 -176.5 -146.5t-46.5 -115.5q0 -121 133 -121q39 0 86 12v-135q-55 -16 -119 -16z" />
    <glyph glyph-name="Idotaccent.alt" horiz-adv-x="710" 
d="M72 0v160h188v1052h-188v160h567v-160h-188v-1052h188v-160h-567zM352 1550q-49 0 -82.5 33.5t-33.5 83.5q0 51 33 85t83 34t84.5 -34t34.5 -85q0 -49 -34.5 -83t-84.5 -34z" />
    <glyph glyph-name="lacute.alt" horiz-adv-x="595" 
d="M401 -23q-123 0 -194.5 80.5t-71.5 218.5v1178h176v-1175q0 -69 29 -105.5t82 -36.5q62 0 113 51l81 -116q-89 -95 -215 -95zM236 1507l-103 74l221 322l131 -99z" />
    <glyph glyph-name="lcommaaccent.alt" horiz-adv-x="593" 
d="M399 -23q-123 0 -194.5 80.5t-71.5 218.5v1178h176v-1175q0 -69 29 -105.5t82 -36.5q61 0 112 51l82 -116q-89 -95 -215 -95zM350 -543l-119 33l84 408l166 -43z" />
    <glyph glyph-name="lcaron.alt" horiz-adv-x="651" 
d="M399 -23q-123 0 -194.5 80.5t-71.5 218.5v1178h176v-1175q0 -69 29 -105.5t82 -36.5q61 0 112 51l82 -116q-89 -95 -215 -95zM530 1071l-118 29l73 379l166 -41z" />
    <glyph glyph-name="ldot.alt" horiz-adv-x="696" 
d="M561 631q-51 0 -86 35.5t-35 87.5t35 87.5t88 35.5t88 -35.5t35 -87.5q0 -53 -35.5 -88t-89.5 -35zM399 -23q-123 0 -194.5 80.5t-71.5 218.5v1178h176v-1175q0 -69 29 -105.5t82 -36.5q61 0 112 51l82 -116q-89 -95 -215 -95z" />
    <glyph glyph-name="lslash.alt" horiz-adv-x="634" 
d="M430 -23q-123 0 -194.5 80t-71.5 219v353l-144 -82v168l144 82v657h176v-555l184 107v-168l-184 -107v-452q0 -69 28 -105.5t81 -36.5q60 0 114 51l82 -116q-92 -95 -215 -95z" />
    <glyph glyph-name="ycircumflex.alt" 
d="M489 -512q-109 0 -204 46.5t-162 133.5l127 117q87 -131 237 -131q122 0 197.5 83t75.5 220v164q-113 -144 -281 -144q-155 0 -255.5 109.5t-100.5 275.5v580h176v-547q0 -116 62 -184t167 -68q103 0 167.5 69.5t64.5 184.5v545h176v-989q0 -202 -126.5 -333.5
t-320.5 -131.5zM313 1067l-71 117l290 192l291 -192l-69 -117l-222 141z" />
    <glyph glyph-name="aringacute.alt" horiz-adv-x="1165" 
d="M535 -23q-189 0 -321 143.5t-132 350.5q0 135 60.5 248.5t166 179.5t232.5 66q97 0 180 -40.5t141 -113.5v131h170v-942h-170v141q-57 -77 -141.5 -120.5t-185.5 -43.5zM567 143q133 0 220 93.5t87 234.5q0 143 -87 235.5t-220 92.5q-131 0 -217 -93t-86 -235t86.5 -235
t216.5 -93zM578 1016q-91 0 -153.5 59.5t-62.5 145.5q0 84 63 143t153 59t153.5 -59t63.5 -143q0 -86 -63 -145.5t-154 -59.5zM578 1128q42 0 69 26t27 67q0 38 -27.5 64t-68.5 26q-40 0 -67.5 -26t-27.5 -64q0 -41 27.5 -67t67.5 -26zM532 1452l-65 107l328 213l84 -140z
" />
    <glyph glyph-name="uni0233.alt" 
d="M489 -512q-109 0 -204 46.5t-162 133.5l127 117q87 -131 237 -131q122 0 197.5 83t75.5 220v164q-113 -144 -281 -144q-155 0 -255.5 109.5t-100.5 275.5v580h176v-547q0 -116 62 -184t167 -68q103 0 167.5 69.5t64.5 184.5v545h176v-989q0 -202 -126.5 -333.5
t-320.5 -131.5zM305 1163v144h455v-144h-455z" />
    <glyph glyph-name="uni0406.alt" horiz-adv-x="710" 
d="M72 0v160h188v1052h-188v160h567v-160h-188v-1052h188v-160h-567z" />
    <glyph glyph-name="uni0407.alt" horiz-adv-x="710" 
d="M72 0v160h188v1052h-188v160h567v-160h-188v-1052h188v-160h-567zM160 1550q-50 0 -83.5 34t-33.5 83q0 51 33.5 85t83.5 34t84.5 -34t34.5 -85q0 -49 -34.5 -83t-84.5 -34zM549 1550q-49 0 -83 34t-34 83q0 51 33.5 85t83.5 34t84.5 -34t34.5 -85q0 -49 -34.5 -83
t-84.5 -34z" />
    <glyph glyph-name="uni0430.alt" horiz-adv-x="1165" 
d="M535 -23q-189 0 -321 143.5t-132 350.5q0 135 60.5 248.5t166 179.5t232.5 66q97 0 180 -40.5t141 -113.5v131h170v-942h-170v141q-57 -77 -141.5 -120.5t-185.5 -43.5zM567 143q133 0 220 93.5t87 234.5q0 143 -87 235.5t-220 92.5q-131 0 -217 -93t-86 -235t86.5 -235
t216.5 -93z" />
    <glyph glyph-name="uni0443.alt" 
d="M489 -512q-109 0 -204 46.5t-162 133.5l127 117q87 -131 237 -131q122 0 197.5 83t75.5 220v164q-113 -144 -281 -144q-155 0 -255.5 109.5t-100.5 275.5v580h176v-547q0 -116 62 -184t167 -68q103 0 167.5 69.5t64.5 184.5v545h176v-989q0 -202 -126.5 -333.5
t-320.5 -131.5z" />
    <glyph glyph-name="uni045E.alt" 
d="M489 -512q-109 0 -204 46.5t-162 133.5l127 117q87 -131 237 -131q122 0 197.5 83t75.5 220v164q-113 -144 -281 -144q-155 0 -255.5 109.5t-100.5 275.5v580h176v-547q0 -116 62 -184t167 -68q103 0 167.5 69.5t64.5 184.5v545h176v-989q0 -202 -126.5 -333.5
t-320.5 -131.5zM530 1061q-119 0 -191.5 77t-72.5 205h152q0 -68 31 -108.5t81 -40.5q52 0 83.5 40.5t31.5 108.5h152q0 -128 -73 -205t-194 -77z" />
    <glyph glyph-name="ygrave.alt" 
d="M489 -512q-109 0 -204 46.5t-162 133.5l127 117q87 -131 237 -131q122 0 197.5 83t75.5 220v164q-113 -144 -281 -144q-155 0 -255.5 109.5t-100.5 275.5v580h176v-547q0 -116 62 -184t167 -68q103 0 167.5 69.5t64.5 184.5v545h176v-989q0 -202 -126.5 -333.5
t-320.5 -131.5zM510 1036l-252 297l131 99l221 -322z" />
    <glyph glyph-name="fl.alt" horiz-adv-x="1212" 
d="M1018 -23q-122 0 -194 80t-72 219v820q0 90 -50.5 144t-134.5 54t-135 -54t-51 -144v-154h248v-160h-248v-782h-176v782h-144v160h144v154q0 158 101 258t261 100q158 0 259.5 -100.5t101.5 -257.5v-817q0 -69 28 -105.5t80 -36.5q61 0 115 51l82 -116q-92 -95 -215 -95z
" />
    <glyph glyph-name="ffl.alt" horiz-adv-x="1779" 
d="M1585 -23q-123 0 -194.5 80t-71.5 219v820q0 91 -50.5 144.5t-135.5 53.5q-84 0 -134.5 -54t-50.5 -144v-154h248v-160h-248v-782h-176v782h-391v-782h-176v782h-144v160h144v211q0 135 80 218t211 83q141 0 239 -98l-98 -131q-63 69 -133 69q-57 0 -90 -38t-33 -103
v-211h391v154q0 158 101 258t260 100t260.5 -100.5t101.5 -257.5v-817q0 -69 28 -105.5t81 -36.5q60 0 114 51l82 -116q-92 -95 -215 -95z" />
    <glyph glyph-name="parenleft.case" horiz-adv-x="741" 
d="M580 -317q-200 180 -313 439t-113 540q0 283 113 544t313 443l120 -101q-169 -165 -268.5 -402t-99.5 -478q0 -243 99 -479t269 -404z" />
    <glyph glyph-name="parenright.case" horiz-adv-x="741" 
d="M162 -317l-121 102q170 169 269.5 404.5t99.5 478.5q0 241 -100 478t-269 402l121 101q200 -182 313 -443t113 -544q0 -281 -113 -540t-313 -439z" />
    <glyph glyph-name="hyphen.case" horiz-adv-x="624" 
d="M82 586v178h461v-178h-461z" />
    <glyph glyph-name="colon.case" horiz-adv-x="512" 
d="M256 131q-52 0 -87.5 35.5t-35.5 87.5t35.5 87.5t87.5 35.5t87.5 -35.5t35.5 -87.5t-35.5 -87.5t-87.5 -35.5zM256 852q-53 0 -88 34.5t-35 88.5q0 53 35.5 88t87.5 35t87.5 -35t35.5 -88q0 -54 -35 -88.5t-88 -34.5z" />
    <glyph glyph-name="at.case" horiz-adv-x="1943" 
d="M846 -195q-312 57 -507.5 286.5t-195.5 541.5q0 175 65.5 329t179 264t272 174t337.5 64q230 0 419 -100.5t297 -277t108 -392.5q0 -206 -95 -331t-247 -125q-86 0 -153.5 42.5t-100.5 114.5q-46 -74 -120.5 -116.5t-162.5 -42.5q-150 0 -255 111.5t-105 270.5
q0 157 105.5 269t254.5 112q145 0 238 -104v86h157v-424q0 -79 39.5 -127.5t102.5 -48.5q80 0 128 79.5t48 217.5q0 136 -49.5 254t-136.5 201.5t-209.5 131.5t-264.5 48q-195 0 -352 -87.5t-245.5 -242t-88.5 -346.5q0 -263 163 -451.5t419 -228.5zM969 381
q98 0 162.5 68.5t64.5 168.5q0 99 -65 167.5t-162 68.5q-93 0 -157 -68.5t-64 -167.5q0 -100 63.5 -168.5t157.5 -68.5z" />
    <glyph glyph-name="bracketleft.case" horiz-adv-x="663" 
d="M195 -287v1884h407v-159h-233v-1565h233v-160h-407z" />
    <glyph glyph-name="bracketright.case" horiz-adv-x="663" 
d="M61 -287v160h234v1565h-234v159h408v-1884h-408z" />
    <glyph glyph-name="braceleft.case" horiz-adv-x="673" 
d="M547 -287q-138 0 -219.5 81t-81.5 218v420q0 62 -42 102.5t-106 40.5h-16v160h16q64 0 106 41t42 103v419q0 137 81.5 218t219.5 81h65v-159h-65q-58 0 -93.5 -39t-35.5 -101v-419q0 -84 -37 -142t-107 -78v-8q70 -20 107 -77.5t37 -141.5v-420q0 -62 35.5 -100.5
t93.5 -38.5h65v-160h-65z" />
    <glyph glyph-name="braceright.case" horiz-adv-x="673" 
d="M61 -287v160h66q58 0 93.5 38.5t35.5 100.5v420q0 84 36.5 141.5t106.5 77.5v8q-70 20 -106.5 78t-36.5 142v419q0 62 -35.5 101t-93.5 39h-66v159h66q138 0 219.5 -81t81.5 -218v-419q0 -62 41.5 -103t105.5 -41h17v-160h-17q-64 0 -105.5 -40.5t-41.5 -102.5v-420
q0 -137 -81.5 -218t-219.5 -81h-66z" />
    <glyph glyph-name="exclamdown.case" horiz-adv-x="512" 
d="M156 0l30 1012h140l30 -1012h-200zM256 1139q-52 0 -87.5 35.5t-35.5 87.5t35 87t88 35t88 -35t35 -87t-35.5 -87.5t-87.5 -35.5z" />
    <glyph glyph-name="guillemotleft.case" horiz-adv-x="956" 
d="M352 264l-270 391l270 392l125 -86l-213 -306l213 -305zM711 264l-273 391l273 392l123 -86l-211 -306l211 -305z" />
    <glyph glyph-name="periodcentered.case" horiz-adv-x="450" 
d="M223 545q-51 0 -86 35.5t-35 87.5t35 87.5t88 35.5t88 -35.5t35 -87.5q0 -53 -35.5 -88t-89.5 -35z" />
    <glyph glyph-name="guillemotright.case" horiz-adv-x="956" 
d="M246 264l-123 86l211 305l-211 306l123 86l272 -392zM604 264l-125 86l213 305l-213 306l125 86l270 -392z" />
    <glyph glyph-name="questiondown.case" horiz-adv-x="917" 
d="M465 -23q-165 0 -269 90t-104 236q0 88 50 158.5t175 156.5q84 58 115 95.5t31 79.5q0 41 -28.5 65t-96.5 43l57 141q258 -59 258 -241q0 -75 -47 -139t-160 -146q-92 -68 -127.5 -115.5t-35.5 -99.5q0 -69 55 -107t141 -38q163 0 264 139l123 -115
q-76 -100 -178.5 -151.5t-222.5 -51.5zM498 1139q-52 0 -87.5 35.5t-35.5 87.5t35 87t88 35t88 -35t35 -87t-35.5 -87.5t-87.5 -35.5z" />
    <glyph glyph-name="endash.case" horiz-adv-x="993" 
d="M41 598v156h911v-156h-911z" />
    <glyph glyph-name="emdash.case" horiz-adv-x="1443" 
d="M41 598v156h1362v-156h-1362z" />
    <glyph glyph-name="bullet.case" horiz-adv-x="714" 
d="M358 516q-64 0 -108.5 44.5t-44.5 107.5q0 64 44.5 108.5t108.5 44.5q63 0 107.5 -44.5t44.5 -108.5q0 -63 -44.5 -107.5t-107.5 -44.5z" />
    <glyph glyph-name="guilsinglleft.case" horiz-adv-x="653" 
d="M442 262l-381 393l381 394l109 -107l-279 -287l279 -286z" />
    <glyph glyph-name="guilsinglright.case" horiz-adv-x="653" 
d="M211 262l-109 107l279 286l-279 287l109 107l381 -394z" />
    <glyph glyph-name="zero.dnom" horiz-adv-x="765" 
d="M383 -23q-140 0 -231 115t-91 293q0 175 91 289t231 114q141 0 231.5 -114t90.5 -289q0 -179 -90.5 -293.5t-231.5 -114.5zM383 123q71 0 114.5 72.5t43.5 189.5q0 115 -43.5 186.5t-114.5 71.5t-114.5 -71.5t-43.5 -186.5q0 -118 43.5 -190t114.5 -72z" />
    <glyph glyph-name="one.dnom" horiz-adv-x="600" 
d="M287 0v559l-170 -119l-76 115l334 231h71v-786h-159z" />
    <glyph glyph-name="two.dnom" horiz-adv-x="739" 
d="M63 0v63l248 226q98 91 129 135t31 90q0 60 -32.5 95.5t-86.5 35.5q-56 0 -91 -40t-46 -113l-154 38q22 121 100.5 189.5t196.5 68.5q123 0 200 -73t77 -187q0 -75 -42 -140t-155 -163l-94 -82h313v-143h-594z" />
    <glyph glyph-name="three.dnom" horiz-adv-x="729" 
d="M352 -23q-102 0 -181 47t-110 126l127 79q48 -108 162 -108q61 0 97 31.5t36 85.5q0 57 -42 87.5t-119 30.5h-105v72l193 207h-297v131h514v-70l-203 -225q102 -17 162.5 -82t60.5 -158q0 -110 -83.5 -182t-211.5 -72z" />
    <glyph glyph-name="four.dnom" horiz-adv-x="688" 
d="M375 0v113h-385v77l454 596h74v-542h98v-131h-98v-113h-143zM178 244h197v264z" />
    <glyph glyph-name="five.dnom" horiz-adv-x="718" 
d="M336 -23q-100 0 -177 47t-108 128l123 81q45 -112 160 -112q63 0 101 37t38 98t-40.5 97t-110.5 36q-81 0 -140 -53l-61 33l47 397h430v-131h-305l-14 -129q47 14 90 14q117 0 192.5 -74.5t75.5 -191.5q0 -121 -85 -199t-216 -78z" />
    <glyph glyph-name="six.dnom" horiz-adv-x="684" 
d="M330 -23q-128 0 -208.5 79.5t-80.5 209.5q0 147 102 287.5t273 226.5l82 -110q-159 -83 -240 -201q48 25 109 25q108 0 182 -72.5t74 -179.5q0 -115 -84 -190t-209 -75zM332 109q58 0 95.5 37t37.5 94t-36.5 89.5t-96.5 32.5t-96.5 -32t-36.5 -88q0 -58 37.5 -95.5
t95.5 -37.5z" />
    <glyph glyph-name="seven.dnom" horiz-adv-x="595" 
d="M129 0l279 623h-357v143h555v-70l-309 -696h-168z" />
    <glyph glyph-name="eight.dnom" horiz-adv-x="747" 
d="M373 -23q-126 0 -208.5 68.5t-82.5 171.5q0 61 30 110.5t83 82.5q-82 63 -82 157t75 157.5t185 63.5t186 -63.5t76 -157.5t-86 -157q54 -33 85.5 -83t31.5 -110q0 -104 -84 -172t-209 -68zM373 109q61 0 98 32.5t37 83.5q0 53 -37 85t-98 32t-97 -31.5t-36 -85.5
q0 -52 36 -84t97 -32zM373 467q47 0 75.5 26t28.5 68t-28.5 69t-75.5 27q-45 0 -74 -27t-29 -69q0 -41 28.5 -67.5t74.5 -26.5z" />
    <glyph glyph-name="nine.dnom" horiz-adv-x="681" 
d="M268 -14l-82 110q159 83 240 201q-48 -25 -111 -25q-107 0 -180.5 72.5t-73.5 179.5q0 115 83 189.5t210 74.5q128 0 207.5 -79t79.5 -209q0 -147 -101 -287.5t-272 -226.5zM352 403q59 0 95 32.5t36 88.5q0 59 -36.5 96t-94.5 37q-60 0 -96.5 -36.5t-36.5 -94.5
q0 -57 36.5 -90t96.5 -33z" />
    <glyph glyph-name="Iacute_J.loclNLD" horiz-adv-x="1462" 
d="M174 0v1372h191v-1372h-191zM899 -23q-110 0 -197 50t-141 145l144 119q77 -135 196 -135q95 0 151 69.5t56 188.5v780h-385v178h575v-956q0 -196 -110 -317.5t-289 -121.5zM301 1466l-100 74l221 322l131 -99zM1014 1466l-101 74l222 322l131 -99z" />
    <glyph glyph-name="iacute_j.loclNLD" horiz-adv-x="892" 
d="M133 0v942h176v-942h-176zM487 -512q-111 0 -192 78l86 143q50 -55 100 -55q49 0 75 37t26 100v1151h176v-1157q0 -133 -73.5 -215t-197.5 -82zM256 1036l-102 74l221 322l131 -99zM705 1036l-103 74l221 322l131 -99z" />
    <glyph glyph-name="zero.numr" horiz-adv-x="765" 
d="M383 584q-140 0 -231 114.5t-91 292.5q0 175 91.5 289.5t230.5 114.5q141 0 231.5 -114.5t90.5 -289.5q0 -178 -90.5 -292.5t-231.5 -114.5zM383 729q71 0 114.5 72.5t43.5 189.5q0 115 -43.5 186.5t-114.5 71.5t-114.5 -71.5t-43.5 -186.5q0 -118 43.5 -190t114.5 -72z
" />
    <glyph glyph-name="one.numr" horiz-adv-x="600" 
d="M287 606v559l-170 -118l-76 114l334 232h71v-787h-159z" />
    <glyph glyph-name="two.numr" horiz-adv-x="739" 
d="M63 606v64l248 225q98 91 129 135t31 90q0 60 -32.5 95.5t-86.5 35.5q-56 0 -91 -40t-46 -113l-154 39q22 121 100.5 189.5t196.5 68.5q123 0 200 -73t77 -187q0 -75 -42.5 -140.5t-154.5 -163.5l-94 -81h313v-144h-594z" />
    <glyph glyph-name="three.numr" horiz-adv-x="729" 
d="M352 584q-102 0 -181 46.5t-110 125.5l127 80q48 -109 162 -109q61 0 97 31.5t36 85.5q0 57 -42 88t-119 31h-105v71l193 207h-297v131h514v-69l-203 -226q102 -17 162.5 -81.5t60.5 -157.5q0 -110 -83.5 -182t-211.5 -72z" />
    <glyph glyph-name="four.numr" horiz-adv-x="688" 
d="M375 606v113h-385v78l454 596h74v-543h98v-131h-98v-113h-143zM178 850h197v264z" />
    <glyph glyph-name="five.numr" horiz-adv-x="718" 
d="M336 584q-101 0 -177.5 46.5t-107.5 127.5l123 82q46 -113 160 -113q63 0 101 37t38 98t-40.5 97t-110.5 36q-81 0 -140 -53l-61 33l47 397h430v-131h-305l-14 -129q47 14 90 14q117 0 192.5 -74.5t75.5 -191.5q0 -121 -85 -198.5t-216 -77.5z" />
    <glyph glyph-name="six.numr" horiz-adv-x="684" 
d="M330 584q-128 0 -208.5 79t-80.5 209q0 147 102 287.5t273 226.5l82 -110q-159 -83 -240 -201q48 25 109 25q108 0 182 -72.5t74 -179.5q0 -115 -84 -189.5t-209 -74.5zM332 715q58 0 95.5 37t37.5 94t-36.5 90t-96.5 33t-96.5 -32.5t-36.5 -88.5q0 -58 37.5 -95.5
t95.5 -37.5z" />
    <glyph glyph-name="seven.numr" horiz-adv-x="595" 
d="M129 606l279 623h-357v143h555v-69l-309 -697h-168z" />
    <glyph glyph-name="eight.numr" horiz-adv-x="747" 
d="M373 584q-126 0 -208.5 68t-82.5 171q0 61 30 110.5t83 82.5q-82 63 -82 158q0 94 75 157.5t185 63.5t186 -63.5t76 -157.5q0 -45 -23 -86.5t-63 -71.5q54 -33 85.5 -83t31.5 -110q0 -104 -84 -171.5t-209 -67.5zM373 715q61 0 98 32.5t37 83.5q0 53 -37 85t-98 32
t-97 -31.5t-36 -85.5q0 -52 36 -84t97 -32zM373 1073q47 0 75.5 26t28.5 68t-28.5 69.5t-75.5 27.5q-45 0 -74 -27.5t-29 -69.5q0 -41 28.5 -67.5t74.5 -26.5z" />
    <glyph glyph-name="nine.numr" horiz-adv-x="681" 
d="M268 592l-82 110q159 83 240 201q-46 -24 -111 -24q-108 0 -181 72t-73 179q0 115 83.5 190t209.5 75q128 0 207.5 -79.5t79.5 -209.5q0 -147 -101 -287.5t-272 -226.5zM352 1010q59 0 95 32t36 88q0 59 -36.5 96.5t-94.5 37.5q-60 0 -96.5 -37t-36.5 -94t36.5 -90
t96.5 -33z" />
    <glyph glyph-name="zero.osf" horiz-adv-x="1054" 
d="M526 -23q-184 0 -304 148.5t-120 376.5q0 226 120 375t304 149q183 0 304.5 -149t121.5 -375t-121 -375.5t-305 -149.5zM526 139q110 0 177 101t67 264q0 160 -67 260t-177 100q-109 0 -175 -99.5t-66 -260.5q0 -163 66 -264t175 -101z" />
    <glyph glyph-name="one.osf" horiz-adv-x="641" 
d="M299 0v756l-190 -133l-89 133l388 266h69v-1022h-178z" />
    <glyph glyph-name="two.osf" horiz-adv-x="931" 
d="M82 0v104q0 65 20 120.5t48.5 93.5t77 74.5t87 58t97.5 49.5q137 66 186 110.5t49 102.5q0 67 -49 109t-129 42q-86 0 -144 -52t-81 -150l-158 40q30 153 134 238.5t251 85.5q155 0 256.5 -89t101.5 -224q0 -61 -22 -110.5t-68 -90.5t-99.5 -72.5t-135.5 -68.5
q-48 -22 -82 -41t-67 -44.5t-51 -57t-21 -68.5h557v-160h-758z" />
    <glyph glyph-name="three.osf" horiz-adv-x="962" 
d="M453 -309q-146 0 -261 78t-161 208l149 80q35 -98 106.5 -151t166.5 -53q110 0 177.5 67.5t67.5 175.5q0 113 -73.5 180.5t-198.5 67.5h-172v70l340 430h-479v160h751v-70l-348 -438q162 -22 262.5 -131t100.5 -265q0 -175 -122.5 -292t-305.5 -117z" />
    <glyph glyph-name="four.osf" horiz-adv-x="983" 
d="M260 150h354v495zM614 -309v309h-594v70l687 952h67v-872h158v-150h-158v-309h-160z" />
    <glyph glyph-name="five.osf" horiz-adv-x="983" 
d="M455 -309q-147 0 -262 77t-162 209l151 78q35 -96 106.5 -149t164.5 -53q115 0 185.5 75.5t70.5 194.5t-73.5 193.5t-193.5 74.5q-119 0 -217 -82l-65 39l69 656h625v-160h-483l-33 -318q64 27 143 27q174 0 292 -123t118 -303q0 -186 -124.5 -311t-311.5 -125z" />
    <glyph glyph-name="six.osf" horiz-adv-x="1044" 
d="M528 -23q-194 0 -315 129t-121 334q0 249 159 480.5t443 394.5l101 -127q-163 -99 -264.5 -197t-168.5 -221q70 61 203 61q175 0 291.5 -119t116.5 -298q0 -186 -128 -311.5t-317 -125.5zM532 139q114 0 186.5 76t72.5 193t-71.5 189.5t-187.5 72.5q-114 0 -186 -72.5
t-72 -189.5q0 -116 72.5 -192.5t185.5 -76.5z" />
    <glyph glyph-name="seven.osf" horiz-adv-x="911" 
d="M111 -309l526 1153h-606v160h839v-70l-569 -1243h-190z" />
    <glyph glyph-name="eight.osf" horiz-adv-x="1054" 
d="M528 -23q-185 0 -310.5 113t-125.5 277q0 106 55.5 191.5t151.5 137.5q-68 44 -106.5 116.5t-38.5 156.5q0 146 107.5 245t264.5 99q159 0 267 -99.5t108 -246.5q0 -83 -38 -153.5t-105 -117.5q95 -51 150 -137t55 -192q0 -164 -126.5 -277t-308.5 -113zM528 135
q110 0 182 66.5t72 171.5q0 106 -72.5 172.5t-181.5 66.5q-111 0 -183.5 -67t-72.5 -172t72.5 -171.5t183.5 -66.5zM528 770q82 0 137.5 54.5t55.5 138.5t-55 138t-138 54q-84 0 -139 -54t-55 -138t55 -138.5t139 -54.5z" />
    <glyph glyph-name="nine.osf" horiz-adv-x="1044" 
d="M350 -311l-100 127q163 99 264 196.5t168 220.5q-73 -61 -203 -61q-175 0 -291 119.5t-116 298.5q0 186 127.5 311t316.5 125q194 0 315 -129t121 -334q0 -249 -159 -480t-443 -394zM512 334q114 0 186 72.5t72 189.5q0 116 -72.5 192t-185.5 76q-114 0 -186 -75
t-72 -191q0 -118 71 -191t187 -73z" />
    <glyph glyph-name="zero.tab" horiz-adv-x="1126" 
d="M563 -23q-148 0 -259.5 88t-171.5 249t-60 372q0 319 134.5 514t356.5 195t357 -195t135 -514t-135 -514t-357 -195zM563 156q137 0 213 140.5t76 389.5t-76 390t-213 141t-213 -141t-76 -390q0 -250 76 -390t213 -140z" />
    <glyph glyph-name="one.tab" horiz-adv-x="1126" 
d="M154 0v178h362v944l-295 -180l-98 145l512 322h72v-1231h327v-178h-880z" />
    <glyph glyph-name="two.tab" horiz-adv-x="1126" 
d="M121 0v168q0 69 21.5 130.5t53.5 107.5t86.5 93t101.5 79t118 75q157 90 232 165.5t75 174.5t-68 161.5t-174 62.5q-107 0 -178 -66t-100 -195l-176 35q34 189 154 296.5t300 107.5q188 0 310 -113t122 -285q0 -79 -27 -146t-84 -127t-124.5 -110t-169.5 -112
q-64 -40 -106 -70t-87 -71.5t-67.5 -87t-22.5 -95.5h693v-178h-883z" />
    <glyph glyph-name="three.tab" horiz-adv-x="1126" 
d="M549 -23q-149 0 -268 73.5t-189 209.5l154 102q95 -206 305 -206q119 0 190.5 68.5t71.5 181.5q0 124 -88.5 194t-235.5 70h-157v69l364 455h-503v178h798v-69l-383 -476q176 -22 286 -137.5t110 -283.5q0 -187 -127.5 -308t-327.5 -121z" />
    <glyph glyph-name="four.tab" horiz-adv-x="1126" 
d="M682 0v250h-631v86l737 1073h84v-981h172v-178h-172v-250h-190zM301 428h381v555z" />
    <glyph glyph-name="five.tab" horiz-adv-x="1126" 
d="M530 -23q-146 0 -262.5 73.5t-185.5 209.5l151 102q99 -206 299 -206q123 0 197 75t74 201q0 128 -78.5 204.5t-208.5 76.5q-132 0 -229 -78l-68 39l107 698h637v-178h-496l-51 -326q71 23 141 23q190 0 313 -128t123 -323q0 -202 -130.5 -332.5t-332.5 -130.5z" />
    <glyph glyph-name="six.tab" horiz-adv-x="1126" 
d="M561 -23q-207 0 -338 137t-131 357q0 248 172.5 501.5t474.5 448.5l109 -133q-329 -229 -479 -473q98 70 225 70q187 0 318.5 -131.5t131.5 -319.5q0 -191 -139 -324t-344 -133zM571 156q122 0 202.5 79t80.5 199q0 119 -80.5 196t-202.5 77q-124 0 -206 -77t-82 -196
q0 -120 82.5 -199t205.5 -79z" />
    <glyph glyph-name="seven.tab" horiz-adv-x="1126" 
d="M207 0l604 1194h-678v178h932v-69l-653 -1303h-205z" />
    <glyph glyph-name="eight.tab" horiz-adv-x="1126" 
d="M565 -23q-202 0 -337.5 116.5t-135.5 287.5q0 115 64 207.5t174 144.5q-79 46 -125.5 124.5t-46.5 170.5q0 155 117.5 261t289.5 106q170 0 287 -106t117 -261q0 -94 -45.5 -171.5t-124.5 -123.5q109 -52 172 -144.5t63 -207.5q0 -171 -135 -287.5t-334 -116.5zM565 150
q122 0 200.5 69t78.5 176t-78.5 175.5t-200.5 68.5q-123 0 -202.5 -69t-79.5 -175q0 -107 79.5 -176t202.5 -69zM565 811q94 0 153.5 58t59.5 149q0 89 -59.5 147t-153.5 58q-95 0 -156 -58t-61 -147q0 -91 61 -149t156 -58z" />
    <glyph glyph-name="nine.tab" horiz-adv-x="1126" 
d="M387 -49l-108 133q170 117 286 232t193 241q-95 -70 -226 -70q-186 0 -318 132t-132 319q0 191 140 324t345 133t336 -137t131 -357q0 -248 -172.5 -501.5t-474.5 -448.5zM557 666q123 0 205 76.5t82 195.5q0 120 -82.5 199.5t-204.5 79.5t-203.5 -79.5t-81.5 -199.5
q0 -119 81 -195.5t204 -76.5z" />
    <glyph glyph-name="zero.tabosf" horiz-adv-x="993" 
d="M496 -23q-184 0 -304 148.5t-120 376.5q0 226 120 375t304 149q183 0 304.5 -149t121.5 -375t-121 -375.5t-305 -149.5zM496 139q110 0 176.5 101t66.5 264q0 161 -66.5 260.5t-176.5 99.5t-176 -99.5t-66 -260.5q0 -162 66.5 -263.5t175.5 -101.5z" />
    <glyph glyph-name="one.tabosf" horiz-adv-x="993" 
d="M129 0v160h315v594l-241 -168l-90 131l436 305h74v-862h278v-160h-772z" />
    <glyph glyph-name="two.tabosf" horiz-adv-x="993" 
d="M123 0v104q0 65 20 120.5t48.5 93.5t77 74.5t87 58t97.5 49.5q137 66 186 110.5t49 102.5q0 67 -49 109t-129 42q-86 0 -144 -52t-81 -150l-158 40q30 153 134 238.5t251 85.5q155 0 256.5 -89t101.5 -224q0 -61 -22 -110.5t-68 -90.5t-99.5 -72.5t-135.5 -68.5
q-48 -22 -82 -41t-67 -44.5t-51 -57t-21 -68.5h557v-160h-758z" />
    <glyph glyph-name="three.tabosf" horiz-adv-x="993" 
d="M463 -309q-146 0 -261 78t-161 208l149 80q35 -98 106.5 -151t166.5 -53q110 0 178 67.5t68 175.5q0 113 -74 180.5t-199 67.5h-172v70l340 430h-479v160h752v-70l-349 -438q162 -22 262.5 -131t100.5 -265q0 -175 -122.5 -292t-305.5 -117z" />
    <glyph glyph-name="four.tabosf" horiz-adv-x="993" 
d="M260 150h354v495zM614 -309v309h-594v70l687 952h67v-872h158v-150h-158v-309h-160z" />
    <glyph glyph-name="five.tabosf" horiz-adv-x="993" 
d="M465 -309q-147 0 -262 77t-162 209l152 78q35 -96 106 -149t164 -53q115 0 185.5 75.5t70.5 194.5t-73.5 193.5t-192.5 74.5t-217 -82l-66 39l70 656h624v-160h-483l-33 -318q64 27 144 27q174 0 291.5 -123t117.5 -303q0 -186 -124.5 -311t-311.5 -125z" />
    <glyph glyph-name="six.tabosf" horiz-adv-x="993" 
d="M498 -23q-194 0 -315.5 129t-121.5 334q0 249 159.5 480.5t443.5 394.5l100 -127q-162 -99 -263.5 -196.5t-168.5 -221.5q70 61 203 61q175 0 291 -119t116 -298q0 -186 -127.5 -311.5t-316.5 -125.5zM502 139q114 0 186 76t72 193t-71.5 189.5t-186.5 72.5
q-114 0 -186 -72.5t-72 -189.5q0 -116 72.5 -192.5t185.5 -76.5z" />
    <glyph glyph-name="seven.tabosf" horiz-adv-x="993" 
d="M162 -309l526 1153h-606v160h840v-70l-570 -1243h-190z" />
    <glyph glyph-name="eight.tabosf" horiz-adv-x="993" 
d="M498 -23q-185 0 -311 113t-126 277q0 106 55.5 191.5t151.5 137.5q-68 44 -106.5 116.5t-38.5 156.5q0 146 108 245t265 99q159 0 266.5 -99.5t107.5 -246.5q0 -83 -38 -153.5t-105 -117.5q95 -51 150 -137t55 -192q0 -164 -126 -277t-308 -113zM498 135q110 0 182 66.5
t72 171.5q0 106 -72.5 172.5t-181.5 66.5q-111 0 -183.5 -67t-72.5 -172t72.5 -171.5t183.5 -66.5zM498 770q82 0 137 54.5t55 138.5t-55 138t-137 54q-84 0 -139.5 -54t-55.5 -138t55.5 -138.5t139.5 -54.5z" />
    <glyph glyph-name="nine.tabosf" horiz-adv-x="993" 
d="M330 -311l-101 127q163 99 264.5 196.5t168.5 220.5q-73 -61 -203 -61q-175 0 -291.5 119.5t-116.5 298.5q0 186 128 311t317 125q194 0 315 -129t121 -334q0 -249 -159 -480t-443 -394zM492 334q114 0 186 72.5t72 189.5q0 116 -72.5 192t-185.5 76q-114 0 -186.5 -75
t-72.5 -191q0 -118 71.5 -191t187.5 -73z" />
    <glyph glyph-name="foundryicon" horiz-adv-x="3149" 
d="M350 471v408h-145v63h364v-63h-147v-408h-72zM590 346q-15 0 -21 2v58q49 0 64 40l12 33l-129 326h76l90 -238l90 238h76l-158 -389q-33 -70 -100 -70zM897 346v459h49l19 -39q38 45 98 45q65 0 111.5 -51t46.5 -121q0 -73 -46.5 -123.5t-111.5 -50.5q-59 0 -96 43v-162
h-70zM1057 528q39 0 67.5 33t28.5 78q0 43 -29 74.5t-67 31.5q-40 0 -68 -31.5t-28 -74.5q0 -46 28 -78.5t68 -32.5zM1436 465q-66 0 -113 50.5t-47 123.5q0 71 47 121.5t113 50.5q64 0 109.5 -49.5t45.5 -120.5l-2 -31h-243q3 -34 29 -59t61 -25q55 0 75 35h72
q-18 -46 -58.5 -71t-88.5 -25zM1346 666h180q-1 34 -29 58t-61 24q-34 0 -60 -22.5t-30 -59.5zM1704 471v408h-145v63h364v-63h-147v-408h-72zM1944 346q-15 0 -21 2v58q49 0 64 40l12 33l-129 326h76l90 -238l90 238h76l-158 -389q-33 -70 -100 -70zM2251 346v459h49
l18 -39q38 45 99 45q64 0 110.5 -50.5t46.5 -121.5q0 -73 -46 -123.5t-111 -50.5q-60 0 -97 43v-162h-69zM2410 528q39 0 68 33t29 78q0 43 -29.5 74.5t-67.5 31.5q-40 0 -68 -31.5t-28 -74.5q0 -46 28 -78.5t68 -32.5zM2789 465q-66 0 -112.5 50.5t-46.5 123.5
q0 71 46.5 121.5t112.5 50.5q65 0 110.5 -50t45.5 -120l-2 -31h-244q3 -34 29 -59t61 -25q56 0 76 35h72q-18 -46 -59 -71t-89 -25zM2699 666h180q-1 34 -29 58t-61 24q-34 0 -60 -22.5t-30 -59.5z" />
    </font>
</defs>
</svg>
